<?xml version='1.0' encoding='UTF-8' standalone='no'?>
<svg height="176pt" xmlns:xlink="http://www.w3.org/1999/xlink" xmlns="http://www.w3.org/2000/svg" viewBox="0 0 176 176" width="176pt">
 <title>Figure 1</title>
 <desc>
Creator: GL2PS 1.4.2, (C) 1999-2020 C. Geuzaine
For: Octave
CreationDate: Wed Feb 14 10:31:08 2024
</desc>
 <defs/>
 <polygon fill="#ffffff" points="0,0 176,0 176,176 0,176"/>
 <g>
  <polygon fill="#ffffff" points="0,176 176,176 176,0 0,0" shape-rendering="crispEdges"/>
  <clipPath id="cp00176176">
   <polygon points="0,176 176,176 176,0 0,0"/>
  </clipPath>
  <g clip-path="url(#cp00176176)">
   <polygon fill="#ffffff" points="30.0732,153.906 167.173,153.906 167.173,30.0737 30.0732,30.0737" shape-rendering="crispEdges"/>
   <polyline fill="none" stroke-width="0.5" stroke-linejoin="miter" stroke="#262626" points="30.0732,153.906 30.0732,152.537" stroke-linecap="butt"/>
   <polyline fill="none" stroke-width="0.5" stroke-linejoin="miter" stroke="#262626" points="60.54,153.906 60.54,152.537" stroke-linecap="butt"/>
   <polyline fill="none" stroke-width="0.5" stroke-linejoin="miter" stroke="#262626" points="91.0068,153.906 91.0068,152.537" stroke-linecap="butt"/>
   <polyline fill="none" stroke-width="0.5" stroke-linejoin="miter" stroke="#262626" points="121.473,153.906 121.473,152.537" stroke-linecap="butt"/>
   <polyline fill="none" stroke-width="0.5" stroke-linejoin="miter" stroke="#262626" points="151.94,153.906 151.94,152.537" stroke-linecap="butt"/>
   <g font-style="normal" transform="translate(28.5735,163.399) rotate(-0,1.5,-5)" xml:space="preserve" font-size="6" font-weight="normal" font-family="'Liberation Serif'">
    <text fill="rgb(38,38,38)" y="-1" x="0 ">0</text>
   </g>
   <g font-style="normal" transform="translate(53.5401,163.399) rotate(-0,7,-5)" xml:space="preserve" font-size="6" font-weight="normal" font-family="'Liberation Serif'">
    <text fill="rgb(38,38,38)" y="-1" x="0 3 6 8 11 ">2e-05</text>
   </g>
   <g font-style="normal" transform="translate(84.0067,163.399) rotate(-0,7,-5)" xml:space="preserve" font-size="6" font-weight="normal" font-family="'Liberation Serif'">
    <text fill="rgb(38,38,38)" y="-1" x="0 3 6 8 11 ">4e-05</text>
   </g>
   <g font-style="normal" transform="translate(114.473,163.399) rotate(-0,7,-5)" xml:space="preserve" font-size="6" font-weight="normal" font-family="'Liberation Serif'">
    <text fill="rgb(38,38,38)" y="-1" x="0 3 6 8 11 ">6e-05</text>
   </g>
   <g font-style="normal" transform="translate(144.94,163.399) rotate(-0,7,-5)" xml:space="preserve" font-size="6" font-weight="normal" font-family="'Liberation Serif'">
    <text fill="rgb(38,38,38)" y="-1" x="0 3 6 8 11 ">8e-05</text>
   </g>
   <polyline fill="none" stroke-width="0.5" stroke-linejoin="miter" stroke="#262626" points="30.0732,153.906 31.4453,153.906" stroke-linecap="butt"/>
   <polyline fill="none" stroke-width="0.5" stroke-linejoin="miter" stroke="#262626" points="30.0732,123.666 31.4453,123.666" stroke-linecap="butt"/>
   <polyline fill="none" stroke-width="0.5" stroke-linejoin="miter" stroke="#262626" points="30.0732,93.4258 31.4453,93.4258" stroke-linecap="butt"/>
   <polyline fill="none" stroke-width="0.5" stroke-linejoin="miter" stroke="#262626" points="30.0732,63.186 31.4453,63.186" stroke-linecap="butt"/>
   <polyline fill="none" stroke-width="0.5" stroke-linejoin="miter" stroke="#262626" points="30.0732,32.9463 31.4453,32.9463" stroke-linecap="butt"/>
   <g font-style="normal" transform="translate(24.0713,156.406) rotate(-0,3,-2.5)" xml:space="preserve" font-size="6" font-weight="normal" font-family="'Liberation Serif'">
    <text fill="rgb(38,38,38)" y="-1" x="0 ">0</text>
   </g>
   <g font-style="normal" transform="translate(15.0713,126.166) rotate(-0,12,-2.5)" xml:space="preserve" font-size="6" font-weight="normal" font-family="'Liberation Serif'">
    <text fill="rgb(38,38,38)" y="-1" x="0 3 6 9 ">1000</text>
   </g>
   <g font-style="normal" transform="translate(15.0713,95.9259) rotate(-0,12,-2.5)" xml:space="preserve" font-size="6" font-weight="normal" font-family="'Liberation Serif'">
    <text fill="rgb(38,38,38)" y="-1" x="0 3 6 9 ">2000</text>
   </g>
   <g font-style="normal" transform="translate(15.0713,65.6861) rotate(-0,12,-2.5)" xml:space="preserve" font-size="6" font-weight="normal" font-family="'Liberation Serif'">
    <text fill="rgb(38,38,38)" y="-1" x="0 3 6 9 ">3000</text>
   </g>
   <g font-style="normal" transform="translate(15.0713,35.4463) rotate(-0,12,-2.5)" xml:space="preserve" font-size="6" font-weight="normal" font-family="'Liberation Serif'">
    <text fill="rgb(38,38,38)" y="-1" x="0 3 6 9 ">4000</text>
   </g>
   <polyline fill="none" stroke-width="0.5" stroke-linejoin="miter" stroke-dasharray="16,0" stroke="#262626" points="30.0732,153.906 167.173,153.906" stroke-linecap="square"/>
   <polyline fill="none" stroke-width="0.5" stroke-linejoin="miter" stroke-dasharray="16,0" stroke="#262626" points="30.0732,153.906 30.0732,30.0737" stroke-linecap="square"/>
   <polyline fill="none" stroke-width="0.5" stroke-linejoin="round" stroke-dasharray="9,7" stroke="#000000" points="30.0732,153.906 30.1968,153.723 30.3203,153.541 30.4434,153.359 30.5669,153.177 30.6899,152.994 30.8135,152.812 30.9365,152.63 31.0601,152.448 31.1831,152.265 31.3066,152.083 31.4297,151.901 31.5532,151.719 31.6768,151.536 31.7998,151.354 31.9233,151.172 32.0464,150.989 32.1699,150.807 32.293,150.625 32.4165,150.443 32.5396,150.26 32.6631,150.078 32.7861,149.896 32.9097,149.714 33.0327,149.531 33.1562,149.349 33.2798,149.167 33.4028,148.985 33.5264,148.802 33.6494,148.62 33.7729,148.438 33.896,148.256 34.0195,148.073 34.1426,147.891 34.2661,147.709 34.3892,147.527 34.5127,147.344 34.6357,147.162 34.7593,146.98 34.8828,146.798 35.0059,146.615 35.1294,146.433 35.2524,146.251 35.376,146.069 35.499,145.886 35.6226,145.704 35.7456,145.522 35.8691,145.34 35.9922,145.157 36.1157,144.975 36.2388,144.793 36.3623,144.611 36.4858,144.428 36.6089,144.246 36.7324,144.064 36.8555,143.882 36.979,143.699 37.1021,143.517 37.2256,143.335 37.3486,143.153 37.4722,142.97 37.5952,142.788 37.7188,142.606 37.8418,142.424 37.9653,142.241 38.0889,142.059 38.2119,141.877 38.3354,141.695 38.4585,141.512 38.582,141.33 38.7051,141.148 38.8286,140.966 38.9517,140.783 39.0752,140.601 39.1982,140.419 39.3218,140.237 39.4448,140.054 39.5684,139.872 39.6919,139.69 39.8149,139.508 39.9385,139.325 40.0615,139.143 40.1851,138.961 40.3081,138.779 40.4316,138.596 40.5547,138.414 40.6782,138.232 40.8013,138.05 40.9248,137.867 41.0479,137.685 41.1714,137.503 41.2949,137.32 41.418,137.138 41.5415,136.956 41.6646,136.774 41.7881,136.591 41.9111,136.409 42.0347,136.227 42.1577,136.045 42.2812,135.862 42.4043,135.68 42.5278,135.498 42.6509,135.316 42.7744,135.133 42.8979,134.951 43.021,134.769 43.1445,134.587 43.2676,134.404 43.3911,134.222 43.5142,134.04 43.6377,133.858 43.7607,133.675 43.8843,133.493 44.0073,133.311 44.1309,133.129 44.2539,132.946 44.3774,132.764 44.501,132.582 44.624,132.4 44.7476,132.217 44.8706,132.035 44.9941,131.853 45.1172,131.671 45.2407,131.488 45.3638,131.306 45.4873,131.124 45.6104,130.942 45.7339,130.759 45.8569,130.577 45.9805,130.395 46.1035,130.213 46.2271,130.03 46.3506,129.848 46.4736,129.666 46.5972,129.484 46.7202,129.301 46.8438,129.119 46.9668,128.937 47.0903,128.755 47.2134,128.572 47.3369,128.39 47.46,128.208 47.5835,128.026 47.707,127.843 47.8301,127.661 47.9536,127.479 48.0767,127.297 48.2002,127.114 48.3232,126.932 48.4468,126.75 48.5698,126.568 48.6934,126.385 48.8164,126.203 48.9399,126.021 49.063,125.839 49.1865,125.656 49.3096,125.474 49.4331,125.292 49.5566,125.11 49.6797,124.927 49.8032,124.745 49.9263,124.563 50.0498,124.381 50.1729,124.198 50.2964,124.016 50.4194,123.834 50.543,123.651 50.666,123.469 50.7896,123.287 50.9131,123.105 51.0361,122.922 51.1597,122.74 51.2827,122.558 51.4062,122.376 51.5293,122.193 51.6528,122.011 51.7759,121.829 51.8994,121.647 52.0225,121.464 52.146,121.282 52.269,121.1 52.3926,120.918 52.5156,120.735 52.6392,120.553 52.7627,120.371 52.8857,120.189 53.0093,120.006 53.1323,119.824 53.2559,119.642 53.3789,119.46 53.5024,119.277 53.6255,119.095 53.749,118.913 53.8721,118.731 53.9956,118.548 54.1191,118.366 54.2422,118.184 54.3657,118.002 54.4888,117.819 54.6123,117.637 54.7354,117.455 54.8589,117.273 54.9819,117.09 55.1055,116.908 55.2285,116.726 55.3521,116.544 55.4751,116.361 55.5986,116.179 55.7217,115.997 55.8452,115.815 55.9688,115.632 56.0918,115.45 56.2153,115.268 56.3384,115.086 56.4619,114.903 56.585,114.721 56.7085,114.539 56.8315,114.357 56.9551,114.174 57.0781,113.992 57.2017,113.81 57.3252,113.628 57.4482,113.445 57.5718,113.263 57.6948,113.081 57.8184,112.899 57.9414,112.716 58.0649,112.534 58.188,112.352 58.3115,112.17 58.4346,111.987 58.5581,111.805 58.6812,111.623 58.8047,111.441 58.9277,111.258 59.0513,111.076 59.1748,110.894 59.2979,110.712 59.4214,110.529 59.5444,110.347 59.668,110.165 59.791,109.983 59.9146,109.8 60.0376,109.618 60.1611,109.436 60.2842,109.253 60.4077,109.071 60.5312,108.889 60.6543,108.707 60.7778,108.524 60.9009,108.342 61.0244,108.16 61.1475,107.978 61.271,107.795 61.394,107.613 61.5176,107.431 61.6406,107.249 61.7642,107.066 61.8872,106.884 62.0107,106.702 62.1343,106.52 62.2573,106.337 62.3809,106.155 62.5039,105.973 62.6274,105.791 62.7505,105.608 62.874,105.426 62.9971,105.244 63.1206,105.062 63.2437,104.879 63.3672,104.697 63.4902,104.515 63.6138,104.333 63.7373,104.15 63.8604,103.968 63.9839,103.786 64.1069,103.604 64.2305,103.421 64.3535,103.239 64.4771,103.057 64.6001,102.875 64.7236,102.692 64.8467,102.51 64.9702,102.328 65.0933,102.146 65.2168,101.963 65.3403,101.781 65.4634,101.599 65.5869,101.417 65.71,101.234 65.8335,101.052 65.9565,100.87 66.0801,100.688 66.2031,100.505 66.3267,100.323 66.4497,100.141 66.5732,99.959 66.6963,99.7764 66.8198,99.5942 66.9434,99.4121 67.0664,99.23 67.1899,99.0474 67.313,98.8652 67.4365,98.6831 67.5596,98.501 67.6831,98.3184 67.8062,98.1362 67.9297,97.9541 68.0527,97.772 68.1763,97.5894 68.2993,97.4072 68.4229,97.2251 68.5459,97.043 68.6694,96.8604 68.793,96.6782 68.916,96.4961 69.0396,96.314 69.1626,96.1313 69.2861,95.9492 69.4092,95.7671 69.5327,95.5845 69.6558,95.4023 69.7793,95.2202 69.9023,95.0381 70.0259,94.8555 70.1494,94.6733 70.2725,94.4912 70.396,94.3091 70.519,94.1265 70.6426,93.9443 70.7656,93.7622 70.8892,93.5801 71.0122,93.3975 71.1357,93.2153 71.2588,93.0332 71.3823,92.8511 71.5054,92.6685 71.6289,92.4863 71.752,92.3042 71.8755,92.1221 71.999,91.9395 72.1221,91.7573 72.2456,91.5752 72.3687,91.3931 72.4922,91.2104 72.6152,91.0283 72.7388,90.8462 72.8618,90.6641 72.9854,90.4814 73.1084,90.2993 73.2319,90.1172 73.3555,89.9351 73.4785,89.7524 73.6021,89.5703 73.7251,89.3882 73.8486,89.2061 73.9717,89.0234 74.0952,88.8413 74.2183,88.6592 74.3418,88.4771 74.4648,88.2944 74.5884,88.1123 74.7114,87.9302 74.835,87.748 74.958,87.5654 75.0815,87.3833 75.2051,87.2012 75.3281,87.019 75.4517,86.8364 75.5747,86.6543 75.6982,86.4722 75.8213,86.29 75.9448,86.1074 76.0679,85.9253 76.1914,85.7432 76.3145,85.561 76.438,85.3784 76.5615,85.1963 76.6846,85.0142 76.8081,84.832 76.9312,84.6494 77.0547,84.4673 77.1777,84.2852 77.3013,84.103 77.4243,83.9204 77.5479,83.7383 77.6709,83.5562 77.7944,83.374 77.9175,83.1914 78.041,83.0093 78.1646,82.8271 78.2876,82.645 78.4111,82.4624 78.5342,82.2803 78.6577,82.0981 78.7808,81.916 78.9043,81.7334 79.0273,81.5513 79.1509,81.3691 79.2739,81.1865 79.3975,81.0044 79.5205,80.8223 79.644,80.6401 79.7671,80.4575 79.8906,80.2754 80.0142,80.0933 80.1372,79.9111 80.2607,79.7285 80.3838,79.5464 80.5073,79.3643 80.6304,79.1821 80.7539,78.9995 80.877,78.8174 81.0005,78.6353 81.1235,78.4531 81.2471,78.2705 81.3701,78.0884 81.4937,77.9062 81.6172,77.7241 81.7402,77.5415 81.8638,77.3594 81.9868,77.1772 82.1104,76.9951 82.2334,76.8125 82.3569,76.6304 82.48,76.4482 82.6035,76.2661 82.7266,76.0835 82.8501,75.9014 82.9736,75.7192 83.0967,75.5371 83.2202,75.3545 83.3433,75.1724 83.4668,74.9902 83.5898,74.8081 83.7134,74.6255 83.8364,74.4434 83.96,74.2612 84.083,74.0791 84.2065,73.8965 84.3296,73.7144 84.4531,73.5322 84.5767,73.3501 84.6997,73.1675 84.8232,72.9854 84.9463,72.8032 85.0698,72.6211 85.1929,72.4385 85.3164,72.2563 85.4395,72.0742 85.563,71.8921 85.686,71.7095 85.8096,71.5273 85.9326,71.3452 86.0562,71.1631 86.1792,70.9805 86.3027,70.7983 86.4263,70.6162 86.5493,70.4341 86.6729,70.2515 86.7959,70.0693 86.9194,69.8872 87.0425,69.7051 87.166,69.5225 87.2891,69.3403 87.4126,69.1582 87.5356,68.9761 87.6592,68.7935 87.7822,68.6113 87.9058,68.4292 88.0293,68.2471 88.1523,68.0645 88.2759,67.8823 88.3989,67.7002 88.5225,67.5176 88.6455,67.3354 88.769,67.1533 88.8921,66.9712 89.0156,66.7886 89.1387,66.6064 89.2622,66.4243 89.3857,66.2422 89.5088,66.0596 89.6323,65.8774 89.7554,65.6953 89.8789,65.5132 90.002,65.3306 90.1255,65.1484 90.2485,64.9663 90.3721,64.7842 90.4951,64.6016 90.6187,64.4194 90.7417,64.2373 90.8652,64.0552 90.9888,63.8726 91.1118,63.6904 91.2354,63.5083 91.3584,63.3262 91.4819,63.1436 91.605,62.9614 91.7285,62.7793 91.8516,62.5972 91.9751,62.4146 92.0981,62.2324 92.2217,62.0503 92.3447,61.8682 92.4683,61.6855 92.5913,61.5034 92.7148,61.3213 92.8384,61.1392 92.9614,60.9565 93.085,60.7744 93.208,60.5923 93.3315,60.4102 93.4546,60.2275 93.5781,60.0454 93.7012,59.8633 93.8247,59.6812 93.9478,59.4985 94.0713,59.3164 94.1948,59.1343 94.3179,58.9521 94.4414,58.7695 94.5645,58.5874 94.688,58.4053 94.811,58.2231 94.9346,58.0405 95.0576,57.8584 95.1812,57.6763 95.3042,57.4941 95.4277,57.3115 95.5508,57.1294 95.6743,56.9473 95.7974,56.7651 95.9209,56.5825 96.0444,56.4004 96.1675,56.2183 96.291,56.0361 96.4141,55.8535 96.5376,55.6714 96.6606,55.4893 96.7842,55.3071 96.9072,55.1245 97.0308,54.9424 97.1538,54.7603 97.2773,54.5781 97.4009,54.3955 97.5239,54.2134 97.6475,54.0312 97.7705,53.8486 97.894,53.6665 98.0171,53.4844 98.1406,53.3022 98.2637,53.1196 98.3872,52.9375 98.5103,52.7554 98.6338,52.5732 98.7568,52.3906 98.8804,52.2085 99.0034,52.0264 99.127,51.8442 99.2505,51.6616 99.3735,51.4795 99.4971,51.2974 99.6201,51.1152 99.7437,50.9326 99.8667,50.7505 99.9902,50.5684 100.113,50.3862 100.237,50.2036 100.36,50.0215 100.483,49.8394 100.607,49.6572 100.73,49.4746 100.854,49.2925 100.977,49.1104 101.1,48.9282 101.223,48.7456 101.347,48.5635 101.47,48.3813 101.593,48.1992 101.716,48.0166 101.84,47.8345 101.963,47.6523 102.086,47.4702 102.21,47.2876 102.333,47.1055 102.457,46.9233 102.58,46.7412 102.703,46.5586 102.826,46.3765 102.95,46.1943 103.073,46.0122 103.196,45.8296 103.319,45.6475 103.443,45.4653 103.566,45.2832 103.689,45.1006 103.813,44.9185 103.936,44.7363 104.06,44.5542 104.183,44.3716 104.306,44.1895 104.429,44.0073 104.553,43.8252 104.676,43.6426 104.799,43.4604 104.922,43.2783 105.046,43.0962 105.169,42.9136 105.292,42.7314 105.416,42.5493 105.539,42.3672 105.663,42.1846 105.786,42.0024 105.909,41.8203 106.032,41.6377 106.156,41.4556 106.279,41.2734 106.402,41.0913 106.525,40.9087 106.649,40.7266 106.772,40.5444 106.896,40.3623 107.019,40.1797 107.142,39.9976 107.266,39.8154 107.389,39.6333 107.512,39.4507 107.635,39.2686 107.759,39.0864 107.882,38.9043 108.005,38.7217 108.128,38.5396 108.252,38.3574 108.375,38.1753 108.499,37.9927 108.622,37.8105 108.745,37.6284 108.869,37.4463 108.992,37.2637 109.115,37.0815 109.238,36.8994 109.362,36.7173 109.485,36.5347 109.608,36.3525 109.731,36.1704 109.855,35.9883 109.978,35.8057 110.102,35.6235 110.225,35.4414 110.348,35.2593 110.472,35.0767 110.595,34.8945 110.718,34.7124 110.841,34.5303 110.965,34.3477 111.088,34.1655 111.211,33.9834 111.334,33.8013 111.458,33.6187 111.581,33.4365 111.705,33.2544 111.828,33.0723 111.951,32.8896 112.075,32.7075 112.198,32.5254 112.321,32.3433 112.444,32.1606 112.568,31.9785 112.691,31.7964 112.814,31.6143 112.938,31.4316 113.061,31.2495 113.184,31.0674 113.308,30.8853 113.431,30.7026 113.554,30.5205 113.678,30.3384 113.801,30.1562 113.924,29.9736 113.94,29.9497" stroke-linecap="butt"/>
   <polyline fill="none" stroke-width="0.5" stroke-linejoin="round" stroke-dasharray="8,3,2,3" stroke="#000000" points="29.9365,139.964 30.0103,139.898 30.1494,139.774 30.2886,139.65 30.4277,139.527 30.5669,139.403 30.7061,139.279 30.8452,139.155 30.9844,139.031 31.123,138.907 31.2622,138.783 31.4014,138.659 31.5405,138.535 31.6797,138.411 31.8188,138.287 31.958,138.163 32.0972,138.039 32.2363,137.915 32.375,137.791 32.5142,137.667 32.6533,137.543 32.7925,137.419 32.9316,137.295 33.0708,137.171 33.21,137.047 33.3491,136.923 33.4883,136.8 33.627,136.676 33.7661,136.552 33.9053,136.428 34.0444,136.304 34.1836,136.18 34.3228,136.056 34.4619,135.932 34.6011,135.808 34.7402,135.684 34.8794,135.56 35.0181,135.436 35.1572,135.312 35.2964,135.188 35.4355,135.064 35.5747,134.94 35.7139,134.816 35.853,134.692 35.9922,134.568 36.1313,134.444 36.27,134.32 36.4092,134.197 36.5483,134.073 36.6875,133.949 36.8267,133.825 36.9658,133.701 37.105,133.577 37.2441,133.453 37.3833,133.329 37.522,133.205 37.6611,133.081 37.8003,132.957 37.9395,132.833 38.0786,132.709 38.2178,132.585 38.3569,132.461 38.4961,132.337 38.6353,132.213 38.7744,132.089 38.9131,131.965 39.0522,131.841 39.1914,131.717 39.3306,131.593 39.4697,131.47 39.6089,131.346 39.748,131.222 39.8872,131.098 40.0264,130.974 40.165,130.85 40.3042,130.726 40.4434,130.602 40.5825,130.478 40.7217,130.354 40.8608,130.23 41,130.106 41.1392,129.982 41.2783,129.858 41.417,129.734 41.5562,129.61 41.6953,129.486 41.8345,129.362 41.9736,129.238 42.1128,129.114 42.252,128.99 42.3911,128.866 42.5303,128.743 42.6694,128.619 42.8081,128.495 42.9473,128.371 43.0864,128.247 43.2256,128.123 43.3647,127.999 43.5039,127.875 43.6431,127.751 43.7822,127.627 43.9214,127.503 44.0601,127.379 44.1992,127.255 44.3384,127.131 44.4775,127.007 44.6167,126.883 44.7559,126.759 44.895,126.635 45.0342,126.511 45.1733,126.387 45.3125,126.263 45.4512,126.139 45.5903,126.016 45.7295,125.892 45.8687,125.768 46.0078,125.644 46.147,125.52 46.2861,125.396 46.4253,125.271 46.5645,125.148 46.7031,125.024 46.8423,124.9 46.9814,124.776 47.1206,124.652 47.2598,124.528 47.3989,124.404 47.5381,124.28 47.6772,124.156 47.8164,124.032 47.9551,123.908 48.0942,123.784 48.2334,123.66 48.3726,123.536 48.5117,123.413 48.6509,123.289 48.79,123.165 48.9292,123.041 49.0684,122.917 49.207,122.792 49.3462,122.668 49.4854,122.544 49.6245,122.421 49.7637,122.297 49.9028,122.173 50.042,122.049 50.1812,121.925 50.3203,121.801 50.4595,121.677 50.5981,121.553 50.7373,121.429 50.8765,121.305 51.0156,121.181 51.1548,121.057 51.2939,120.933 51.4331,120.809 51.5723,120.686 51.7114,120.562 51.8501,120.438 51.9893,120.313 52.1284,120.189 52.2676,120.065 52.4067,119.941 52.5459,119.818 52.6851,119.694 52.8242,119.57 52.9634,119.446 53.1025,119.322 53.2412,119.198 53.3804,119.074 53.5195,118.95 53.6587,118.826 53.7979,118.702 53.937,118.578 54.0762,118.454 54.2153,118.33 54.3545,118.206 54.4932,118.082 54.6323,117.958 54.7715,117.834 54.9106,117.71 55.0498,117.586 55.189,117.462 55.3281,117.338 55.4673,117.214 55.6064,117.091 55.7451,116.967 55.8843,116.843 56.0234,116.719 56.1626,116.595 56.3018,116.471 56.4409,116.347 56.5801,116.223 56.7192,116.099 56.8584,115.975 56.9976,115.851 57.1362,115.727 57.2754,115.603 57.4146,115.479 57.5537,115.355 57.6929,115.231 57.832,115.107 57.9712,114.983 58.1104,114.859 58.2495,114.735 58.3882,114.611 58.5273,114.487 58.6665,114.364 58.8057,114.24 58.9448,114.116 59.084,113.992 59.2231,113.868 59.3623,113.744 59.5015,113.62 59.6401,113.496 59.7793,113.372 59.9185,113.248 60.0576,113.124 60.1968,113 60.3359,112.876 60.4751,112.752 60.6143,112.628 60.7534,112.504 60.8926,112.38 61.0312,112.256 61.1704,112.132 61.3096,112.008 61.4487,111.884 61.5879,111.76 61.7271,111.637 61.8662,111.513 62.0054,111.389 62.1445,111.265 62.2832,111.141 62.4224,111.017 62.5615,110.893 62.7007,110.769 62.8398,110.645 62.979,110.521 63.1182,110.397 63.2573,110.273 63.3965,110.149 63.5352,110.025 63.6743,109.901 63.8135,109.777 63.9526,109.653 64.0918,109.529 64.231,109.405 64.3701,109.281 64.5093,109.157 64.6484,109.034 64.7876,108.91 64.9263,108.786 65.0654,108.662 65.2046,108.538 65.3438,108.414 65.4829,108.29 65.6221,108.166 65.7612,108.042 65.9004,107.918 66.0396,107.794 66.1782,107.67 66.3174,107.546 66.4565,107.422 66.5957,107.298 66.7349,107.174 66.874,107.05 67.0132,106.926 67.1523,106.802 67.2915,106.678 67.4302,106.554 67.5693,106.43 67.7085,106.307 67.8477,106.183 67.9868,106.059 68.126,105.935 68.2651,105.811 68.4043,105.687 68.5435,105.562 68.6826,105.439 68.8213,105.315 68.9604,105.191 69.0996,105.067 69.2388,104.943 69.3779,104.819 69.5171,104.695 69.6562,104.571 69.7954,104.447 69.9346,104.323 70.0732,104.199 70.2124,104.075 70.3516,103.951 70.4907,103.827 70.6299,103.703 70.769,103.58 70.9082,103.456 71.0474,103.332 71.1865,103.208 71.3252,103.083 71.4644,102.959 71.6035,102.835 71.7427,102.712 71.8818,102.588 72.021,102.464 72.1602,102.34 72.2993,102.216 72.4385,102.092 72.5776,101.968 72.7163,101.844 72.8555,101.72 72.9946,101.596 73.1338,101.472 73.2729,101.348 73.4121,101.224 73.5513,101.1 73.6904,100.977 73.8296,100.853 73.9683,100.729 74.1074,100.604 74.2466,100.48 74.3857,100.356 74.5249,100.232 74.6641,100.108 74.8032,99.9849 74.9424,99.8608 75.0815,99.7368 75.2202,99.6128 75.3594,99.4888 75.4985,99.3647 75.6377,99.2407 75.7769,99.1172 75.916,98.9932 76.0552,98.8691 76.1943,98.7451 76.3335,98.6211 76.4727,98.4971 76.6113,98.373 76.7505,98.2495 76.8896,98.1255 77.0288,98.0015 77.168,97.8774 77.3071,97.7534 77.4463,97.6294 77.5854,97.5054 77.7246,97.3818 77.8633,97.2578 78.0024,97.1338 78.1416,97.0098 78.2808,96.8857 78.4199,96.7617 78.5591,96.6377 78.6982,96.5137 78.8374,96.3901 78.9766,96.2661 79.1152,96.1421 79.2544,96.0181 79.3936,95.894 79.5327,95.77 79.6719,95.646 79.811,95.5225 79.9502,95.3984 80.0894,95.2744 80.2285,95.1504 80.3677,95.0264 80.5063,94.9023 80.6455,94.7783 80.7847,94.6548 80.9238,94.5308 81.063,94.4067 81.2021,94.2827 81.3413,94.1587 81.4805,94.0347 81.6196,93.9106 81.7583,93.7871 81.8975,93.6631 82.0366,93.5391 82.1758,93.415 82.3149,93.291 82.4541,93.167 82.5933,93.043 82.7324,92.9189 82.8716,92.7954 83.0103,92.6714 83.1494,92.5474 83.2886,92.4233 83.4277,92.2993 83.5669,92.1753 83.7061,92.0513 83.8452,91.9277 83.9844,91.8037 84.1235,91.6797 84.2627,91.5557 84.4014,91.4316 84.5405,91.3076 84.6797,91.1836 84.8188,91.0601 84.958,90.936 85.0972,90.812 85.2363,90.688 85.3755,90.564 85.5146,90.4399 85.6533,90.3159 85.7925,90.1924 85.9316,90.0684 86.0708,89.9443 86.21,89.8203 86.3491,89.6963 86.4883,89.5723 86.6274,89.4482 86.7666,89.3242 86.9053,89.2007 87.0444,89.0767 87.1836,88.9526 87.3228,88.8286 87.4619,88.7046 87.6011,88.5806 87.7402,88.4565 87.8794,88.333 88.0186,88.209 88.1577,88.085 88.2964,87.9609 88.4355,87.8369 88.5747,87.7129 88.7139,87.5889 88.853,87.4653 88.9922,87.3413 89.1313,87.2173 89.2705,87.0933 89.4097,86.9692 89.5483,86.8452 89.6875,86.7212 89.8267,86.5977 89.9658,86.4736 90.105,86.3496 90.2441,86.2256 90.3833,86.1016 90.5225,85.9775 90.6616,85.8535 90.8003,85.73 90.9395,85.606 91.0786,85.4819 91.2178,85.3579 91.3569,85.2339 91.4961,85.1099 91.6353,84.9858 91.7744,84.8618 91.9136,84.7383 92.0527,84.6143 92.1914,84.4902 92.3306,84.3662 92.4697,84.2422 92.6089,84.1182 92.748,83.9941 92.8872,83.8706 93.0264,83.7466 93.1655,83.6226 93.3047,83.4985 93.4434,83.3745 93.5825,83.2505 93.7217,83.1265 93.8608,83.0029 94,82.8789 94.1392,82.7549 94.2783,82.6309 94.4175,82.5068 94.5566,82.3828 94.6953,82.2588 94.8345,82.1353 94.9736,82.0112 95.1128,81.8872 95.252,81.7632 95.3911,81.6392 95.5303,81.5151 95.6694,81.3911 95.8086,81.2671 95.9478,81.1436 96.0864,81.0195 96.2256,80.8955 96.3647,80.7715 96.5039,80.6475 96.6431,80.5234 96.7822,80.3994 96.9214,80.2759 97.0605,80.1519 97.1997,80.0278 97.3384,79.9038 97.4775,79.7798 97.6167,79.6558 97.7559,79.5317 97.895,79.4082 98.0342,79.2842 98.1733,79.1602 98.3125,79.0361 98.4517,78.9121 98.5903,78.7881 98.7295,78.6641 98.8687,78.5405 99.0078,78.4165 99.147,78.2925 99.2861,78.1685 99.4253,78.0444 99.5645,77.9204 99.7036,77.7964 99.8428,77.6724 99.9814,77.5488 100.121,77.4248 100.26,77.3008 100.399,77.1768 100.538,77.0527 100.677,76.9287 100.816,76.8047 100.956,76.6812 101.095,76.5571 101.233,76.4331 101.373,76.3091 101.512,76.1851 101.651,76.061 101.79,75.937 101.929,75.8135 102.068,75.6895 102.208,75.5654 102.347,75.4414 102.486,75.3174 102.625,75.1934 102.764,75.0693 102.903,74.9458 103.042,74.8218 103.181,74.6978 103.32,74.5737 103.459,74.4497 103.599,74.3257 103.738,74.2017 103.876,74.0776 104.016,73.9541 104.155,73.8301 104.294,73.7061 104.433,73.582 104.572,73.458 104.711,73.334 104.851,73.21 104.99,73.0864 105.128,72.9624 105.268,72.8384 105.407,72.7144 105.546,72.5903 105.685,72.4663 105.824,72.3423 105.963,72.2188 106.103,72.0947 106.242,71.9707 106.381,71.8467 106.52,71.7227 106.659,71.5986 106.798,71.4746 106.937,71.3511 107.076,71.2271 107.215,71.103 107.354,70.979 107.494,70.855 107.633,70.731 107.771,70.6069 107.911,70.4829 108.05,70.3594 108.189,70.2354 108.328,70.1113 108.467,69.9873 108.606,69.8633 108.746,69.7393 108.885,69.6152 109.023,69.4917 109.163,69.3677 109.302,69.2437 109.441,69.1196 109.58,68.9956 109.719,68.8716 109.858,68.7476 109.998,68.624 110.137,68.5 110.275,68.376 110.415,68.252 110.554,68.1279 110.693,68.0039 110.832,67.8799 110.971,67.7563 111.11,67.6323 111.25,67.5083 111.389,67.3843 111.528,67.2603 111.667,67.1362 111.806,67.0122 111.945,66.8882 112.084,66.7646 112.223,66.6406 112.362,66.5166 112.501,66.3926 112.641,66.2686 112.78,66.1445 112.918,66.0205 113.058,65.897 113.197,65.7729 113.336,65.6489 113.475,65.5249 113.614,65.4009 113.753,65.2769 113.893,65.1528 114.032,65.0293 114.171,64.9053 114.31,64.7812 114.449,64.6572 114.588,64.5332 114.727,64.4092 114.866,64.2852 115.005,64.1616 115.145,64.0376 115.284,63.9136 115.423,63.7896 115.562,63.6655 115.701,63.5415 115.84,63.4175 115.979,63.2935 116.118,63.1699 116.257,63.0459 116.396,62.9219 116.536,62.7979 116.675,62.6738 116.813,62.5498 116.953,62.4258 117.092,62.3022 117.231,62.1782 117.37,62.0542 117.509,61.9302 117.648,61.8062 117.788,61.6821 117.927,61.5581 118.065,61.4346 118.205,61.3105 118.344,61.1865 118.483,61.0625 118.622,60.9385 118.761,60.8145 118.9,60.6904 119.04,60.5669 119.179,60.4429 119.318,60.3188 119.457,60.1948 119.596,60.0708 119.735,59.9468 119.874,59.8228 120.013,59.6987 120.152,59.5752 120.292,59.4512 120.431,59.3271 120.57,59.2031 120.708,59.0791 120.848,58.9551 120.987,58.8311 121.126,58.7075 121.265,58.5835 121.404,58.4595 121.543,58.3354 121.683,58.2114 121.822,58.0874 121.961,57.9634 122.1,57.8398 122.239,57.7158 122.378,57.5918 122.517,57.4678 122.656,57.3438 122.795,57.2197 122.935,57.0957 123.074,56.9722 123.213,56.8481 123.352,56.7241 123.491,56.6001 123.63,56.4761 123.769,56.3521 123.908,56.228 124.047,56.1045 124.187,55.9805 124.326,55.8564 124.465,55.7324 124.604,55.6084 124.743,55.4844 124.882,55.3604 125.021,55.2363 125.16,55.1128 125.299,54.9888 125.438,54.8647 125.578,54.7407 125.717,54.6167 125.856,54.4927 125.995,54.3687 126.134,54.2451 126.273,54.1211 126.412,53.9971 126.551,53.873 126.69,53.749 126.83,53.625 126.969,53.501 127.108,53.3774 127.247,53.2534 127.386,53.1294 127.525,53.0054 127.664,52.8813 127.803,52.7573 127.942,52.6333 128.082,52.5098 128.221,52.3857 128.36,52.2617 128.499,52.1377 128.638,52.0137 128.777,51.8896 128.916,51.7656 129.055,51.6416 129.194,51.5181 129.333,51.394 129.473,51.27 129.612,51.146 129.751,51.022 129.89,50.8979 130.029,50.7739 130.168,50.6504 130.307,50.5264 130.446,50.4023 130.585,50.2783 130.725,50.1543 130.864,50.0303 131.003,49.9062 131.142,49.7827 131.281,49.6587 131.42,49.5347 131.559,49.4106 131.698,49.2866 131.837,49.1626 131.977,49.0386 132.116,48.915 132.255,48.791 132.394,48.667 132.533,48.543 132.672,48.4189 132.811,48.2949 132.95,48.1709 133.089,48.0469 133.229,47.9233 133.368,47.7993 133.507,47.6753 133.646,47.5513 133.785,47.4272 133.924,47.3032 134.063,47.1792 134.202,47.0557 134.341,46.9316 134.48,46.8076 134.62,46.6836 134.759,46.5596 134.898,46.4355 135.037,46.3115 135.176,46.188 135.315,46.064 135.454,45.9399 135.593,45.8159 135.732,45.6919 135.872,45.5679 136.011,45.4438 136.15,45.3203 136.289,45.1963 136.428,45.0723 136.567,44.9482 136.706,44.8242 136.845,44.7002 136.984,44.5762 137.124,44.4521 137.263,44.3286 137.402,44.2046 137.541,44.0806 137.68,43.9565 137.819,43.8325 137.958,43.7085 138.097,43.5845 138.236,43.4609 138.375,43.3369 138.515,43.2129 138.654,43.0889 138.793,42.9648 138.932,42.8408 139.071,42.7168 139.21,42.5933 139.349,42.4692 139.488,42.3452 139.627,42.2212 139.767,42.0972 139.906,41.9731 140.045,41.8491 140.184,41.7256 140.323,41.6016 140.462,41.4775 140.601,41.3535 140.74,41.2295 140.879,41.1055 141.019,40.9814 141.158,40.8574 141.297,40.7339 141.436,40.6099 141.575,40.4858 141.714,40.3618 141.853,40.2378 141.992,40.1138 142.131,39.9897 142.271,39.8662 142.41,39.7422 142.549,39.6182 142.688,39.4941 142.827,39.3701 142.966,39.2461 143.105,39.1221 143.244,38.9985 143.383,38.8745 143.522,38.7505 143.662,38.6265 143.801,38.5024 143.94,38.3784 144.079,38.2544 144.218,38.1309 144.357,38.0068 144.496,37.8828 144.635,37.7588 144.774,37.6348 144.914,37.5107 145.053,37.3867 145.192,37.2632 145.331,37.1392 145.47,37.0151 145.609,36.8911 145.748,36.7671 145.887,36.6431 146.026,36.519 146.166,36.395 146.305,36.2715 146.444,36.1475 146.583,36.0234 146.722,35.8994 146.861,35.7754 147,35.6514 147.139,35.5273 147.278,35.4038 147.417,35.2798 147.557,35.1558 147.696,35.0317 147.835,34.9077 147.974,34.7837 148.113,34.6597 148.252,34.5361 148.391,34.4121 148.53,34.2881 148.669,34.1641 148.809,34.04 148.948,33.916 149.087,33.792 149.226,33.668 149.365,33.5444 149.504,33.4204 149.643,33.2964 149.782,33.1724 149.921,33.0483 150.061,32.9243 150.2,32.8003 150.339,32.6768 150.478,32.5527 150.617,32.4287 150.756,32.3047 150.895,32.1807 151.034,32.0566 151.173,31.9326 151.312,31.8091 151.452,31.6851 151.591,31.561 151.73,31.437 151.869,31.313 152.008,31.189 152.147,31.0649 152.286,30.9414 152.425,30.8174 152.564,30.6934 152.704,30.5693 152.843,30.4453 152.982,30.3213 153.121,30.1973 153.26,30.0737" stroke-linecap="butt"/>
   <polyline fill="none" stroke-width="0.5" stroke-linejoin="miter" stroke="#000000" points="131.25,52.8682 137.25,58.8682" stroke-linecap="square"/>
   <polyline fill="none" stroke-width="0.5" stroke-linejoin="miter" stroke="#000000" points="131.25,58.8682 137.25,52.8682" stroke-linecap="square"/>
   <polyline fill="none" stroke-width="0.5" stroke-linejoin="miter" stroke="#000000" points="28.2793,149.605 34.2793,155.605" stroke-linecap="square"/>
   <polyline fill="none" stroke-width="0.5" stroke-linejoin="miter" stroke="#000000" points="28.2793,155.605 34.2793,149.605" stroke-linecap="square"/>
   <polyline fill="none" stroke-width="0.5" stroke-linejoin="miter" stroke="#000000" points="68.46,77.2715 74.46,83.2715" stroke-linecap="square"/>
   <polyline fill="none" stroke-width="0.5" stroke-linejoin="miter" stroke="#000000" points="68.46,83.2715 74.46,77.2715" stroke-linecap="square"/>
   <polyline fill="none" stroke-width="0.5" stroke-linejoin="round" stroke="#000000" points="30.3164,153.906 30.4492,153.782 30.5815,153.658 30.7139,153.534 30.8462,153.41 30.9785,153.286 31.1108,153.162 31.2432,153.038 31.3755,152.914 31.5078,152.79 31.6401,152.666 31.7725,152.542 31.9048,152.418 32.0371,152.294 32.1694,152.17 32.3018,152.046 32.4341,151.922 32.5664,151.798 32.6987,151.674 32.8311,151.55 32.9634,151.426 33.0957,151.302 33.228,151.179 33.3604,151.055 33.4927,150.931 33.625,150.807 33.7578,150.683 33.8901,150.559 34.0225,150.435 34.1548,150.311 34.2871,150.187 34.4194,150.063 34.5518,149.939 34.6841,149.815 34.8164,149.691 34.9487,149.567 35.0811,149.443 35.2134,149.319 35.3457,149.195 35.478,149.071 35.6104,148.947 35.7427,148.823 35.875,148.699 36.0073,148.575 36.1396,148.452 36.272,148.328 36.4043,148.204 36.5366,148.08 36.6689,147.956 36.8013,147.832 36.9336,147.708 37.0664,147.584 37.1987,147.46 37.3311,147.336 37.4634,147.212 37.5957,147.088 37.728,146.964 37.8604,146.84 37.9927,146.716 38.125,146.592 38.2573,146.468 38.3896,146.344 38.522,146.22 38.6543,146.096 38.7866,145.972 38.9189,145.849 39.0513,145.725 39.1836,145.601 39.3159,145.477 39.4482,145.353 39.5806,145.229 39.7129,145.104 39.8452,144.98 39.9775,144.857 40.1099,144.733 40.2422,144.609 40.3745,144.485 40.5073,144.361 40.6396,144.237 40.772,144.113 40.9043,143.989 41.0366,143.865 41.1689,143.741 41.3013,143.617 41.4336,143.493 41.5659,143.369 41.6982,143.245 41.8306,143.122 41.9629,142.998 42.0952,142.874 42.2275,142.75 42.3599,142.625 42.4922,142.501 42.6245,142.377 42.7568,142.254 42.8892,142.13 43.0215,142.006 43.1538,141.882 43.2861,141.758 43.4185,141.634 43.5508,141.51 43.6831,141.386 43.8159,141.262 43.9482,141.138 44.0806,141.014 44.2129,140.89 44.3452,140.766 44.4775,140.642 44.6099,140.518 44.7422,140.395 44.8745,140.271 45.0068,140.146 45.1392,140.022 45.2715,139.898 45.4038,139.774 45.5361,139.65 45.6685,139.527 45.8008,139.403 45.9331,139.279 46.0654,139.155 46.1978,139.031 46.3301,138.907 46.4624,138.783 46.5947,138.659 46.7271,138.535 46.8594,138.411 46.9917,138.287 47.1245,138.163 47.2568,138.039 47.3892,137.915 47.5215,137.791 47.6538,137.667 47.7861,137.543 47.9185,137.419 48.0508,137.295 48.1831,137.171 48.3154,137.047 48.4478,136.923 48.5801,136.8 48.7124,136.676 48.8447,136.552 48.9771,136.428 49.1094,136.304 49.2417,136.18 49.374,136.056 49.5063,135.932 49.6387,135.808 49.771,135.684 49.9033,135.56 50.0356,135.436 50.168,135.312 50.3003,135.188 50.4331,135.064 50.5654,134.94 50.6978,134.816 50.8301,134.692 50.9624,134.568 51.0947,134.444 51.2271,134.32 51.3594,134.197 51.4917,134.073 51.624,133.949 51.7563,133.825 51.8887,133.701 52.021,133.577 52.1533,133.453 52.2856,133.329 52.418,133.205 52.5503,133.081 52.6826,132.957 52.8149,132.833 52.9473,132.709 53.0796,132.585 53.2119,132.461 53.3442,132.337 53.4766,132.213 53.6094,132.089 53.7417,131.965 53.874,131.841 54.0063,131.717 54.1387,131.593 54.271,131.47 54.4033,131.346 54.5356,131.222 54.668,131.098 54.8003,130.974 54.9326,130.85 55.0649,130.726 55.1973,130.602 55.3296,130.478 55.4619,130.354 55.5942,130.23 55.7266,130.106 55.8589,129.982 55.9912,129.858 56.1235,129.734 56.2559,129.61 56.3882,129.486 56.5205,129.362 56.6528,129.238 56.7852,129.114 56.9175,128.99 57.0503,128.866 57.1826,128.743 57.3149,128.619 57.4473,128.495 57.5796,128.371 57.7119,128.247 57.8442,128.123 57.9766,127.999 58.1089,127.875 58.2412,127.751 58.3735,127.627 58.5059,127.503 58.6382,127.379 58.7705,127.255 58.9028,127.131 59.0352,127.007 59.1675,126.883 59.2998,126.759 59.4321,126.635 59.5645,126.511 59.6968,126.387 59.8291,126.263 59.9614,126.139 60.0938,126.016 60.2261,125.892 60.3589,125.768 60.4912,125.644 60.6235,125.52 60.7559,125.396 60.8882,125.271 61.0205,125.148 61.1528,125.024 61.2852,124.9 61.4175,124.776 61.5498,124.652 61.6821,124.528 61.8145,124.404 61.9468,124.28 62.0791,124.156 62.2114,124.032 62.3438,123.908 62.4761,123.784 62.6084,123.66 62.7407,123.536 62.873,123.413 63.0054,123.289 63.1377,123.165 63.27,123.041 63.4023,122.917 63.5347,122.792 63.6675,122.668 63.7998,122.544 63.9321,122.421 64.0645,122.297 64.1968,122.173 64.3291,122.049 64.4614,121.925 64.5938,121.801 64.7261,121.677 64.8584,121.553 64.9907,121.429 65.123,121.305 65.2554,121.181 65.3877,121.057 65.52,120.933 65.6523,120.809 65.7847,120.686 65.917,120.562 66.0493,120.438 66.1816,120.313 66.314,120.189 66.4463,120.065 66.5786,119.941 66.7109,119.818 66.8433,119.694 66.9761,119.57 67.1084,119.446 67.2407,119.322 67.373,119.198 67.5054,119.074 67.6377,118.95 67.77,118.826 67.9023,118.702 68.0347,118.578 68.167,118.454 68.2993,118.33 68.4316,118.206 68.564,118.082 68.6963,117.958 68.8286,117.834 68.9609,117.71 69.0933,117.586 69.2256,117.462 69.3579,117.338 69.4902,117.214 69.6226,117.091 69.7549,116.967 69.8872,116.843 70.0195,116.719 70.1519,116.595 70.2847,116.471 70.417,116.347 70.5493,116.223 70.6816,116.099 70.814,115.975 70.9463,115.851 71.0786,115.727 71.2109,115.603 71.3433,115.479 71.4756,115.355 71.6079,115.231 71.7402,115.107 71.8726,114.983 72.0049,114.859 72.1372,114.735 72.2695,114.611 72.4019,114.487 72.5342,114.364 72.6665,114.24 72.7988,114.116 72.9312,113.992 73.0635,113.868 73.1958,113.744 73.3281,113.62 73.4604,113.496 73.5933,113.372 73.7256,113.248 73.8579,113.124 73.9902,113 74.1226,112.876 74.2549,112.752 74.3872,112.628 74.5195,112.504 74.6519,112.38 74.7842,112.256 74.9165,112.132 75.0488,112.008 75.1812,111.884 75.3135,111.76 75.4458,111.637 75.5781,111.513 75.7104,111.389 75.8428,111.265 75.9751,111.141 76.1074,111.017 76.2397,110.893 76.3721,110.769 76.5044,110.645 76.6367,110.521 76.769,110.397 76.9019,110.273 77.0342,110.149 77.1665,110.025 77.2988,109.901 77.4312,109.777 77.5635,109.653 77.6958,109.529 77.8281,109.405 77.9604,109.281 78.0928,109.157 78.2251,109.034 78.3574,108.91 78.4897,108.786 78.6221,108.662 78.7544,108.538 78.8867,108.414 79.019,108.29 79.1514,108.166 79.2837,108.042 79.416,107.918 79.5483,107.794 79.6807,107.67 79.813,107.546 79.9453,107.422 80.0776,107.298 80.2104,107.174 80.3428,107.05 80.4751,106.926 80.6074,106.802 80.7397,106.678 80.8721,106.554 81.0044,106.43 81.1367,106.307 81.269,106.183 81.4014,106.059 81.5337,105.935 81.666,105.811 81.7983,105.687 81.9307,105.562 82.063,105.439 82.1953,105.315 82.3276,105.191 82.46,105.067 82.5923,104.943 82.7246,104.819 82.8569,104.695 82.9893,104.571 83.1216,104.447 83.2539,104.323 83.3862,104.199 83.519,104.075 83.6514,103.951 83.7837,103.827 83.916,103.703 84.0483,103.58 84.1807,103.456 84.313,103.332 84.4453,103.208 84.5776,103.083 84.71,102.959 84.8423,102.835 84.9746,102.712 85.1069,102.588 85.2393,102.464 85.3716,102.34 85.5039,102.216 85.6362,102.092 85.7686,101.968 85.9009,101.844 86.0332,101.72 86.1655,101.596 86.2979,101.472 86.4302,101.348 86.5625,101.224 86.6948,101.1 86.8276,100.977 86.96,100.853 87.0923,100.729 87.2246,100.604 87.3569,100.48 87.4893,100.356 87.6216,100.232 87.7539,100.108 87.8862,99.9849 88.0186,99.8608 88.1509,99.7368 88.2832,99.6128 88.4155,99.4888 88.5479,99.3647 88.6802,99.2407 88.8125,99.1172 88.9448,98.9932 89.0771,98.8691 89.2095,98.7451 89.3418,98.6211 89.4741,98.4971 89.6064,98.373 89.7388,98.2495 89.8711,98.1255 90.0034,98.0015 90.1362,97.8774 90.2686,97.7534 90.4009,97.6294 90.5332,97.5054 90.6655,97.3818 90.7979,97.2578 90.9302,97.1338 91.0625,97.0098 91.1948,96.8857 91.3271,96.7617 91.4595,96.6377 91.5918,96.5137 91.7241,96.3901 91.8564,96.2661 91.9888,96.1421 92.1211,96.0181 92.2534,95.894 92.3857,95.77 92.5181,95.646 92.6504,95.5225 92.7827,95.3984 92.915,95.2744 93.0474,95.1504 93.1797,95.0264 93.312,94.9023 93.4448,94.7783 93.5771,94.6548 93.7095,94.5308 93.8418,94.4067 93.9741,94.2827 94.1064,94.1587 94.2388,94.0347 94.3711,93.9106 94.5034,93.7871 94.6357,93.6631 94.7681,93.5391 94.9004,93.415 95.0327,93.291 95.165,93.167 95.2974,93.043 95.4297,92.9189 95.562,92.7954 95.6943,92.6714 95.8267,92.5474 95.959,92.4233 96.0913,92.2993 96.2236,92.1753 96.356,92.0513 96.4883,91.9277 96.6206,91.8037 96.7534,91.6797 96.8857,91.5557 97.0181,91.4316 97.1504,91.3076 97.2827,91.1836 97.415,91.0601 97.5474,90.936 97.6797,90.812 97.812,90.688 97.9443,90.564 98.0767,90.4399 98.209,90.3159 98.3413,90.1924 98.4736,90.0684 98.606,89.9443 98.7383,89.8203 98.8706,89.6963 99.0029,89.5723 99.1353,89.4482 99.2676,89.3242 99.3999,89.2007 99.5322,89.0767 99.6646,88.9526 99.7969,88.8286 99.9292,88.7046 100.062,88.5806 100.194,88.4565 100.327,88.333 100.459,88.209 100.591,88.085 100.724,87.9609 100.856,87.8369 100.988,87.7129 101.121,87.5889 101.253,87.4653 101.385,87.3413 101.518,87.2173 101.65,87.0933 101.782,86.9692 101.915,86.8452 102.047,86.7212 102.179,86.5977 102.312,86.4736 102.444,86.3496 102.576,86.2256 102.708,86.1016 102.841,85.9775 102.973,85.8535 103.105,85.73 103.238,85.606 103.371,85.4819 103.503,85.3579 103.635,85.2339 103.768,85.1099 103.9,84.9858 104.032,84.8618 104.165,84.7383 104.297,84.6143 104.429,84.4902 104.562,84.3662 104.694,84.2422 104.826,84.1182 104.958,83.9941 105.091,83.8706 105.223,83.7466 105.355,83.6226 105.488,83.4985 105.62,83.3745 105.752,83.2505 105.885,83.1265 106.017,83.0029 106.149,82.8789 106.282,82.7549 106.414,82.6309 106.546,82.5068 106.679,82.3828 106.812,82.2588 106.944,82.1353 107.076,82.0112 107.208,81.8872 107.341,81.7632 107.473,81.6392 107.605,81.5151 107.738,81.3911 107.87,81.2671 108.002,81.1436 108.135,81.0195 108.267,80.8955 108.399,80.7715 108.532,80.6475 108.664,80.5234 108.796,80.3994 108.929,80.2759 109.061,80.1519 109.193,80.0278 109.326,79.9038 109.458,79.7798 109.59,79.6558 109.723,79.5317 109.855,79.4082 109.988,79.2842 110.12,79.1602 110.252,79.0361 110.385,78.9121 110.517,78.7881 110.649,78.6641 110.782,78.5405 110.914,78.4165 111.046,78.2925 111.179,78.1685 111.311,78.0444 111.443,77.9204 111.576,77.7964 111.708,77.6724 111.84,77.5488 111.973,77.4248 112.105,77.3008 112.237,77.1768 112.37,77.0527 112.502,76.9287 112.634,76.8047 112.767,76.6812 112.899,76.5571 113.031,76.4331 113.164,76.3091 113.296,76.1851 113.429,76.061 113.561,75.937 113.693,75.8135 113.826,75.6895 113.958,75.5654 114.09,75.4414 114.223,75.3174 114.355,75.1934 114.487,75.0693 114.62,74.9458 114.752,74.8218 114.884,74.6978 115.017,74.5737 115.149,74.4497 115.281,74.3257 115.414,74.2017 115.546,74.0776 115.678,73.9541 115.811,73.8301 115.943,73.7061 116.075,73.582 116.208,73.458 116.34,73.334 116.472,73.21 116.605,73.0864 116.737,72.9624 116.87,72.8384 117.002,72.7144 117.134,72.5903 117.267,72.4663 117.399,72.3423 117.531,72.2188 117.664,72.0947 117.796,71.9707 117.928,71.8467 118.061,71.7227 118.193,71.5986 118.325,71.4746 118.458,71.3511 118.59,71.2271 118.722,71.103 118.854,70.979 118.987,70.855 119.119,70.731 119.251,70.6069 119.384,70.4829 119.516,70.3594 119.648,70.2354 119.781,70.1113 119.914,69.9873 120.046,69.8633 120.178,69.7393 120.311,69.6152 120.443,69.4917 120.575,69.3677 120.708,69.2437 120.84,69.1196 120.972,68.9956 121.104,68.8716 121.237,68.7476 121.369,68.624 121.501,68.5 121.634,68.376 121.766,68.252 121.898,68.1279 122.031,68.0039 122.163,67.8799 122.295,67.7563 122.428,67.6323 122.56,67.5083 122.692,67.3843 122.825,67.2603 122.957,67.1362 123.089,67.0122 123.222,66.8882 123.354,66.7646 123.487,66.6406 123.619,66.5166 123.751,66.3926 123.884,66.2686 124.016,66.1445 124.148,66.0205 124.281,65.897 124.413,65.7729 124.545,65.6489 124.678,65.5249 124.81,65.4009 124.942,65.2769 125.075,65.1528 125.207,65.0293 125.339,64.9053 125.472,64.7812 125.604,64.6572 125.736,64.5332 125.869,64.4092 126.001,64.2852 126.133,64.1616 126.266,64.0376 126.398,63.9136 126.531,63.7896 126.663,63.6655 126.795,63.5415 126.928,63.4175 127.06,63.2935 127.192,63.1699 127.325,63.0459 127.457,62.9219 127.589,62.7979 127.722,62.6738 127.854,62.5498 127.986,62.4258 128.119,62.3022 128.251,62.1782 128.383,62.0542 128.516,61.9302 128.648,61.8062 128.78,61.6821 128.913,61.5581 129.045,61.4346 129.177,61.3105 129.31,61.1865 129.442,61.0625 129.574,60.9385 129.707,60.8145 129.839,60.6904 129.972,60.5669 130.104,60.4429 130.236,60.3188 130.369,60.1948 130.501,60.0708 130.633,59.9468 130.766,59.8228 130.898,59.6987 131.03,59.5752 131.163,59.4512 131.295,59.3271 131.427,59.2031 131.56,59.0791 131.692,58.9551 131.824,58.8311 131.957,58.7075 132.089,58.5835 132.221,58.4595 132.354,58.3354 132.486,58.2114 132.618,58.0874 132.75,57.9634 132.883,57.8398 133.015,57.7158 133.148,57.5918 133.28,57.4678 133.413,57.3438 133.545,57.2197 133.677,57.0957 133.81,56.9722 133.942,56.8481 134.074,56.7241 134.207,56.6001 134.339,56.4761 134.471,56.3521 134.604,56.228 134.736,56.1045 134.868,55.9805 135,55.8564 135.133,55.7324 135.265,55.6084 135.397,55.4844 135.53,55.3604 135.662,55.2363 135.794,55.1128 135.927,54.9888 136.059,54.8647 136.191,54.7407 136.324,54.6167 136.457,54.4927 136.589,54.3687 136.721,54.2451 136.854,54.1211 136.986,53.9971 137.118,53.873 137.25,53.749 137.383,53.625 137.515,53.501 137.647,53.3774 137.78,53.2534 137.912,53.1294 138.044,53.0054 138.177,52.8813 138.309,52.7573 138.441,52.6333 138.574,52.5098 138.706,52.3857 138.838,52.2617 138.971,52.1377 139.103,52.0137 139.235,51.8896 139.368,51.7656 139.5,51.6416 139.632,51.5181 139.765,51.394 139.897,51.27 140.03,51.146 140.162,51.022 140.294,50.8979 140.427,50.7739 140.559,50.6504 140.691,50.5264 140.824,50.4023 140.956,50.2783 141.088,50.1543 141.221,50.0303 141.353,49.9062 141.485,49.7827 141.618,49.6587 141.75,49.5347 141.882,49.4106 142.015,49.2866 142.147,49.1626 142.279,49.0386 142.412,48.915 142.544,48.791 142.676,48.667 142.809,48.543 142.941,48.4189 143.073,48.2949 143.206,48.1709 143.338,48.0469 143.471,47.9233 143.603,47.7993 143.735,47.6753 143.868,47.5513 144,47.4272 144.132,47.3032 144.265,47.1792 144.397,47.0557 144.529,46.9316 144.662,46.8076 144.794,46.6836 144.926,46.5596 145.059,46.4355 145.191,46.3115 145.323,46.188 145.456,46.064 145.588,45.9399 145.72,45.8159 145.853,45.6919 145.985,45.5679 146.117,45.4438 146.25,45.3203 146.382,45.1963 146.515,45.0723 146.647,44.9482 146.779,44.8242 146.912,44.7002 147.044,44.5762 147.176,44.4521 147.309,44.3286 147.441,44.2046 147.573,44.0806 147.706,43.9565 147.838,43.8325 147.97,43.7085 148.103,43.5845 148.235,43.4609 148.367,43.3369 148.5,43.2129 148.632,43.0889 148.764,42.9648 148.896,42.8408 149.029,42.7168 149.161,42.5933 149.293,42.4692 149.426,42.3452 149.558,42.2212 149.69,42.0972 149.823,41.9731 149.956,41.8491 150.088,41.7256 150.22,41.6016 150.353,41.4775 150.485,41.3535 150.617,41.2295 150.75,41.1055 150.882,40.9814 151.014,40.8574 151.146,40.7339 151.279,40.6099 151.411,40.4858 151.543,40.3618 151.676,40.2378 151.808,40.1138 151.94,39.9897 152.073,39.8662 152.205,39.7422 152.337,39.6182 152.47,39.4941 152.602,39.3701 152.734,39.2461 152.867,39.1221 152.999,38.9985 153.132,38.8745 153.264,38.7505 153.396,38.6265 153.529,38.5024 153.661,38.3784 153.793,38.2544 153.926,38.1309 154.058,38.0068 154.19,37.8828 154.323,37.7588 154.455,37.6348 154.587,37.5107 154.72,37.3867 154.852,37.2632 154.984,37.1392 155.117,37.0151 155.249,36.8911 155.381,36.7671 155.514,36.6431 155.646,36.519 155.778,36.395 155.911,36.2715 156.043,36.1475 156.175,36.0234 156.308,35.8994 156.44,35.7754 156.573,35.6514 156.705,35.5273 156.837,35.4038 156.97,35.2798 157.102,35.1558 157.234,35.0317 157.367,34.9077 157.499,34.7837 157.631,34.6597 157.764,34.5361 157.896,34.4121 158.028,34.2881 158.161,34.1641 158.293,34.04 158.425,33.916 158.558,33.792 158.69,33.668 158.822,33.5444 158.955,33.4204 159.087,33.2964 159.219,33.1724 159.352,33.0483 159.484,32.9243 159.616,32.8003 159.749,32.6768 159.881,32.5527 160.014,32.4287 160.146,32.3047 160.278,32.1807 160.411,32.0566 160.543,31.9326 160.675,31.8091 160.808,31.6851 160.94,31.561 161.072,31.437 161.205,31.313 161.337,31.189 161.469,31.0649 161.602,30.9414 161.734,30.8174 161.866,30.6934 161.999,30.5693 162.131,30.4453 162.263,30.3213 162.396,30.1973 162.528,30.0737" stroke-linecap="butt"/>
   <polyline fill="none" stroke-width="0.5" stroke-linejoin="miter" stroke="#000000" points="61.2852,122.033 67.2852,122.033" stroke-linecap="square"/>
   <polyline fill="none" stroke-width="0.5" stroke-linejoin="miter" stroke="#000000" points="64.2852,119.033 64.2852,125.033" stroke-linecap="square"/>
   <polyline fill="none" stroke-width="0.5" stroke-linejoin="miter" stroke="#000000" points="62.1636,119.912 66.4062,124.154" stroke-linecap="square"/>
   <polyline fill="none" stroke-width="0.5" stroke-linejoin="miter" stroke="#000000" points="62.1636,124.154 66.4062,119.912" stroke-linecap="square"/>
   <polyline fill="none" stroke-width="0.5" stroke-linejoin="miter" stroke="#000000" points="28.2793,152.575 34.2793,152.575" stroke-linecap="square"/>
   <polyline fill="none" stroke-width="0.5" stroke-linejoin="miter" stroke="#000000" points="31.2793,149.575 31.2793,155.575" stroke-linecap="square"/>
   <polyline fill="none" stroke-width="0.5" stroke-linejoin="miter" stroke="#000000" points="29.1582,150.454 33.4004,154.696" stroke-linecap="square"/>
   <polyline fill="none" stroke-width="0.5" stroke-linejoin="miter" stroke="#000000" points="29.1582,154.696 33.4004,150.454" stroke-linecap="square"/>
   <polyline fill="none" stroke-width="0.5" stroke-linejoin="miter" stroke="#000000" points="32.1621,149.854 38.1621,149.854" stroke-linecap="square"/>
   <polyline fill="none" stroke-width="0.5" stroke-linejoin="miter" stroke="#000000" points="35.1621,146.854 35.1621,152.854" stroke-linecap="square"/>
   <polyline fill="none" stroke-width="0.5" stroke-linejoin="miter" stroke="#000000" points="33.0405,147.732 37.2832,151.975" stroke-linecap="square"/>
   <polyline fill="none" stroke-width="0.5" stroke-linejoin="miter" stroke="#000000" points="33.0405,151.975 37.2832,147.732" stroke-linecap="square"/>
   <polyline fill="none" stroke-width="0.3" stroke-linejoin="round" stroke-dasharray="1,3,1,3,1,3,1,3" stroke="#000000" points="134.25,153.906 134.25,30.0737" stroke-linecap="butt"/>
   <g font-style="normal" transform="translate(127.25,39.9463) rotate(-90,7,-7)" xml:space="preserve" font-size="8" font-weight="normal" font-family="'Liberation Serif'">
    <text fill="rgb(0,0,0)" y="-0" x="0 3 ">f2</text>
   </g>
   <polyline fill="none" stroke-width="0.3" stroke-linejoin="round" stroke-dasharray="1,3,1,3,1,3,1,3" stroke="#000000" points="31.2793,153.906 31.2793,30.0737" stroke-linecap="butt"/>
   <g font-style="normal" transform="translate(24.2793,39.9463) rotate(-90,7,-7)" xml:space="preserve" font-size="8" font-weight="normal" font-family="'Liberation Serif'">
    <text fill="rgb(0,0,0)" y="-0" x="0 3 ">f3</text>
   </g>
   <polyline fill="none" stroke-width="0.3" stroke-linejoin="round" stroke-dasharray="1,3,1,3,1,3,1,3" stroke="#000000" points="71.46,153.906 71.46,30.0737" stroke-linecap="butt"/>
   <g font-style="normal" transform="translate(64.4598,39.9463) rotate(-90,7,-7)" xml:space="preserve" font-size="8" font-weight="normal" font-family="'Liberation Serif'">
    <text fill="rgb(0,0,0)" y="-0" x="0 3 ">f1</text>
   </g>
   <polyline fill="none" stroke-width="0.5" stroke-linejoin="round" stroke-dasharray="1,3,1,3,1,3,1,3" stroke="#000000" points="64.2852,153.906 64.2852,30.0737" stroke-linecap="butt"/>
   <g font-style="normal" transform="translate(56.2851,52.0422) rotate(-90,8,-7)" xml:space="preserve" font-size="8" font-weight="normal" font-family="'Liberation Serif'">
    <text fill="rgb(0,0,0)" y="-0" x="0 4 ">a2</text>
   </g>
   <polyline fill="none" stroke-width="0.5" stroke-linejoin="round" stroke-dasharray="1,3,1,3,1,3,1,3" stroke="#000000" points="31.2793,153.906 31.2793,30.0737" stroke-linecap="butt"/>
   <g font-style="normal" transform="translate(23.2793,52.0422) rotate(-90,8,-7)" xml:space="preserve" font-size="8" font-weight="normal" font-family="'Liberation Serif'">
    <text fill="rgb(0,0,0)" y="-0" x="0 4 ">a3</text>
   </g>
   <polyline fill="none" stroke-width="0.5" stroke-linejoin="round" stroke-dasharray="1,3,1,3,1,3,1,3" stroke="#000000" points="35.1621,153.906 35.1621,30.0737" stroke-linecap="butt"/>
   <g font-style="normal" transform="translate(27.162,52.0422) rotate(-90,8,-7)" xml:space="preserve" font-size="8" font-weight="normal" font-family="'Liberation Serif'">
    <text fill="rgb(0,0,0)" y="-0" x="0 4 ">a1</text>
   </g>
   <g font-style="normal" transform="translate(83.3901,148.334) rotate(-0,-0,-3.5)" xml:space="preserve" font-size="8" font-weight="normal" font-family="'Liberation Serif'">
    <text fill="rgb(0,0,0)" y="-0" x="0 6 11 17 21 25 28 34 40 43 50 56 61 65 69 72 76 80 ">UCASS-AA-MAZ04-003</text>
   </g>
  </g>
  <clipPath id="cp00176176">
   <polygon points="0,176 176,176 176,0 0,0"/>
  </clipPath>
  <g clip-path="url(#cp00176176)">
   <polyline fill="none" stroke-width="0.5" stroke-linejoin="miter" stroke="#262626" points="30.0732,30.0737 30.0732,31.4429" stroke-linecap="butt"/>
   <polyline fill="none" stroke-width="0.5" stroke-linejoin="miter" stroke="#262626" points="93.3501,30.0737 93.3501,31.4429" stroke-linecap="butt"/>
   <polyline fill="none" stroke-width="0.5" stroke-linejoin="miter" stroke="#262626" points="124.989,30.0737 124.989,31.4429" stroke-linecap="butt"/>
   <polyline fill="none" stroke-width="0.5" stroke-linejoin="miter" stroke="#262626" points="146.081,30.0737 146.081,31.4429" stroke-linecap="butt"/>
   <g font-style="normal" transform="translate(28.5735,25.5796) rotate(-0,1.5,0)" xml:space="preserve" font-size="6" font-weight="normal" font-family="'Liberation Serif'">
    <text fill="rgb(38,38,38)" y="-1" x="0 ">0</text>
   </g>
   <g font-style="normal" transform="translate(91.8503,25.5796) rotate(-0,1.5,0)" xml:space="preserve" font-size="6" font-weight="normal" font-family="'Liberation Serif'">
    <text fill="rgb(38,38,38)" y="-1" x="0 ">6</text>
   </g>
   <g font-style="normal" transform="translate(123.489,25.5796) rotate(-0,1.5,0)" xml:space="preserve" font-size="6" font-weight="normal" font-family="'Liberation Serif'">
    <text fill="rgb(38,38,38)" y="-1" x="0 ">9</text>
   </g>
   <g font-style="normal" transform="translate(143.081,25.5796) rotate(-0,3,0)" xml:space="preserve" font-size="6" font-weight="normal" font-family="'Liberation Serif'">
    <text fill="rgb(38,38,38)" y="-0" x="0 3 ">11</text>
   </g>
   <polyline fill="none" stroke-width="0.5" stroke-linejoin="miter" stroke-dasharray="16,0" stroke="#262626" points="167.173,30.0737 30.0732,30.0737" stroke-linecap="square"/>
   <polyline fill="none" stroke-width="0.5" stroke-linejoin="miter" stroke-dasharray="16,0" stroke="#262626" points="167.173,30.0737 167.173,153.906" stroke-linecap="square"/>
  </g>
 </g>
</svg>
