<?xml version='1.0' encoding='UTF-8' standalone='no'?>
<svg xmlns:xlink="http://www.w3.org/1999/xlink" height="200pt" viewBox="0 0 200 200" width="200pt" xmlns="http://www.w3.org/2000/svg">
 <title>Figure 10</title>
 <desc>
Creator: GL2PS 1.4.2, (C) 1999-2020 C. Geuzaine
For: Octave
CreationDate: Wed Feb 14 10:31:11 2024
</desc>
 <defs/>
 <polygon fill="#ffffff" points="0,0 200,0 200,200 0,200"/>
 <g>
  <polygon shape-rendering="crispEdges" fill="#ffffff" points="0,200 200,200 200,0 0,0"/>
  <clipPath id="cp00200200">
   <polygon points="0,200 200,200 200,0 0,0"/>
  </clipPath>
  <g clip-path="url(#cp00200200)"/>
  <clipPath id="cp00200200">
   <polygon points="0,200 200,200 200,0 0,0"/>
  </clipPath>
  <g clip-path="url(#cp00200200)">
   <polyline stroke-linecap="butt" stroke-width="1" fill="none" points="76.1025,30.9839 95.1807,30.9839" stroke="#000000" stroke-dasharray="9,7" stroke-linejoin="round"/>
   <g xml:space="preserve" transform="translate(98.9965,35.4837) rotate(-0,-0,-4.5)" font-family="'Liberation Serif'" font-size="8" font-weight="normal" font-style="normal">
    <text x="0 5 9 13 17 20 24 26 28 32 36 38 40 45 49 52 56 60 64 67 " fill="rgb(0,0,0)" y="-2">Theoretical Response</text>
   </g>
   <polyline stroke-linecap="butt" stroke-width="1" fill="none" points="76.1025,43.1152 95.1807,43.1152" stroke="#000000" stroke-dasharray="8,3,2,3" stroke-linejoin="round"/>
   <g xml:space="preserve" transform="translate(98.9965,46.615) rotate(-0,-0,-3.5)" font-family="'Liberation Serif'" font-size="8" font-weight="normal" font-style="normal">
    <text x="0 4 6 10 13 17 19 23 25 " fill="rgb(0,0,0)" y="-0">Fibre Fit</text>
   </g>
   <polyline stroke-linecap="square" stroke-width="0.5" fill="none" points="82.6416,51.562 88.6416,57.562" stroke="#000000" stroke-linejoin="miter"/>
   <polyline stroke-linecap="square" stroke-width="0.5" fill="none" points="82.6416,57.562 88.6416,51.562" stroke="#000000" stroke-linejoin="miter"/>
   <g xml:space="preserve" transform="translate(98.9965,58.062) rotate(-0,-0,-3.5)" font-family="'Liberation Serif'" font-size="8" font-weight="normal" font-style="normal">
    <text x="0 4 6 10 13 17 19 25 29 31 " fill="rgb(0,0,0)" y="-0">Fibre Data</text>
   </g>
   <polyline stroke-linecap="butt" stroke-width="1" fill="none" points="76.1025,66.0088 95.1807,66.0088" stroke="#000000" stroke-linejoin="round"/>
   <g xml:space="preserve" transform="translate(98.9965,69.5089) rotate(-0,-0,-3.5)" font-family="'Liberation Serif'" font-size="8" font-weight="normal" font-style="normal">
    <text x="0 6 10 13 17 20 24 26 28 32 34 " fill="rgb(0,0,0)" y="-0">Aerosol Fit</text>
   </g>
   <polyline stroke-linecap="square" stroke-width="0.5" fill="none" points="82.6416,77.4561 88.6416,77.4561" stroke="#000000" stroke-linejoin="miter"/>
   <polyline stroke-linecap="square" stroke-width="0.5" fill="none" points="85.6416,74.4561 85.6416,80.4561" stroke="#000000" stroke-linejoin="miter"/>
   <polyline stroke-linecap="square" stroke-width="0.5" fill="none" points="83.5205,75.3345 87.7632,79.5771" stroke="#000000" stroke-linejoin="miter"/>
   <polyline stroke-linecap="square" stroke-width="0.5" fill="none" points="83.5205,79.5771 87.7632,75.3345" stroke="#000000" stroke-linejoin="miter"/>
   <g xml:space="preserve" transform="translate(98.9965,80.9559) rotate(-0,-0,-3.5)" font-family="'Liberation Serif'" font-size="8" font-weight="normal" font-style="normal">
    <text x="0 6 10 13 17 20 24 26 28 34 38 40 " fill="rgb(0,0,0)" y="-0">Aerosol Data</text>
   </g>
  </g>
 </g>
</svg>
