<?xml version='1.0' encoding='UTF-8' standalone='no'?>
<svg xmlns:xlink="http://www.w3.org/1999/xlink" height="176pt" width="176pt" viewBox="0 0 176 176" xmlns="http://www.w3.org/2000/svg">
 <title>Figure 2</title>
 <desc>
Creator: GL2PS 1.4.2, (C) 1999-2020 C. Geuzaine
For: Octave
CreationDate: Wed Feb 14 10:31:08 2024
</desc>
 <defs/>
 <polygon fill="#ffffff" points="0,0 176,0 176,176 0,176"/>
 <g>
  <polygon shape-rendering="crispEdges" fill="#ffffff" points="0,176 176,176 176,0 0,0"/>
  <clipPath id="cp00176176">
   <polygon points="0,176 176,176 176,0 0,0"/>
  </clipPath>
  <g clip-path="url(#cp00176176)">
   <polygon shape-rendering="crispEdges" fill="#ffffff" points="30.0732,153.906 167.173,153.906 167.173,30.0737 30.0732,30.0737"/>
   <polyline stroke-linecap="butt" stroke-linejoin="miter" stroke-width="0.5" fill="none" points="30.0732,153.906 30.0732,152.537" stroke="#262626"/>
   <polyline stroke-linecap="butt" stroke-linejoin="miter" stroke-width="0.5" fill="none" points="60.54,153.906 60.54,152.537" stroke="#262626"/>
   <polyline stroke-linecap="butt" stroke-linejoin="miter" stroke-width="0.5" fill="none" points="91.0068,153.906 91.0068,152.537" stroke="#262626"/>
   <polyline stroke-linecap="butt" stroke-linejoin="miter" stroke-width="0.5" fill="none" points="121.473,153.906 121.473,152.537" stroke="#262626"/>
   <polyline stroke-linecap="butt" stroke-linejoin="miter" stroke-width="0.5" fill="none" points="151.94,153.906 151.94,152.537" stroke="#262626"/>
   <g xml:space="preserve" font-weight="normal" transform="translate(28.5735,163.399) rotate(-0,1.5,-5)" font-style="normal" font-size="6" font-family="'Liberation Serif'">
    <text y="-1" fill="rgb(38,38,38)" x="0 ">0</text>
   </g>
   <g xml:space="preserve" font-weight="normal" transform="translate(53.5401,163.399) rotate(-0,7,-5)" font-style="normal" font-size="6" font-family="'Liberation Serif'">
    <text y="-1" fill="rgb(38,38,38)" x="0 3 6 8 11 ">2e-05</text>
   </g>
   <g xml:space="preserve" font-weight="normal" transform="translate(84.0067,163.399) rotate(-0,7,-5)" font-style="normal" font-size="6" font-family="'Liberation Serif'">
    <text y="-1" fill="rgb(38,38,38)" x="0 3 6 8 11 ">4e-05</text>
   </g>
   <g xml:space="preserve" font-weight="normal" transform="translate(114.473,163.399) rotate(-0,7,-5)" font-style="normal" font-size="6" font-family="'Liberation Serif'">
    <text y="-1" fill="rgb(38,38,38)" x="0 3 6 8 11 ">6e-05</text>
   </g>
   <g xml:space="preserve" font-weight="normal" transform="translate(144.94,163.399) rotate(-0,7,-5)" font-style="normal" font-size="6" font-family="'Liberation Serif'">
    <text y="-1" fill="rgb(38,38,38)" x="0 3 6 8 11 ">8e-05</text>
   </g>
   <polyline stroke-linecap="butt" stroke-linejoin="miter" stroke-width="0.5" fill="none" points="30.0732,153.906 31.4453,153.906" stroke="#262626"/>
   <polyline stroke-linecap="butt" stroke-linejoin="miter" stroke-width="0.5" fill="none" points="30.0732,123.666 31.4453,123.666" stroke="#262626"/>
   <polyline stroke-linecap="butt" stroke-linejoin="miter" stroke-width="0.5" fill="none" points="30.0732,93.4258 31.4453,93.4258" stroke="#262626"/>
   <polyline stroke-linecap="butt" stroke-linejoin="miter" stroke-width="0.5" fill="none" points="30.0732,63.186 31.4453,63.186" stroke="#262626"/>
   <polyline stroke-linecap="butt" stroke-linejoin="miter" stroke-width="0.5" fill="none" points="30.0732,32.9463 31.4453,32.9463" stroke="#262626"/>
   <g xml:space="preserve" font-weight="normal" transform="translate(24.0713,156.406) rotate(-0,3,-2.5)" font-style="normal" font-size="6" font-family="'Liberation Serif'">
    <text y="-1" fill="rgb(38,38,38)" x="0 ">0</text>
   </g>
   <g xml:space="preserve" font-weight="normal" transform="translate(15.0713,126.166) rotate(-0,12,-2.5)" font-style="normal" font-size="6" font-family="'Liberation Serif'">
    <text y="-1" fill="rgb(38,38,38)" x="0 3 6 9 ">1000</text>
   </g>
   <g xml:space="preserve" font-weight="normal" transform="translate(15.0713,95.9259) rotate(-0,12,-2.5)" font-style="normal" font-size="6" font-family="'Liberation Serif'">
    <text y="-1" fill="rgb(38,38,38)" x="0 3 6 9 ">2000</text>
   </g>
   <g xml:space="preserve" font-weight="normal" transform="translate(15.0713,65.6861) rotate(-0,12,-2.5)" font-style="normal" font-size="6" font-family="'Liberation Serif'">
    <text y="-1" fill="rgb(38,38,38)" x="0 3 6 9 ">3000</text>
   </g>
   <g xml:space="preserve" font-weight="normal" transform="translate(15.0713,35.4463) rotate(-0,12,-2.5)" font-style="normal" font-size="6" font-family="'Liberation Serif'">
    <text y="-1" fill="rgb(38,38,38)" x="0 3 6 9 ">4000</text>
   </g>
   <polyline stroke-linecap="square" stroke-linejoin="miter" stroke-width="0.5" fill="none" points="30.0732,153.906 167.173,153.906" stroke-dasharray="16,0" stroke="#262626"/>
   <polyline stroke-linecap="square" stroke-linejoin="miter" stroke-width="0.5" fill="none" points="30.0732,153.906 30.0732,30.0737" stroke-dasharray="16,0" stroke="#262626"/>
   <polyline stroke-linecap="butt" stroke-linejoin="round" stroke-width="0.5" fill="none" points="30.0732,153.906 30.1909,153.732 30.3086,153.558 30.4263,153.384 30.5435,153.21 30.6611,153.037 30.7788,152.863 30.8965,152.689 31.0137,152.516 31.1313,152.342 31.249,152.168 31.3662,151.995 31.4839,151.821 31.6016,151.647 31.7192,151.473 31.8364,151.3 31.9541,151.126 32.0718,150.952 32.1895,150.778 32.3066,150.604 32.4243,150.431 32.542,150.257 32.6592,150.083 32.7769,149.91 32.8945,149.736 33.0122,149.562 33.1294,149.389 33.2471,149.215 33.3647,149.041 33.4824,148.868 33.5996,148.694 33.7173,148.52 33.835,148.346 33.9521,148.172 34.0698,147.999 34.1875,147.825 34.3052,147.651 34.4224,147.478 34.54,147.304 34.6577,147.13 34.7754,146.957 34.8926,146.783 35.0103,146.609 35.1279,146.435 35.2451,146.262 35.3628,146.088 35.4805,145.914 35.5981,145.74 35.7153,145.566 35.833,145.393 35.9507,145.219 36.0684,145.045 36.1855,144.872 36.3032,144.698 36.4209,144.524 36.5381,144.351 36.6558,144.177 36.7734,144.003 36.8911,143.83 37.0083,143.656 37.126,143.482 37.2437,143.308 37.3608,143.134 37.4785,142.961 37.5962,142.787 37.7139,142.613 37.8311,142.439 37.9487,142.266 38.0664,142.092 38.1841,141.918 38.3013,141.745 38.4189,141.571 38.5366,141.397 38.6538,141.224 38.7715,141.05 38.8892,140.876 39.0068,140.702 39.124,140.528 39.2417,140.355 39.3594,140.181 39.4771,140.007 39.5942,139.833 39.7119,139.66 39.8296,139.486 39.9468,139.312 40.0645,139.139 40.1821,138.965 40.2998,138.792 40.417,138.618 40.5347,138.444 40.6523,138.27 40.77,138.096 40.8872,137.923 41.0049,137.749 41.1226,137.575 41.2397,137.401 41.3574,137.228 41.4751,137.054 41.5928,136.88 41.71,136.707 41.8276,136.533 41.9453,136.359 42.0625,136.186 42.1802,136.012 42.2979,135.838 42.4155,135.664 42.5327,135.49 42.6504,135.317 42.7681,135.143 42.8857,134.969 43.0029,134.795 43.1206,134.622 43.2383,134.448 43.3555,134.274 43.4731,134.101 43.5908,133.927 43.7085,133.753 43.8257,133.58 43.9434,133.406 44.061,133.232 44.1787,133.058 44.2959,132.885 44.4136,132.711 44.5312,132.537 44.6484,132.363 44.7661,132.189 44.8838,132.016 45.0015,131.842 45.1187,131.668 45.2363,131.495 45.354,131.321 45.4717,131.147 45.5889,130.974 45.7065,130.8 45.8242,130.626 45.9414,130.452 46.0591,130.279 46.1768,130.105 46.2944,129.931 46.4116,129.757 46.5293,129.583 46.647,129.41 46.7646,129.236 46.8818,129.062 46.9995,128.889 47.1172,128.715 47.2344,128.542 47.3521,128.368 47.4697,128.194 47.5874,128.02 47.7046,127.847 47.8223,127.673 47.9399,127.499 48.0571,127.325 48.1748,127.151 48.2925,126.978 48.4102,126.804 48.5273,126.63 48.645,126.457 48.7627,126.283 48.8804,126.109 48.9976,125.936 49.1152,125.762 49.2329,125.588 49.3501,125.414 49.4678,125.241 49.5854,125.067 49.7031,124.893 49.8203,124.719 49.938,124.545 50.0557,124.372 50.1733,124.198 50.2905,124.024 50.4082,123.851 50.5259,123.677 50.6431,123.503 50.7607,123.33 50.8784,123.156 50.9961,122.982 51.1133,122.809 51.231,122.635 51.3486,122.461 51.4663,122.287 51.5835,122.113 51.7012,121.94 51.8188,121.766 51.936,121.592 52.0537,121.418 52.1714,121.245 52.2891,121.071 52.4062,120.897 52.5239,120.724 52.6416,120.55 52.7588,120.376 52.8765,120.203 52.9941,120.029 53.1118,119.855 53.229,119.681 53.3467,119.507 53.4644,119.334 53.582,119.16 53.6992,118.986 53.8169,118.812 53.9346,118.639 54.0518,118.465 54.1694,118.292 54.2871,118.118 54.4048,117.944 54.522,117.77 54.6396,117.597 54.7573,117.423 54.875,117.249 54.9922,117.075 55.1099,116.902 55.2275,116.728 55.3447,116.554 55.4624,116.38 55.5801,116.207 55.6978,116.033 55.8149,115.859 55.9326,115.686 56.0503,115.512 56.168,115.338 56.2852,115.165 56.4028,114.991 56.5205,114.817 56.6377,114.643 56.7554,114.469 56.873,114.296 56.9907,114.122 57.1079,113.948 57.2256,113.774 57.3433,113.601 57.4609,113.427 57.5781,113.253 57.6958,113.08 57.8135,112.906 57.9307,112.732 58.0483,112.559 58.166,112.385 58.2837,112.211 58.4009,112.037 58.5186,111.864 58.6362,111.69 58.7534,111.516 58.8711,111.342 58.9888,111.168 59.1064,110.995 59.2236,110.821 59.3413,110.647 59.459,110.474 59.5767,110.3 59.6938,110.126 59.8115,109.953 59.9292,109.779 60.0464,109.605 60.1641,109.431 60.2817,109.258 60.3994,109.084 60.5166,108.91 60.6343,108.736 60.752,108.562 60.8696,108.389 60.9868,108.215 61.1045,108.042 61.2222,107.868 61.3394,107.694 61.457,107.521 61.5747,107.347 61.6924,107.173 61.8096,106.999 61.9272,106.826 62.0449,106.652 62.1626,106.478 62.2798,106.304 62.3975,106.13 62.5151,105.957 62.6323,105.783 62.75,105.609 62.8677,105.436 62.9854,105.262 63.1025,105.088 63.2202,104.915 63.3379,104.741 63.4556,104.567 63.5728,104.393 63.6904,104.22 63.8081,104.046 63.9253,103.872 64.043,103.698 64.1606,103.524 64.2783,103.351 64.3955,103.177 64.5132,103.003 64.6309,102.83 64.748,102.656 64.8657,102.482 64.9834,102.309 65.1011,102.135 65.2183,101.961 65.3359,101.787 65.4536,101.614 65.5713,101.44 65.6885,101.266 65.8062,101.092 65.9238,100.919 66.041,100.745 66.1587,100.571 66.2764,100.397 66.394,100.224 66.5112,100.05 66.6289,99.8765 66.7466,99.7026 66.8643,99.5288 66.9814,99.355 67.0991,99.1816 67.2168,99.0078 67.334,98.834 67.4517,98.6602 67.5693,98.4863 67.687,98.313 67.8042,98.1392 67.9219,97.9653 68.0396,97.7915 68.1572,97.6177 68.2744,97.4443 68.3921,97.2705 68.5098,97.0967 68.627,96.9229 68.7446,96.749 68.8623,96.5757 68.98,96.4019 69.0972,96.228 69.2148,96.0542 69.3325,95.8809 69.4502,95.707 69.5674,95.5332 69.6851,95.3594 69.8027,95.1855 69.9199,95.0122 70.0376,94.8384 70.1553,94.6646 70.2729,94.4907 70.3901,94.3169 70.5078,94.1436 70.6255,93.9697 70.7427,93.7959 70.8604,93.6221 70.978,93.4482 71.0957,93.2749 71.2129,93.1011 71.3306,92.9272 71.4482,92.7534 71.5659,92.5796 71.6831,92.4062 71.8008,92.2324 71.9185,92.0586 72.0356,91.8848 72.1533,91.7109 72.271,91.5376 72.3887,91.3638 72.5059,91.1899 72.6235,91.0161 72.7412,90.8423 72.8589,90.6689 72.9761,90.4951 73.0938,90.3213 73.2114,90.1475 73.3286,89.9741 73.4463,89.8003 73.564,89.6265 73.6816,89.4526 73.7988,89.2788 73.9165,89.1055 74.0342,88.9316 74.1519,88.7578 74.269,88.584 74.3867,88.4102 74.5044,88.2368 74.6216,88.063 74.7393,87.8892 74.8569,87.7153 74.9746,87.5415 75.0918,87.3682 75.2095,87.1943 75.3271,87.0205 75.4443,86.8467 75.562,86.6729 75.6797,86.4995 75.7974,86.3257 75.9146,86.1519 76.0322,85.978 76.1499,85.8042 76.2676,85.6309 76.3848,85.457 76.5024,85.2832 76.6201,85.1094 76.7373,84.936 76.855,84.7622 76.9727,84.5884 77.0903,84.4146 77.2075,84.2407 77.3252,84.0674 77.4429,83.8936 77.5605,83.7197 77.6777,83.5459 77.7954,83.3721 77.9131,83.1987 78.0303,83.0249 78.1479,82.8511 78.2656,82.6772 78.3833,82.5034 78.5005,82.3301 78.6182,82.1562 78.7358,81.9824 78.8535,81.8086 78.9707,81.6348 79.0884,81.4614 79.2061,81.2876 79.3232,81.1138 79.4409,80.9399 79.5586,80.7661 79.6763,80.5928 79.7935,80.4189 79.9111,80.2451 80.0288,80.0713 80.1465,79.8975 80.2637,79.7241 80.3813,79.5503 80.499,79.3765 80.6162,79.2026 80.7339,79.0293 80.8516,78.8555 80.9692,78.6816 81.0864,78.5078 81.2041,78.334 81.3218,78.1606 81.4395,77.9868 81.5566,77.813 81.6743,77.6392 81.792,77.4653 81.9092,77.292 82.0269,77.1182 82.1445,76.9443 82.2622,76.7705 82.3794,76.5967 82.4971,76.4233 82.6147,76.2495 82.7319,76.0757 82.8496,75.9019 82.9673,75.728 83.085,75.5547 83.2021,75.3809 83.3198,75.207 83.4375,75.0332 83.5552,74.8594 83.6724,74.686 83.79,74.5122 83.9077,74.3384 84.0249,74.1646 84.1426,73.9912 84.2603,73.8174 84.3779,73.6436 84.4951,73.4697 84.6128,73.2959 84.7305,73.1226 84.8481,72.9487 84.9653,72.7749 85.083,72.6011 85.2007,72.4272 85.3179,72.2539 85.4355,72.0801 85.5532,71.9062 85.6709,71.7324 85.7881,71.5586 85.9058,71.3853 86.0234,71.2114 86.1411,71.0376 86.2583,70.8638 86.376,70.6899 86.4937,70.5166 86.6108,70.3428 86.7285,70.1689 86.8462,69.9951 86.9639,69.8213 87.0811,69.6479 87.1987,69.4741 87.3164,69.3003 87.4336,69.1265 87.5513,68.9531 87.6689,68.7793 87.7866,68.6055 87.9038,68.4316 88.0215,68.2578 88.1392,68.0845 88.2568,67.9106 88.374,67.7368 88.4917,67.563 88.6094,67.3892 88.7266,67.2158 88.8442,67.042 88.9619,66.8682 89.0796,66.6943 89.1968,66.5205 89.3145,66.3472 89.4321,66.1733 89.5498,65.9995 89.667,65.8257 89.7847,65.6519 89.9023,65.4785 90.0195,65.3047 90.1372,65.1309 90.2549,64.957 90.3726,64.7832 90.4897,64.6099 90.6074,64.436 90.7251,64.2622 90.8428,64.0884 90.96,63.9146 91.0776,63.7412 91.1953,63.5674 91.3125,63.3936 91.4302,63.2197 91.5479,63.0464 91.6655,62.8726 91.7827,62.6987 91.9004,62.5249 92.0181,62.3511 92.1357,62.1777 92.2529,62.0039 92.3706,61.8301 92.4883,61.6562 92.6055,61.4824 92.7231,61.3091 92.8408,61.1353 92.9585,60.9614 93.0757,60.7876 93.1934,60.6138 93.311,60.4404 93.4282,60.2666 93.5459,60.0928 93.6636,59.9189 93.7812,59.7451 93.8984,59.5718 94.0161,59.3979 94.1338,59.2241 94.2515,59.0503 94.3687,58.8765 94.4863,58.7031 94.604,58.5293 94.7212,58.3555 94.8389,58.1816 94.9565,58.0083 95.0742,57.8345 95.1914,57.6606 95.3091,57.4868 95.4268,57.313 95.5444,57.1396 95.6616,56.9658 95.7793,56.792 95.897,56.6182 96.0142,56.4443 96.1318,56.271 96.2495,56.0972 96.3672,55.9233 96.4844,55.7495 96.6021,55.5757 96.7197,55.4023 96.8374,55.2285 96.9546,55.0547 97.0723,54.8809 97.1899,54.707 97.3071,54.5337 97.4248,54.3599 97.5425,54.186 97.6602,54.0122 97.7773,53.8384 97.895,53.665 98.0127,53.4912 98.1299,53.3174 98.2476,53.1436 98.3652,52.9702 98.4829,52.7964 98.6001,52.6226 98.7178,52.4487 98.8354,52.2749 98.9531,52.1016 99.0703,51.9277 99.188,51.7539 99.3057,51.5801 99.4229,51.4062 99.5405,51.2329 99.6582,51.0591 99.7759,50.8853 99.8931,50.7114 100.011,50.5376 100.128,50.3643 100.246,50.1904 100.363,50.0166 100.481,49.8428 100.599,49.6689 100.716,49.4956 100.833,49.3218 100.951,49.1479 101.069,48.9741 101.186,48.8003 101.304,48.627 101.421,48.4531 101.539,48.2793 101.656,48.1055 101.774,47.9321 101.892,47.7583 102.009,47.5845 102.126,47.4106 102.244,47.2368 102.362,47.0635 102.479,46.8896 102.597,46.7158 102.714,46.542 102.832,46.3682 102.949,46.1948 103.067,46.021 103.185,45.8472 103.302,45.6733 103.419,45.4995 103.537,45.3262 103.655,45.1523 103.772,44.9785 103.89,44.8047 104.007,44.6309 104.125,44.4575 104.242,44.2837 104.36,44.1099 104.478,43.936 104.595,43.7622 104.712,43.5889 104.83,43.415 104.948,43.2412 105.065,43.0674 105.183,42.8936 105.3,42.7202 105.417,42.5464 105.535,42.3726 105.653,42.1987 105.771,42.0254 105.888,41.8516 106.005,41.6777 106.123,41.5039 106.241,41.3301 106.358,41.1567 106.476,40.9829 106.593,40.8091 106.71,40.6353 106.828,40.4614 106.946,40.2881 107.063,40.1143 107.181,39.9404 107.298,39.7666 107.416,39.5928 107.534,39.4194 107.651,39.2456 107.769,39.0718 107.886,38.8979 108.003,38.7241 108.121,38.5508 108.239,38.377 108.356,38.2031 108.474,38.0293 108.591,37.8555 108.709,37.6821 108.827,37.5083 108.944,37.3345 109.062,37.1606 109.179,36.9873 109.296,36.8135 109.414,36.6396 109.532,36.4658 109.649,36.292 109.767,36.1187 109.884,35.9448 110.002,35.771 110.119,35.5972 110.237,35.4233 110.354,35.25 110.472,35.0762 110.589,34.9023 110.707,34.7285 110.825,34.5547 110.942,34.3813 111.06,34.2075 111.177,34.0337 111.295,33.8599 111.412,33.686 111.53,33.5127 111.647,33.3389 111.765,33.165 111.882,32.9912 112,32.8174 112.118,32.644 112.235,32.4702 112.353,32.2964 112.47,32.1226 112.588,31.9487 112.705,31.7754 112.823,31.6016 112.94,31.4277 113.058,31.2539 113.175,31.0806 113.293,30.9067 113.411,30.7329 113.528,30.5591 113.646,30.3853 113.763,30.2119 113.881,30.0381 113.94,29.9497" stroke-dasharray="9,7" stroke="#000000"/>
   <polyline stroke-linecap="butt" stroke-linejoin="round" stroke-width="0.5" fill="none" points="29.9365,143.157 29.9741,143.122 30.1025,142.998 30.2314,142.874 30.3604,142.75 30.4893,142.625 30.6182,142.501 30.7471,142.377 30.876,142.254 31.0049,142.13 31.1338,142.006 31.2627,141.882 31.3916,141.758 31.5205,141.634 31.6489,141.51 31.7778,141.386 31.9067,141.262 32.0356,141.138 32.1646,141.014 32.2935,140.89 32.4224,140.766 32.5513,140.642 32.6802,140.518 32.8091,140.395 32.938,140.271 33.0664,140.146 33.1953,140.022 33.3242,139.898 33.4531,139.774 33.582,139.65 33.7109,139.527 33.8398,139.403 33.9688,139.279 34.0977,139.155 34.2266,139.031 34.3555,138.907 34.4844,138.783 34.6128,138.659 34.7417,138.535 34.8706,138.411 34.9995,138.287 35.1284,138.163 35.2573,138.039 35.3862,137.915 35.5151,137.791 35.644,137.667 35.7729,137.543 35.9019,137.419 36.0303,137.295 36.1592,137.171 36.2881,137.047 36.417,136.923 36.5459,136.8 36.6748,136.676 36.8037,136.552 36.9326,136.428 37.0615,136.304 37.1904,136.18 37.3193,136.056 37.4482,135.932 37.5767,135.808 37.7056,135.684 37.8345,135.56 37.9634,135.436 38.0923,135.312 38.2212,135.188 38.3501,135.064 38.479,134.94 38.6079,134.816 38.7368,134.692 38.8657,134.568 38.9941,134.444 39.123,134.32 39.252,134.197 39.3809,134.073 39.5098,133.949 39.6387,133.825 39.7676,133.701 39.8965,133.577 40.0254,133.453 40.1543,133.329 40.2832,133.205 40.4121,133.081 40.5405,132.957 40.6694,132.833 40.7983,132.709 40.9272,132.585 41.0562,132.461 41.1851,132.337 41.314,132.213 41.4429,132.089 41.5718,131.965 41.7007,131.841 41.8296,131.717 41.958,131.593 42.0869,131.47 42.2158,131.346 42.3447,131.222 42.4736,131.098 42.6025,130.974 42.7314,130.85 42.8604,130.726 42.9893,130.602 43.1182,130.478 43.2471,130.354 43.376,130.23 43.5044,130.106 43.6333,129.982 43.7622,129.858 43.8911,129.734 44.02,129.61 44.1489,129.486 44.2778,129.362 44.4067,129.238 44.5356,129.114 44.6646,128.99 44.7935,128.866 44.9219,128.743 45.0508,128.619 45.1797,128.495 45.3086,128.371 45.4375,128.247 45.5664,128.123 45.6953,127.999 45.8242,127.875 45.9531,127.751 46.082,127.627 46.2109,127.503 46.3398,127.379 46.4683,127.255 46.5972,127.131 46.7261,127.007 46.855,126.883 46.9839,126.759 47.1128,126.635 47.2417,126.511 47.3706,126.387 47.4995,126.263 47.6284,126.139 47.7573,126.016 47.8857,125.892 48.0146,125.768 48.1436,125.644 48.2725,125.52 48.4014,125.396 48.5303,125.271 48.6592,125.148 48.7881,125.024 48.917,124.9 49.0459,124.776 49.1748,124.652 49.3037,124.528 49.4321,124.404 49.561,124.28 49.6899,124.156 49.8188,124.032 49.9478,123.908 50.0767,123.784 50.2056,123.66 50.3345,123.536 50.4634,123.413 50.5923,123.289 50.7212,123.165 50.8496,123.041 50.9785,122.917 51.1074,122.792 51.2363,122.668 51.3652,122.544 51.4941,122.421 51.623,122.297 51.752,122.173 51.8809,122.049 52.0098,121.925 52.1387,121.801 52.2676,121.677 52.396,121.553 52.5249,121.429 52.6538,121.305 52.7827,121.181 52.9116,121.057 53.0405,120.933 53.1694,120.809 53.2983,120.686 53.4272,120.562 53.5562,120.438 53.6851,120.313 53.8135,120.189 53.9424,120.065 54.0713,119.941 54.2002,119.818 54.3291,119.694 54.458,119.57 54.5869,119.446 54.7158,119.322 54.8447,119.198 54.9736,119.074 55.1025,118.95 55.2314,118.826 55.3599,118.702 55.4888,118.578 55.6177,118.454 55.7466,118.33 55.8755,118.206 56.0044,118.082 56.1333,117.958 56.2622,117.834 56.3911,117.71 56.52,117.586 56.6489,117.462 56.7773,117.338 56.9062,117.214 57.0352,117.091 57.1641,116.967 57.293,116.843 57.4219,116.719 57.5508,116.595 57.6797,116.471 57.8086,116.347 57.9375,116.223 58.0664,116.099 58.1953,115.975 58.3237,115.851 58.4526,115.727 58.5815,115.603 58.7104,115.479 58.8394,115.355 58.9683,115.231 59.0972,115.107 59.2261,114.983 59.355,114.859 59.4839,114.735 59.6128,114.611 59.7412,114.487 59.8701,114.364 59.999,114.24 60.1279,114.116 60.2568,113.992 60.3857,113.868 60.5146,113.744 60.6436,113.62 60.7725,113.496 60.9014,113.372 61.0303,113.248 61.1592,113.124 61.2876,113 61.4165,112.876 61.5454,112.752 61.6743,112.628 61.8032,112.504 61.9321,112.38 62.061,112.256 62.1899,112.132 62.3188,112.008 62.4478,111.884 62.5767,111.76 62.7051,111.637 62.834,111.513 62.9629,111.389 63.0918,111.265 63.2207,111.141 63.3496,111.017 63.4785,110.893 63.6074,110.769 63.7363,110.645 63.8652,110.521 63.9941,110.397 64.123,110.273 64.2515,110.149 64.3804,110.025 64.5093,109.901 64.6382,109.777 64.7671,109.653 64.896,109.529 65.0249,109.405 65.1538,109.281 65.2827,109.157 65.4116,109.034 65.5405,108.91 65.6689,108.786 65.7979,108.662 65.9268,108.538 66.0557,108.414 66.1846,108.29 66.3135,108.166 66.4424,108.042 66.5713,107.918 66.7002,107.794 66.8291,107.67 66.958,107.546 67.0869,107.422 67.2153,107.298 67.3442,107.174 67.4731,107.05 67.6021,106.926 67.731,106.802 67.8599,106.678 67.9888,106.554 68.1177,106.43 68.2466,106.307 68.3755,106.183 68.5044,106.059 68.6328,105.935 68.7617,105.811 68.8906,105.687 69.0195,105.562 69.1484,105.439 69.2773,105.315 69.4062,105.191 69.5352,105.067 69.6641,104.943 69.793,104.819 69.9219,104.695 70.0508,104.571 70.1792,104.447 70.3081,104.323 70.437,104.199 70.5659,104.075 70.6948,103.951 70.8237,103.827 70.9526,103.703 71.0815,103.58 71.2104,103.456 71.3394,103.332 71.4683,103.208 71.5967,103.083 71.7256,102.959 71.8545,102.835 71.9834,102.712 72.1123,102.588 72.2412,102.464 72.3701,102.34 72.499,102.216 72.6279,102.092 72.7568,101.968 72.8857,101.844 73.0142,101.72 73.1431,101.596 73.272,101.472 73.4009,101.348 73.5298,101.224 73.6587,101.1 73.7876,100.977 73.9165,100.853 74.0454,100.729 74.1743,100.604 74.3032,100.48 74.4321,100.356 74.5605,100.232 74.6895,100.108 74.8184,99.9849 74.9473,99.8608 75.0762,99.7368 75.2051,99.6128 75.334,99.4888 75.4629,99.3647 75.5918,99.2407 75.7207,99.1172 75.8496,98.9932 75.978,98.8691 76.1069,98.7451 76.2358,98.6211 76.3647,98.4971 76.4937,98.373 76.6226,98.2495 76.7515,98.1255 76.8804,98.0015 77.0093,97.8774 77.1382,97.7534 77.2671,97.6294 77.396,97.5054 77.5244,97.3818 77.6533,97.2578 77.7822,97.1338 77.9111,97.0098 78.04,96.8857 78.1689,96.7617 78.2979,96.6377 78.4268,96.5137 78.5557,96.3901 78.6846,96.2661 78.8135,96.1421 78.9419,96.0181 79.0708,95.894 79.1997,95.77 79.3286,95.646 79.4575,95.5225 79.5864,95.3984 79.7153,95.2744 79.8442,95.1504 79.9731,95.0264 80.1021,94.9023 80.231,94.7783 80.3599,94.6548 80.4883,94.5308 80.6172,94.4067 80.7461,94.2827 80.875,94.1587 81.0039,94.0347 81.1328,93.9106 81.2617,93.7871 81.3906,93.6631 81.5195,93.5391 81.6484,93.415 81.7773,93.291 81.9058,93.167 82.0347,93.043 82.1636,92.9189 82.2925,92.7954 82.4214,92.6714 82.5503,92.5474 82.6792,92.4233 82.8081,92.2993 82.937,92.1753 83.0659,92.0513 83.1948,91.9277 83.3237,91.8037 83.4521,91.6797 83.5811,91.5557 83.71,91.4316 83.8389,91.3076 83.9678,91.1836 84.0967,91.0601 84.2256,90.936 84.3545,90.812 84.4834,90.688 84.6123,90.564 84.7412,90.4399 84.8696,90.3159 84.9985,90.1924 85.1274,90.0684 85.2563,89.9443 85.3853,89.8203 85.5142,89.6963 85.6431,89.5723 85.772,89.4482 85.9009,89.3242 86.0298,89.2007 86.1587,89.0767 86.2876,88.9526 86.416,88.8286 86.5449,88.7046 86.6738,88.5806 86.8027,88.4565 86.9316,88.333 87.0605,88.209 87.1895,88.085 87.3184,87.9609 87.4473,87.8369 87.5762,87.7129 87.7051,87.5889 87.8335,87.4653 87.9624,87.3413 88.0913,87.2173 88.2202,87.0933 88.3491,86.9692 88.478,86.8452 88.6069,86.7212 88.7358,86.5977 88.8647,86.4736 88.9937,86.3496 89.1226,86.2256 89.2515,86.1016 89.3799,85.9775 89.5088,85.8535 89.6377,85.73 89.7666,85.606 89.8955,85.4819 90.0244,85.3579 90.1533,85.2339 90.2822,85.1099 90.4111,84.9858 90.54,84.8618 90.6689,84.7383 90.7974,84.6143 90.9263,84.4902 91.0552,84.3662 91.1841,84.2422 91.313,84.1182 91.4419,83.9941 91.5708,83.8706 91.6997,83.7466 91.8286,83.6226 91.9575,83.4985 92.0864,83.3745 92.2153,83.2505 92.3438,83.1265 92.4727,83.0029 92.6016,82.8789 92.7305,82.7549 92.8594,82.6309 92.9883,82.5068 93.1172,82.3828 93.2461,82.2588 93.375,82.1353 93.5039,82.0112 93.6328,81.8872 93.7612,81.7632 93.8901,81.6392 94.019,81.5151 94.1479,81.3911 94.2769,81.2671 94.4058,81.1436 94.5347,81.0195 94.6636,80.8955 94.7925,80.7715 94.9214,80.6475 95.0503,80.5234 95.1792,80.3994 95.3076,80.2759 95.4365,80.1519 95.5654,80.0278 95.6943,79.9038 95.8232,79.7798 95.9521,79.6558 96.0811,79.5317 96.21,79.4082 96.3389,79.2842 96.4678,79.1602 96.5967,79.0361 96.7251,78.9121 96.854,78.7881 96.9829,78.6641 97.1118,78.5405 97.2407,78.4165 97.3696,78.2925 97.4985,78.1685 97.6274,78.0444 97.7563,77.9204 97.8853,77.7964 98.0142,77.6724 98.1431,77.5488 98.2715,77.4248 98.4004,77.3008 98.5293,77.1768 98.6582,77.0527 98.7871,76.9287 98.916,76.8047 99.0449,76.6812 99.1738,76.5571 99.3027,76.4331 99.4316,76.3091 99.5605,76.1851 99.689,76.061 99.8179,75.937 99.9468,75.8135 100.076,75.6895 100.205,75.5654 100.333,75.4414 100.462,75.3174 100.591,75.1934 100.72,75.0693 100.849,74.9458 100.978,74.8218 101.107,74.6978 101.235,74.5737 101.364,74.4497 101.493,74.3257 101.622,74.2017 101.751,74.0776 101.88,73.9541 102.009,73.8301 102.138,73.7061 102.267,73.582 102.396,73.458 102.524,73.334 102.653,73.21 102.782,73.0864 102.911,72.9624 103.04,72.8384 103.168,72.7144 103.297,72.5903 103.426,72.4663 103.555,72.3423 103.684,72.2188 103.813,72.0947 103.942,71.9707 104.071,71.8467 104.199,71.7227 104.328,71.5986 104.457,71.4746 104.586,71.3511 104.715,71.2271 104.844,71.103 104.973,70.979 105.102,70.855 105.23,70.731 105.359,70.6069 105.488,70.4829 105.617,70.3594 105.746,70.2354 105.875,70.1113 106.003,69.9873 106.132,69.8633 106.261,69.7393 106.39,69.6152 106.519,69.4917 106.648,69.3677 106.777,69.2437 106.906,69.1196 107.035,68.9956 107.163,68.8716 107.292,68.7476 107.421,68.624 107.55,68.5 107.679,68.376 107.808,68.252 107.937,68.1279 108.065,68.0039 108.194,67.8799 108.323,67.7563 108.452,67.6323 108.581,67.5083 108.709,67.3843 108.838,67.2603 108.967,67.1362 109.096,67.0122 109.225,66.8882 109.354,66.7646 109.483,66.6406 109.612,66.5166 109.741,66.3926 109.87,66.2686 109.999,66.1445 110.127,66.0205 110.256,65.897 110.385,65.7729 110.514,65.6489 110.643,65.5249 110.771,65.4009 110.9,65.2769 111.029,65.1528 111.158,65.0293 111.287,64.9053 111.416,64.7812 111.544,64.6572 111.673,64.5332 111.802,64.4092 111.931,64.2852 112.06,64.1616 112.189,64.0376 112.318,63.9136 112.447,63.7896 112.576,63.6655 112.705,63.5415 112.833,63.4175 112.962,63.2935 113.091,63.1699 113.22,63.0459 113.349,62.9219 113.478,62.7979 113.606,62.6738 113.735,62.5498 113.864,62.4258 113.993,62.3022 114.122,62.1782 114.251,62.0542 114.38,61.9302 114.508,61.8062 114.637,61.6821 114.766,61.5581 114.895,61.4346 115.024,61.3105 115.153,61.1865 115.282,61.0625 115.411,60.9385 115.54,60.8145 115.668,60.6904 115.797,60.5669 115.926,60.4429 116.055,60.3188 116.184,60.1948 116.312,60.0708 116.441,59.9468 116.57,59.8228 116.699,59.6987 116.828,59.5752 116.957,59.4512 117.086,59.3271 117.215,59.2031 117.344,59.0791 117.472,58.9551 117.601,58.8311 117.73,58.7075 117.859,58.5835 117.988,58.4595 118.117,58.3354 118.246,58.2114 118.375,58.0874 118.503,57.9634 118.632,57.8398 118.761,57.7158 118.89,57.5918 119.019,57.4678 119.147,57.3438 119.276,57.2197 119.405,57.0957 119.534,56.9722 119.663,56.8481 119.792,56.7241 119.921,56.6001 120.05,56.4761 120.179,56.3521 120.308,56.228 120.436,56.1045 120.565,55.9805 120.694,55.8564 120.823,55.7324 120.952,55.6084 121.081,55.4844 121.209,55.3604 121.338,55.2363 121.467,55.1128 121.596,54.9888 121.725,54.8647 121.854,54.7407 121.982,54.6167 122.111,54.4927 122.24,54.3687 122.369,54.2451 122.498,54.1211 122.627,53.9971 122.756,53.873 122.885,53.749 123.014,53.625 123.143,53.501 123.271,53.3774 123.4,53.2534 123.529,53.1294 123.658,53.0054 123.787,52.8813 123.916,52.7573 124.044,52.6333 124.173,52.5098 124.302,52.3857 124.431,52.2617 124.56,52.1377 124.689,52.0137 124.817,51.8896 124.946,51.7656 125.075,51.6416 125.204,51.5181 125.333,51.394 125.462,51.27 125.591,51.146 125.72,51.022 125.849,50.8979 125.978,50.7739 126.106,50.6504 126.235,50.5264 126.364,50.4023 126.493,50.2783 126.622,50.1543 126.75,50.0303 126.879,49.9062 127.008,49.7827 127.137,49.6587 127.266,49.5347 127.395,49.4106 127.524,49.2866 127.653,49.1626 127.781,49.0386 127.91,48.915 128.039,48.791 128.168,48.667 128.297,48.543 128.426,48.4189 128.555,48.2949 128.684,48.1709 128.812,48.0469 128.941,47.9233 129.07,47.7993 129.199,47.6753 129.328,47.5513 129.457,47.4272 129.585,47.3032 129.714,47.1792 129.843,47.0557 129.972,46.9316 130.101,46.8076 130.23,46.6836 130.359,46.5596 130.488,46.4355 130.617,46.3115 130.745,46.188 130.874,46.064 131.003,45.9399 131.132,45.8159 131.261,45.6919 131.39,45.5679 131.519,45.4438 131.647,45.3203 131.776,45.1963 131.905,45.0723 132.034,44.9482 132.163,44.8242 132.292,44.7002 132.42,44.5762 132.549,44.4521 132.678,44.3286 132.807,44.2046 132.936,44.0806 133.065,43.9565 133.194,43.8325 133.323,43.7085 133.452,43.5845 133.581,43.4609 133.709,43.3369 133.838,43.2129 133.967,43.0889 134.096,42.9648 134.225,42.8408 134.354,42.7168 134.482,42.5933 134.611,42.4692 134.74,42.3452 134.869,42.2212 134.998,42.0972 135.127,41.9731 135.255,41.8491 135.384,41.7256 135.513,41.6016 135.642,41.4775 135.771,41.3535 135.9,41.2295 136.029,41.1055 136.158,40.9814 136.287,40.8574 136.416,40.7339 136.544,40.6099 136.673,40.4858 136.802,40.3618 136.931,40.2378 137.06,40.1138 137.188,39.9897 137.317,39.8662 137.446,39.7422 137.575,39.6182 137.704,39.4941 137.833,39.3701 137.962,39.2461 138.091,39.1221 138.219,38.9985 138.348,38.8745 138.477,38.7505 138.606,38.6265 138.735,38.5024 138.864,38.3784 138.993,38.2544 139.122,38.1309 139.25,38.0068 139.379,37.8828 139.508,37.7588 139.637,37.6348 139.766,37.5107 139.895,37.3867 140.023,37.2632 140.152,37.1392 140.281,37.0151 140.41,36.8911 140.539,36.7671 140.668,36.6431 140.797,36.519 140.926,36.395 141.055,36.2715 141.183,36.1475 141.312,36.0234 141.441,35.8994 141.57,35.7754 141.699,35.6514 141.828,35.5273 141.957,35.4038 142.085,35.2798 142.214,35.1558 142.343,35.0317 142.472,34.9077 142.601,34.7837 142.729,34.6597 142.858,34.5361 142.987,34.4121 143.116,34.2881 143.245,34.1641 143.374,34.04 143.503,33.916 143.632,33.792 143.761,33.668 143.89,33.5444 144.019,33.4204 144.147,33.2964 144.276,33.1724 144.405,33.0483 144.534,32.9243 144.663,32.8003 144.792,32.6768 144.92,32.5527 145.049,32.4287 145.178,32.3047 145.307,32.1807 145.436,32.0566 145.564,31.9326 145.693,31.8091 145.822,31.6851 145.951,31.561 146.08,31.437 146.209,31.313 146.338,31.189 146.467,31.0649 146.596,30.9414 146.725,30.8174 146.854,30.6934 146.982,30.5693 147.111,30.4453 147.24,30.3213 147.369,30.1973 147.498,30.0737" stroke-dasharray="8,3,2,3" stroke="#000000"/>
   <polyline stroke-linecap="square" stroke-linejoin="miter" stroke-width="0.5" fill="none" points="131.25,46.457 137.25,52.457" stroke="#000000"/>
   <polyline stroke-linecap="square" stroke-linejoin="miter" stroke-width="0.5" fill="none" points="131.25,52.457 137.25,46.457" stroke="#000000"/>
   <polyline stroke-linecap="square" stroke-linejoin="miter" stroke-width="0.5" fill="none" points="28.2793,149.242 34.2793,155.242" stroke="#000000"/>
   <polyline stroke-linecap="square" stroke-linejoin="miter" stroke-width="0.5" fill="none" points="28.2793,155.242 34.2793,149.242" stroke="#000000"/>
   <polyline stroke-linecap="square" stroke-linejoin="miter" stroke-width="0.5" fill="none" points="68.46,83.1987 74.46,89.1987" stroke="#000000"/>
   <polyline stroke-linecap="square" stroke-linejoin="miter" stroke-width="0.5" fill="none" points="68.46,89.1987 74.46,83.1987" stroke="#000000"/>
   <polyline stroke-linecap="butt" stroke-linejoin="round" stroke-width="0.5" fill="none" points="30.1284,153.906 30.2314,153.782 30.3345,153.658 30.437,153.534 30.54,153.41 30.6431,153.286 30.7461,153.162 30.8486,153.038 30.9517,152.914 31.0547,152.79 31.1577,152.666 31.2603,152.542 31.3633,152.418 31.4663,152.294 31.5688,152.17 31.6719,152.046 31.7749,151.922 31.8779,151.798 31.9805,151.674 32.0835,151.55 32.1865,151.426 32.2896,151.302 32.3921,151.179 32.4951,151.055 32.5981,150.931 32.7012,150.807 32.8037,150.683 32.9067,150.559 33.0098,150.435 33.1128,150.311 33.2153,150.187 33.3184,150.063 33.4214,149.939 33.5244,149.815 33.627,149.691 33.73,149.567 33.833,149.443 33.936,149.319 34.0386,149.195 34.1416,149.071 34.2446,148.947 34.3472,148.823 34.4502,148.699 34.5532,148.575 34.6562,148.452 34.7588,148.328 34.8618,148.204 34.9648,148.08 35.0679,147.956 35.1704,147.832 35.2734,147.708 35.3765,147.584 35.4795,147.46 35.582,147.336 35.6851,147.212 35.7881,147.088 35.8911,146.964 35.9937,146.84 36.0967,146.716 36.1997,146.592 36.3027,146.468 36.4053,146.344 36.5083,146.22 36.6113,146.096 36.7144,145.972 36.8169,145.849 36.9199,145.725 37.0229,145.601 37.1255,145.477 37.2285,145.353 37.3315,145.229 37.4346,145.104 37.5371,144.98 37.6401,144.857 37.7432,144.733 37.8462,144.609 37.9487,144.485 38.0518,144.361 38.1548,144.237 38.2578,144.113 38.3604,143.989 38.4634,143.865 38.5664,143.741 38.6694,143.617 38.772,143.493 38.875,143.369 38.978,143.245 39.0811,143.122 39.1836,142.998 39.2866,142.874 39.3896,142.75 39.4927,142.625 39.5952,142.501 39.6982,142.377 39.8013,142.254 39.9038,142.13 40.0068,142.006 40.1099,141.882 40.2129,141.758 40.3154,141.634 40.4185,141.51 40.5215,141.386 40.6245,141.262 40.7271,141.138 40.8301,141.014 40.9331,140.89 41.0361,140.766 41.1387,140.642 41.2417,140.518 41.3447,140.395 41.4478,140.271 41.5503,140.146 41.6533,140.022 41.7563,139.898 41.8594,139.774 41.9619,139.65 42.0649,139.527 42.168,139.403 42.2705,139.279 42.3735,139.155 42.4766,139.031 42.5796,138.907 42.6821,138.783 42.7852,138.659 42.8882,138.535 42.9912,138.411 43.0938,138.287 43.1968,138.163 43.2998,138.039 43.4028,137.915 43.5054,137.791 43.6084,137.667 43.7114,137.543 43.8145,137.419 43.917,137.295 44.02,137.171 44.123,137.047 44.2261,136.923 44.3286,136.8 44.4316,136.676 44.5347,136.552 44.6377,136.428 44.7402,136.304 44.8433,136.18 44.9463,136.056 45.0488,135.932 45.1519,135.808 45.2549,135.684 45.3579,135.56 45.4604,135.436 45.5635,135.312 45.6665,135.188 45.7695,135.064 45.8721,134.94 45.9751,134.816 46.0781,134.692 46.1812,134.568 46.2837,134.444 46.3867,134.32 46.4897,134.197 46.5928,134.073 46.6953,133.949 46.7983,133.825 46.9014,133.701 47.0044,133.577 47.1069,133.453 47.21,133.329 47.313,133.205 47.416,133.081 47.5186,132.957 47.6216,132.833 47.7246,132.709 47.8271,132.585 47.9302,132.461 48.0332,132.337 48.1362,132.213 48.2388,132.089 48.3418,131.965 48.4448,131.841 48.5479,131.717 48.6504,131.593 48.7534,131.47 48.8564,131.346 48.9595,131.222 49.062,131.098 49.165,130.974 49.2681,130.85 49.3711,130.726 49.4736,130.602 49.5767,130.478 49.6797,130.354 49.7827,130.23 49.8853,130.106 49.9883,129.982 50.0913,129.858 50.1943,129.734 50.2969,129.61 50.3999,129.486 50.5029,129.362 50.6055,129.238 50.7085,129.114 50.8115,128.99 50.9146,128.866 51.0171,128.743 51.1201,128.619 51.2231,128.495 51.3262,128.371 51.4287,128.247 51.5317,128.123 51.6348,127.999 51.7378,127.875 51.8403,127.751 51.9434,127.627 52.0464,127.503 52.1494,127.379 52.252,127.255 52.355,127.131 52.458,127.007 52.561,126.883 52.6636,126.759 52.7666,126.635 52.8696,126.511 52.9727,126.387 53.0752,126.263 53.1782,126.139 53.2812,126.016 53.3838,125.892 53.4868,125.768 53.5898,125.644 53.6929,125.52 53.7954,125.396 53.8984,125.271 54.0015,125.148 54.1045,125.024 54.207,124.9 54.3101,124.776 54.4131,124.652 54.5161,124.528 54.6187,124.404 54.7217,124.28 54.8247,124.156 54.9277,124.032 55.0303,123.908 55.1333,123.784 55.2363,123.66 55.3394,123.536 55.4419,123.413 55.5449,123.289 55.6479,123.165 55.751,123.041 55.8535,122.917 55.9565,122.792 56.0596,122.668 56.1621,122.544 56.2651,122.421 56.3682,122.297 56.4712,122.173 56.5737,122.049 56.6768,121.925 56.7798,121.801 56.8828,121.677 56.9854,121.553 57.0884,121.429 57.1914,121.305 57.2944,121.181 57.397,121.057 57.5,120.933 57.603,120.809 57.7061,120.686 57.8086,120.562 57.9116,120.438 58.0146,120.313 58.1177,120.189 58.2202,120.065 58.3232,119.941 58.4263,119.818 58.5288,119.694 58.6318,119.57 58.7349,119.446 58.8379,119.322 58.9404,119.198 59.0435,119.074 59.1465,118.95 59.2495,118.826 59.3521,118.702 59.4551,118.578 59.5581,118.454 59.6611,118.33 59.7637,118.206 59.8667,118.082 59.9697,117.958 60.0728,117.834 60.1753,117.71 60.2783,117.586 60.3813,117.462 60.4844,117.338 60.5869,117.214 60.6899,117.091 60.793,116.967 60.896,116.843 60.9985,116.719 61.1016,116.595 61.2046,116.471 61.3071,116.347 61.4102,116.223 61.5132,116.099 61.6162,115.975 61.7188,115.851 61.8218,115.727 61.9248,115.603 62.0278,115.479 62.1304,115.355 62.2334,115.231 62.3364,115.107 62.4395,114.983 62.542,114.859 62.645,114.735 62.748,114.611 62.8511,114.487 62.9536,114.364 63.0566,114.24 63.1597,114.116 63.2627,113.992 63.3652,113.868 63.4683,113.744 63.5713,113.62 63.6743,113.496 63.7769,113.372 63.8799,113.248 63.9829,113.124 64.0854,113 64.1885,112.876 64.2915,112.752 64.3945,112.628 64.4971,112.504 64.6001,112.38 64.7031,112.256 64.8062,112.132 64.9087,112.008 65.0117,111.884 65.1147,111.76 65.2178,111.637 65.3203,111.513 65.4233,111.389 65.5264,111.265 65.6294,111.141 65.7319,111.017 65.835,110.893 65.938,110.769 66.041,110.645 66.1436,110.521 66.2466,110.397 66.3496,110.273 66.4526,110.149 66.5552,110.025 66.6582,109.901 66.7612,109.777 66.8638,109.653 66.9668,109.529 67.0698,109.405 67.1729,109.281 67.2754,109.157 67.3784,109.034 67.4814,108.91 67.5845,108.786 67.687,108.662 67.79,108.538 67.8931,108.414 67.9961,108.29 68.0986,108.166 68.2017,108.042 68.3047,107.918 68.4077,107.794 68.5103,107.67 68.6133,107.546 68.7163,107.422 68.8193,107.298 68.9219,107.174 69.0249,107.05 69.1279,106.926 69.231,106.802 69.3335,106.678 69.4365,106.554 69.5396,106.43 69.6421,106.307 69.7451,106.183 69.8481,106.059 69.9512,105.935 70.0537,105.811 70.1567,105.687 70.2598,105.562 70.3628,105.439 70.4653,105.315 70.5684,105.191 70.6714,105.067 70.7744,104.943 70.877,104.819 70.98,104.695 71.083,104.571 71.186,104.447 71.2886,104.323 71.3916,104.199 71.4946,104.075 71.5977,103.951 71.7002,103.827 71.8032,103.703 71.9062,103.58 72.0093,103.456 72.1118,103.332 72.2148,103.208 72.3179,103.083 72.4204,102.959 72.5234,102.835 72.6265,102.712 72.7295,102.588 72.832,102.464 72.9351,102.34 73.0381,102.216 73.1411,102.092 73.2437,101.968 73.3467,101.844 73.4497,101.72 73.5527,101.596 73.6553,101.472 73.7583,101.348 73.8613,101.224 73.9644,101.1 74.0669,100.977 74.1699,100.853 74.2729,100.729 74.376,100.604 74.4785,100.48 74.5815,100.356 74.6846,100.232 74.7871,100.108 74.8901,99.9849 74.9932,99.8608 75.0962,99.7368 75.1987,99.6128 75.3018,99.4888 75.4048,99.3647 75.5078,99.2407 75.6104,99.1172 75.7134,98.9932 75.8164,98.8691 75.9194,98.7451 76.022,98.6211 76.125,98.4971 76.228,98.373 76.3311,98.2495 76.4336,98.1255 76.5366,98.0015 76.6396,97.8774 76.7427,97.7534 76.8452,97.6294 76.9482,97.5054 77.0513,97.3818 77.1543,97.2578 77.2568,97.1338 77.3599,97.0098 77.4629,96.8857 77.5654,96.7617 77.6685,96.6377 77.7715,96.5137 77.8745,96.3901 77.9771,96.2661 78.0801,96.1421 78.1831,96.0181 78.2861,95.894 78.3887,95.77 78.4917,95.646 78.5947,95.5225 78.6978,95.3984 78.8003,95.2744 78.9033,95.1504 79.0063,95.0264 79.1094,94.9023 79.2119,94.7783 79.3149,94.6548 79.418,94.5308 79.521,94.4067 79.6235,94.2827 79.7266,94.1587 79.8296,94.0347 79.9326,93.9106 80.0352,93.7871 80.1382,93.6631 80.2412,93.5391 80.3438,93.415 80.4468,93.291 80.5498,93.167 80.6528,93.043 80.7554,92.9189 80.8584,92.7954 80.9614,92.6714 81.0645,92.5474 81.167,92.4233 81.27,92.2993 81.373,92.1753 81.4761,92.0513 81.5786,91.9277 81.6816,91.8037 81.7847,91.6797 81.8877,91.5557 81.9902,91.4316 82.0933,91.3076 82.1963,91.1836 82.2993,91.0601 82.4019,90.936 82.5049,90.812 82.6079,90.688 82.7109,90.564 82.8135,90.4399 82.9165,90.3159 83.0195,90.1924 83.1221,90.0684 83.2251,89.9443 83.3281,89.8203 83.4312,89.6963 83.5337,89.5723 83.6367,89.4482 83.7397,89.3242 83.8428,89.2007 83.9453,89.0767 84.0483,88.9526 84.1514,88.8286 84.2544,88.7046 84.3569,88.5806 84.46,88.4565 84.563,88.333 84.666,88.209 84.7686,88.085 84.8716,87.9609 84.9746,87.8369 85.0776,87.7129 85.1802,87.5889 85.2832,87.4653 85.3862,87.3413 85.4893,87.2173 85.5918,87.0933 85.6948,86.9692 85.7979,86.8452 85.9004,86.7212 86.0034,86.5977 86.1064,86.4736 86.2095,86.3496 86.312,86.2256 86.415,86.1016 86.5181,85.9775 86.6211,85.8535 86.7236,85.73 86.8267,85.606 86.9297,85.4819 87.0327,85.3579 87.1353,85.2339 87.2383,85.1099 87.3413,84.9858 87.4443,84.8618 87.5469,84.7383 87.6499,84.6143 87.7529,84.4902 87.856,84.3662 87.9585,84.2422 88.0615,84.1182 88.1646,83.9941 88.2671,83.8706 88.3701,83.7466 88.4731,83.6226 88.5762,83.4985 88.6787,83.3745 88.7817,83.2505 88.8848,83.1265 88.9878,83.0029 89.0903,82.8789 89.1934,82.7549 89.2964,82.6309 89.3994,82.5068 89.502,82.3828 89.605,82.2588 89.708,82.1353 89.811,82.0112 89.9136,81.8872 90.0166,81.7632 90.1196,81.6392 90.2227,81.5151 90.3252,81.3911 90.4282,81.2671 90.5312,81.1436 90.6343,81.0195 90.7368,80.8955 90.8398,80.7715 90.9429,80.6475 91.0454,80.5234 91.1484,80.3994 91.2515,80.2759 91.3545,80.1519 91.457,80.0278 91.5601,79.9038 91.6631,79.7798 91.7661,79.6558 91.8687,79.5317 91.9717,79.4082 92.0747,79.2842 92.1777,79.1602 92.2803,79.0361 92.3833,78.9121 92.4863,78.7881 92.5894,78.6641 92.6919,78.5405 92.7949,78.4165 92.8979,78.2925 93.001,78.1685 93.1035,78.0444 93.2065,77.9204 93.3096,77.7964 93.4126,77.6724 93.5151,77.5488 93.6182,77.4248 93.7212,77.3008 93.8237,77.1768 93.9268,77.0527 94.0298,76.9287 94.1328,76.8047 94.2354,76.6812 94.3384,76.5571 94.4414,76.4331 94.5444,76.3091 94.647,76.1851 94.75,76.061 94.853,75.937 94.9561,75.8135 95.0586,75.6895 95.1616,75.5654 95.2646,75.4414 95.3677,75.3174 95.4702,75.1934 95.5732,75.0693 95.6763,74.9458 95.7793,74.8218 95.8818,74.6978 95.9849,74.5737 96.0879,74.4497 96.1909,74.3257 96.2935,74.2017 96.3965,74.0776 96.4995,73.9541 96.6021,73.8301 96.7051,73.7061 96.8081,73.582 96.9111,73.458 97.0137,73.334 97.1167,73.21 97.2197,73.0864 97.3228,72.9624 97.4253,72.8384 97.5283,72.7144 97.6313,72.5903 97.7344,72.4663 97.8369,72.3423 97.9399,72.2188 98.043,72.0947 98.146,71.9707 98.2485,71.8467 98.3516,71.7227 98.4546,71.5986 98.5576,71.4746 98.6602,71.3511 98.7632,71.2271 98.8662,71.103 98.9692,70.979 99.0718,70.855 99.1748,70.731 99.2778,70.6069 99.3804,70.4829 99.4834,70.3594 99.5864,70.2354 99.6895,70.1113 99.792,69.9873 99.895,69.8633 99.998,69.7393 100.101,69.6152 100.204,69.4917 100.307,69.3677 100.41,69.2437 100.513,69.1196 100.615,68.9956 100.718,68.8716 100.821,68.7476 100.924,68.624 101.027,68.5 101.13,68.376 101.233,68.252 101.336,68.1279 101.438,68.0039 101.542,67.8799 101.645,67.7563 101.747,67.6323 101.85,67.5083 101.953,67.3843 102.056,67.2603 102.159,67.1362 102.262,67.0122 102.365,66.8882 102.468,66.7646 102.57,66.6406 102.673,66.5166 102.776,66.3926 102.879,66.2686 102.982,66.1445 103.085,66.0205 103.188,65.897 103.291,65.7729 103.394,65.6489 103.497,65.5249 103.6,65.4009 103.703,65.2769 103.805,65.1528 103.908,65.0293 104.011,64.9053 104.114,64.7812 104.217,64.6572 104.32,64.5332 104.423,64.4092 104.525,64.2852 104.628,64.1616 104.731,64.0376 104.834,63.9136 104.937,63.7896 105.04,63.6655 105.143,63.5415 105.246,63.4175 105.349,63.2935 105.452,63.1699 105.555,63.0459 105.658,62.9219 105.76,62.7979 105.863,62.6738 105.966,62.5498 106.069,62.4258 106.172,62.3022 106.275,62.1782 106.378,62.0542 106.481,61.9302 106.583,61.8062 106.687,61.6821 106.79,61.5581 106.893,61.4346 106.995,61.3105 107.098,61.1865 107.201,61.0625 107.304,60.9385 107.407,60.8145 107.51,60.6904 107.613,60.5669 107.715,60.4429 107.818,60.3188 107.921,60.1948 108.024,60.0708 108.127,59.9468 108.23,59.8228 108.333,59.6987 108.436,59.5752 108.539,59.4512 108.642,59.3271 108.745,59.2031 108.848,59.0791 108.95,58.9551 109.053,58.8311 109.156,58.7075 109.259,58.5835 109.362,58.4595 109.465,58.3354 109.568,58.2114 109.671,58.0874 109.773,57.9634 109.876,57.8398 109.979,57.7158 110.082,57.5918 110.185,57.4678 110.288,57.3438 110.391,57.2197 110.494,57.0957 110.597,56.9722 110.7,56.8481 110.803,56.7241 110.905,56.6001 111.008,56.4761 111.111,56.3521 111.214,56.228 111.317,56.1045 111.42,55.9805 111.523,55.8564 111.626,55.7324 111.729,55.6084 111.832,55.4844 111.935,55.3604 112.038,55.2363 112.14,55.1128 112.243,54.9888 112.346,54.8647 112.449,54.7407 112.552,54.6167 112.655,54.4927 112.758,54.3687 112.86,54.2451 112.963,54.1211 113.066,53.9971 113.169,53.873 113.272,53.749 113.375,53.625 113.478,53.501 113.581,53.3774 113.684,53.2534 113.787,53.1294 113.89,53.0054 113.993,52.8813 114.095,52.7573 114.198,52.6333 114.301,52.5098 114.404,52.3857 114.507,52.2617 114.61,52.1377 114.713,52.0137 114.816,51.8896 114.918,51.7656 115.021,51.6416 115.125,51.5181 115.228,51.394 115.33,51.27 115.433,51.146 115.536,51.022 115.639,50.8979 115.742,50.7739 115.845,50.6504 115.948,50.5264 116.05,50.4023 116.153,50.2783 116.256,50.1543 116.359,50.0303 116.462,49.9062 116.565,49.7827 116.668,49.6587 116.771,49.5347 116.874,49.4106 116.977,49.2866 117.08,49.1626 117.183,49.0386 117.285,48.915 117.388,48.791 117.491,48.667 117.594,48.543 117.697,48.4189 117.8,48.2949 117.903,48.1709 118.006,48.0469 118.108,47.9233 118.211,47.7993 118.314,47.6753 118.417,47.5513 118.52,47.4272 118.623,47.3032 118.726,47.1792 118.829,47.0557 118.932,46.9316 119.035,46.8076 119.138,46.6836 119.24,46.5596 119.343,46.4355 119.446,46.3115 119.549,46.188 119.652,46.064 119.755,45.9399 119.858,45.8159 119.961,45.6919 120.063,45.5679 120.167,45.4438 120.27,45.3203 120.373,45.1963 120.475,45.0723 120.578,44.9482 120.681,44.8242 120.784,44.7002 120.887,44.5762 120.99,44.4521 121.093,44.3286 121.195,44.2046 121.298,44.0806 121.401,43.9565 121.504,43.8325 121.607,43.7085 121.71,43.5845 121.813,43.4609 121.916,43.3369 122.019,43.2129 122.122,43.0889 122.225,42.9648 122.328,42.8408 122.43,42.7168 122.533,42.5933 122.636,42.4692 122.739,42.3452 122.842,42.2212 122.945,42.0972 123.048,41.9731 123.151,41.8491 123.253,41.7256 123.356,41.6016 123.459,41.4775 123.562,41.3535 123.665,41.2295 123.768,41.1055 123.871,40.9814 123.974,40.8574 124.077,40.7339 124.18,40.6099 124.283,40.4858 124.385,40.3618 124.488,40.2378 124.591,40.1138 124.694,39.9897 124.797,39.8662 124.9,39.7422 125.003,39.6182 125.106,39.4941 125.208,39.3701 125.312,39.2461 125.415,39.1221 125.518,38.9985 125.62,38.8745 125.723,38.7505 125.826,38.6265 125.929,38.5024 126.032,38.3784 126.135,38.2544 126.238,38.1309 126.34,38.0068 126.443,37.8828 126.546,37.7588 126.649,37.6348 126.752,37.5107 126.855,37.3867 126.958,37.2632 127.061,37.1392 127.164,37.0151 127.267,36.8911 127.37,36.7671 127.473,36.6431 127.575,36.519 127.678,36.395 127.781,36.2715 127.884,36.1475 127.987,36.0234 128.09,35.8994 128.193,35.7754 128.296,35.6514 128.398,35.5273 128.501,35.4038 128.604,35.2798 128.708,35.1558 128.81,35.0317 128.913,34.9077 129.016,34.7837 129.119,34.6597 129.222,34.5361 129.325,34.4121 129.428,34.2881 129.53,34.1641 129.633,34.04 129.736,33.916 129.839,33.792 129.942,33.668 130.045,33.5444 130.148,33.4204 130.251,33.2964 130.354,33.1724 130.457,33.0483 130.56,32.9243 130.663,32.8003 130.765,32.6768 130.868,32.5527 130.971,32.4287 131.074,32.3047 131.177,32.1807 131.28,32.0566 131.383,31.9326 131.486,31.8091 131.588,31.6851 131.691,31.561 131.794,31.437 131.897,31.313 132,31.189 132.103,31.0649 132.206,30.9414 132.309,30.8174 132.412,30.6934 132.515,30.5693 132.618,30.4453 132.72,30.3213 132.823,30.1973 132.926,30.0737" stroke="#000000"/>
   <polyline stroke-linecap="square" stroke-linejoin="miter" stroke-width="0.5" fill="none" points="61.2852,112.719 67.2852,112.719" stroke="#000000"/>
   <polyline stroke-linecap="square" stroke-linejoin="miter" stroke-width="0.5" fill="none" points="64.2852,109.719 64.2852,115.719" stroke="#000000"/>
   <polyline stroke-linecap="square" stroke-linejoin="miter" stroke-width="0.5" fill="none" points="62.1636,110.598 66.4062,114.84" stroke="#000000"/>
   <polyline stroke-linecap="square" stroke-linejoin="miter" stroke-width="0.5" fill="none" points="62.1636,114.84 66.4062,110.598" stroke="#000000"/>
   <polyline stroke-linecap="square" stroke-linejoin="miter" stroke-width="0.5" fill="none" points="28.2793,152.212 34.2793,152.212" stroke="#000000"/>
   <polyline stroke-linecap="square" stroke-linejoin="miter" stroke-width="0.5" fill="none" points="31.2793,149.212 31.2793,155.212" stroke="#000000"/>
   <polyline stroke-linecap="square" stroke-linejoin="miter" stroke-width="0.5" fill="none" points="29.1582,150.091 33.4004,154.333" stroke="#000000"/>
   <polyline stroke-linecap="square" stroke-linejoin="miter" stroke-width="0.5" fill="none" points="29.1582,154.333 33.4004,150.091" stroke="#000000"/>
   <polyline stroke-linecap="square" stroke-linejoin="miter" stroke-width="0.5" fill="none" points="32.1621,148.19 38.1621,148.19" stroke="#000000"/>
   <polyline stroke-linecap="square" stroke-linejoin="miter" stroke-width="0.5" fill="none" points="35.1621,145.19 35.1621,151.19" stroke="#000000"/>
   <polyline stroke-linecap="square" stroke-linejoin="miter" stroke-width="0.5" fill="none" points="33.0405,146.069 37.2832,150.312" stroke="#000000"/>
   <polyline stroke-linecap="square" stroke-linejoin="miter" stroke-width="0.5" fill="none" points="33.0405,150.312 37.2832,146.069" stroke="#000000"/>
   <polyline stroke-linecap="butt" stroke-linejoin="round" stroke-width="0.3" fill="none" points="134.25,153.906 134.25,30.0737" stroke-dasharray="1,3,1,3,1,3,1,3" stroke="#000000"/>
   <g xml:space="preserve" font-weight="normal" transform="translate(127.25,39.9463) rotate(-90,7,-7)" font-style="normal" font-size="8" font-family="'Liberation Serif'">
    <text y="-0" fill="rgb(0,0,0)" x="0 3 ">f2</text>
   </g>
   <polyline stroke-linecap="butt" stroke-linejoin="round" stroke-width="0.3" fill="none" points="31.2793,153.906 31.2793,30.0737" stroke-dasharray="1,3,1,3,1,3,1,3" stroke="#000000"/>
   <g xml:space="preserve" font-weight="normal" transform="translate(24.2793,39.9463) rotate(-90,7,-7)" font-style="normal" font-size="8" font-family="'Liberation Serif'">
    <text y="-0" fill="rgb(0,0,0)" x="0 3 ">f3</text>
   </g>
   <polyline stroke-linecap="butt" stroke-linejoin="round" stroke-width="0.3" fill="none" points="71.46,153.906 71.46,30.0737" stroke-dasharray="1,3,1,3,1,3,1,3" stroke="#000000"/>
   <g xml:space="preserve" font-weight="normal" transform="translate(64.4598,39.9463) rotate(-90,7,-7)" font-style="normal" font-size="8" font-family="'Liberation Serif'">
    <text y="-0" fill="rgb(0,0,0)" x="0 3 ">f1</text>
   </g>
   <polyline stroke-linecap="butt" stroke-linejoin="round" stroke-width="0.5" fill="none" points="64.2852,153.906 64.2852,30.0737" stroke-dasharray="1,3,1,3,1,3,1,3" stroke="#000000"/>
   <g xml:space="preserve" font-weight="normal" transform="translate(56.2851,52.0422) rotate(-90,8,-7)" font-style="normal" font-size="8" font-family="'Liberation Serif'">
    <text y="-0" fill="rgb(0,0,0)" x="0 4 ">a2</text>
   </g>
   <polyline stroke-linecap="butt" stroke-linejoin="round" stroke-width="0.5" fill="none" points="31.2793,153.906 31.2793,30.0737" stroke-dasharray="1,3,1,3,1,3,1,3" stroke="#000000"/>
   <g xml:space="preserve" font-weight="normal" transform="translate(23.2793,52.0422) rotate(-90,8,-7)" font-style="normal" font-size="8" font-family="'Liberation Serif'">
    <text y="-0" fill="rgb(0,0,0)" x="0 4 ">a3</text>
   </g>
   <polyline stroke-linecap="butt" stroke-linejoin="round" stroke-width="0.5" fill="none" points="35.1621,153.906 35.1621,30.0737" stroke-dasharray="1,3,1,3,1,3,1,3" stroke="#000000"/>
   <g xml:space="preserve" font-weight="normal" transform="translate(27.162,52.0422) rotate(-90,8,-7)" font-style="normal" font-size="8" font-family="'Liberation Serif'">
    <text y="-0" fill="rgb(0,0,0)" x="0 4 ">a1</text>
   </g>
   <g xml:space="preserve" font-weight="normal" transform="translate(83.3901,148.334) rotate(-0,-0,-3.5)" font-style="normal" font-size="8" font-family="'Liberation Serif'">
    <text y="-0" fill="rgb(0,0,0)" x="0 6 11 17 21 25 28 34 40 43 50 56 61 65 69 72 76 80 ">UCASS-AA-MAZ04-006</text>
   </g>
  </g>
  <clipPath id="cp00176176">
   <polygon points="0,176 176,176 176,0 0,0"/>
  </clipPath>
  <g clip-path="url(#cp00176176)">
   <polyline stroke-linecap="butt" stroke-linejoin="miter" stroke-width="0.5" fill="none" points="30.0732,30.0737 30.0732,31.4429" stroke="#262626"/>
   <polyline stroke-linecap="butt" stroke-linejoin="miter" stroke-width="0.5" fill="none" points="93.3501,30.0737 93.3501,31.4429" stroke="#262626"/>
   <polyline stroke-linecap="butt" stroke-linejoin="miter" stroke-width="0.5" fill="none" points="124.989,30.0737 124.989,31.4429" stroke="#262626"/>
   <polyline stroke-linecap="butt" stroke-linejoin="miter" stroke-width="0.5" fill="none" points="146.081,30.0737 146.081,31.4429" stroke="#262626"/>
   <g xml:space="preserve" font-weight="normal" transform="translate(28.5735,25.5796) rotate(-0,1.5,0)" font-style="normal" font-size="6" font-family="'Liberation Serif'">
    <text y="-1" fill="rgb(38,38,38)" x="0 ">0</text>
   </g>
   <g xml:space="preserve" font-weight="normal" transform="translate(91.8503,25.5796) rotate(-0,1.5,0)" font-style="normal" font-size="6" font-family="'Liberation Serif'">
    <text y="-1" fill="rgb(38,38,38)" x="0 ">6</text>
   </g>
   <g xml:space="preserve" font-weight="normal" transform="translate(123.489,25.5796) rotate(-0,1.5,0)" font-style="normal" font-size="6" font-family="'Liberation Serif'">
    <text y="-1" fill="rgb(38,38,38)" x="0 ">9</text>
   </g>
   <g xml:space="preserve" font-weight="normal" transform="translate(143.081,25.5796) rotate(-0,3,0)" font-style="normal" font-size="6" font-family="'Liberation Serif'">
    <text y="-0" fill="rgb(38,38,38)" x="0 3 ">11</text>
   </g>
   <polyline stroke-linecap="square" stroke-linejoin="miter" stroke-width="0.5" fill="none" points="167.173,30.0737 30.0732,30.0737" stroke-dasharray="16,0" stroke="#262626"/>
   <polyline stroke-linecap="square" stroke-linejoin="miter" stroke-width="0.5" fill="none" points="167.173,30.0737 167.173,153.906" stroke-dasharray="16,0" stroke="#262626"/>
  </g>
 </g>
</svg>
