<?xml version='1.0' encoding='UTF-8' standalone='no'?>
<svg xmlns:xlink="http://www.w3.org/1999/xlink" viewBox="0 0 176 176" height="176pt" width="176pt" xmlns="http://www.w3.org/2000/svg">
 <title>Figure 3</title>
 <desc>
Creator: GL2PS 1.4.2, (C) 1999-2020 C. Geuzaine
For: Octave
CreationDate: Wed Feb 14 10:31:09 2024
</desc>
 <defs/>
 <polygon fill="#ffffff" points="0,0 176,0 176,176 0,176"/>
 <g>
  <polygon fill="#ffffff" shape-rendering="crispEdges" points="0,176 176,176 176,0 0,0"/>
  <clipPath id="cp00176176">
   <polygon points="0,176 176,176 176,0 0,0"/>
  </clipPath>
  <g clip-path="url(#cp00176176)">
   <polygon fill="#ffffff" shape-rendering="crispEdges" points="30.0732,153.906 167.173,153.906 167.173,30.0737 30.0732,30.0737"/>
   <polyline stroke-linejoin="miter" stroke="#262626" stroke-width="0.5" fill="none" stroke-linecap="butt" points="30.0732,153.906 30.0732,152.537"/>
   <polyline stroke-linejoin="miter" stroke="#262626" stroke-width="0.5" fill="none" stroke-linecap="butt" points="60.54,153.906 60.54,152.537"/>
   <polyline stroke-linejoin="miter" stroke="#262626" stroke-width="0.5" fill="none" stroke-linecap="butt" points="91.0068,153.906 91.0068,152.537"/>
   <polyline stroke-linejoin="miter" stroke="#262626" stroke-width="0.5" fill="none" stroke-linecap="butt" points="121.473,153.906 121.473,152.537"/>
   <polyline stroke-linejoin="miter" stroke="#262626" stroke-width="0.5" fill="none" stroke-linecap="butt" points="151.94,153.906 151.94,152.537"/>
   <g transform="translate(28.5735,163.399) rotate(-0,1.5,-5)" font-size="6" xml:space="preserve" font-family="'Liberation Serif'" font-weight="normal" font-style="normal">
    <text fill="rgb(38,38,38)" x="0 " y="-1">0</text>
   </g>
   <g transform="translate(53.5401,163.399) rotate(-0,7,-5)" font-size="6" xml:space="preserve" font-family="'Liberation Serif'" font-weight="normal" font-style="normal">
    <text fill="rgb(38,38,38)" x="0 3 6 8 11 " y="-1">2e-05</text>
   </g>
   <g transform="translate(84.0067,163.399) rotate(-0,7,-5)" font-size="6" xml:space="preserve" font-family="'Liberation Serif'" font-weight="normal" font-style="normal">
    <text fill="rgb(38,38,38)" x="0 3 6 8 11 " y="-1">4e-05</text>
   </g>
   <g transform="translate(114.473,163.399) rotate(-0,7,-5)" font-size="6" xml:space="preserve" font-family="'Liberation Serif'" font-weight="normal" font-style="normal">
    <text fill="rgb(38,38,38)" x="0 3 6 8 11 " y="-1">6e-05</text>
   </g>
   <g transform="translate(144.94,163.399) rotate(-0,7,-5)" font-size="6" xml:space="preserve" font-family="'Liberation Serif'" font-weight="normal" font-style="normal">
    <text fill="rgb(38,38,38)" x="0 3 6 8 11 " y="-1">8e-05</text>
   </g>
   <polyline stroke-linejoin="miter" stroke="#262626" stroke-width="0.5" fill="none" stroke-linecap="butt" points="30.0732,153.906 31.4453,153.906"/>
   <polyline stroke-linejoin="miter" stroke="#262626" stroke-width="0.5" fill="none" stroke-linecap="butt" points="30.0732,123.666 31.4453,123.666"/>
   <polyline stroke-linejoin="miter" stroke="#262626" stroke-width="0.5" fill="none" stroke-linecap="butt" points="30.0732,93.4258 31.4453,93.4258"/>
   <polyline stroke-linejoin="miter" stroke="#262626" stroke-width="0.5" fill="none" stroke-linecap="butt" points="30.0732,63.186 31.4453,63.186"/>
   <polyline stroke-linejoin="miter" stroke="#262626" stroke-width="0.5" fill="none" stroke-linecap="butt" points="30.0732,32.9463 31.4453,32.9463"/>
   <g transform="translate(24.0713,156.406) rotate(-0,3,-2.5)" font-size="6" xml:space="preserve" font-family="'Liberation Serif'" font-weight="normal" font-style="normal">
    <text fill="rgb(38,38,38)" x="0 " y="-1">0</text>
   </g>
   <g transform="translate(15.0713,126.166) rotate(-0,12,-2.5)" font-size="6" xml:space="preserve" font-family="'Liberation Serif'" font-weight="normal" font-style="normal">
    <text fill="rgb(38,38,38)" x="0 3 6 9 " y="-1">1000</text>
   </g>
   <g transform="translate(15.0713,95.9259) rotate(-0,12,-2.5)" font-size="6" xml:space="preserve" font-family="'Liberation Serif'" font-weight="normal" font-style="normal">
    <text fill="rgb(38,38,38)" x="0 3 6 9 " y="-1">2000</text>
   </g>
   <g transform="translate(15.0713,65.6861) rotate(-0,12,-2.5)" font-size="6" xml:space="preserve" font-family="'Liberation Serif'" font-weight="normal" font-style="normal">
    <text fill="rgb(38,38,38)" x="0 3 6 9 " y="-1">3000</text>
   </g>
   <g transform="translate(15.0713,35.4463) rotate(-0,12,-2.5)" font-size="6" xml:space="preserve" font-family="'Liberation Serif'" font-weight="normal" font-style="normal">
    <text fill="rgb(38,38,38)" x="0 3 6 9 " y="-1">4000</text>
   </g>
   <polyline stroke-linejoin="miter" stroke="#262626" stroke-width="0.5" fill="none" stroke-linecap="square" stroke-dasharray="16,0" points="30.0732,153.906 167.173,153.906"/>
   <polyline stroke-linejoin="miter" stroke="#262626" stroke-width="0.5" fill="none" stroke-linecap="square" stroke-dasharray="16,0" points="30.0732,153.906 30.0732,30.0737"/>
   <polyline stroke-linejoin="round" stroke="#000000" stroke-width="0.5" fill="none" stroke-linecap="butt" stroke-dasharray="9,7" points="30.0732,153.906 30.2173,153.693 30.3608,153.481 30.5044,153.269 30.6479,153.057 30.7915,152.844 30.9351,152.632 31.0786,152.42 31.2222,152.208 31.3662,151.995 31.5098,151.783 31.6533,151.571 31.7969,151.358 31.9404,151.146 32.084,150.934 32.2275,150.722 32.3711,150.509 32.5146,150.297 32.6587,150.085 32.8022,149.873 32.9458,149.661 33.0894,149.448 33.2329,149.236 33.3765,149.023 33.52,148.812 33.6636,148.599 33.8071,148.387 33.9512,148.175 34.0947,147.962 34.2383,147.75 34.3818,147.538 34.5254,147.326 34.6689,147.113 34.8125,146.901 34.9561,146.689 35.0996,146.477 35.2437,146.264 35.3872,146.052 35.5308,145.84 35.6743,145.627 35.8179,145.416 35.9614,145.203 36.105,144.991 36.2485,144.778 36.3921,144.566 36.5361,144.354 36.6797,144.142 36.8232,143.93 36.9668,143.717 37.1104,143.505 37.2539,143.293 37.3975,143.081 37.541,142.868 37.6846,142.656 37.8286,142.444 37.9722,142.231 38.1157,142.019 38.2593,141.807 38.4028,141.595 38.5464,141.382 38.6899,141.17 38.8335,140.958 38.9771,140.746 39.1211,140.533 39.2646,140.321 39.4082,140.109 39.5518,139.896 39.6953,139.685 39.8389,139.472 39.9824,139.26 40.126,139.048 40.2695,138.835 40.4136,138.623 40.5571,138.411 40.7007,138.199 40.8442,137.986 40.9878,137.774 41.1313,137.562 41.2749,137.35 41.4185,137.137 41.562,136.925 41.7061,136.713 41.8496,136.5 41.9932,136.288 42.1367,136.076 42.2803,135.864 42.4238,135.651 42.5674,135.439 42.7109,135.227 42.8545,135.015 42.9985,134.803 43.1421,134.59 43.2856,134.378 43.4292,134.166 43.5728,133.954 43.7163,133.741 43.8599,133.529 44.0034,133.317 44.1475,133.104 44.291,132.892 44.4346,132.68 44.5781,132.468 44.7217,132.255 44.8652,132.043 45.0088,131.831 45.1523,131.619 45.2959,131.406 45.4399,131.194 45.5835,130.982 45.7271,130.77 45.8706,130.558 46.0142,130.345 46.1577,130.133 46.3013,129.92 46.4448,129.708 46.5884,129.496 46.7324,129.284 46.876,129.072 47.0195,128.859 47.1631,128.647 47.3066,128.435 47.4502,128.223 47.5938,128.01 47.7373,127.798 47.8809,127.586 48.0249,127.374 48.1685,127.161 48.312,126.949 48.4556,126.737 48.5991,126.524 48.7427,126.312 48.8862,126.1 49.0298,125.888 49.1733,125.675 49.3174,125.463 49.4609,125.251 49.6045,125.039 49.748,124.827 49.8916,124.614 50.0352,124.402 50.1787,124.19 50.3223,123.978 50.4658,123.765 50.6099,123.553 50.7534,123.341 50.897,123.128 51.0405,122.916 51.1841,122.704 51.3276,122.492 51.4712,122.279 51.6147,122.067 51.7583,121.855 51.9023,121.643 52.0459,121.431 52.1895,121.218 52.333,121.006 52.4766,120.793 52.6201,120.582 52.7637,120.369 52.9072,120.157 53.0508,119.945 53.1948,119.732 53.3384,119.52 53.4819,119.308 53.6255,119.096 53.769,118.883 53.9126,118.671 54.0562,118.459 54.1997,118.247 54.3433,118.034 54.4873,117.822 54.6309,117.61 54.7744,117.397 54.918,117.186 55.0615,116.973 55.2051,116.761 55.3486,116.548 55.4922,116.336 55.6357,116.124 55.7798,115.912 55.9233,115.7 56.0669,115.487 56.2104,115.275 56.354,115.063 56.4976,114.851 56.6411,114.638 56.7847,114.426 56.9282,114.214 57.0723,114.001 57.2158,113.789 57.3594,113.577 57.5029,113.365 57.6465,113.152 57.79,112.94 57.9336,112.728 58.0771,112.516 58.2212,112.303 58.3647,112.091 58.5083,111.879 58.6519,111.667 58.7954,111.455 58.939,111.242 59.0825,111.03 59.2261,110.818 59.3696,110.605 59.5137,110.393 59.6572,110.181 59.8008,109.969 59.9443,109.756 60.0879,109.544 60.2314,109.332 60.375,109.12 60.5186,108.907 60.6621,108.695 60.8062,108.483 60.9497,108.271 61.0933,108.058 61.2368,107.846 61.3804,107.634 61.5239,107.421 61.6675,107.209 61.811,106.997 61.9546,106.785 62.0986,106.573 62.2422,106.36 62.3857,106.148 62.5293,105.936 62.6729,105.724 62.8164,105.511 62.96,105.299 63.1035,105.087 63.2471,104.875 63.3911,104.662 63.5347,104.45 63.6782,104.238 63.8218,104.025 63.9653,103.813 64.1089,103.601 64.2524,103.389 64.396,103.176 64.5396,102.964 64.6836,102.752 64.8271,102.54 64.9707,102.328 65.1143,102.115 65.2578,101.903 65.4014,101.69 65.5449,101.479 65.6885,101.266 65.832,101.054 65.9761,100.842 66.1196,100.629 66.2632,100.417 66.4067,100.205 66.5503,99.9927 66.6938,99.7803 66.8374,99.5679 66.981,99.356 67.1245,99.1436 67.2686,98.9312 67.4121,98.7192 67.5557,98.5068 67.6992,98.2944 67.8428,98.0825 67.9863,97.8701 68.1299,97.6577 68.2734,97.4453 68.417,97.2334 68.561,97.021 68.7046,96.8086 68.8481,96.5967 68.9917,96.3843 69.1353,96.1719 69.2788,95.96 69.4224,95.7476 69.5659,95.5352 69.7095,95.3228 69.8535,95.1108 69.9971,94.8984 70.1406,94.686 70.2842,94.4741 70.4277,94.2617 70.5713,94.0493 70.7148,93.8374 70.8584,93.625 71.002,93.4126 71.146,93.2002 71.2896,92.9883 71.4331,92.7759 71.5767,92.5635 71.7202,92.3516 71.8638,92.1392 72.0073,91.9268 72.1509,91.7148 72.2949,91.5024 72.4385,91.29 72.582,91.0776 72.7256,90.8657 72.8691,90.6533 73.0127,90.4409 73.1562,90.229 73.2998,90.0166 73.4434,89.8042 73.5874,89.5923 73.731,89.3799 73.8745,89.1675 74.0181,88.9551 74.1616,88.7432 74.3052,88.5308 74.4487,88.3184 74.5923,88.1064 74.7358,87.894 74.8799,87.6816 75.0234,87.4697 75.167,87.2573 75.3105,87.0449 75.4541,86.8325 75.5977,86.6206 75.7412,86.4082 75.8848,86.1958 76.0283,85.9839 76.1724,85.7715 76.3159,85.5591 76.4595,85.3472 76.603,85.1348 76.7466,84.9224 76.8901,84.71 77.0337,84.498 77.1772,84.2856 77.3208,84.0732 77.4648,83.8613 77.6084,83.6489 77.752,83.4365 77.8955,83.2246 78.0391,83.0122 78.1826,82.7998 78.3262,82.5874 78.4697,82.3755 78.6133,82.1631 78.7573,81.9507 78.9009,81.7388 79.0444,81.5264 79.188,81.314 79.3315,81.1021 79.4751,80.8896 79.6187,80.6772 79.7622,80.4648 79.9058,80.2529 80.0498,80.0405 80.1934,79.8281 80.3369,79.6162 80.4805,79.4038 80.624,79.1914 80.7676,78.9795 80.9111,78.7671 81.0547,78.5547 81.1982,78.3423 81.3423,78.1304 81.4858,77.918 81.6294,77.7056 81.7729,77.4937 81.9165,77.2812 82.0601,77.0688 82.2036,76.8569 82.3472,76.6445 82.4907,76.4321 82.6348,76.2197 82.7783,76.0078 82.9219,75.7954 83.0654,75.583 83.209,75.3711 83.3525,75.1587 83.4961,74.9463 83.6396,74.7344 83.7832,74.522 83.9272,74.3096 84.0708,74.0972 84.2144,73.8853 84.3579,73.6729 84.5015,73.4604 84.645,73.2485 84.7886,73.0361 84.9321,72.8237 85.0757,72.6118 85.2197,72.3994 85.3633,72.187 85.5068,71.9746 85.6504,71.7627 85.7939,71.5503 85.9375,71.3379 86.0811,71.126 86.2246,70.9136 86.3687,70.7012 86.5122,70.4893 86.6558,70.2769 86.7993,70.0645 86.9429,69.8521 87.0864,69.6401 87.23,69.4277 87.3735,69.2153 87.5171,69.0034 87.6611,68.791 87.8047,68.5786 87.9482,68.3667 88.0918,68.1543 88.2354,67.9419 88.3789,67.73 88.5225,67.5176 88.666,67.3052 88.8096,67.0928 88.9536,66.8809 89.0972,66.6685 89.2407,66.4561 89.3843,66.2441 89.5278,66.0317 89.6714,65.8193 89.8149,65.6074 89.9585,65.395 90.1021,65.1826 90.2461,64.9702 90.3896,64.7583 90.5332,64.5459 90.6768,64.3335 90.8203,64.1216 90.9639,63.9092 91.1074,63.6968 91.251,63.4849 91.3945,63.2725 91.5386,63.0601 91.6821,62.8477 91.8257,62.6357 91.9692,62.4233 92.1128,62.2109 92.2563,61.999 92.3999,61.7866 92.5435,61.5742 92.687,61.3623 92.8311,61.1499 92.9746,60.9375 93.1182,60.7251 93.2617,60.5132 93.4053,60.3008 93.5488,60.0884 93.6924,59.8765 93.8359,59.6641 93.9795,59.4517 94.1235,59.2397 94.2671,59.0273 94.4106,58.8149 94.5542,58.6025 94.6978,58.3906 94.8413,58.1782 94.9849,57.9658 95.1284,57.7539 95.272,57.5415 95.416,57.3291 95.5596,57.1172 95.7031,56.9048 95.8467,56.6924 95.9902,56.48 96.1338,56.2681 96.2773,56.0557 96.4209,55.8433 96.5645,55.6313 96.7085,55.4189 96.8521,55.2065 96.9956,54.9946 97.1392,54.7822 97.2827,54.5698 97.4263,54.3574 97.5698,54.1455 97.7134,53.9331 97.8569,53.7207 98.001,53.5088 98.1445,53.2964 98.2881,53.084 98.4316,52.8721 98.5752,52.6597 98.7188,52.4473 98.8623,52.2349 99.0059,52.0229 99.1494,51.8105 99.2935,51.5981 99.437,51.3862 99.5806,51.1738 99.7241,50.9614 99.8677,50.7495 100.011,50.5371 100.155,50.3247 100.298,50.1123 100.442,49.9004 100.586,49.688 100.729,49.4756 100.873,49.2637 101.017,49.0513 101.16,48.8389 101.304,48.627 101.447,48.4146 101.591,48.2021 101.735,47.9897 101.878,47.7778 102.022,47.5654 102.166,47.353 102.309,47.1411 102.453,46.9287 102.596,46.7163 102.74,46.5044 102.883,46.292 103.027,46.0796 103.171,45.8672 103.314,45.6553 103.458,45.4429 103.602,45.2305 103.745,45.0186 103.889,44.8062 104.032,44.5938 104.176,44.3818 104.32,44.1694 104.463,43.957 104.607,43.7446 104.75,43.5327 104.894,43.3203 105.038,43.1079 105.181,42.896 105.325,42.6836 105.468,42.4712 105.612,42.2593 105.756,42.0469 105.899,41.8345 106.043,41.6221 106.187,41.4102 106.33,41.1978 106.474,40.9854 106.617,40.7734 106.761,40.561 106.905,40.3486 107.048,40.1367 107.192,39.9243 107.335,39.7119 107.479,39.4995 107.623,39.2876 107.766,39.0752 107.91,38.8628 108.053,38.6509 108.197,38.4385 108.341,38.2261 108.484,38.0142 108.628,37.8018 108.771,37.5894 108.915,37.377 109.059,37.165 109.202,36.9526 109.346,36.7402 109.49,36.5283 109.633,36.3159 109.777,36.1035 109.92,35.8916 110.064,35.6792 110.208,35.4668 110.351,35.2544 110.495,35.0425 110.638,34.8301 110.782,34.6177 110.926,34.4058 111.069,34.1934 111.213,33.981 111.356,33.769 111.5,33.5566 111.644,33.3442 111.787,33.1318 111.931,32.9199 112.075,32.7075 112.218,32.4951 112.362,32.2832 112.505,32.0708 112.649,31.8584 112.792,31.6465 112.936,31.4341 113.08,31.2217 113.223,31.0093 113.367,30.7974 113.511,30.585 113.654,30.3726 113.798,30.1606 113.94,29.9497"/>
   <polyline stroke-linejoin="round" stroke="#000000" stroke-width="0.5" fill="none" stroke-linecap="butt" stroke-dasharray="8,3,2,3" points="29.9365,144.015 29.9688,143.989 30.125,143.865 30.2812,143.741 30.4375,143.617 30.5938,143.493 30.75,143.369 30.9062,143.245 31.0625,143.122 31.2188,142.998 31.375,142.874 31.5312,142.75 31.687,142.625 31.8433,142.501 31.9995,142.377 32.1558,142.254 32.312,142.13 32.4683,142.006 32.6245,141.882 32.7808,141.758 32.937,141.634 33.0933,141.51 33.2495,141.386 33.4058,141.262 33.562,141.138 33.7183,141.014 33.8745,140.89 34.0308,140.766 34.187,140.642 34.3433,140.518 34.4995,140.395 34.6553,140.271 34.8115,140.146 34.9678,140.022 35.124,139.898 35.2803,139.774 35.4365,139.65 35.5928,139.527 35.749,139.403 35.9053,139.279 36.0615,139.155 36.2178,139.031 36.374,138.907 36.5303,138.783 36.6865,138.659 36.8428,138.535 36.999,138.411 37.1553,138.287 37.3115,138.163 37.4678,138.039 37.624,137.915 37.7798,137.791 37.936,137.667 38.0923,137.543 38.2485,137.419 38.4048,137.295 38.561,137.171 38.7173,137.047 38.8735,136.923 39.0298,136.8 39.186,136.676 39.3423,136.552 39.4985,136.428 39.6548,136.304 39.811,136.18 39.9673,136.056 40.1235,135.932 40.2798,135.808 40.436,135.684 40.5923,135.56 40.748,135.436 40.9043,135.312 41.0605,135.188 41.2168,135.064 41.373,134.94 41.5293,134.816 41.6855,134.692 41.8418,134.568 41.998,134.444 42.1543,134.32 42.3105,134.197 42.4668,134.073 42.623,133.949 42.7793,133.825 42.9355,133.701 43.0918,133.577 43.248,133.453 43.4043,133.329 43.5605,133.205 43.7163,133.081 43.8726,132.957 44.0288,132.833 44.1851,132.709 44.3413,132.585 44.4976,132.461 44.6538,132.337 44.8101,132.213 44.9663,132.089 45.1226,131.965 45.2788,131.841 45.4351,131.717 45.5913,131.593 45.7476,131.47 45.9038,131.346 46.0601,131.222 46.2163,131.098 46.3726,130.974 46.5288,130.85 46.6851,130.726 46.8408,130.602 46.9971,130.478 47.1533,130.354 47.3096,130.23 47.4658,130.106 47.6221,129.982 47.7783,129.858 47.9346,129.734 48.0908,129.61 48.2471,129.486 48.4033,129.362 48.5596,129.238 48.7158,129.114 48.8721,128.99 49.0283,128.866 49.1846,128.743 49.3408,128.619 49.4971,128.495 49.6533,128.371 49.8091,128.247 49.9653,128.123 50.1216,127.999 50.2778,127.875 50.4341,127.751 50.5903,127.627 50.7466,127.503 50.9028,127.379 51.0591,127.255 51.2153,127.131 51.3716,127.007 51.5278,126.883 51.6841,126.759 51.8403,126.635 51.9966,126.511 52.1528,126.387 52.3091,126.263 52.4653,126.139 52.6216,126.016 52.7773,125.892 52.9336,125.768 53.0898,125.644 53.2461,125.52 53.4023,125.396 53.5586,125.271 53.7148,125.148 53.8711,125.024 54.0273,124.9 54.1836,124.776 54.3398,124.652 54.4961,124.528 54.6523,124.404 54.8086,124.28 54.9648,124.156 55.1211,124.032 55.2773,123.908 55.4336,123.784 55.5898,123.66 55.7461,123.536 55.9019,123.413 56.0581,123.289 56.2144,123.165 56.3706,123.041 56.5269,122.917 56.6831,122.792 56.8394,122.668 56.9956,122.544 57.1519,122.421 57.3081,122.297 57.4644,122.173 57.6206,122.049 57.7769,121.925 57.9331,121.801 58.0894,121.677 58.2456,121.553 58.4019,121.429 58.5581,121.305 58.7144,121.181 58.8701,121.057 59.0264,120.933 59.1826,120.809 59.3389,120.686 59.4951,120.562 59.6514,120.438 59.8076,120.313 59.9639,120.189 60.1201,120.065 60.2764,119.941 60.4326,119.818 60.5889,119.694 60.7451,119.57 60.9014,119.446 61.0576,119.322 61.2139,119.198 61.3701,119.074 61.5264,118.95 61.6826,118.826 61.8389,118.702 61.9946,118.578 62.1509,118.454 62.3071,118.33 62.4634,118.206 62.6196,118.082 62.7759,117.958 62.9321,117.834 63.0884,117.71 63.2446,117.586 63.4009,117.462 63.5571,117.338 63.7134,117.214 63.8696,117.091 64.0259,116.967 64.1821,116.843 64.3384,116.719 64.4946,116.595 64.6509,116.471 64.8071,116.347 64.9629,116.223 65.1191,116.099 65.2754,115.975 65.4316,115.851 65.5879,115.727 65.7441,115.603 65.9004,115.479 66.0566,115.355 66.2129,115.231 66.3691,115.107 66.5254,114.983 66.6816,114.859 66.8379,114.735 66.9941,114.611 67.1504,114.487 67.3066,114.364 67.4629,114.24 67.6191,114.116 67.7754,113.992 67.9316,113.868 68.0874,113.744 68.2437,113.62 68.3999,113.496 68.5562,113.372 68.7124,113.248 68.8687,113.124 69.0249,113 69.1812,112.876 69.3374,112.752 69.4937,112.628 69.6499,112.504 69.8062,112.38 69.9624,112.256 70.1187,112.132 70.2749,112.008 70.4312,111.884 70.5874,111.76 70.7437,111.637 70.8999,111.513 71.0557,111.389 71.2119,111.265 71.3682,111.141 71.5244,111.017 71.6807,110.893 71.8369,110.769 71.9932,110.645 72.1494,110.521 72.3057,110.397 72.4619,110.273 72.6182,110.149 72.7744,110.025 72.9307,109.901 73.0869,109.777 73.2432,109.653 73.3994,109.529 73.5557,109.405 73.7119,109.281 73.8682,109.157 74.0239,109.034 74.1802,108.91 74.3364,108.786 74.4927,108.662 74.6489,108.538 74.8052,108.414 74.9614,108.29 75.1177,108.166 75.2739,108.042 75.4302,107.918 75.5864,107.794 75.7427,107.67 75.8989,107.546 76.0552,107.422 76.2114,107.298 76.3677,107.174 76.5239,107.05 76.6802,106.926 76.8364,106.802 76.9927,106.678 77.1484,106.554 77.3047,106.43 77.4609,106.307 77.6172,106.183 77.7734,106.059 77.9297,105.935 78.0859,105.811 78.2422,105.687 78.3984,105.562 78.5547,105.439 78.7109,105.315 78.8672,105.191 79.0234,105.067 79.1797,104.943 79.3359,104.819 79.4922,104.695 79.6484,104.571 79.8047,104.447 79.9609,104.323 80.1167,104.199 80.2729,104.075 80.4292,103.951 80.5854,103.827 80.7417,103.703 80.8979,103.58 81.0542,103.456 81.2104,103.332 81.3667,103.208 81.5229,103.083 81.6792,102.959 81.8354,102.835 81.9917,102.712 82.1479,102.588 82.3042,102.464 82.4604,102.34 82.6167,102.216 82.7729,102.092 82.9292,101.968 83.085,101.844 83.2412,101.72 83.3975,101.596 83.5537,101.472 83.71,101.348 83.8662,101.224 84.0225,101.1 84.1787,100.977 84.335,100.853 84.4912,100.729 84.6475,100.604 84.8037,100.48 84.96,100.356 85.1162,100.232 85.2725,100.108 85.4287,99.9849 85.585,99.8608 85.7412,99.7368 85.8975,99.6128 86.0537,99.4888 86.2095,99.3647 86.3657,99.2407 86.522,99.1172 86.6782,98.9932 86.8345,98.8691 86.9907,98.7451 87.147,98.6211 87.3032,98.4971 87.4595,98.373 87.6157,98.2495 87.772,98.1255 87.9282,98.0015 88.0845,97.8774 88.2407,97.7534 88.397,97.6294 88.5532,97.5054 88.7095,97.3818 88.8657,97.2578 89.022,97.1338 89.1777,97.0098 89.334,96.8857 89.4902,96.7617 89.6465,96.6377 89.8027,96.5137 89.959,96.3901 90.1152,96.2661 90.2715,96.1421 90.4277,96.0181 90.584,95.894 90.7402,95.77 90.8965,95.646 91.0527,95.5225 91.209,95.3984 91.3652,95.2744 91.5215,95.1504 91.6777,95.0264 91.834,94.9023 91.9902,94.7783 92.1465,94.6548 92.3022,94.5308 92.4585,94.4067 92.6147,94.2827 92.771,94.1587 92.9272,94.0347 93.0835,93.9106 93.2397,93.7871 93.396,93.6631 93.5522,93.5391 93.7085,93.415 93.8647,93.291 94.021,93.167 94.1772,93.043 94.3335,92.9189 94.4897,92.7954 94.646,92.6714 94.8022,92.5474 94.9585,92.4233 95.1147,92.2993 95.2705,92.1753 95.4268,92.0513 95.583,91.9277 95.7393,91.8037 95.8955,91.6797 96.0518,91.5557 96.208,91.4316 96.3643,91.3076 96.5205,91.1836 96.6768,91.0601 96.833,90.936 96.9893,90.812 97.1455,90.688 97.3018,90.564 97.458,90.4399 97.6143,90.3159 97.7705,90.1924 97.9268,90.0684 98.083,89.9443 98.2393,89.8203 98.395,89.6963 98.5513,89.5723 98.7075,89.4482 98.8638,89.3242 99.02,89.2007 99.1763,89.0767 99.3325,88.9526 99.4888,88.8286 99.645,88.7046 99.8013,88.5806 99.9575,88.4565 100.114,88.333 100.27,88.209 100.426,88.085 100.583,87.9609 100.739,87.8369 100.895,87.7129 101.051,87.5889 101.208,87.4653 101.363,87.3413 101.52,87.2173 101.676,87.0933 101.832,86.9692 101.988,86.8452 102.145,86.7212 102.301,86.5977 102.457,86.4736 102.613,86.3496 102.77,86.2256 102.926,86.1016 103.082,85.9775 103.238,85.8535 103.395,85.73 103.551,85.606 103.707,85.4819 103.863,85.3579 104.02,85.2339 104.176,85.1099 104.332,84.9858 104.488,84.8618 104.644,84.7383 104.8,84.6143 104.957,84.4902 105.113,84.3662 105.269,84.2422 105.425,84.1182 105.582,83.9941 105.738,83.8706 105.894,83.7466 106.05,83.6226 106.207,83.4985 106.363,83.3745 106.519,83.2505 106.675,83.1265 106.832,83.0029 106.988,82.8789 107.144,82.7549 107.3,82.6309 107.456,82.5068 107.612,82.3828 107.769,82.2588 107.925,82.1353 108.081,82.0112 108.237,81.8872 108.394,81.7632 108.55,81.6392 108.706,81.5151 108.862,81.3911 109.019,81.2671 109.175,81.1436 109.331,81.0195 109.487,80.8955 109.644,80.7715 109.8,80.6475 109.956,80.5234 110.112,80.3994 110.269,80.2759 110.424,80.1519 110.581,80.0278 110.737,79.9038 110.893,79.7798 111.049,79.6558 111.206,79.5317 111.362,79.4082 111.518,79.2842 111.674,79.1602 111.831,79.0361 111.987,78.9121 112.143,78.7881 112.299,78.6641 112.456,78.5405 112.612,78.4165 112.768,78.2925 112.924,78.1685 113.081,78.0444 113.237,77.9204 113.393,77.7964 113.549,77.6724 113.705,77.5488 113.861,77.4248 114.018,77.3008 114.174,77.1768 114.33,77.0527 114.486,76.9287 114.643,76.8047 114.799,76.6812 114.955,76.5571 115.111,76.4331 115.268,76.3091 115.424,76.1851 115.58,76.061 115.736,75.937 115.893,75.8135 116.049,75.6895 116.205,75.5654 116.361,75.4414 116.517,75.3174 116.673,75.1934 116.83,75.0693 116.986,74.9458 117.142,74.8218 117.298,74.6978 117.455,74.5737 117.611,74.4497 117.767,74.3257 117.923,74.2017 118.08,74.0776 118.236,73.9541 118.392,73.8301 118.548,73.7061 118.705,73.582 118.861,73.458 119.017,73.334 119.173,73.21 119.33,73.0864 119.485,72.9624 119.642,72.8384 119.798,72.7144 119.954,72.5903 120.11,72.4663 120.267,72.3423 120.423,72.2188 120.579,72.0947 120.735,71.9707 120.892,71.8467 121.048,71.7227 121.204,71.5986 121.36,71.4746 121.517,71.3511 121.673,71.2271 121.829,71.103 121.985,70.979 122.142,70.855 122.298,70.731 122.454,70.6069 122.61,70.4829 122.766,70.3594 122.922,70.2354 123.079,70.1113 123.235,69.9873 123.391,69.8633 123.547,69.7393 123.704,69.6152 123.86,69.4917 124.016,69.3677 124.172,69.2437 124.329,69.1196 124.485,68.9956 124.641,68.8716 124.797,68.7476 124.954,68.624 125.11,68.5 125.266,68.376 125.422,68.252 125.578,68.1279 125.734,68.0039 125.891,67.8799 126.047,67.7563 126.203,67.6323 126.359,67.5083 126.516,67.3843 126.672,67.2603 126.828,67.1362 126.984,67.0122 127.141,66.8882 127.297,66.7646 127.453,66.6406 127.609,66.5166 127.766,66.3926 127.922,66.2686 128.078,66.1445 128.234,66.0205 128.391,65.897 128.546,65.7729 128.703,65.6489 128.859,65.5249 129.015,65.4009 129.171,65.2769 129.328,65.1528 129.484,65.0293 129.64,64.9053 129.796,64.7812 129.953,64.6572 130.109,64.5332 130.265,64.4092 130.421,64.2852 130.578,64.1616 130.734,64.0376 130.89,63.9136 131.046,63.7896 131.203,63.6655 131.359,63.5415 131.515,63.4175 131.671,63.2935 131.827,63.1699 131.983,63.0459 132.14,62.9219 132.296,62.7979 132.452,62.6738 132.608,62.5498 132.765,62.4258 132.921,62.3022 133.077,62.1782 133.233,62.0542 133.39,61.9302 133.546,61.8062 133.702,61.6821 133.858,61.5581 134.015,61.4346 134.171,61.3105 134.327,61.1865 134.483,61.0625 134.639,60.9385 134.795,60.8145 134.952,60.6904 135.108,60.5669 135.264,60.4429 135.42,60.3188 135.577,60.1948 135.733,60.0708 135.889,59.9468 136.045,59.8228 136.202,59.6987 136.358,59.5752 136.514,59.4512 136.67,59.3271 136.827,59.2031 136.983,59.0791 137.139,58.9551 137.295,58.8311 137.452,58.7075 137.607,58.5835 137.764,58.4595 137.92,58.3354 138.076,58.2114 138.232,58.0874 138.389,57.9634 138.545,57.8398 138.701,57.7158 138.857,57.5918 139.014,57.4678 139.17,57.3438 139.326,57.2197 139.482,57.0957 139.639,56.9722 139.795,56.8481 139.951,56.7241 140.107,56.6001 140.264,56.4761 140.42,56.3521 140.576,56.228 140.732,56.1045 140.888,55.9805 141.044,55.8564 141.201,55.7324 141.357,55.6084 141.513,55.4844 141.669,55.3604 141.826,55.2363 141.982,55.1128 142.138,54.9888 142.294,54.8647 142.451,54.7407 142.607,54.6167 142.763,54.4927 142.919,54.3687 143.076,54.2451 143.232,54.1211 143.388,53.9971 143.544,53.873 143.7,53.749 143.856,53.625 144.013,53.501 144.169,53.3774 144.325,53.2534 144.481,53.1294 144.638,53.0054 144.794,52.8813 144.95,52.7573 145.106,52.6333 145.263,52.5098 145.419,52.3857 145.575,52.2617 145.731,52.1377 145.888,52.0137 146.044,51.8896 146.2,51.7656 146.356,51.6416 146.513,51.5181 146.669,51.394 146.825,51.27 146.981,51.146 147.137,51.022 147.293,50.8979 147.45,50.7739 147.606,50.6504 147.762,50.5264 147.918,50.4023 148.075,50.2783 148.231,50.1543 148.387,50.0303 148.543,49.9062 148.7,49.7827 148.856,49.6587 149.012,49.5347 149.168,49.4106 149.325,49.2866 149.481,49.1626 149.637,49.0386 149.793,48.915 149.949,48.791 150.105,48.667 150.262,48.543 150.418,48.4189 150.574,48.2949 150.73,48.1709 150.887,48.0469 151.043,47.9233 151.199,47.7993 151.355,47.6753 151.512,47.5513 151.668,47.4272 151.824,47.3032 151.98,47.1792 152.137,47.0557 152.293,46.9316 152.449,46.8076 152.605,46.6836 152.762,46.5596 152.917,46.4355 153.074,46.3115 153.23,46.188 153.386,46.064 153.542,45.9399 153.699,45.8159 153.855,45.6919 154.011,45.5679 154.167,45.4438 154.324,45.3203 154.48,45.1963 154.636,45.0723 154.792,44.9482 154.949,44.8242 155.105,44.7002 155.261,44.5762 155.417,44.4521 155.574,44.3286 155.73,44.2046 155.886,44.0806 156.042,43.9565 156.198,43.8325 156.354,43.7085 156.511,43.5845 156.667,43.4609 156.823,43.3369 156.979,43.2129 157.136,43.0889 157.292,42.9648 157.448,42.8408 157.604,42.7168 157.761,42.5933 157.917,42.4692 158.073,42.3452 158.229,42.2212 158.386,42.0972 158.542,41.9731 158.698,41.8491 158.854,41.7256 159.01,41.6016 159.167,41.4775 159.323,41.3535 159.479,41.2295 159.635,41.1055 159.792,40.9814 159.948,40.8574 160.104,40.7339 160.26,40.6099 160.417,40.4858 160.573,40.3618 160.729,40.2378 160.885,40.1138 161.042,39.9897 161.198,39.8662 161.354,39.7422 161.51,39.6182 161.667,39.4941 161.823,39.3701 161.979,39.2461 162.135,39.1221 162.291,38.9985 162.447,38.8745 162.604,38.7505 162.76,38.6265 162.916,38.5024 163.072,38.3784 163.229,38.2544 163.385,38.1309 163.541,38.0068 163.697,37.8828 163.854,37.7588 164.01,37.6348 164.166,37.5107 164.322,37.3867 164.479,37.2632 164.635,37.1392 164.791,37.0151 164.947,36.8911 165.103,36.7671 165.259,36.6431 165.416,36.519 165.572,36.395 165.728,36.2715 165.884,36.1475 166.041,36.0234 166.197,35.8994 166.353,35.7754 166.509,35.6514 166.666,35.5273 166.822,35.4038 166.978,35.2798 167.134,35.1558 167.291,35.0317 167.311,35.0161"/>
   <polyline stroke-linejoin="miter" stroke="#000000" stroke-width="0.5" fill="none" stroke-linecap="square" points="131.25,64.1172 137.25,70.1172"/>
   <polyline stroke-linejoin="miter" stroke="#000000" stroke-width="0.5" fill="none" stroke-linecap="square" points="131.25,70.1172 137.25,64.1172"/>
   <polyline stroke-linejoin="miter" stroke="#000000" stroke-width="0.5" fill="none" stroke-linecap="square" points="28.2793,149.122 34.2793,155.122"/>
   <polyline stroke-linejoin="miter" stroke="#000000" stroke-width="0.5" fill="none" stroke-linecap="square" points="28.2793,155.122 34.2793,149.122"/>
   <polyline stroke-linejoin="miter" stroke="#000000" stroke-width="0.5" fill="none" stroke-linecap="square" points="68.46,93.0264 74.46,99.0264"/>
   <polyline stroke-linejoin="miter" stroke="#000000" stroke-width="0.5" fill="none" stroke-linecap="square" points="68.46,99.0264 74.46,93.0264"/>
   <polyline stroke-linejoin="round" stroke="#000000" stroke-width="0.5" fill="none" stroke-linecap="butt" points="29.9365,152.961 29.9966,152.914 30.1553,152.79 30.3145,152.666 30.4731,152.542 30.6318,152.418 30.7905,152.294 30.9497,152.17 31.1084,152.046 31.2671,151.922 31.4258,151.798 31.5845,151.674 31.7437,151.55 31.9023,151.426 32.061,151.302 32.2197,151.179 32.3784,151.055 32.5376,150.931 32.6963,150.807 32.855,150.683 33.0137,150.559 33.1729,150.435 33.3315,150.311 33.4902,150.187 33.6489,150.063 33.8076,149.939 33.9668,149.815 34.1255,149.691 34.2842,149.567 34.4429,149.443 34.6016,149.319 34.7607,149.195 34.9194,149.071 35.0781,148.947 35.2368,148.823 35.396,148.699 35.5547,148.575 35.7134,148.452 35.8721,148.328 36.0308,148.204 36.1899,148.08 36.3486,147.956 36.5073,147.832 36.666,147.708 36.8252,147.584 36.9839,147.46 37.1426,147.336 37.3013,147.212 37.46,147.088 37.6191,146.964 37.7778,146.84 37.9365,146.716 38.0952,146.592 38.2539,146.468 38.4131,146.344 38.5718,146.22 38.7305,146.096 38.8892,145.972 39.0483,145.849 39.207,145.725 39.3657,145.601 39.5244,145.477 39.6831,145.353 39.8423,145.229 40.001,145.104 40.1597,144.98 40.3184,144.857 40.4775,144.733 40.6362,144.609 40.7949,144.485 40.9536,144.361 41.1123,144.237 41.2715,144.113 41.4302,143.989 41.5889,143.865 41.7476,143.741 41.9062,143.617 42.0654,143.493 42.2241,143.369 42.3828,143.245 42.5415,143.122 42.7007,142.998 42.8594,142.874 43.0181,142.75 43.1768,142.625 43.3354,142.501 43.4946,142.377 43.6533,142.254 43.812,142.13 43.9707,142.006 44.1299,141.882 44.2886,141.758 44.4473,141.634 44.606,141.51 44.7646,141.386 44.9238,141.262 45.0825,141.138 45.2412,141.014 45.3999,140.89 45.5586,140.766 45.7178,140.642 45.8765,140.518 46.0352,140.395 46.1938,140.271 46.353,140.146 46.5117,140.022 46.6704,139.898 46.8291,139.774 46.9878,139.65 47.147,139.527 47.3057,139.403 47.4644,139.279 47.623,139.155 47.7822,139.031 47.9409,138.907 48.0996,138.783 48.2583,138.659 48.417,138.535 48.5762,138.411 48.7349,138.287 48.8936,138.163 49.0522,138.039 49.2109,137.915 49.3701,137.791 49.5288,137.667 49.6875,137.543 49.8462,137.419 50.0054,137.295 50.1641,137.171 50.3228,137.047 50.4814,136.923 50.6401,136.8 50.7993,136.676 50.958,136.552 51.1167,136.428 51.2754,136.304 51.4346,136.18 51.5933,136.056 51.752,135.932 51.9106,135.808 52.0693,135.684 52.2285,135.56 52.3872,135.436 52.5459,135.312 52.7046,135.188 52.8633,135.064 53.0225,134.94 53.1812,134.816 53.3398,134.692 53.4985,134.568 53.6577,134.444 53.8164,134.32 53.9751,134.197 54.1338,134.073 54.2925,133.949 54.4517,133.825 54.6104,133.701 54.769,133.577 54.9277,133.453 55.0869,133.329 55.2456,133.205 55.4043,133.081 55.563,132.957 55.7217,132.833 55.8809,132.709 56.0396,132.585 56.1982,132.461 56.3569,132.337 56.5156,132.213 56.6748,132.089 56.8335,131.965 56.9922,131.841 57.1509,131.717 57.3101,131.593 57.4688,131.47 57.6274,131.346 57.7861,131.222 57.9448,131.098 58.104,130.974 58.2627,130.85 58.4214,130.726 58.5801,130.602 58.7388,130.478 58.8979,130.354 59.0566,130.23 59.2153,130.106 59.374,129.982 59.5332,129.858 59.6919,129.734 59.8506,129.61 60.0093,129.486 60.168,129.362 60.3271,129.238 60.4858,129.114 60.6445,128.99 60.8032,128.866 60.9624,128.743 61.1211,128.619 61.2798,128.495 61.4385,128.371 61.5972,128.247 61.7563,128.123 61.915,127.999 62.0737,127.875 62.2324,127.751 62.3911,127.627 62.5503,127.503 62.709,127.379 62.8677,127.255 63.0264,127.131 63.1855,127.007 63.3442,126.883 63.5029,126.759 63.6616,126.635 63.8203,126.511 63.9795,126.387 64.1382,126.263 64.2969,126.139 64.4556,126.016 64.6147,125.892 64.7734,125.768 64.9321,125.644 65.0908,125.52 65.2495,125.396 65.4087,125.271 65.5674,125.148 65.7261,125.024 65.8848,124.9 66.0435,124.776 66.2026,124.652 66.3613,124.528 66.52,124.404 66.6787,124.28 66.8379,124.156 66.9966,124.032 67.1553,123.908 67.314,123.784 67.4727,123.66 67.6318,123.536 67.7905,123.413 67.9492,123.289 68.1079,123.165 68.2671,123.041 68.4258,122.917 68.5845,122.792 68.7432,122.668 68.9019,122.544 69.061,122.421 69.2197,122.297 69.3784,122.173 69.5371,122.049 69.6958,121.925 69.855,121.801 70.0137,121.677 70.1724,121.553 70.3311,121.429 70.4902,121.305 70.6489,121.181 70.8076,121.057 70.9663,120.933 71.125,120.809 71.2842,120.686 71.4429,120.562 71.6016,120.438 71.7603,120.313 71.9189,120.189 72.0781,120.065 72.2368,119.941 72.3955,119.818 72.5542,119.694 72.7134,119.57 72.8721,119.446 73.0308,119.322 73.1895,119.198 73.3481,119.074 73.5073,118.95 73.666,118.826 73.8247,118.702 73.9834,118.578 74.1426,118.454 74.3013,118.33 74.46,118.206 74.6187,118.082 74.7773,117.958 74.9365,117.834 75.0952,117.71 75.2539,117.586 75.4126,117.462 75.5713,117.338 75.7305,117.214 75.8892,117.091 76.0479,116.967 76.2065,116.843 76.3657,116.719 76.5244,116.595 76.6831,116.471 76.8418,116.347 77.0005,116.223 77.1597,116.099 77.3184,115.975 77.4771,115.851 77.6357,115.727 77.7949,115.603 77.9536,115.479 78.1123,115.355 78.271,115.231 78.4297,115.107 78.5889,114.983 78.7476,114.859 78.9062,114.735 79.0649,114.611 79.2236,114.487 79.3828,114.364 79.5415,114.24 79.7002,114.116 79.8589,113.992 80.0181,113.868 80.1768,113.744 80.3354,113.62 80.4941,113.496 80.6528,113.372 80.812,113.248 80.9707,113.124 81.1294,113 81.2881,112.876 81.4473,112.752 81.606,112.628 81.7646,112.504 81.9233,112.38 82.082,112.256 82.2412,112.132 82.3999,112.008 82.5586,111.884 82.7173,111.76 82.876,111.637 83.0352,111.513 83.1938,111.389 83.3525,111.265 83.5112,111.141 83.6704,111.017 83.8291,110.893 83.9878,110.769 84.1465,110.645 84.3052,110.521 84.4644,110.397 84.623,110.273 84.7817,110.149 84.9404,110.025 85.0996,109.901 85.2583,109.777 85.417,109.653 85.5757,109.529 85.7344,109.405 85.8936,109.281 86.0522,109.157 86.2109,109.034 86.3696,108.91 86.5283,108.786 86.6875,108.662 86.8462,108.538 87.0049,108.414 87.1636,108.29 87.3228,108.166 87.4814,108.042 87.6401,107.918 87.7988,107.794 87.9575,107.67 88.1167,107.546 88.2754,107.422 88.4341,107.298 88.5928,107.174 88.752,107.05 88.9106,106.926 89.0693,106.802 89.228,106.678 89.3867,106.554 89.5459,106.43 89.7046,106.307 89.8633,106.183 90.022,106.059 90.1807,105.935 90.3398,105.811 90.4985,105.687 90.6572,105.562 90.8159,105.439 90.9751,105.315 91.1338,105.191 91.2925,105.067 91.4512,104.943 91.6099,104.819 91.769,104.695 91.9277,104.571 92.0864,104.447 92.2451,104.323 92.4038,104.199 92.563,104.075 92.7217,103.951 92.8804,103.827 93.0391,103.703 93.1982,103.58 93.3569,103.456 93.5156,103.332 93.6743,103.208 93.833,103.083 93.9922,102.959 94.1509,102.835 94.3096,102.712 94.4683,102.588 94.6274,102.464 94.7861,102.34 94.9448,102.216 95.1035,102.092 95.2622,101.968 95.4214,101.844 95.5801,101.72 95.7388,101.596 95.8975,101.472 96.0562,101.348 96.2153,101.224 96.374,101.1 96.5327,100.977 96.6914,100.853 96.8506,100.729 97.0093,100.604 97.168,100.48 97.3267,100.356 97.4854,100.232 97.6445,100.108 97.8032,99.9849 97.9619,99.8608 98.1206,99.7368 98.2798,99.6128 98.4385,99.4888 98.5972,99.3647 98.7559,99.2407 98.9146,99.1172 99.0737,98.9932 99.2324,98.8691 99.3911,98.7451 99.5498,98.6211 99.7085,98.4971 99.8677,98.373 100.026,98.2495 100.185,98.1255 100.344,98.0015 100.503,97.8774 100.662,97.7534 100.82,97.6294 100.979,97.5054 101.138,97.3818 101.297,97.2578 101.456,97.1338 101.614,97.0098 101.773,96.8857 101.932,96.7617 102.091,96.6377 102.25,96.5137 102.408,96.3901 102.567,96.2661 102.726,96.1421 102.885,96.0181 103.043,95.894 103.202,95.77 103.361,95.646 103.52,95.5225 103.679,95.3984 103.837,95.2744 103.996,95.1504 104.155,95.0264 104.314,94.9023 104.473,94.7783 104.631,94.6548 104.79,94.5308 104.949,94.4067 105.108,94.2827 105.267,94.1587 105.425,94.0347 105.584,93.9106 105.743,93.7871 105.902,93.6631 106.061,93.5391 106.219,93.415 106.378,93.291 106.537,93.167 106.696,93.043 106.854,92.9189 107.013,92.7954 107.172,92.6714 107.331,92.5474 107.49,92.4233 107.648,92.2993 107.808,92.1753 107.966,92.0513 108.125,91.9277 108.284,91.8037 108.442,91.6797 108.602,91.5557 108.76,91.4316 108.919,91.3076 109.078,91.1836 109.236,91.0601 109.396,90.936 109.554,90.812 109.713,90.688 109.872,90.564 110.031,90.4399 110.189,90.3159 110.348,90.1924 110.507,90.0684 110.666,89.9443 110.825,89.8203 110.983,89.6963 111.142,89.5723 111.301,89.4482 111.46,89.3242 111.619,89.2007 111.777,89.0767 111.936,88.9526 112.095,88.8286 112.254,88.7046 112.413,88.5806 112.571,88.4565 112.73,88.333 112.889,88.209 113.048,88.085 113.207,87.9609 113.365,87.8369 113.524,87.7129 113.683,87.5889 113.842,87.4653 114,87.3413 114.159,87.2173 114.318,87.0933 114.477,86.9692 114.636,86.8452 114.794,86.7212 114.953,86.5977 115.112,86.4736 115.271,86.3496 115.43,86.2256 115.588,86.1016 115.747,85.9775 115.906,85.8535 116.065,85.73 116.224,85.606 116.382,85.4819 116.541,85.3579 116.7,85.2339 116.859,85.1099 117.018,84.9858 117.176,84.8618 117.335,84.7383 117.494,84.6143 117.653,84.4902 117.812,84.3662 117.97,84.2422 118.129,84.1182 118.288,83.9941 118.447,83.8706 118.605,83.7466 118.765,83.6226 118.923,83.4985 119.082,83.3745 119.241,83.2505 119.399,83.1265 119.559,83.0029 119.717,82.8789 119.876,82.7549 120.035,82.6309 120.193,82.5068 120.353,82.3828 120.511,82.2588 120.67,82.1353 120.829,82.0112 120.988,81.8872 121.146,81.7632 121.305,81.6392 121.464,81.5151 121.623,81.3911 121.782,81.2671 121.94,81.1436 122.099,81.0195 122.258,80.8955 122.417,80.7715 122.576,80.6475 122.734,80.5234 122.893,80.3994 123.052,80.2759 123.211,80.1519 123.37,80.0278 123.528,79.9038 123.687,79.7798 123.846,79.6558 124.005,79.5317 124.164,79.4082 124.322,79.2842 124.481,79.1602 124.64,79.0361 124.799,78.9121 124.958,78.7881 125.116,78.6641 125.275,78.5405 125.434,78.4165 125.593,78.2925 125.751,78.1685 125.91,78.0444 126.069,77.9204 126.228,77.7964 126.387,77.6724 126.545,77.5488 126.704,77.4248 126.863,77.3008 127.022,77.1768 127.181,77.0527 127.339,76.9287 127.498,76.8047 127.657,76.6812 127.816,76.5571 127.975,76.4331 128.133,76.3091 128.292,76.1851 128.451,76.061 128.61,75.937 128.769,75.8135 128.927,75.6895 129.086,75.5654 129.245,75.4414 129.404,75.3174 129.562,75.1934 129.721,75.0693 129.88,74.9458 130.039,74.8218 130.198,74.6978 130.356,74.5737 130.516,74.4497 130.674,74.3257 130.833,74.2017 130.992,74.0776 131.15,73.9541 131.31,73.8301 131.468,73.7061 131.627,73.582 131.786,73.458 131.945,73.334 132.104,73.21 132.262,73.0864 132.421,72.9624 132.58,72.8384 132.739,72.7144 132.897,72.5903 133.056,72.4663 133.215,72.3423 133.374,72.2188 133.533,72.0947 133.691,71.9707 133.85,71.8467 134.009,71.7227 134.168,71.5986 134.327,71.4746 134.485,71.3511 134.644,71.2271 134.803,71.103 134.962,70.979 135.121,70.855 135.279,70.731 135.438,70.6069 135.597,70.4829 135.756,70.3594 135.915,70.2354 136.073,70.1113 136.232,69.9873 136.391,69.8633 136.55,69.7393 136.708,69.6152 136.867,69.4917 137.026,69.3677 137.185,69.2437 137.344,69.1196 137.502,68.9956 137.661,68.8716 137.82,68.7476 137.979,68.624 138.138,68.5 138.296,68.376 138.455,68.252 138.614,68.1279 138.773,68.0039 138.932,67.8799 139.09,67.7563 139.25,67.6323 139.408,67.5083 139.567,67.3843 139.726,67.2603 139.884,67.1362 140.043,67.0122 140.202,66.8882 140.361,66.7646 140.52,66.6406 140.678,66.5166 140.837,66.3926 140.996,66.2686 141.155,66.1445 141.313,66.0205 141.473,65.897 141.631,65.7729 141.79,65.6489 141.949,65.5249 142.107,65.4009 142.267,65.2769 142.425,65.1528 142.584,65.0293 142.743,64.9053 142.901,64.7812 143.061,64.6572 143.219,64.5332 143.378,64.4092 143.537,64.2852 143.696,64.1616 143.854,64.0376 144.013,63.9136 144.172,63.7896 144.331,63.6655 144.49,63.5415 144.648,63.4175 144.807,63.2935 144.966,63.1699 145.125,63.0459 145.284,62.9219 145.442,62.7979 145.601,62.6738 145.76,62.5498 145.919,62.4258 146.078,62.3022 146.236,62.1782 146.395,62.0542 146.554,61.9302 146.713,61.8062 146.872,61.6821 147.03,61.5581 147.189,61.4346 147.348,61.3105 147.507,61.1865 147.666,61.0625 147.824,60.9385 147.983,60.8145 148.142,60.6904 148.301,60.5669 148.459,60.4429 148.618,60.3188 148.777,60.1948 148.936,60.0708 149.095,59.9468 149.253,59.8228 149.412,59.6987 149.571,59.5752 149.73,59.4512 149.889,59.3271 150.047,59.2031 150.206,59.0791 150.365,58.9551 150.524,58.8311 150.683,58.7075 150.841,58.5835 151,58.4595 151.159,58.3354 151.318,58.2114 151.477,58.0874 151.635,57.9634 151.794,57.8398 151.953,57.7158 152.112,57.5918 152.271,57.4678 152.43,57.3438 152.588,57.2197 152.747,57.0957 152.906,56.9722 153.064,56.8481 153.224,56.7241 153.382,56.6001 153.541,56.4761 153.7,56.3521 153.858,56.228 154.018,56.1045 154.176,55.9805 154.335,55.8564 154.494,55.7324 154.653,55.6084 154.812,55.4844 154.97,55.3604 155.129,55.2363 155.288,55.1128 155.447,54.9888 155.605,54.8647 155.764,54.7407 155.923,54.6167 156.082,54.4927 156.241,54.3687 156.399,54.2451 156.558,54.1211 156.717,53.9971 156.876,53.873 157.035,53.749 157.193,53.625 157.352,53.501 157.511,53.3774 157.67,53.2534 157.829,53.1294 157.987,53.0054 158.146,52.8813 158.305,52.7573 158.464,52.6333 158.623,52.5098 158.781,52.3857 158.94,52.2617 159.099,52.1377 159.258,52.0137 159.417,51.8896 159.575,51.7656 159.734,51.6416 159.893,51.5181 160.052,51.394 160.21,51.27 160.369,51.146 160.528,51.022 160.687,50.8979 160.846,50.7739 161.004,50.6504 161.163,50.5264 161.322,50.4023 161.481,50.2783 161.64,50.1543 161.798,50.0303 161.958,49.9062 162.116,49.7827 162.275,49.6587 162.434,49.5347 162.592,49.4106 162.751,49.2866 162.91,49.1626 163.069,49.0386 163.228,48.915 163.386,48.791 163.545,48.667 163.704,48.543 163.863,48.4189 164.021,48.2949 164.181,48.1709 164.339,48.0469 164.498,47.9233 164.657,47.7993 164.815,47.6753 164.975,47.5513 165.133,47.4272 165.292,47.3032 165.451,47.1792 165.61,47.0557 165.769,46.9316 165.927,46.8076 166.086,46.6836 166.245,46.5596 166.404,46.4355 166.562,46.3115 166.721,46.188 166.88,46.064 167.039,45.9399 167.198,45.8159 167.311,45.728"/>
   <polyline stroke-linejoin="miter" stroke="#000000" stroke-width="0.5" fill="none" stroke-linecap="square" points="59.6997,127.416 65.6997,127.416"/>
   <polyline stroke-linejoin="miter" stroke="#000000" stroke-width="0.5" fill="none" stroke-linecap="square" points="62.6997,124.416 62.6997,130.416"/>
   <polyline stroke-linejoin="miter" stroke="#000000" stroke-width="0.5" fill="none" stroke-linecap="square" points="60.5786,125.294 64.8213,129.537"/>
   <polyline stroke-linejoin="miter" stroke="#000000" stroke-width="0.5" fill="none" stroke-linecap="square" points="60.5786,129.537 64.8213,125.294"/>
   <polyline stroke-linejoin="miter" stroke="#000000" stroke-width="0.5" fill="none" stroke-linecap="square" points="28.2793,152.122 34.2793,152.122"/>
   <polyline stroke-linejoin="miter" stroke="#000000" stroke-width="0.5" fill="none" stroke-linecap="square" points="31.2793,149.122 31.2793,155.122"/>
   <polyline stroke-linejoin="miter" stroke="#000000" stroke-width="0.5" fill="none" stroke-linecap="square" points="29.1582,150 33.4004,154.243"/>
   <polyline stroke-linejoin="miter" stroke="#000000" stroke-width="0.5" fill="none" stroke-linecap="square" points="29.1582,154.243 33.4004,150"/>
   <polyline stroke-linejoin="miter" stroke="#000000" stroke-width="0.5" fill="none" stroke-linecap="square" points="32.1621,148.644 38.1621,148.644"/>
   <polyline stroke-linejoin="miter" stroke="#000000" stroke-width="0.5" fill="none" stroke-linecap="square" points="35.1621,145.644 35.1621,151.644"/>
   <polyline stroke-linejoin="miter" stroke="#000000" stroke-width="0.5" fill="none" stroke-linecap="square" points="33.0405,146.522 37.2832,150.765"/>
   <polyline stroke-linejoin="miter" stroke="#000000" stroke-width="0.5" fill="none" stroke-linecap="square" points="33.0405,150.765 37.2832,146.522"/>
   <polyline stroke-linejoin="round" stroke="#000000" stroke-width="0.3" fill="none" stroke-linecap="butt" stroke-dasharray="1,3,1,3,1,3,1,3" points="134.25,153.906 134.25,30.0737"/>
   <g transform="translate(127.25,39.9463) rotate(-90,7,-7)" font-size="8" xml:space="preserve" font-family="'Liberation Serif'" font-weight="normal" font-style="normal">
    <text fill="rgb(0,0,0)" x="0 3 " y="-0">f2</text>
   </g>
   <polyline stroke-linejoin="round" stroke="#000000" stroke-width="0.3" fill="none" stroke-linecap="butt" stroke-dasharray="1,3,1,3,1,3,1,3" points="31.2793,153.906 31.2793,30.0737"/>
   <g transform="translate(24.2793,39.9463) rotate(-90,7,-7)" font-size="8" xml:space="preserve" font-family="'Liberation Serif'" font-weight="normal" font-style="normal">
    <text fill="rgb(0,0,0)" x="0 3 " y="-0">f3</text>
   </g>
   <polyline stroke-linejoin="round" stroke="#000000" stroke-width="0.3" fill="none" stroke-linecap="butt" stroke-dasharray="1,3,1,3,1,3,1,3" points="71.46,153.906 71.46,30.0737"/>
   <g transform="translate(64.4598,39.9463) rotate(-90,7,-7)" font-size="8" xml:space="preserve" font-family="'Liberation Serif'" font-weight="normal" font-style="normal">
    <text fill="rgb(0,0,0)" x="0 3 " y="-0">f1</text>
   </g>
   <polyline stroke-linejoin="round" stroke="#000000" stroke-width="0.5" fill="none" stroke-linecap="butt" stroke-dasharray="1,3,1,3,1,3,1,3" points="62.6997,153.906 62.6997,30.0737"/>
   <g transform="translate(54.6999,52.0422) rotate(-90,8,-7)" font-size="8" xml:space="preserve" font-family="'Liberation Serif'" font-weight="normal" font-style="normal">
    <text fill="rgb(0,0,0)" x="0 4 " y="-0">a2</text>
   </g>
   <polyline stroke-linejoin="round" stroke="#000000" stroke-width="0.5" fill="none" stroke-linecap="butt" stroke-dasharray="1,3,1,3,1,3,1,3" points="31.2793,153.906 31.2793,30.0737"/>
   <g transform="translate(23.2793,52.0422) rotate(-90,8,-7)" font-size="8" xml:space="preserve" font-family="'Liberation Serif'" font-weight="normal" font-style="normal">
    <text fill="rgb(0,0,0)" x="0 4 " y="-0">a3</text>
   </g>
   <polyline stroke-linejoin="round" stroke="#000000" stroke-width="0.5" fill="none" stroke-linecap="butt" stroke-dasharray="1,3,1,3,1,3,1,3" points="35.1621,153.906 35.1621,30.0737"/>
   <g transform="translate(27.162,52.0422) rotate(-90,8,-7)" font-size="8" xml:space="preserve" font-family="'Liberation Serif'" font-weight="normal" font-style="normal">
    <text fill="rgb(0,0,0)" x="0 4 " y="-0">a1</text>
   </g>
   <g transform="translate(83.3901,148.334) rotate(-0,-0,-3.5)" font-size="8" xml:space="preserve" font-family="'Liberation Serif'" font-weight="normal" font-style="normal">
    <text fill="rgb(0,0,0)" x="0 6 11 17 21 25 28 34 40 43 50 56 61 65 69 72 76 80 " y="-0">UCASS-AA-MAZ04-013</text>
   </g>
  </g>
  <clipPath id="cp00176176">
   <polygon points="0,176 176,176 176,0 0,0"/>
  </clipPath>
  <g clip-path="url(#cp00176176)">
   <polyline stroke-linejoin="miter" stroke="#262626" stroke-width="0.5" fill="none" stroke-linecap="butt" points="30.0732,30.0737 30.0732,31.4429"/>
   <polyline stroke-linejoin="miter" stroke="#262626" stroke-width="0.5" fill="none" stroke-linecap="butt" points="93.3501,30.0737 93.3501,31.4429"/>
   <polyline stroke-linejoin="miter" stroke="#262626" stroke-width="0.5" fill="none" stroke-linecap="butt" points="124.989,30.0737 124.989,31.4429"/>
   <polyline stroke-linejoin="miter" stroke="#262626" stroke-width="0.5" fill="none" stroke-linecap="butt" points="146.081,30.0737 146.081,31.4429"/>
   <g transform="translate(28.5735,25.5796) rotate(-0,1.5,0)" font-size="6" xml:space="preserve" font-family="'Liberation Serif'" font-weight="normal" font-style="normal">
    <text fill="rgb(38,38,38)" x="0 " y="-1">0</text>
   </g>
   <g transform="translate(91.8503,25.5796) rotate(-0,1.5,0)" font-size="6" xml:space="preserve" font-family="'Liberation Serif'" font-weight="normal" font-style="normal">
    <text fill="rgb(38,38,38)" x="0 " y="-1">6</text>
   </g>
   <g transform="translate(123.489,25.5796) rotate(-0,1.5,0)" font-size="6" xml:space="preserve" font-family="'Liberation Serif'" font-weight="normal" font-style="normal">
    <text fill="rgb(38,38,38)" x="0 " y="-1">9</text>
   </g>
   <g transform="translate(143.081,25.5796) rotate(-0,3,0)" font-size="6" xml:space="preserve" font-family="'Liberation Serif'" font-weight="normal" font-style="normal">
    <text fill="rgb(38,38,38)" x="0 3 " y="-0">11</text>
   </g>
   <polyline stroke-linejoin="miter" stroke="#262626" stroke-width="0.5" fill="none" stroke-linecap="square" stroke-dasharray="16,0" points="167.173,30.0737 30.0732,30.0737"/>
   <polyline stroke-linejoin="miter" stroke="#262626" stroke-width="0.5" fill="none" stroke-linecap="square" stroke-dasharray="16,0" points="167.173,30.0737 167.173,153.906"/>
  </g>
 </g>
</svg>
