<?xml version='1.0' encoding='UTF-8' standalone='no'?>
<svg xmlns="http://www.w3.org/2000/svg" xmlns:xlink="http://www.w3.org/1999/xlink" viewBox="0 0 176 176" height="176pt" width="176pt">
 <title>Figure 4</title>
 <desc>
Creator: GL2PS 1.4.2, (C) 1999-2020 C. Geuzaine
For: Octave
CreationDate: Wed Feb 14 10:31:09 2024
</desc>
 <defs/>
 <polygon fill="#ffffff" points="0,0 176,0 176,176 0,176"/>
 <g>
  <polygon fill="#ffffff" points="0,176 176,176 176,0 0,0" shape-rendering="crispEdges"/>
  <clipPath id="cp00176176">
   <polygon points="0,176 176,176 176,0 0,0"/>
  </clipPath>
  <g clip-path="url(#cp00176176)">
   <polygon fill="#ffffff" points="30.0732,153.906 167.173,153.906 167.173,30.0737 30.0732,30.0737" shape-rendering="crispEdges"/>
   <polyline stroke-linejoin="miter" fill="none" points="30.0732,153.906 30.0732,152.537" stroke="#262626" stroke-linecap="butt" stroke-width="0.5"/>
   <polyline stroke-linejoin="miter" fill="none" points="66.1523,153.906 66.1523,152.537" stroke="#262626" stroke-linecap="butt" stroke-width="0.5"/>
   <polyline stroke-linejoin="miter" fill="none" points="102.231,153.906 102.231,152.537" stroke="#262626" stroke-linecap="butt" stroke-width="0.5"/>
   <polyline stroke-linejoin="miter" fill="none" points="138.31,153.906 138.31,152.537" stroke="#262626" stroke-linecap="butt" stroke-width="0.5"/>
   <g transform="translate(28.5735,163.399) rotate(-0,1.5,-5)" font-weight="normal" font-family="'Liberation Serif'" xml:space="preserve" font-style="normal" font-size="6">
    <text fill="rgb(38,38,38)" y="-1" x="0 ">0</text>
   </g>
   <g transform="translate(59.1524,163.399) rotate(-0,7,-5)" font-weight="normal" font-family="'Liberation Serif'" xml:space="preserve" font-style="normal" font-size="6">
    <text fill="rgb(38,38,38)" y="-1" x="0 3 6 8 11 ">5e-05</text>
   </g>
   <g transform="translate(93.7313,163.399) rotate(-0,8.5,-5)" font-weight="normal" font-family="'Liberation Serif'" xml:space="preserve" font-style="normal" font-size="6">
    <text fill="rgb(38,38,38)" y="-1" x="0 3 5 8 11 14 ">0.0001</text>
   </g>
   <g transform="translate(128.31,163.399) rotate(-0,10,-5)" font-weight="normal" font-family="'Liberation Serif'" xml:space="preserve" font-style="normal" font-size="6">
    <text fill="rgb(38,38,38)" y="-1" x="0 3 5 8 11 14 17 ">0.00015</text>
   </g>
   <polyline stroke-linejoin="miter" fill="none" points="30.0732,153.906 31.4453,153.906" stroke="#262626" stroke-linecap="butt" stroke-width="0.5"/>
   <polyline stroke-linejoin="miter" fill="none" points="30.0732,123.666 31.4453,123.666" stroke="#262626" stroke-linecap="butt" stroke-width="0.5"/>
   <polyline stroke-linejoin="miter" fill="none" points="30.0732,93.4258 31.4453,93.4258" stroke="#262626" stroke-linecap="butt" stroke-width="0.5"/>
   <polyline stroke-linejoin="miter" fill="none" points="30.0732,63.186 31.4453,63.186" stroke="#262626" stroke-linecap="butt" stroke-width="0.5"/>
   <polyline stroke-linejoin="miter" fill="none" points="30.0732,32.9463 31.4453,32.9463" stroke="#262626" stroke-linecap="butt" stroke-width="0.5"/>
   <g transform="translate(24.0713,156.406) rotate(-0,3,-2.5)" font-weight="normal" font-family="'Liberation Serif'" xml:space="preserve" font-style="normal" font-size="6">
    <text fill="rgb(38,38,38)" y="-1" x="0 ">0</text>
   </g>
   <g transform="translate(15.0713,126.166) rotate(-0,12,-2.5)" font-weight="normal" font-family="'Liberation Serif'" xml:space="preserve" font-style="normal" font-size="6">
    <text fill="rgb(38,38,38)" y="-1" x="0 3 6 9 ">1000</text>
   </g>
   <g transform="translate(15.0713,95.9259) rotate(-0,12,-2.5)" font-weight="normal" font-family="'Liberation Serif'" xml:space="preserve" font-style="normal" font-size="6">
    <text fill="rgb(38,38,38)" y="-1" x="0 3 6 9 ">2000</text>
   </g>
   <g transform="translate(15.0713,65.6861) rotate(-0,12,-2.5)" font-weight="normal" font-family="'Liberation Serif'" xml:space="preserve" font-style="normal" font-size="6">
    <text fill="rgb(38,38,38)" y="-1" x="0 3 6 9 ">3000</text>
   </g>
   <g transform="translate(15.0713,35.4463) rotate(-0,12,-2.5)" font-weight="normal" font-family="'Liberation Serif'" xml:space="preserve" font-style="normal" font-size="6">
    <text fill="rgb(38,38,38)" y="-1" x="0 3 6 9 ">4000</text>
   </g>
   <polyline stroke-linejoin="miter" fill="none" stroke-dasharray="16,0" points="30.0732,153.906 167.173,153.906" stroke="#262626" stroke-linecap="square" stroke-width="0.5"/>
   <polyline stroke-linejoin="miter" fill="none" stroke-dasharray="16,0" points="30.0732,153.906 30.0732,30.0737" stroke="#262626" stroke-linecap="square" stroke-width="0.5"/>
   <polyline stroke-linejoin="round" fill="none" stroke-dasharray="9,7" points="30.0732,153.906 30.2231,153.75 30.3726,153.595 30.5225,153.439 30.6719,153.284 30.8218,153.128 30.9712,152.973 31.1211,152.817 31.2705,152.662 31.4204,152.506 31.5698,152.351 31.7192,152.195 31.8691,152.04 32.0186,151.884 32.1685,151.729 32.3179,151.573 32.4678,151.418 32.6172,151.263 32.7671,151.107 32.9165,150.952 33.0659,150.796 33.2158,150.641 33.3652,150.485 33.5151,150.33 33.6646,150.174 33.8145,150.019 33.9639,149.863 34.1138,149.708 34.2632,149.552 34.4126,149.397 34.5625,149.241 34.7119,149.086 34.8618,148.93 35.0112,148.775 35.1611,148.62 35.3105,148.464 35.4604,148.309 35.6099,148.153 35.7593,147.998 35.9092,147.842 36.0586,147.687 36.2085,147.531 36.3579,147.375 36.5078,147.22 36.6572,147.065 36.8071,146.909 36.9565,146.754 37.106,146.598 37.2559,146.443 37.4053,146.288 37.5552,146.132 37.7046,145.977 37.8545,145.821 38.0039,145.666 38.1538,145.51 38.3032,145.354 38.4526,145.199 38.6025,145.043 38.752,144.888 38.9019,144.732 39.0513,144.577 39.2012,144.422 39.3506,144.266 39.5005,144.111 39.6499,143.955 39.7993,143.8 39.9492,143.645 40.0986,143.489 40.2485,143.333 40.3979,143.178 40.5479,143.022 40.6973,142.867 40.8472,142.711 40.9966,142.556 41.146,142.4 41.2959,142.245 41.4453,142.09 41.5952,141.934 41.7446,141.779 41.8945,141.623 42.0439,141.468 42.1938,141.312 42.3433,141.157 42.4927,141.001 42.6426,140.846 42.792,140.69 42.9419,140.535 43.0913,140.379 43.2412,140.224 43.3906,140.068 43.5405,139.913 43.6899,139.757 43.8394,139.602 43.9893,139.447 44.1387,139.291 44.2886,139.136 44.438,138.98 44.5879,138.825 44.7373,138.669 44.8872,138.514 45.0366,138.358 45.186,138.203 45.3359,138.047 45.4854,137.892 45.6353,137.736 45.7847,137.581 45.9346,137.425 46.084,137.27 46.2339,137.115 46.3833,136.959 46.5327,136.804 46.6826,136.648 46.832,136.493 46.9819,136.337 47.1313,136.182 47.2812,136.026 47.4307,135.871 47.5806,135.715 47.73,135.56 47.8794,135.404 48.0293,135.249 48.1787,135.093 48.3286,134.938 48.478,134.782 48.6279,134.627 48.7773,134.472 48.9272,134.316 49.0767,134.161 49.2261,134.005 49.376,133.85 49.5254,133.694 49.6753,133.539 49.8247,133.383 49.9746,133.228 50.124,133.072 50.2739,132.917 50.4233,132.761 50.5728,132.606 50.7227,132.45 50.8721,132.295 51.022,132.139 51.1714,131.984 51.3213,131.829 51.4707,131.673 51.6206,131.518 51.77,131.362 51.9194,131.207 52.0693,131.051 52.2188,130.896 52.3687,130.74 52.5181,130.584 52.668,130.429 52.8174,130.274 52.9673,130.118 53.1167,129.963 53.2661,129.807 53.416,129.652 53.5654,129.497 53.7153,129.341 53.8647,129.186 54.0146,129.03 54.1641,128.875 54.314,128.719 54.4634,128.563 54.6128,128.408 54.7627,128.252 54.9121,128.097 55.062,127.941 55.2114,127.786 55.3613,127.631 55.5107,127.475 55.6606,127.32 55.8101,127.164 55.9595,127.009 56.1094,126.854 56.2588,126.698 56.4087,126.542 56.5581,126.387 56.708,126.231 56.8574,126.076 57.0073,125.92 57.1567,125.765 57.3062,125.609 57.4561,125.454 57.6055,125.299 57.7554,125.143 57.9048,124.988 58.0547,124.832 58.2041,124.677 58.354,124.521 58.5034,124.366 58.6528,124.21 58.8027,124.055 58.9521,123.899 59.1021,123.744 59.2515,123.588 59.4014,123.433 59.5508,123.277 59.7007,123.122 59.8501,122.966 59.9995,122.811 60.1494,122.656 60.2988,122.5 60.4487,122.345 60.5981,122.189 60.748,122.034 60.8975,121.878 61.0474,121.723 61.1968,121.567 61.3462,121.412 61.4961,121.256 61.6455,121.101 61.7954,120.945 61.9448,120.79 62.0947,120.634 62.2441,120.479 62.394,120.323 62.5435,120.168 62.6929,120.013 62.8428,119.857 62.9922,119.702 63.1421,119.546 63.2915,119.391 63.4414,119.235 63.5908,119.08 63.7407,118.924 63.8901,118.769 64.0396,118.613 64.1895,118.458 64.3389,118.302 64.4888,118.147 64.6382,117.991 64.7881,117.836 64.9375,117.681 65.0874,117.525 65.2368,117.37 65.3862,117.214 65.5361,117.059 65.6855,116.903 65.8354,116.748 65.9849,116.592 66.1348,116.437 66.2842,116.281 66.4341,116.125 66.5835,115.97 66.7329,115.815 66.8828,115.659 67.0322,115.504 67.1821,115.348 67.3315,115.193 67.4814,115.038 67.6309,114.882 67.7808,114.727 67.9302,114.571 68.0796,114.416 68.2295,114.26 68.3789,114.104 68.5288,113.949 68.6782,113.793 68.8281,113.638 68.9775,113.483 69.1274,113.327 69.2769,113.172 69.4263,113.016 69.5762,112.861 69.7256,112.705 69.8755,112.55 70.0249,112.395 70.1748,112.239 70.3242,112.083 70.4741,111.928 70.6235,111.772 70.7729,111.617 70.9229,111.461 71.0723,111.306 71.2222,111.15 71.3716,110.995 71.5215,110.84 71.6709,110.684 71.8208,110.529 71.9702,110.373 72.1196,110.218 72.2695,110.062 72.4189,109.907 72.5688,109.751 72.7183,109.596 72.8682,109.44 73.0176,109.285 73.1675,109.129 73.3169,108.974 73.4663,108.818 73.6162,108.663 73.7656,108.507 73.9155,108.352 74.0649,108.197 74.2148,108.041 74.3643,107.886 74.5142,107.73 74.6636,107.575 74.813,107.419 74.9629,107.264 75.1123,107.108 75.2622,106.953 75.4116,106.797 75.5615,106.642 75.7109,106.486 75.8608,106.331 76.0103,106.175 76.1597,106.02 76.3096,105.865 76.459,105.709 76.6089,105.554 76.7583,105.398 76.9082,105.243 77.0576,105.087 77.2075,104.932 77.3569,104.776 77.5063,104.621 77.6562,104.465 77.8057,104.31 77.9556,104.154 78.105,103.999 78.2549,103.843 78.4043,103.688 78.5542,103.532 78.7036,103.377 78.853,103.222 79.0029,103.066 79.1523,102.911 79.3022,102.755 79.4517,102.6 79.6016,102.444 79.751,102.289 79.9009,102.133 80.0503,101.978 80.1997,101.822 80.3496,101.667 80.499,101.511 80.6489,101.356 80.7983,101.2 80.9482,101.045 81.0977,100.89 81.2476,100.734 81.397,100.579 81.5464,100.423 81.6963,100.268 81.8457,100.112 81.9956,99.9565 82.145,99.8013 82.2949,99.6455 82.4443,99.4902 82.5942,99.3345 82.7437,99.1792 82.8931,99.0239 83.043,98.8682 83.1924,98.7129 83.3423,98.5571 83.4917,98.4019 83.6416,98.2466 83.791,98.0908 83.9409,97.9355 84.0903,97.7798 84.2397,97.6245 84.3896,97.4692 84.5391,97.3135 84.689,97.1582 84.8384,97.0024 84.9883,96.8472 85.1377,96.6919 85.2876,96.5361 85.437,96.3809 85.5864,96.2251 85.7363,96.0698 85.8857,95.9141 86.0356,95.7588 86.1851,95.6035 86.335,95.4478 86.4844,95.2925 86.6343,95.1367 86.7837,94.9814 86.9331,94.8262 87.083,94.6704 87.2324,94.5151 87.3823,94.3594 87.5317,94.2041 87.6816,94.0488 87.8311,93.8931 87.981,93.7378 88.1304,93.582 88.2798,93.4268 88.4297,93.2715 88.5791,93.1157 88.729,92.9604 88.8784,92.8047 89.0283,92.6494 89.1777,92.4937 89.3276,92.3384 89.4771,92.1831 89.6265,92.0273 89.7764,91.8721 89.9258,91.7163 90.0757,91.561 90.2251,91.4058 90.375,91.25 90.5244,91.0947 90.6743,90.939 90.8237,90.7837 90.9731,90.6284 91.123,90.4727 91.2725,90.3174 91.4224,90.1616 91.5718,90.0063 91.7217,89.8511 91.8711,89.6953 92.021,89.54 92.1704,89.3843 92.3203,89.229 92.4697,89.0737 92.6191,88.918 92.769,88.7627 92.9185,88.6069 93.0684,88.4517 93.2178,88.2959 93.3677,88.1406 93.5171,87.9854 93.667,87.8296 93.8164,87.6743 93.9658,87.5186 94.1157,87.3633 94.2651,87.208 94.415,87.0522 94.5645,86.897 94.7144,86.7412 94.8638,86.5859 95.0132,86.4307 95.1631,86.2749 95.3125,86.1196 95.4624,85.9639 95.6118,85.8086 95.7617,85.6533 95.9111,85.4976 96.061,85.3423 96.2104,85.1865 96.3604,85.0312 96.5098,84.876 96.6592,84.7202 96.8091,84.5649 96.9585,84.4092 97.1084,84.2539 97.2578,84.0981 97.4077,83.9429 97.5571,83.7876 97.707,83.6318 97.8564,83.4766 98.0059,83.3208 98.1558,83.1655 98.3052,83.0103 98.4551,82.8545 98.6045,82.6992 98.7544,82.5435 98.9038,82.3882 99.0537,82.2329 99.2031,82.0771 99.3525,81.9219 99.5024,81.7661 99.6519,81.6108 99.8018,81.4556 99.9512,81.2998 100.101,81.1445 100.25,80.9888 100.4,80.8335 100.55,80.6782 100.699,80.5225 100.849,80.3672 100.999,80.2114 101.148,80.0562 101.298,79.9004 101.448,79.7451 101.597,79.5898 101.747,79.4341 101.896,79.2788 102.046,79.123 102.196,78.9678 102.345,78.8125 102.495,78.6567 102.645,78.5015 102.794,78.3457 102.944,78.1904 103.094,78.0352 103.243,77.8794 103.393,77.7241 103.542,77.5684 103.692,77.4131 103.842,77.2578 103.991,77.1021 104.141,76.9468 104.291,76.791 104.44,76.6357 104.59,76.4805 104.739,76.3247 104.889,76.1694 105.039,76.0137 105.188,75.8584 105.338,75.7026 105.488,75.5474 105.637,75.3921 105.787,75.2363 105.937,75.0811 106.086,74.9253 106.236,74.77 106.385,74.6147 106.535,74.459 106.685,74.3037 106.834,74.1479 106.984,73.9927 107.134,73.8374 107.283,73.6816 107.433,73.5264 107.583,73.3706 107.732,73.2153 107.882,73.0601 108.031,72.9043 108.181,72.749 108.331,72.5933 108.48,72.438 108.63,72.2822 108.779,72.127 108.929,71.9717 109.079,71.8159 109.229,71.6606 109.378,71.5049 109.528,71.3496 109.677,71.1943 109.827,71.0386 109.977,70.8833 110.126,70.7275 110.276,70.5723 110.425,70.417 110.575,70.2612 110.725,70.106 110.875,69.9502 111.024,69.7949 111.174,69.6396 111.323,69.4839 111.473,69.3286 111.623,69.1729 111.772,69.0176 111.922,68.8623 112.071,68.7065 112.221,68.5513 112.371,68.3955 112.521,68.2402 112.67,68.0845 112.819,67.9292 112.969,67.7739 113.119,67.6182 113.269,67.4629 113.418,67.3071 113.568,67.1519 113.717,66.9966 113.867,66.8408 114.017,66.6855 114.166,66.5298 114.316,66.3745 114.465,66.2192 114.615,66.0635 114.765,65.9082 114.915,65.7524 115.064,65.5972 115.214,65.4419 115.363,65.2861 115.513,65.1309 115.663,64.9751 115.812,64.8198 115.962,64.6646 116.111,64.5088 116.261,64.3535 116.411,64.1978 116.561,64.0425 116.71,63.8867 116.859,63.7314 117.009,63.5762 117.159,63.4204 117.309,63.2651 117.458,63.1094 117.608,62.9541 117.757,62.7988 117.907,62.6431 118.057,62.4878 118.206,62.332 118.356,62.1768 118.505,62.0215 118.655,61.8657 118.805,61.7104 118.955,61.5547 119.104,61.3994 119.254,61.2441 119.403,61.0884 119.553,60.9331 119.703,60.7773 119.852,60.6221 120.002,60.4668 120.151,60.311 120.301,60.1558 120.451,60 120.601,59.8447 120.75,59.689 120.899,59.5337 121.049,59.3784 121.199,59.2227 121.349,59.0674 121.498,58.9116 121.648,58.7563 121.797,58.6011 121.947,58.4453 122.097,58.29 122.246,58.1343 122.396,57.979 122.545,57.8237 122.695,57.668 122.845,57.5127 122.995,57.3569 123.144,57.2017 123.294,57.0464 123.443,56.8906 123.593,56.7354 123.743,56.5796 123.892,56.4243 124.042,56.269 124.191,56.1133 124.341,55.958 124.491,55.8022 124.641,55.647 124.79,55.4912 124.939,55.3359 125.089,55.1807 125.239,55.0249 125.389,54.8696 125.538,54.7139 125.688,54.5586 125.837,54.4033 125.987,54.2476 126.137,54.0923 126.286,53.9365 126.436,53.7812 126.585,53.626 126.735,53.4702 126.885,53.3149 127.035,53.1592 127.184,53.0039 127.334,52.8486 127.483,52.6929 127.633,52.5376 127.783,52.3818 127.932,52.2266 128.082,52.0708 128.231,51.9155 128.381,51.7603 128.531,51.6045 128.681,51.4492 128.83,51.2935 128.979,51.1382 129.129,50.9829 129.279,50.8271 129.429,50.6719 129.578,50.5161 129.728,50.3608 129.877,50.2056 130.027,50.0498 130.177,49.8945 130.326,49.7388 130.476,49.5835 130.625,49.4282 130.775,49.2725 130.925,49.1172 131.075,48.9614 131.224,48.8062 131.374,48.6509 131.523,48.4951 131.673,48.3398 131.823,48.1841 131.972,48.0288 132.122,47.873 132.271,47.7178 132.421,47.5625 132.571,47.4067 132.721,47.2515 132.87,47.0957 133.02,46.9404 133.169,46.7852 133.319,46.6294 133.469,46.4741 133.618,46.3184 133.768,46.1631 133.917,46.0078 134.067,45.8521 134.217,45.6968 134.366,45.541 134.516,45.3857 134.666,45.2305 134.815,45.0747 134.965,44.9194 135.115,44.7637 135.264,44.6084 135.414,44.4531 135.563,44.2974 135.713,44.1421 135.863,43.9863 136.012,43.8311 136.162,43.6753 136.312,43.52 136.461,43.3647 136.611,43.209 136.761,43.0537 136.91,42.8979 137.06,42.7427 137.209,42.5874 137.359,42.4316 137.509,42.2764 137.658,42.1206 137.808,41.9653 137.958,41.8101 138.107,41.6543 138.257,41.499 138.406,41.3433 138.556,41.188 138.706,41.0327 138.855,40.877 139.005,40.7217 139.155,40.5659 139.304,40.4106 139.454,40.2549 139.604,40.0996 139.753,39.9443 139.903,39.7886 140.052,39.6333 140.202,39.4775 140.352,39.3223 140.501,39.167 140.651,39.0112 140.801,38.856 140.95,38.7002 141.1,38.5449 141.25,38.3896 141.399,38.2339 141.549,38.0786 141.698,37.9229 141.848,37.7676 141.998,37.6123 142.147,37.4565 142.297,37.3013 142.446,37.1455 142.596,36.9902 142.746,36.835 142.896,36.6792 143.045,36.5239 143.195,36.3682 143.344,36.2129 143.494,36.0576 143.644,35.9019 143.793,35.7466 143.943,35.5908 144.092,35.4355 144.242,35.2798 144.392,35.1245 144.542,34.9692 144.691,34.8135 144.841,34.6582 144.99,34.5024 145.14,34.3472 145.29,34.1919 145.439,34.0361 145.589,33.8809 145.738,33.7251 145.888,33.5698 146.038,33.4146 146.188,33.2588 146.337,33.1035 146.486,32.9478 146.636,32.7925 146.786,32.6372 146.936,32.4814 147.085,32.3262 147.235,32.1704 147.384,32.0151 147.534,31.8594 147.684,31.7041 147.833,31.5488 147.983,31.3931 148.132,31.2378 148.282,31.082 148.432,30.9268 148.582,30.7715 148.731,30.6157 148.881,30.4604 149.03,30.3047 149.18,30.1494 149.33,29.9941 149.372,29.9497" stroke="#000000" stroke-linecap="butt" stroke-width="0.5"/>
   <polyline stroke-linejoin="round" fill="none" stroke-dasharray="8,3,2,3" points="29.9365,150.657 30.0576,150.559 30.2114,150.435 30.3652,150.311 30.519,150.187 30.6729,150.063 30.8267,149.939 30.9805,149.815 31.1343,149.691 31.2881,149.567 31.4419,149.443 31.5957,149.319 31.7495,149.195 31.9033,149.071 32.0571,148.947 32.2109,148.823 32.3647,148.699 32.5186,148.575 32.6724,148.452 32.8262,148.328 32.98,148.204 33.1338,148.08 33.2876,147.956 33.4414,147.832 33.5952,147.708 33.749,147.584 33.9028,147.46 34.0566,147.336 34.2104,147.212 34.3643,147.088 34.5181,146.964 34.6719,146.84 34.8257,146.716 34.9795,146.592 35.1333,146.468 35.2871,146.344 35.4409,146.22 35.5947,146.096 35.7485,145.972 35.9023,145.849 36.0562,145.725 36.21,145.601 36.3638,145.477 36.5176,145.353 36.6714,145.229 36.8252,145.104 36.979,144.98 37.1328,144.857 37.2866,144.733 37.4404,144.609 37.5942,144.485 37.748,144.361 37.9019,144.237 38.0557,144.113 38.2095,143.989 38.3633,143.865 38.5171,143.741 38.6709,143.617 38.8247,143.493 38.9785,143.369 39.1323,143.245 39.2861,143.122 39.4399,142.998 39.5938,142.874 39.7476,142.75 39.9014,142.625 40.0552,142.501 40.209,142.377 40.3628,142.254 40.5166,142.13 40.6704,142.006 40.8242,141.882 40.978,141.758 41.1318,141.634 41.2856,141.51 41.4395,141.386 41.5933,141.262 41.7471,141.138 41.9009,141.014 42.0547,140.89 42.2085,140.766 42.3623,140.642 42.5161,140.518 42.6699,140.395 42.8237,140.271 42.9775,140.146 43.1313,140.022 43.2852,139.898 43.439,139.774 43.5928,139.65 43.7461,139.527 43.8999,139.403 44.0537,139.279 44.2075,139.155 44.3613,139.031 44.5151,138.907 44.6689,138.783 44.8228,138.659 44.9766,138.535 45.1304,138.411 45.2842,138.287 45.438,138.163 45.5918,138.039 45.7456,137.915 45.8994,137.791 46.0532,137.667 46.207,137.543 46.3608,137.419 46.5146,137.295 46.6685,137.171 46.8223,137.047 46.9761,136.923 47.1299,136.8 47.2837,136.676 47.4375,136.552 47.5913,136.428 47.7451,136.304 47.8989,136.18 48.0527,136.056 48.2065,135.932 48.3604,135.808 48.5142,135.684 48.668,135.56 48.8218,135.436 48.9756,135.312 49.1294,135.188 49.2832,135.064 49.437,134.94 49.5908,134.816 49.7446,134.692 49.8984,134.568 50.0522,134.444 50.2061,134.32 50.3599,134.197 50.5137,134.073 50.6675,133.949 50.8213,133.825 50.9751,133.701 51.1289,133.577 51.2827,133.453 51.4365,133.329 51.5903,133.205 51.7441,133.081 51.8979,132.957 52.0518,132.833 52.2056,132.709 52.3594,132.585 52.5132,132.461 52.667,132.337 52.8208,132.213 52.9746,132.089 53.1284,131.965 53.2822,131.841 53.436,131.717 53.5898,131.593 53.7437,131.47 53.8975,131.346 54.0513,131.222 54.2051,131.098 54.3589,130.974 54.5127,130.85 54.6665,130.726 54.8203,130.602 54.9741,130.478 55.1279,130.354 55.2817,130.23 55.4355,130.106 55.5894,129.982 55.7432,129.858 55.897,129.734 56.0508,129.61 56.2046,129.486 56.3584,129.362 56.5122,129.238 56.666,129.114 56.8198,128.99 56.9736,128.866 57.1274,128.743 57.2812,128.619 57.4351,128.495 57.5889,128.371 57.7427,128.247 57.8965,128.123 58.0503,127.999 58.2041,127.875 58.3579,127.751 58.5117,127.627 58.6655,127.503 58.8193,127.379 58.9731,127.255 59.127,127.131 59.2803,127.007 59.4341,126.883 59.5879,126.759 59.7417,126.635 59.8955,126.511 60.0493,126.387 60.2031,126.263 60.3569,126.139 60.5107,126.016 60.6646,125.892 60.8184,125.768 60.9722,125.644 61.126,125.52 61.2798,125.396 61.4336,125.271 61.5874,125.148 61.7412,125.024 61.895,124.9 62.0488,124.776 62.2026,124.652 62.3564,124.528 62.5103,124.404 62.6641,124.28 62.8179,124.156 62.9717,124.032 63.1255,123.908 63.2793,123.784 63.4331,123.66 63.5869,123.536 63.7407,123.413 63.8945,123.289 64.0483,123.165 64.2021,123.041 64.356,122.917 64.5098,122.792 64.6636,122.668 64.8174,122.544 64.9712,122.421 65.125,122.297 65.2788,122.173 65.4326,122.049 65.5864,121.925 65.7402,121.801 65.894,121.677 66.0479,121.553 66.2017,121.429 66.3555,121.305 66.5093,121.181 66.6631,121.057 66.8169,120.933 66.9707,120.809 67.1245,120.686 67.2783,120.562 67.4321,120.438 67.5859,120.313 67.7397,120.189 67.8936,120.065 68.0474,119.941 68.2012,119.818 68.355,119.694 68.5088,119.57 68.6626,119.446 68.8164,119.322 68.9702,119.198 69.124,119.074 69.2778,118.95 69.4316,118.826 69.5854,118.702 69.7393,118.578 69.8931,118.454 70.0469,118.33 70.2007,118.206 70.3545,118.082 70.5083,117.958 70.6621,117.834 70.8159,117.71 70.9697,117.586 71.1235,117.462 71.2773,117.338 71.4312,117.214 71.585,117.091 71.7388,116.967 71.8926,116.843 72.0464,116.719 72.2002,116.595 72.354,116.471 72.5078,116.347 72.6616,116.223 72.8154,116.099 72.9692,115.975 73.123,115.851 73.2769,115.727 73.4307,115.603 73.5845,115.479 73.7383,115.355 73.8921,115.231 74.0459,115.107 74.1997,114.983 74.3535,114.859 74.5073,114.735 74.6611,114.611 74.8145,114.487 74.9683,114.364 75.1221,114.24 75.2759,114.116 75.4297,113.992 75.5835,113.868 75.7373,113.744 75.8911,113.62 76.0449,113.496 76.1987,113.372 76.3525,113.248 76.5063,113.124 76.6602,113 76.814,112.876 76.9678,112.752 77.1216,112.628 77.2754,112.504 77.4292,112.38 77.583,112.256 77.7368,112.132 77.8906,112.008 78.0444,111.884 78.1982,111.76 78.3521,111.637 78.5059,111.513 78.6597,111.389 78.8135,111.265 78.9673,111.141 79.1211,111.017 79.2749,110.893 79.4287,110.769 79.5825,110.645 79.7363,110.521 79.8901,110.397 80.0439,110.273 80.1978,110.149 80.3516,110.025 80.5054,109.901 80.6592,109.777 80.813,109.653 80.9668,109.529 81.1206,109.405 81.2744,109.281 81.4282,109.157 81.582,109.034 81.7358,108.91 81.8896,108.786 82.0435,108.662 82.1973,108.538 82.3511,108.414 82.5049,108.29 82.6587,108.166 82.8125,108.042 82.9663,107.918 83.1201,107.794 83.2739,107.67 83.4277,107.546 83.5815,107.422 83.7354,107.298 83.8892,107.174 84.043,107.05 84.1968,106.926 84.3506,106.802 84.5044,106.678 84.6582,106.554 84.812,106.43 84.9658,106.307 85.1196,106.183 85.2734,106.059 85.4272,105.935 85.5811,105.811 85.7349,105.687 85.8887,105.562 86.0425,105.439 86.1963,105.315 86.3501,105.191 86.5039,105.067 86.6577,104.943 86.8115,104.819 86.9653,104.695 87.1191,104.571 87.2729,104.447 87.4268,104.323 87.5806,104.199 87.7344,104.075 87.8882,103.951 88.042,103.827 88.1958,103.703 88.3496,103.58 88.5034,103.456 88.6572,103.332 88.811,103.208 88.9648,103.083 89.1187,102.959 89.2725,102.835 89.4263,102.712 89.5801,102.588 89.7339,102.464 89.8877,102.34 90.0415,102.216 90.1948,102.092 90.3486,101.968 90.5024,101.844 90.6562,101.72 90.8101,101.596 90.9639,101.472 91.1177,101.348 91.2715,101.224 91.4253,101.1 91.5791,100.977 91.7329,100.853 91.8867,100.729 92.0405,100.604 92.1943,100.48 92.3481,100.356 92.502,100.232 92.6558,100.108 92.8096,99.9849 92.9634,99.8608 93.1172,99.7368 93.271,99.6128 93.4248,99.4888 93.5786,99.3647 93.7324,99.2407 93.8862,99.1172 94.04,98.9932 94.1938,98.8691 94.3477,98.7451 94.5015,98.6211 94.6553,98.4971 94.8091,98.373 94.9629,98.2495 95.1167,98.1255 95.2705,98.0015 95.4243,97.8774 95.5781,97.7534 95.7319,97.6294 95.8857,97.5054 96.0396,97.3818 96.1934,97.2578 96.3472,97.1338 96.501,97.0098 96.6548,96.8857 96.8086,96.7617 96.9624,96.6377 97.1162,96.5137 97.27,96.3901 97.4238,96.2661 97.5776,96.1421 97.7314,96.0181 97.8853,95.894 98.0391,95.77 98.1929,95.646 98.3467,95.5225 98.5005,95.3984 98.6543,95.2744 98.8081,95.1504 98.9619,95.0264 99.1157,94.9023 99.2695,94.7783 99.4233,94.6548 99.5771,94.5308 99.731,94.4067 99.8848,94.2827 100.039,94.1587 100.192,94.0347 100.346,93.9106 100.5,93.7871 100.654,93.6631 100.808,93.5391 100.961,93.415 101.115,93.291 101.269,93.167 101.423,93.043 101.577,92.9189 101.73,92.7954 101.884,92.6714 102.038,92.5474 102.192,92.4233 102.346,92.2993 102.5,92.1753 102.653,92.0513 102.807,91.9277 102.961,91.8037 103.115,91.6797 103.269,91.5557 103.422,91.4316 103.576,91.3076 103.73,91.1836 103.884,91.0601 104.038,90.936 104.191,90.812 104.345,90.688 104.499,90.564 104.653,90.4399 104.807,90.3159 104.96,90.1924 105.114,90.0684 105.268,89.9443 105.422,89.8203 105.576,89.6963 105.729,89.5723 105.883,89.4482 106.037,89.3242 106.19,89.2007 106.344,89.0767 106.498,88.9526 106.652,88.8286 106.806,88.7046 106.959,88.5806 107.113,88.4565 107.267,88.333 107.421,88.209 107.575,88.085 107.729,87.9609 107.882,87.8369 108.036,87.7129 108.19,87.5889 108.344,87.4653 108.498,87.3413 108.651,87.2173 108.805,87.0933 108.959,86.9692 109.113,86.8452 109.267,86.7212 109.42,86.5977 109.574,86.4736 109.728,86.3496 109.882,86.2256 110.036,86.1016 110.189,85.9775 110.343,85.8535 110.497,85.73 110.651,85.606 110.805,85.4819 110.958,85.3579 111.112,85.2339 111.266,85.1099 111.42,84.9858 111.574,84.8618 111.728,84.7383 111.881,84.6143 112.035,84.4902 112.189,84.3662 112.343,84.2422 112.497,84.1182 112.65,83.9941 112.804,83.8706 112.958,83.7466 113.112,83.6226 113.266,83.4985 113.419,83.3745 113.573,83.2505 113.727,83.1265 113.881,83.0029 114.035,82.8789 114.188,82.7549 114.342,82.6309 114.496,82.5068 114.65,82.3828 114.804,82.2588 114.958,82.1353 115.111,82.0112 115.265,81.8872 115.419,81.7632 115.573,81.6392 115.727,81.5151 115.88,81.3911 116.034,81.2671 116.188,81.1436 116.342,81.0195 116.496,80.8955 116.649,80.7715 116.803,80.6475 116.957,80.5234 117.111,80.3994 117.265,80.2759 117.418,80.1519 117.572,80.0278 117.726,79.9038 117.88,79.7798 118.034,79.6558 118.188,79.5317 118.341,79.4082 118.495,79.2842 118.649,79.1602 118.803,79.0361 118.957,78.9121 119.11,78.7881 119.264,78.6641 119.418,78.5405 119.572,78.4165 119.726,78.2925 119.879,78.1685 120.033,78.0444 120.187,77.9204 120.341,77.7964 120.495,77.6724 120.648,77.5488 120.802,77.4248 120.956,77.3008 121.11,77.1768 121.264,77.0527 121.417,76.9287 121.571,76.8047 121.725,76.6812 121.878,76.5571 122.032,76.4331 122.186,76.3091 122.34,76.1851 122.494,76.061 122.647,75.937 122.801,75.8135 122.955,75.6895 123.109,75.5654 123.263,75.4414 123.417,75.3174 123.57,75.1934 123.724,75.0693 123.878,74.9458 124.032,74.8218 124.186,74.6978 124.339,74.5737 124.493,74.4497 124.647,74.3257 124.801,74.2017 124.955,74.0776 125.108,73.9541 125.262,73.8301 125.416,73.7061 125.57,73.582 125.724,73.458 125.877,73.334 126.031,73.21 126.185,73.0864 126.339,72.9624 126.493,72.8384 126.646,72.7144 126.8,72.5903 126.954,72.4663 127.108,72.3423 127.262,72.2188 127.416,72.0947 127.569,71.9707 127.723,71.8467 127.877,71.7227 128.031,71.5986 128.185,71.4746 128.338,71.3511 128.492,71.2271 128.646,71.103 128.8,70.979 128.954,70.855 129.107,70.731 129.261,70.6069 129.415,70.4829 129.569,70.3594 129.723,70.2354 129.876,70.1113 130.03,69.9873 130.184,69.8633 130.338,69.7393 130.492,69.6152 130.646,69.4917 130.799,69.3677 130.953,69.2437 131.107,69.1196 131.261,68.9956 131.415,68.8716 131.568,68.7476 131.722,68.624 131.876,68.5 132.03,68.376 132.184,68.252 132.337,68.1279 132.491,68.0039 132.645,67.8799 132.799,67.7563 132.953,67.6323 133.106,67.5083 133.26,67.3843 133.414,67.2603 133.568,67.1362 133.722,67.0122 133.875,66.8882 134.029,66.7646 134.183,66.6406 134.337,66.5166 134.491,66.3926 134.645,66.2686 134.798,66.1445 134.952,66.0205 135.106,65.897 135.26,65.7729 135.414,65.6489 135.567,65.5249 135.721,65.4009 135.875,65.2769 136.029,65.1528 136.183,65.0293 136.336,64.9053 136.49,64.7812 136.644,64.6572 136.798,64.5332 136.951,64.4092 137.105,64.2852 137.259,64.1616 137.413,64.0376 137.566,63.9136 137.72,63.7896 137.874,63.6655 138.028,63.5415 138.182,63.4175 138.335,63.2935 138.489,63.1699 138.643,63.0459 138.797,62.9219 138.951,62.7979 139.104,62.6738 139.258,62.5498 139.412,62.4258 139.566,62.3022 139.72,62.1782 139.874,62.0542 140.027,61.9302 140.181,61.8062 140.335,61.6821 140.489,61.5581 140.643,61.4346 140.796,61.3105 140.95,61.1865 141.104,61.0625 141.258,60.9385 141.412,60.8145 141.565,60.6904 141.719,60.5669 141.873,60.4429 142.027,60.3188 142.181,60.1948 142.334,60.0708 142.488,59.9468 142.642,59.8228 142.796,59.6987 142.95,59.5752 143.104,59.4512 143.257,59.3271 143.411,59.2031 143.565,59.0791 143.719,58.9551 143.873,58.8311 144.026,58.7075 144.18,58.5835 144.334,58.4595 144.488,58.3354 144.642,58.2114 144.795,58.0874 144.949,57.9634 145.103,57.8398 145.257,57.7158 145.411,57.5918 145.564,57.4678 145.718,57.3438 145.872,57.2197 146.026,57.0957 146.18,56.9722 146.333,56.8481 146.487,56.7241 146.641,56.6001 146.795,56.4761 146.949,56.3521 147.103,56.228 147.256,56.1045 147.41,55.9805 147.564,55.8564 147.718,55.7324 147.872,55.6084 148.025,55.4844 148.179,55.3604 148.333,55.2363 148.487,55.1128 148.641,54.9888 148.794,54.8647 148.948,54.7407 149.102,54.6167 149.256,54.4927 149.41,54.3687 149.563,54.2451 149.717,54.1211 149.871,53.9971 150.025,53.873 150.179,53.749 150.333,53.625 150.486,53.501 150.64,53.3774 150.794,53.2534 150.948,53.1294 151.102,53.0054 151.255,52.8813 151.409,52.7573 151.563,52.6333 151.717,52.5098 151.871,52.3857 152.024,52.2617 152.178,52.1377 152.332,52.0137 152.486,51.8896 152.64,51.7656 152.793,51.6416 152.947,51.5181 153.101,51.394 153.254,51.27 153.408,51.146 153.562,51.022 153.716,50.8979 153.87,50.7739 154.023,50.6504 154.177,50.5264 154.331,50.4023 154.485,50.2783 154.639,50.1543 154.792,50.0303 154.946,49.9062 155.1,49.7827 155.254,49.6587 155.408,49.5347 155.562,49.4106 155.715,49.2866 155.869,49.1626 156.023,49.0386 156.177,48.915 156.331,48.791 156.484,48.667 156.638,48.543 156.792,48.4189 156.946,48.2949 157.1,48.1709 157.253,48.0469 157.407,47.9233 157.561,47.7993 157.715,47.6753 157.869,47.5513 158.022,47.4272 158.176,47.3032 158.33,47.1792 158.484,47.0557 158.638,46.9316 158.792,46.8076 158.945,46.6836 159.099,46.5596 159.253,46.4355 159.407,46.3115 159.561,46.188 159.714,46.064 159.868,45.9399 160.022,45.8159 160.176,45.6919 160.33,45.5679 160.483,45.4438 160.637,45.3203 160.791,45.1963 160.945,45.0723 161.099,44.9482 161.252,44.8242 161.406,44.7002 161.56,44.5762 161.714,44.4521 161.868,44.3286 162.021,44.2046 162.175,44.0806 162.329,43.9565 162.483,43.8325 162.637,43.7085 162.791,43.5845 162.944,43.4609 163.098,43.3369 163.252,43.2129 163.406,43.0889 163.56,42.9648 163.713,42.8408 163.867,42.7168 164.021,42.5933 164.175,42.4692 164.329,42.3452 164.482,42.2212 164.636,42.0972 164.79,41.9731 164.944,41.8491 165.098,41.7256 165.251,41.6016 165.405,41.4775 165.559,41.3535 165.713,41.2295 165.867,41.1055 166.021,40.9814 166.174,40.8574 166.328,40.7339 166.482,40.6099 166.636,40.4858 166.79,40.3618 166.943,40.2378 167.097,40.1138 167.251,39.9897 167.311,39.9419" stroke="#000000" stroke-linecap="butt" stroke-width="0.5"/>
   <polyline stroke-linejoin="miter" fill="none" points="76.4199,106.453 82.4199,112.453" stroke="#000000" stroke-linecap="square" stroke-width="0.5"/>
   <polyline stroke-linejoin="miter" fill="none" points="76.4199,112.453 82.4199,106.453" stroke="#000000" stroke-linecap="square" stroke-width="0.5"/>
   <polyline stroke-linejoin="miter" fill="none" points="108.123,82.8657 114.123,88.8657" stroke="#000000" stroke-linecap="square" stroke-width="0.5"/>
   <polyline stroke-linejoin="miter" fill="none" points="108.123,88.8657 114.123,82.8657" stroke="#000000" stroke-linecap="square" stroke-width="0.5"/>
   <polyline stroke-linejoin="miter" fill="none" points="46.6777,132.429 52.6777,138.429" stroke="#000000" stroke-linecap="square" stroke-width="0.5"/>
   <polyline stroke-linejoin="miter" fill="none" points="46.6777,138.429 52.6777,132.429" stroke="#000000" stroke-linecap="square" stroke-width="0.5"/>
   <polyline stroke-linejoin="round" fill="none" points="30.689,153.906 30.8301,153.782 30.9717,153.658 31.1133,153.534 31.2549,153.41 31.3965,153.286 31.5376,153.162 31.6792,153.038 31.8208,152.914 31.9624,152.79 32.104,152.666 32.2451,152.542 32.3867,152.418 32.5283,152.294 32.6699,152.17 32.8115,152.046 32.9526,151.922 33.0942,151.798 33.2358,151.674 33.3774,151.55 33.5186,151.426 33.6602,151.302 33.8018,151.179 33.9434,151.055 34.085,150.931 34.2261,150.807 34.3677,150.683 34.5093,150.559 34.6509,150.435 34.7925,150.311 34.9336,150.187 35.0752,150.063 35.2168,149.939 35.3584,149.815 35.5,149.691 35.6411,149.567 35.7827,149.443 35.9243,149.319 36.0659,149.195 36.2075,149.071 36.3486,148.947 36.4902,148.823 36.6318,148.699 36.7734,148.575 36.915,148.452 37.0562,148.328 37.1978,148.204 37.3394,148.08 37.481,147.956 37.6221,147.832 37.7637,147.708 37.9053,147.584 38.0469,147.46 38.1885,147.336 38.3296,147.212 38.4712,147.088 38.6128,146.964 38.7544,146.84 38.896,146.716 39.0371,146.592 39.1787,146.468 39.3203,146.344 39.4619,146.22 39.6035,146.096 39.7446,145.972 39.8862,145.849 40.0278,145.725 40.1694,145.601 40.311,145.477 40.4521,145.353 40.5938,145.229 40.7354,145.104 40.877,144.98 41.0181,144.857 41.1597,144.733 41.3013,144.609 41.4429,144.485 41.5845,144.361 41.7256,144.237 41.8672,144.113 42.0088,143.989 42.1504,143.865 42.292,143.741 42.4331,143.617 42.5747,143.493 42.7163,143.369 42.8579,143.245 42.9995,143.122 43.1406,142.998 43.2822,142.874 43.4238,142.75 43.5654,142.625 43.707,142.501 43.8481,142.377 43.9897,142.254 44.1313,142.13 44.2729,142.006 44.4141,141.882 44.5557,141.758 44.6973,141.634 44.8389,141.51 44.9805,141.386 45.1216,141.262 45.2632,141.138 45.4048,141.014 45.5464,140.89 45.688,140.766 45.8291,140.642 45.9707,140.518 46.1123,140.395 46.2539,140.271 46.3955,140.146 46.5366,140.022 46.6782,139.898 46.8198,139.774 46.9614,139.65 47.103,139.527 47.2441,139.403 47.3857,139.279 47.5273,139.155 47.6689,139.031 47.8105,138.907 47.9517,138.783 48.0933,138.659 48.2349,138.535 48.3765,138.411 48.5176,138.287 48.6592,138.163 48.8008,138.039 48.9424,137.915 49.084,137.791 49.2251,137.667 49.3667,137.543 49.5083,137.419 49.6499,137.295 49.7915,137.171 49.9326,137.047 50.0742,136.923 50.2158,136.8 50.3574,136.676 50.499,136.552 50.6401,136.428 50.7817,136.304 50.9233,136.18 51.0649,136.056 51.2065,135.932 51.3477,135.808 51.4893,135.684 51.6309,135.56 51.7725,135.436 51.9136,135.312 52.0552,135.188 52.1968,135.064 52.3384,134.94 52.48,134.816 52.6211,134.692 52.7627,134.568 52.9043,134.444 53.0459,134.32 53.1875,134.197 53.3286,134.073 53.4702,133.949 53.6118,133.825 53.7534,133.701 53.895,133.577 54.0361,133.453 54.1777,133.329 54.3193,133.205 54.4609,133.081 54.6025,132.957 54.7437,132.833 54.8853,132.709 55.0269,132.585 55.1685,132.461 55.3096,132.337 55.4512,132.213 55.5928,132.089 55.7344,131.965 55.876,131.841 56.0171,131.717 56.1587,131.593 56.3003,131.47 56.4419,131.346 56.5835,131.222 56.7246,131.098 56.8662,130.974 57.0078,130.85 57.1494,130.726 57.291,130.602 57.4321,130.478 57.5737,130.354 57.7153,130.23 57.8569,130.106 57.9985,129.982 58.1396,129.858 58.2812,129.734 58.4229,129.61 58.5645,129.486 58.7061,129.362 58.8472,129.238 58.9888,129.114 59.1304,128.99 59.272,128.866 59.4131,128.743 59.5547,128.619 59.6963,128.495 59.8379,128.371 59.9795,128.247 60.1206,128.123 60.2622,127.999 60.4038,127.875 60.5454,127.751 60.687,127.627 60.8281,127.503 60.9697,127.379 61.1113,127.255 61.2529,127.131 61.3945,127.007 61.5356,126.883 61.6772,126.759 61.8188,126.635 61.9604,126.511 62.1021,126.387 62.2432,126.263 62.3848,126.139 62.5264,126.016 62.668,125.892 62.8096,125.768 62.9507,125.644 63.0923,125.52 63.2339,125.396 63.3755,125.271 63.5166,125.148 63.6582,125.024 63.7998,124.9 63.9414,124.776 64.083,124.652 64.2241,124.528 64.3657,124.404 64.5073,124.28 64.6489,124.156 64.7905,124.032 64.9316,123.908 65.0732,123.784 65.2148,123.66 65.3564,123.536 65.498,123.413 65.6392,123.289 65.7808,123.165 65.9224,123.041 66.064,122.917 66.2056,122.792 66.3467,122.668 66.4883,122.544 66.6299,122.421 66.7715,122.297 66.9126,122.173 67.0542,122.049 67.1958,121.925 67.3374,121.801 67.479,121.677 67.6201,121.553 67.7617,121.429 67.9033,121.305 68.0449,121.181 68.1865,121.057 68.3276,120.933 68.4692,120.809 68.6108,120.686 68.7524,120.562 68.894,120.438 69.0352,120.313 69.1768,120.189 69.3184,120.065 69.46,119.941 69.6016,119.818 69.7427,119.694 69.8843,119.57 70.0259,119.446 70.1675,119.322 70.3086,119.198 70.4502,119.074 70.5918,118.95 70.7334,118.826 70.875,118.702 71.0161,118.578 71.1577,118.454 71.2993,118.33 71.4409,118.206 71.5825,118.082 71.7236,117.958 71.8652,117.834 72.0068,117.71 72.1484,117.586 72.29,117.462 72.4312,117.338 72.5728,117.214 72.7144,117.091 72.856,116.967 72.9976,116.843 73.1387,116.719 73.2803,116.595 73.4219,116.471 73.5635,116.347 73.7051,116.223 73.8462,116.099 73.9878,115.975 74.1294,115.851 74.271,115.727 74.4121,115.603 74.5537,115.479 74.6953,115.355 74.8369,115.231 74.9785,115.107 75.1196,114.983 75.2612,114.859 75.4028,114.735 75.5444,114.611 75.686,114.487 75.8271,114.364 75.9688,114.24 76.1104,114.116 76.252,113.992 76.3936,113.868 76.5347,113.744 76.6763,113.62 76.8179,113.496 76.9595,113.372 77.1011,113.248 77.2422,113.124 77.3838,113 77.5254,112.876 77.667,112.752 77.8081,112.628 77.9497,112.504 78.0913,112.38 78.2329,112.256 78.3745,112.132 78.5156,112.008 78.6572,111.884 78.7988,111.76 78.9404,111.637 79.082,111.513 79.2231,111.389 79.3647,111.265 79.5063,111.141 79.6479,111.017 79.7896,110.893 79.9307,110.769 80.0723,110.645 80.2139,110.521 80.3555,110.397 80.4971,110.273 80.6382,110.149 80.7798,110.025 80.9214,109.901 81.063,109.777 81.2041,109.653 81.3457,109.529 81.4873,109.405 81.6289,109.281 81.7705,109.157 81.9116,109.034 82.0532,108.91 82.1948,108.786 82.3364,108.662 82.478,108.538 82.6191,108.414 82.7607,108.29 82.9023,108.166 83.0439,108.042 83.1855,107.918 83.3267,107.794 83.4683,107.67 83.6099,107.546 83.7515,107.422 83.8931,107.298 84.0342,107.174 84.1758,107.05 84.3174,106.926 84.459,106.802 84.6006,106.678 84.7417,106.554 84.8833,106.43 85.0249,106.307 85.1665,106.183 85.3076,106.059 85.4492,105.935 85.5908,105.811 85.7324,105.687 85.874,105.562 86.0151,105.439 86.1567,105.315 86.2983,105.191 86.4399,105.067 86.5815,104.943 86.7227,104.819 86.8643,104.695 87.0059,104.571 87.1475,104.447 87.2891,104.323 87.4302,104.199 87.5718,104.075 87.7134,103.951 87.855,103.827 87.9966,103.703 88.1377,103.58 88.2793,103.456 88.4209,103.332 88.5625,103.208 88.7036,103.083 88.8452,102.959 88.9868,102.835 89.1284,102.712 89.27,102.588 89.4111,102.464 89.5527,102.34 89.6943,102.216 89.8359,102.092 89.9775,101.968 90.1187,101.844 90.2603,101.72 90.4019,101.596 90.5435,101.472 90.6851,101.348 90.8262,101.224 90.9678,101.1 91.1094,100.977 91.251,100.853 91.3926,100.729 91.5337,100.604 91.6753,100.48 91.8169,100.356 91.9585,100.232 92.1001,100.108 92.2412,99.9849 92.3828,99.8608 92.5244,99.7368 92.666,99.6128 92.8071,99.4888 92.9487,99.3647 93.0903,99.2407 93.2319,99.1172 93.3735,98.9932 93.5146,98.8691 93.6562,98.7451 93.7979,98.6211 93.9395,98.4971 94.0811,98.373 94.2222,98.2495 94.3638,98.1255 94.5054,98.0015 94.647,97.8774 94.7886,97.7534 94.9297,97.6294 95.0713,97.5054 95.2129,97.3818 95.3545,97.2578 95.4961,97.1338 95.6372,97.0098 95.7788,96.8857 95.9204,96.7617 96.062,96.6377 96.2031,96.5137 96.3447,96.3901 96.4863,96.2661 96.6279,96.1421 96.7695,96.0181 96.9106,95.894 97.0522,95.77 97.1938,95.646 97.3354,95.5225 97.4771,95.3984 97.6182,95.2744 97.7598,95.1504 97.9014,95.0264 98.043,94.9023 98.1846,94.7783 98.3257,94.6548 98.4673,94.5308 98.6089,94.4067 98.7505,94.2827 98.8921,94.1587 99.0332,94.0347 99.1748,93.9106 99.3164,93.7871 99.458,93.6631 99.5996,93.5391 99.7407,93.415 99.8823,93.291 100.024,93.167 100.166,93.043 100.307,92.9189 100.448,92.7954 100.59,92.6714 100.731,92.5474 100.873,92.4233 101.014,92.2993 101.156,92.1753 101.297,92.0513 101.439,91.9277 101.581,91.8037 101.722,91.6797 101.863,91.5557 102.005,91.4316 102.146,91.3076 102.288,91.1836 102.429,91.0601 102.571,90.936 102.712,90.812 102.854,90.688 102.996,90.564 103.137,90.4399 103.278,90.3159 103.42,90.1924 103.562,90.0684 103.703,89.9443 103.844,89.8203 103.986,89.6963 104.127,89.5723 104.269,89.4482 104.41,89.3242 104.552,89.2007 104.693,89.0767 104.835,88.9526 104.977,88.8286 105.118,88.7046 105.259,88.5806 105.401,88.4565 105.542,88.333 105.684,88.209 105.825,88.085 105.967,87.9609 106.108,87.8369 106.25,87.7129 106.392,87.5889 106.533,87.4653 106.674,87.3413 106.816,87.2173 106.958,87.0933 107.099,86.9692 107.24,86.8452 107.382,86.7212 107.523,86.5977 107.665,86.4736 107.806,86.3496 107.948,86.2256 108.089,86.1016 108.231,85.9775 108.373,85.8535 108.514,85.73 108.655,85.606 108.797,85.4819 108.938,85.3579 109.08,85.2339 109.221,85.1099 109.363,84.9858 109.504,84.8618 109.646,84.7383 109.788,84.6143 109.929,84.4902 110.07,84.3662 110.212,84.2422 110.354,84.1182 110.495,83.9941 110.636,83.8706 110.778,83.7466 110.919,83.6226 111.061,83.4985 111.202,83.3745 111.344,83.2505 111.485,83.1265 111.627,83.0029 111.769,82.8789 111.91,82.7549 112.051,82.6309 112.193,82.5068 112.334,82.3828 112.476,82.2588 112.617,82.1353 112.759,82.0112 112.9,81.8872 113.042,81.7632 113.184,81.6392 113.325,81.5151 113.466,81.3911 113.608,81.2671 113.75,81.1436 113.891,81.0195 114.032,80.8955 114.174,80.7715 114.315,80.6475 114.457,80.5234 114.598,80.3994 114.74,80.2759 114.881,80.1519 115.023,80.0278 115.165,79.9038 115.306,79.7798 115.447,79.6558 115.589,79.5317 115.73,79.4082 115.872,79.2842 116.013,79.1602 116.155,79.0361 116.296,78.9121 116.438,78.7881 116.58,78.6641 116.721,78.5405 116.862,78.4165 117.004,78.2925 117.146,78.1685 117.287,78.0444 117.428,77.9204 117.57,77.7964 117.711,77.6724 117.853,77.5488 117.994,77.4248 118.136,77.3008 118.277,77.1768 118.419,77.0527 118.561,76.9287 118.702,76.8047 118.843,76.6812 118.985,76.5571 119.126,76.4331 119.268,76.3091 119.409,76.1851 119.551,76.061 119.692,75.937 119.834,75.8135 119.976,75.6895 120.117,75.5654 120.258,75.4414 120.4,75.3174 120.542,75.1934 120.683,75.0693 120.824,74.9458 120.966,74.8218 121.107,74.6978 121.249,74.5737 121.391,74.4497 121.532,74.3257 121.673,74.2017 121.815,74.0776 121.957,73.9541 122.098,73.8301 122.239,73.7061 122.381,73.582 122.522,73.458 122.664,73.334 122.805,73.21 122.947,73.0864 123.088,72.9624 123.23,72.8384 123.372,72.7144 123.513,72.5903 123.654,72.4663 123.796,72.3423 123.938,72.2188 124.079,72.0947 124.22,71.9707 124.362,71.8467 124.503,71.7227 124.645,71.5986 124.787,71.4746 124.928,71.3511 125.069,71.2271 125.211,71.103 125.353,70.979 125.494,70.855 125.635,70.731 125.777,70.6069 125.918,70.4829 126.06,70.3594 126.201,70.2354 126.343,70.1113 126.484,69.9873 126.626,69.8633 126.768,69.7393 126.909,69.6152 127.05,69.4917 127.192,69.3677 127.333,69.2437 127.475,69.1196 127.616,68.9956 127.758,68.8716 127.899,68.7476 128.041,68.624 128.183,68.5 128.324,68.376 128.465,68.252 128.607,68.1279 128.749,68.0039 128.89,67.8799 129.031,67.7563 129.173,67.6323 129.314,67.5083 129.456,67.3843 129.597,67.2603 129.739,67.1362 129.88,67.0122 130.022,66.8882 130.164,66.7646 130.305,66.6406 130.446,66.5166 130.588,66.3926 130.729,66.2686 130.871,66.1445 131.012,66.0205 131.154,65.897 131.295,65.7729 131.437,65.6489 131.579,65.5249 131.72,65.4009 131.861,65.2769 132.003,65.1528 132.145,65.0293 132.286,64.9053 132.427,64.7812 132.569,64.6572 132.71,64.5332 132.852,64.4092 132.993,64.2852 133.135,64.1616 133.276,64.0376 133.418,63.9136 133.56,63.7896 133.701,63.6655 133.842,63.5415 133.984,63.4175 134.125,63.2935 134.267,63.1699 134.408,63.0459 134.55,62.9219 134.691,62.7979 134.833,62.6738 134.975,62.5498 135.116,62.4258 135.257,62.3022 135.399,62.1782 135.541,62.0542 135.682,61.9302 135.823,61.8062 135.965,61.6821 136.106,61.5581 136.248,61.4346 136.389,61.3105 136.531,61.1865 136.672,61.0625 136.814,60.9385 136.956,60.8145 137.097,60.6904 137.238,60.5669 137.38,60.4429 137.521,60.3188 137.663,60.1948 137.804,60.0708 137.946,59.9468 138.087,59.8228 138.229,59.6987 138.371,59.5752 138.512,59.4512 138.653,59.3271 138.795,59.2031 138.937,59.0791 139.078,58.9551 139.219,58.8311 139.361,58.7075 139.502,58.5835 139.644,58.4595 139.786,58.3354 139.927,58.2114 140.068,58.0874 140.21,57.9634 140.352,57.8398 140.493,57.7158 140.634,57.5918 140.776,57.4678 140.917,57.3438 141.059,57.2197 141.2,57.0957 141.342,56.9722 141.483,56.8481 141.625,56.7241 141.767,56.6001 141.908,56.4761 142.049,56.3521 142.191,56.228 142.333,56.1045 142.474,55.9805 142.615,55.8564 142.757,55.7324 142.898,55.6084 143.04,55.4844 143.182,55.3604 143.323,55.2363 143.464,55.1128 143.606,54.9888 143.748,54.8647 143.889,54.7407 144.03,54.6167 144.172,54.4927 144.313,54.3687 144.455,54.2451 144.596,54.1211 144.738,53.9971 144.879,53.873 145.021,53.749 145.163,53.625 145.304,53.501 145.445,53.3774 145.587,53.2534 145.729,53.1294 145.87,53.0054 146.011,52.8813 146.153,52.7573 146.294,52.6333 146.436,52.5098 146.578,52.3857 146.719,52.2617 146.86,52.1377 147.002,52.0137 147.144,51.8896 147.285,51.7656 147.426,51.6416 147.568,51.5181 147.709,51.394 147.851,51.27 147.992,51.146 148.134,51.022 148.275,50.8979 148.417,50.7739 148.559,50.6504 148.7,50.5264 148.841,50.4023 148.983,50.2783 149.125,50.1543 149.266,50.0303 149.407,49.9062 149.549,49.7827 149.69,49.6587 149.832,49.5347 149.974,49.4106 150.115,49.2866 150.256,49.1626 150.398,49.0386 150.54,48.915 150.681,48.791 150.822,48.667 150.964,48.543 151.105,48.4189 151.247,48.2949 151.388,48.1709 151.53,48.0469 151.671,47.9233 151.813,47.7993 151.955,47.6753 152.096,47.5513 152.237,47.4272 152.379,47.3032 152.521,47.1792 152.662,47.0557 152.803,46.9316 152.945,46.8076 153.086,46.6836 153.228,46.5596 153.37,46.4355 153.511,46.3115 153.652,46.188 153.794,46.064 153.936,45.9399 154.077,45.8159 154.218,45.6919 154.36,45.5679 154.501,45.4438 154.643,45.3203 154.784,45.1963 154.926,45.0723 155.067,44.9482 155.209,44.8242 155.351,44.7002 155.492,44.5762 155.633,44.4521 155.775,44.3286 155.917,44.2046 156.058,44.0806 156.199,43.9565 156.341,43.8325 156.482,43.7085 156.624,43.5845 156.766,43.4609 156.907,43.3369 157.048,43.2129 157.19,43.0889 157.332,42.9648 157.473,42.8408 157.614,42.7168 157.756,42.5933 157.897,42.4692 158.039,42.3452 158.181,42.2212 158.322,42.0972 158.463,41.9731 158.605,41.8491 158.747,41.7256 158.888,41.6016 159.029,41.4775 159.171,41.3535 159.312,41.2295 159.454,41.1055 159.595,40.9814 159.737,40.8574 159.878,40.7339 160.02,40.6099 160.162,40.4858 160.303,40.3618 160.444,40.2378 160.586,40.1138 160.728,39.9897 160.869,39.8662 161.01,39.7422 161.152,39.6182 161.293,39.4941 161.435,39.3701 161.577,39.2461 161.718,39.1221 161.859,38.9985 162.001,38.8745 162.143,38.7505 162.284,38.6265 162.425,38.5024 162.567,38.3784 162.708,38.2544 162.85,38.1309 162.991,38.0068 163.133,37.8828 163.274,37.7588 163.416,37.6348 163.558,37.5107 163.699,37.3867 163.84,37.2632 163.982,37.1392 164.124,37.0151 164.265,36.8911 164.406,36.7671 164.548,36.6431 164.689,36.519 164.831,36.395 164.973,36.2715 165.114,36.1475 165.255,36.0234 165.397,35.8994 165.539,35.7754 165.68,35.6514 165.821,35.5273 165.963,35.4038 166.104,35.2798 166.246,35.1558 166.387,35.0317 166.529,34.9077 166.67,34.7837 166.812,34.6597 166.954,34.5361 167.095,34.4121 167.236,34.2881 167.311,34.2231" stroke="#000000" stroke-linecap="butt" stroke-width="0.5"/>
   <polyline stroke-linejoin="miter" fill="none" points="100.111,90.4624 106.111,90.4624" stroke="#000000" stroke-linecap="square" stroke-width="0.5"/>
   <polyline stroke-linejoin="miter" fill="none" points="103.111,87.4624 103.111,93.4624" stroke="#000000" stroke-linecap="square" stroke-width="0.5"/>
   <polyline stroke-linejoin="miter" fill="none" points="100.99,88.3413 105.233,92.5835" stroke="#000000" stroke-linecap="square" stroke-width="0.5"/>
   <polyline stroke-linejoin="miter" fill="none" points="100.99,92.5835 105.233,88.3413" stroke="#000000" stroke-linecap="square" stroke-width="0.5"/>
   <polyline stroke-linejoin="miter" fill="none" points="29.4839,152.333 35.4839,152.333" stroke="#000000" stroke-linecap="square" stroke-width="0.5"/>
   <polyline stroke-linejoin="miter" fill="none" points="32.4839,149.333 32.4839,155.333" stroke="#000000" stroke-linecap="square" stroke-width="0.5"/>
   <polyline stroke-linejoin="miter" fill="none" points="30.3623,150.212 34.605,154.455" stroke="#000000" stroke-linecap="square" stroke-width="0.5"/>
   <polyline stroke-linejoin="miter" fill="none" points="30.3623,154.455 34.605,150.212" stroke="#000000" stroke-linecap="square" stroke-width="0.5"/>
   <polyline stroke-linejoin="round" fill="none" stroke-dasharray="1,3,1,3,1,3,1,3" points="79.4199,153.906 79.4199,30.0737" stroke="#000000" stroke-linecap="butt" stroke-width="0.3"/>
   <g transform="translate(72.4201,39.9463) rotate(-90,7,-7)" font-weight="normal" font-family="'Liberation Serif'" xml:space="preserve" font-style="normal" font-size="8">
    <text fill="rgb(0,0,0)" y="-0" x="0 3 ">f2</text>
   </g>
   <polyline stroke-linejoin="round" fill="none" stroke-dasharray="1,3,1,3,1,3,1,3" points="111.123,153.906 111.123,30.0737" stroke="#000000" stroke-linecap="butt" stroke-width="0.3"/>
   <g transform="translate(104.123,39.9463) rotate(-90,7,-7)" font-weight="normal" font-family="'Liberation Serif'" xml:space="preserve" font-style="normal" font-size="8">
    <text fill="rgb(0,0,0)" y="-0" x="0 3 ">f3</text>
   </g>
   <polyline stroke-linejoin="round" fill="none" stroke-dasharray="1,3,1,3,1,3,1,3" points="49.6777,153.906 49.6777,30.0737" stroke="#000000" stroke-linecap="butt" stroke-width="0.3"/>
   <g transform="translate(42.6775,39.9463) rotate(-90,7,-7)" font-weight="normal" font-family="'Liberation Serif'" xml:space="preserve" font-style="normal" font-size="8">
    <text fill="rgb(0,0,0)" y="-0" x="0 3 ">f1</text>
   </g>
   <polyline stroke-linejoin="round" fill="none" stroke-dasharray="1,3,1,3,1,3,1,3" points="103.111,153.906 103.111,30.0737" stroke="#000000" stroke-linecap="butt" stroke-width="0.5"/>
   <g transform="translate(95.1114,52.0422) rotate(-90,8,-7)" font-weight="normal" font-family="'Liberation Serif'" xml:space="preserve" font-style="normal" font-size="8">
    <text fill="rgb(0,0,0)" y="-0" x="0 4 ">a2</text>
   </g>
   <polyline stroke-linejoin="round" fill="none" stroke-dasharray="1,3,1,3,1,3,1,3" points="32.4839,153.906 32.4839,30.0737" stroke="#000000" stroke-linecap="butt" stroke-width="0.5"/>
   <g transform="translate(24.4838,52.0422) rotate(-90,8,-7)" font-weight="normal" font-family="'Liberation Serif'" xml:space="preserve" font-style="normal" font-size="8">
    <text fill="rgb(0,0,0)" y="-0" x="0 4 ">a3</text>
   </g>
   <g transform="translate(55.3287,148.334) rotate(-0,-0,-3.5)" font-weight="normal" font-family="'Liberation Serif'" xml:space="preserve" font-style="normal" font-size="8">
    <text fill="rgb(0,0,0)" y="-0" x="0 6 11 17 21 25 28 34 40 43 50 56 61 65 69 72 76 80 ">UCASS-AD-MAZ04-001</text>
   </g>
  </g>
  <clipPath id="cp00176176">
   <polygon points="0,176 176,176 176,0 0,0"/>
  </clipPath>
  <g clip-path="url(#cp00176176)">
   <polyline stroke-linejoin="miter" fill="none" points="30.0732,30.0737 30.0732,31.4429" stroke="#262626" stroke-linecap="butt" stroke-width="0.5"/>
   <polyline stroke-linejoin="miter" fill="none" points="95.0156,30.0737 95.0156,31.4429" stroke="#262626" stroke-linecap="butt" stroke-width="0.5"/>
   <polyline stroke-linejoin="miter" fill="none" points="123.878,30.0737 123.878,31.4429" stroke="#262626" stroke-linecap="butt" stroke-width="0.5"/>
   <polyline stroke-linejoin="miter" fill="none" points="152.742,30.0737 152.742,31.4429" stroke="#262626" stroke-linecap="butt" stroke-width="0.5"/>
   <g transform="translate(28.5735,25.5796) rotate(-0,1.5,0)" font-weight="normal" font-family="'Liberation Serif'" xml:space="preserve" font-style="normal" font-size="6">
    <text fill="rgb(38,38,38)" y="-1" x="0 ">0</text>
   </g>
   <g transform="translate(93.5155,25.5796) rotate(-0,1.5,0)" font-weight="normal" font-family="'Liberation Serif'" xml:space="preserve" font-style="normal" font-size="6">
    <text fill="rgb(38,38,38)" y="-1" x="0 ">9</text>
   </g>
   <g transform="translate(120.879,25.5796) rotate(-0,3,0)" font-weight="normal" font-family="'Liberation Serif'" xml:space="preserve" font-style="normal" font-size="6">
    <text fill="rgb(38,38,38)" y="-1" x="0 3 ">13</text>
   </g>
   <g transform="translate(149.742,25.5796) rotate(-0,3,0)" font-weight="normal" font-family="'Liberation Serif'" xml:space="preserve" font-style="normal" font-size="6">
    <text fill="rgb(38,38,38)" y="-0" x="0 3 ">17</text>
   </g>
   <polyline stroke-linejoin="miter" fill="none" stroke-dasharray="16,0" points="167.173,30.0737 30.0732,30.0737" stroke="#262626" stroke-linecap="square" stroke-width="0.5"/>
   <polyline stroke-linejoin="miter" fill="none" stroke-dasharray="16,0" points="167.173,30.0737 167.173,153.906" stroke="#262626" stroke-linecap="square" stroke-width="0.5"/>
  </g>
 </g>
</svg>
