<?xml version='1.0' encoding='UTF-8' standalone='no'?>
<svg xmlns="http://www.w3.org/2000/svg" width="176pt" viewBox="0 0 176 176" xmlns:xlink="http://www.w3.org/1999/xlink" height="176pt">
 <title>Figure 5</title>
 <desc>
Creator: GL2PS 1.4.2, (C) 1999-2020 C. Geuzaine
For: Octave
CreationDate: Wed Feb 14 10:31:09 2024
</desc>
 <defs/>
 <polygon fill="#ffffff" points="0,0 176,0 176,176 0,176"/>
 <g>
  <polygon shape-rendering="crispEdges" fill="#ffffff" points="0,176 176,176 176,0 0,0"/>
  <clipPath id="cp00176176">
   <polygon points="0,176 176,176 176,0 0,0"/>
  </clipPath>
  <g clip-path="url(#cp00176176)">
   <polygon shape-rendering="crispEdges" fill="#ffffff" points="30.0732,153.906 167.173,153.906 167.173,30.0737 30.0732,30.0737"/>
   <polyline stroke-linejoin="miter" stroke="#262626" fill="none" points="30.0732,153.906 30.0732,152.537" stroke-linecap="butt" stroke-width="0.5"/>
   <polyline stroke-linejoin="miter" stroke="#262626" fill="none" points="66.1523,153.906 66.1523,152.537" stroke-linecap="butt" stroke-width="0.5"/>
   <polyline stroke-linejoin="miter" stroke="#262626" fill="none" points="102.231,153.906 102.231,152.537" stroke-linecap="butt" stroke-width="0.5"/>
   <polyline stroke-linejoin="miter" stroke="#262626" fill="none" points="138.31,153.906 138.31,152.537" stroke-linecap="butt" stroke-width="0.5"/>
   <g xml:space="preserve" font-weight="normal" font-family="'Liberation Serif'" font-size="6" transform="translate(28.5735,163.399) rotate(-0,1.5,-5)" font-style="normal">
    <text x="0 " y="-1" fill="rgb(38,38,38)">0</text>
   </g>
   <g xml:space="preserve" font-weight="normal" font-family="'Liberation Serif'" font-size="6" transform="translate(59.1524,163.399) rotate(-0,7,-5)" font-style="normal">
    <text x="0 3 6 8 11 " y="-1" fill="rgb(38,38,38)">5e-05</text>
   </g>
   <g xml:space="preserve" font-weight="normal" font-family="'Liberation Serif'" font-size="6" transform="translate(93.7313,163.399) rotate(-0,8.5,-5)" font-style="normal">
    <text x="0 3 5 8 11 14 " y="-1" fill="rgb(38,38,38)">0.0001</text>
   </g>
   <g xml:space="preserve" font-weight="normal" font-family="'Liberation Serif'" font-size="6" transform="translate(128.31,163.399) rotate(-0,10,-5)" font-style="normal">
    <text x="0 3 5 8 11 14 17 " y="-1" fill="rgb(38,38,38)">0.00015</text>
   </g>
   <polyline stroke-linejoin="miter" stroke="#262626" fill="none" points="30.0732,153.906 31.4453,153.906" stroke-linecap="butt" stroke-width="0.5"/>
   <polyline stroke-linejoin="miter" stroke="#262626" fill="none" points="30.0732,123.666 31.4453,123.666" stroke-linecap="butt" stroke-width="0.5"/>
   <polyline stroke-linejoin="miter" stroke="#262626" fill="none" points="30.0732,93.4258 31.4453,93.4258" stroke-linecap="butt" stroke-width="0.5"/>
   <polyline stroke-linejoin="miter" stroke="#262626" fill="none" points="30.0732,63.186 31.4453,63.186" stroke-linecap="butt" stroke-width="0.5"/>
   <polyline stroke-linejoin="miter" stroke="#262626" fill="none" points="30.0732,32.9463 31.4453,32.9463" stroke-linecap="butt" stroke-width="0.5"/>
   <g xml:space="preserve" font-weight="normal" font-family="'Liberation Serif'" font-size="6" transform="translate(24.0713,156.406) rotate(-0,3,-2.5)" font-style="normal">
    <text x="0 " y="-1" fill="rgb(38,38,38)">0</text>
   </g>
   <g xml:space="preserve" font-weight="normal" font-family="'Liberation Serif'" font-size="6" transform="translate(15.0713,126.166) rotate(-0,12,-2.5)" font-style="normal">
    <text x="0 3 6 9 " y="-1" fill="rgb(38,38,38)">1000</text>
   </g>
   <g xml:space="preserve" font-weight="normal" font-family="'Liberation Serif'" font-size="6" transform="translate(15.0713,95.9259) rotate(-0,12,-2.5)" font-style="normal">
    <text x="0 3 6 9 " y="-1" fill="rgb(38,38,38)">2000</text>
   </g>
   <g xml:space="preserve" font-weight="normal" font-family="'Liberation Serif'" font-size="6" transform="translate(15.0713,65.6861) rotate(-0,12,-2.5)" font-style="normal">
    <text x="0 3 6 9 " y="-1" fill="rgb(38,38,38)">3000</text>
   </g>
   <g xml:space="preserve" font-weight="normal" font-family="'Liberation Serif'" font-size="6" transform="translate(15.0713,35.4463) rotate(-0,12,-2.5)" font-style="normal">
    <text x="0 3 6 9 " y="-1" fill="rgb(38,38,38)">4000</text>
   </g>
   <polyline stroke-linejoin="miter" stroke="#262626" fill="none" points="30.0732,153.906 167.173,153.906" stroke-linecap="square" stroke-width="0.5" stroke-dasharray="16,0"/>
   <polyline stroke-linejoin="miter" stroke="#262626" fill="none" points="30.0732,153.906 30.0732,30.0737" stroke-linecap="square" stroke-width="0.5" stroke-dasharray="16,0"/>
   <polyline stroke-linejoin="round" stroke="#000000" fill="none" points="30.0732,153.906 30.2129,153.761 30.3525,153.616 30.4917,153.471 30.6313,153.326 30.771,153.181 30.9102,153.036 31.0498,152.891 31.1895,152.746 31.3286,152.601 31.4683,152.457 31.6079,152.312 31.7471,152.167 31.8867,152.021 32.0264,151.876 32.1655,151.732 32.3052,151.587 32.4443,151.442 32.584,151.297 32.7236,151.152 32.8628,151.007 33.0024,150.862 33.1421,150.717 33.2812,150.572 33.4209,150.427 33.5605,150.283 33.6997,150.138 33.8394,149.993 33.979,149.848 34.1182,149.703 34.2578,149.558 34.397,149.413 34.5366,149.268 34.6763,149.123 34.8154,148.979 34.9551,148.833 35.0947,148.688 35.2339,148.543 35.3735,148.398 35.5132,148.254 35.6523,148.109 35.792,147.964 35.9316,147.819 36.0708,147.674 36.2104,147.529 36.3496,147.384 36.4893,147.239 36.6289,147.094 36.7681,146.949 36.9077,146.805 37.0474,146.66 37.1865,146.515 37.3262,146.37 37.4658,146.225 37.605,146.08 37.7446,145.935 37.8843,145.79 38.0234,145.645 38.1631,145.5 38.3022,145.355 38.4419,145.21 38.5815,145.065 38.7207,144.92 38.8604,144.776 39,144.631 39.1392,144.486 39.2788,144.341 39.4185,144.196 39.5576,144.051 39.6973,143.906 39.8369,143.761 39.9761,143.616 40.1157,143.471 40.2549,143.327 40.3945,143.182 40.5342,143.037 40.6733,142.892 40.813,142.747 40.9526,142.602 41.0918,142.457 41.2314,142.312 41.3711,142.167 41.5103,142.022 41.6499,141.877 41.7896,141.732 41.9287,141.587 42.0684,141.442 42.2075,141.297 42.3472,141.153 42.4868,141.008 42.626,140.863 42.7656,140.718 42.9053,140.573 43.0444,140.428 43.1841,140.283 43.3237,140.138 43.4629,139.993 43.6025,139.849 43.7422,139.704 43.8813,139.559 44.021,139.414 44.1602,139.269 44.2998,139.124 44.4395,138.979 44.5786,138.834 44.7183,138.689 44.8579,138.544 44.9971,138.399 45.1367,138.254 45.2764,138.109 45.4155,137.964 45.5552,137.819 45.6948,137.675 45.834,137.53 45.9736,137.385 46.1128,137.24 46.2524,137.095 46.3921,136.95 46.5312,136.805 46.6709,136.66 46.8105,136.515 46.9497,136.37 47.0894,136.226 47.229,136.081 47.3682,135.936 47.5078,135.791 47.6475,135.646 47.7866,135.501 47.9263,135.356 48.0654,135.211 48.2051,135.066 48.3447,134.921 48.4839,134.776 48.6235,134.631 48.7632,134.486 48.9023,134.341 49.042,134.197 49.1816,134.052 49.3208,133.907 49.4604,133.762 49.6001,133.617 49.7393,133.472 49.8789,133.327 50.0181,133.182 50.1577,133.037 50.2974,132.892 50.4365,132.748 50.5762,132.603 50.7158,132.458 50.855,132.312 50.9946,132.167 51.1343,132.023 51.2734,131.878 51.4131,131.733 51.5527,131.588 51.6919,131.443 51.8315,131.298 51.9707,131.153 52.1104,131.008 52.25,130.863 52.3892,130.718 52.5288,130.574 52.6685,130.429 52.8076,130.284 52.9473,130.139 53.0869,129.994 53.2261,129.849 53.3657,129.704 53.5054,129.559 53.6445,129.414 53.7842,129.27 53.9238,129.125 54.063,128.979 54.2026,128.834 54.3418,128.689 54.4814,128.545 54.6211,128.4 54.7603,128.255 54.8999,128.11 55.0396,127.965 55.1787,127.82 55.3184,127.675 55.458,127.53 55.5972,127.385 55.7368,127.24 55.8765,127.096 56.0156,126.951 56.1553,126.806 56.2944,126.661 56.4341,126.516 56.5737,126.371 56.7129,126.226 56.8525,126.081 56.9922,125.936 57.1313,125.791 57.271,125.646 57.4106,125.501 57.5498,125.356 57.6895,125.211 57.8291,125.066 57.9683,124.922 58.1079,124.777 58.2471,124.632 58.3867,124.487 58.5264,124.342 58.6655,124.197 58.8052,124.052 58.9448,123.907 59.084,123.762 59.2236,123.618 59.3633,123.473 59.5024,123.328 59.6421,123.183 59.7817,123.038 59.9209,122.893 60.0605,122.748 60.1997,122.603 60.3394,122.458 60.479,122.313 60.6182,122.168 60.7578,122.023 60.8975,121.878 61.0366,121.733 61.1763,121.588 61.3159,121.444 61.4551,121.299 61.5947,121.154 61.7344,121.009 61.8735,120.864 62.0132,120.719 62.1523,120.574 62.292,120.429 62.4316,120.284 62.5708,120.139 62.7104,119.995 62.8501,119.85 62.9893,119.705 63.1289,119.56 63.2686,119.415 63.4077,119.27 63.5474,119.125 63.687,118.98 63.8262,118.835 63.9658,118.69 64.105,118.545 64.2446,118.4 64.3843,118.255 64.5234,118.11 64.6631,117.966 64.8027,117.821 64.9419,117.676 65.0815,117.531 65.2212,117.386 65.3604,117.241 65.5,117.096 65.6396,116.951 65.7788,116.806 65.9185,116.661 66.0576,116.517 66.1973,116.372 66.3369,116.227 66.4761,116.082 66.6157,115.937 66.7554,115.792 66.8945,115.647 67.0342,115.502 67.1738,115.357 67.313,115.212 67.4526,115.067 67.5923,114.922 67.7314,114.777 67.8711,114.632 68.0103,114.488 68.1499,114.343 68.2896,114.198 68.4287,114.053 68.5684,113.908 68.708,113.763 68.8472,113.618 68.9868,113.473 69.1265,113.328 69.2656,113.183 69.4053,113.039 69.5449,112.894 69.6841,112.749 69.8237,112.604 69.9629,112.458 70.1025,112.314 70.2422,112.169 70.3813,112.024 70.521,111.879 70.6606,111.734 70.7998,111.589 70.9395,111.444 71.0791,111.299 71.2183,111.154 71.3579,111.009 71.4976,110.865 71.6367,110.72 71.7764,110.575 71.9155,110.43 72.0552,110.285 72.1948,110.14 72.334,109.995 72.4736,109.85 72.6133,109.705 72.7524,109.561 72.8921,109.416 73.0317,109.271 73.1709,109.125 73.3105,108.98 73.4502,108.836 73.5894,108.691 73.729,108.546 73.8682,108.401 74.0078,108.256 74.1475,108.111 74.2866,107.966 74.4263,107.821 74.5659,107.676 74.7051,107.531 74.8447,107.387 74.9844,107.242 75.1235,107.097 75.2632,106.952 75.4028,106.807 75.542,106.662 75.6816,106.517 75.8208,106.372 75.9604,106.227 76.1001,106.082 76.2393,105.938 76.3789,105.792 76.5186,105.647 76.6577,105.502 76.7974,105.357 76.937,105.213 77.0762,105.068 77.2158,104.923 77.3555,104.778 77.4946,104.633 77.6343,104.488 77.7739,104.343 77.9131,104.198 78.0527,104.053 78.1919,103.909 78.3315,103.764 78.4712,103.619 78.6104,103.474 78.75,103.329 78.8896,103.184 79.0288,103.039 79.1685,102.894 79.3081,102.749 79.4473,102.604 79.5869,102.459 79.7266,102.314 79.8657,102.169 80.0054,102.024 80.1445,101.879 80.2842,101.735 80.4238,101.59 80.563,101.445 80.7026,101.3 80.8423,101.155 80.9814,101.01 81.1211,100.865 81.2607,100.72 81.3999,100.575 81.5396,100.43 81.6792,100.286 81.8184,100.141 81.958,99.9956 82.0972,99.8506 82.2368,99.7061 82.3765,99.561 82.5156,99.416 82.6553,99.271 82.7949,99.126 82.9341,98.9814 83.0737,98.8364 83.2134,98.6914 83.3525,98.5464 83.4922,98.4014 83.6318,98.2568 83.771,98.1118 83.9106,97.9668 84.0498,97.8218 84.1895,97.6768 84.3291,97.5322 84.4683,97.3872 84.6079,97.2422 84.7476,97.0972 84.8867,96.9521 85.0264,96.8076 85.166,96.6626 85.3052,96.5176 85.4448,96.3726 85.5845,96.2275 85.7236,96.083 85.8633,95.938 86.0024,95.793 86.1421,95.6479 86.2817,95.5029 86.4209,95.3584 86.5605,95.2134 86.7002,95.0684 86.8394,94.9233 86.979,94.7783 87.1187,94.6338 87.2578,94.4888 87.3975,94.3438 87.5371,94.1987 87.6763,94.0542 87.8159,93.9092 87.9551,93.7642 88.0947,93.6191 88.2344,93.4741 88.3735,93.3296 88.5132,93.1846 88.6528,93.0396 88.792,92.8945 88.9316,92.7495 89.0713,92.605 89.2104,92.46 89.3501,92.3149 89.4897,92.1699 89.6289,92.0249 89.7686,91.8804 89.9077,91.7354 90.0474,91.5903 90.187,91.4453 90.3262,91.3003 90.4658,91.1558 90.6055,91.0107 90.7446,90.8657 90.8843,90.7207 91.0239,90.5757 91.1631,90.4312 91.3027,90.2861 91.4424,90.1411 91.5815,89.9961 91.7212,89.8511 91.8604,89.7065 92,89.5615 92.1396,89.4165 92.2788,89.2715 92.4185,89.127 92.5581,88.9819 92.6973,88.8369 92.8369,88.6919 92.9766,88.5469 93.1157,88.4023 93.2554,88.2573 93.395,88.1123 93.5342,87.9673 93.6738,87.8223 93.813,87.6777 93.9526,87.5327 94.0923,87.3877 94.2314,87.2427 94.3711,87.0977 94.5107,86.9531 94.6499,86.8081 94.7896,86.6631 94.9292,86.5181 95.0684,86.373 95.208,86.2285 95.3477,86.0835 95.4868,85.9385 95.6265,85.7935 95.7656,85.6484 95.9053,85.5039 96.0449,85.3589 96.1841,85.2139 96.3237,85.0688 96.4634,84.9238 96.6025,84.7793 96.7422,84.6343 96.8818,84.4893 97.021,84.3442 97.1606,84.1997 97.3003,84.0547 97.4395,83.9097 97.5791,83.7646 97.7188,83.6196 97.8579,83.4751 97.9976,83.3301 98.1367,83.1851 98.2764,83.04 98.416,82.895 98.5552,82.7505 98.6948,82.6055 98.8345,82.4604 98.9736,82.3154 99.1133,82.1704 99.2529,82.0259 99.3921,81.8809 99.5317,81.7358 99.6709,81.5908 99.8105,81.4458 99.9502,81.3013 100.089,81.1562 100.229,81.0112 100.369,80.8662 100.508,80.7212 100.647,80.5767 100.787,80.4316 100.926,80.2866 101.066,80.1416 101.206,79.9966 101.345,79.8521 101.484,79.707 101.624,79.562 101.763,79.417 101.903,79.2725 102.042,79.1274 102.182,78.9824 102.321,78.8374 102.46,78.6924 102.6,78.5479 102.74,78.4028 102.879,78.2578 103.019,78.1128 103.158,77.9678 103.297,77.8232 103.437,77.6782 103.577,77.5332 103.716,77.3882 103.855,77.2432 103.995,77.0986 104.134,76.9536 104.274,76.8086 104.413,76.6636 104.553,76.5186 104.692,76.374 104.832,76.229 104.971,76.084 105.111,75.939 105.25,75.7939 105.39,75.6494 105.529,75.5044 105.668,75.3594 105.808,75.2144 105.947,75.0693 106.087,74.9248 106.227,74.7798 106.366,74.6348 106.505,74.4897 106.645,74.3452 106.784,74.2002 106.924,74.0552 107.063,73.9102 107.203,73.7651 107.342,73.6206 107.482,73.4756 107.621,73.3306 107.761,73.1855 107.9,73.0405 108.04,72.896 108.179,72.751 108.318,72.606 108.458,72.4609 108.598,72.3159 108.737,72.1714 108.876,72.0264 109.016,71.8813 109.155,71.7363 109.295,71.5913 109.435,71.4468 109.574,71.3018 109.713,71.1567 109.853,71.0117 109.992,70.8667 110.132,70.7222 110.271,70.5771 110.411,70.4321 110.55,70.2871 110.689,70.1421 110.829,69.9976 110.969,69.8525 111.108,69.7075 111.248,69.5625 111.387,69.4175 111.526,69.2729 111.666,69.1279 111.805,68.9829 111.945,68.8379 112.084,68.6934 112.224,68.5483 112.363,68.4033 112.503,68.2583 112.642,68.1133 112.782,67.9688 112.921,67.8237 113.061,67.6787 113.2,67.5337 113.34,67.3887 113.479,67.2441 113.619,67.0991 113.758,66.9541 113.897,66.8091 114.037,66.6641 114.176,66.5195 114.316,66.3745 114.456,66.2295 114.595,66.0845 114.734,65.9395 114.874,65.7949 115.013,65.6499 115.153,65.5049 115.292,65.3599 115.432,65.2148 115.571,65.0703 115.71,64.9253 115.85,64.7803 115.99,64.6353 116.129,64.4902 116.269,64.3457 116.408,64.2007 116.547,64.0557 116.687,63.9106 116.827,63.7661 116.966,63.6211 117.105,63.4761 117.245,63.3311 117.384,63.186 117.524,63.0415 117.663,62.8965 117.803,62.7515 117.942,62.6064 118.082,62.4614 118.221,62.3169 118.361,62.1719 118.5,62.0269 118.64,61.8818 118.779,61.7368 118.918,61.5923 119.058,61.4473 119.198,61.3022 119.337,61.1572 119.477,61.0122 119.616,60.8677 119.755,60.7227 119.895,60.5776 120.034,60.4326 120.174,60.2876 120.313,60.1431 120.453,59.998 120.592,59.853 120.732,59.708 120.871,59.563 121.011,59.4185 121.15,59.2734 121.29,59.1284 121.429,58.9834 121.568,58.8389 121.708,58.6938 121.848,58.5488 121.987,58.4038 122.126,58.2588 122.266,58.1143 122.405,57.9692 122.545,57.8242 122.685,57.6792 122.824,57.5342 122.963,57.3896 123.103,57.2446 123.242,57.0996 123.382,56.9546 123.521,56.8096 123.661,56.665 123.8,56.52 123.939,56.375 124.079,56.23 124.219,56.085 124.358,55.9404 124.498,55.7954 124.637,55.6504 124.776,55.5054 124.916,55.3604 125.056,55.2158 125.195,55.0708 125.334,54.9258 125.474,54.7808 125.613,54.6357 125.753,54.4912 125.892,54.3462 126.032,54.2012 126.171,54.0562 126.311,53.9116 126.45,53.7666 126.59,53.6216 126.729,53.4766 126.869,53.3315 127.008,53.187 127.147,53.042 127.287,52.897 127.427,52.752 127.566,52.6069 127.706,52.4624 127.845,52.3174 127.984,52.1724 128.124,52.0273 128.263,51.8823 128.403,51.7378 128.542,51.5928 128.682,51.4478 128.821,51.3027 128.961,51.1577 129.1,51.0132 129.24,50.8682 129.379,50.7231 129.519,50.5781 129.658,50.4331 129.797,50.2886 129.937,50.1436 130.077,49.9985 130.216,49.8535 130.355,49.7085 130.495,49.564 130.634,49.4189 130.774,49.2739 130.914,49.1289 131.053,48.9844 131.192,48.8394 131.332,48.6943 131.471,48.5493 131.611,48.4043 131.75,48.2598 131.89,48.1147 132.029,47.9697 132.168,47.8247 132.308,47.6797 132.448,47.5352 132.587,47.3901 132.727,47.2451 132.866,47.1001 133.005,46.9551 133.145,46.8105 133.285,46.6655 133.424,46.5205 133.563,46.3755 133.703,46.2305 133.842,46.0859 133.982,45.9409 134.121,45.7959 134.261,45.6509 134.4,45.5059 134.54,45.3613 134.679,45.2163 134.819,45.0713 134.958,44.9263 135.098,44.7812 135.237,44.6367 135.376,44.4917 135.516,44.3467 135.655,44.2017 135.795,44.0566 135.935,43.9121 136.074,43.7671 136.213,43.6221 136.353,43.4771 136.492,43.3325 136.632,43.1875 136.771,43.0425 136.911,42.8975 137.05,42.7524 137.19,42.6079 137.329,42.4629 137.469,42.3179 137.608,42.1729 137.748,42.0278 137.887,41.8833 138.026,41.7383 138.166,41.5933 138.306,41.4482 138.445,41.3032 138.584,41.1587 138.724,41.0137 138.863,40.8687 139.003,40.7236 139.143,40.5786 139.282,40.4341 139.421,40.2891 139.561,40.144 139.7,39.999 139.84,39.854 139.979,39.7095 140.119,39.5645 140.258,39.4194 140.397,39.2744 140.537,39.1299 140.677,38.9849 140.816,38.8398 140.956,38.6948 141.095,38.5498 141.234,38.4053 141.374,38.2603 141.513,38.1152 141.653,37.9702 141.792,37.8252 141.932,37.6807 142.071,37.5356 142.211,37.3906 142.35,37.2456 142.49,37.1006 142.629,36.9561 142.769,36.811 142.908,36.666 143.048,36.521 143.187,36.376 143.327,36.2314 143.466,36.0864 143.605,35.9414 143.745,35.7964 143.884,35.6514 144.024,35.5068 144.164,35.3618 144.303,35.2168 144.442,35.0718 144.582,34.9268 144.721,34.7822 144.861,34.6372 145,34.4922 145.14,34.3472 145.279,34.2026 145.418,34.0576 145.558,33.9126 145.698,33.7676 145.837,33.6226 145.977,33.478 146.116,33.333 146.255,33.188 146.395,33.043 146.535,32.8979 146.674,32.7534 146.813,32.6084 146.953,32.4634 147.092,32.3184 147.232,32.1733 147.371,32.0288 147.511,31.8838 147.65,31.7388 147.79,31.5938 147.929,31.4487 148.069,31.3042 148.208,31.1592 148.348,31.0142 148.487,30.8691 148.626,30.7241 148.766,30.5796 148.906,30.4346 149.045,30.2896 149.185,30.1445 149.324,29.9995 149.372,29.9497" stroke-linecap="butt" stroke-width="0.5" stroke-dasharray="9,7"/>
   <polyline stroke-linejoin="round" stroke="#000000" fill="none" points="29.9365,150.163 30.0527,150.063 30.1968,149.939 30.3408,149.815 30.4844,149.691 30.6284,149.567 30.7725,149.443 30.9165,149.319 31.0605,149.195 31.2046,149.071 31.3481,148.947 31.4922,148.823 31.6362,148.699 31.7803,148.575 31.9243,148.452 32.0684,148.328 32.2119,148.204 32.356,148.08 32.5,147.956 32.644,147.832 32.7881,147.708 32.9321,147.584 33.0757,147.46 33.2197,147.336 33.3638,147.212 33.5078,147.088 33.6519,146.964 33.7959,146.84 33.9395,146.716 34.0835,146.592 34.2275,146.468 34.3716,146.344 34.5156,146.22 34.6597,146.096 34.8032,145.972 34.9473,145.849 35.0913,145.725 35.2354,145.601 35.3794,145.477 35.5234,145.353 35.667,145.229 35.811,145.104 35.9551,144.98 36.0991,144.857 36.2432,144.733 36.3872,144.609 36.5308,144.485 36.6748,144.361 36.8188,144.237 36.9629,144.113 37.1069,143.989 37.251,143.865 37.3945,143.741 37.5386,143.617 37.6826,143.493 37.8267,143.369 37.9707,143.245 38.1147,143.122 38.2583,142.998 38.4023,142.874 38.5464,142.75 38.6904,142.625 38.8345,142.501 38.9785,142.377 39.1221,142.254 39.2661,142.13 39.4102,142.006 39.5542,141.882 39.6982,141.758 39.8423,141.634 39.9858,141.51 40.1299,141.386 40.2739,141.262 40.418,141.138 40.562,141.014 40.7061,140.89 40.8496,140.766 40.9937,140.642 41.1377,140.518 41.2817,140.395 41.4258,140.271 41.5698,140.146 41.7134,140.022 41.8574,139.898 42.0015,139.774 42.1455,139.65 42.2896,139.527 42.4336,139.403 42.5771,139.279 42.7212,139.155 42.8652,139.031 43.0093,138.907 43.1533,138.783 43.2974,138.659 43.4409,138.535 43.585,138.411 43.729,138.287 43.873,138.163 44.0171,138.039 44.1611,137.915 44.3047,137.791 44.4487,137.667 44.5928,137.543 44.7368,137.419 44.8809,137.295 45.0249,137.171 45.1689,137.047 45.3125,136.923 45.4565,136.8 45.6006,136.676 45.7446,136.552 45.8887,136.428 46.0327,136.304 46.1763,136.18 46.3203,136.056 46.4644,135.932 46.6084,135.808 46.7524,135.684 46.8965,135.56 47.04,135.436 47.1841,135.312 47.3281,135.188 47.4722,135.064 47.6162,134.94 47.7603,134.816 47.9038,134.692 48.0479,134.568 48.1919,134.444 48.3359,134.32 48.48,134.197 48.624,134.073 48.7676,133.949 48.9116,133.825 49.0557,133.701 49.1997,133.577 49.3438,133.453 49.4878,133.329 49.6313,133.205 49.7754,133.081 49.9194,132.957 50.0635,132.833 50.2075,132.709 50.3516,132.585 50.4951,132.461 50.6392,132.337 50.7832,132.213 50.9272,132.089 51.0713,131.965 51.2153,131.841 51.3589,131.717 51.5029,131.593 51.647,131.47 51.791,131.346 51.9351,131.222 52.0791,131.098 52.2227,130.974 52.3667,130.85 52.5107,130.726 52.6548,130.602 52.7988,130.478 52.9429,130.354 53.0864,130.23 53.2305,130.106 53.3745,129.982 53.5186,129.858 53.6626,129.734 53.8066,129.61 53.9502,129.486 54.0942,129.362 54.2383,129.238 54.3823,129.114 54.5264,128.99 54.6704,128.866 54.814,128.743 54.958,128.619 55.1021,128.495 55.2461,128.371 55.3901,128.247 55.5342,128.123 55.6777,127.999 55.8218,127.875 55.9658,127.751 56.1099,127.627 56.2539,127.503 56.3979,127.379 56.5415,127.255 56.6855,127.131 56.8296,127.007 56.9736,126.883 57.1177,126.759 57.2617,126.635 57.4053,126.511 57.5493,126.387 57.6934,126.263 57.8374,126.139 57.9814,126.016 58.1255,125.892 58.2695,125.768 58.4131,125.644 58.5571,125.52 58.7012,125.396 58.8452,125.271 58.9893,125.148 59.1333,125.024 59.2769,124.9 59.4209,124.776 59.5649,124.652 59.709,124.528 59.853,124.404 59.9971,124.28 60.1406,124.156 60.2847,124.032 60.4287,123.908 60.5728,123.784 60.7168,123.66 60.8608,123.536 61.0044,123.413 61.1484,123.289 61.2925,123.165 61.4365,123.041 61.5806,122.917 61.7246,122.792 61.8682,122.668 62.0122,122.544 62.1562,122.421 62.3003,122.297 62.4443,122.173 62.5884,122.049 62.7319,121.925 62.876,121.801 63.02,121.677 63.1641,121.553 63.3081,121.429 63.4521,121.305 63.5957,121.181 63.7397,121.057 63.8838,120.933 64.0278,120.809 64.1719,120.686 64.3159,120.562 64.4595,120.438 64.6035,120.313 64.7476,120.189 64.8916,120.065 65.0356,119.941 65.1797,119.818 65.3232,119.694 65.4673,119.57 65.6113,119.446 65.7554,119.322 65.8994,119.198 66.0435,119.074 66.187,118.95 66.3311,118.826 66.4751,118.702 66.6191,118.578 66.7632,118.454 66.9072,118.33 67.0508,118.206 67.1948,118.082 67.3389,117.958 67.4829,117.834 67.627,117.71 67.771,117.586 67.9146,117.462 68.0586,117.338 68.2026,117.214 68.3467,117.091 68.4907,116.967 68.6348,116.843 68.7783,116.719 68.9224,116.595 69.0664,116.471 69.2104,116.347 69.3545,116.223 69.4985,116.099 69.6421,115.975 69.7861,115.851 69.9302,115.727 70.0742,115.603 70.2183,115.479 70.3623,115.355 70.5059,115.231 70.6499,115.107 70.7939,114.983 70.938,114.859 71.082,114.735 71.2261,114.611 71.3696,114.487 71.5137,114.364 71.6577,114.24 71.8018,114.116 71.9458,113.992 72.0898,113.868 72.2334,113.744 72.3774,113.62 72.5215,113.496 72.6655,113.372 72.8096,113.248 72.9536,113.124 73.0977,113 73.2412,112.876 73.3853,112.752 73.5293,112.628 73.6733,112.504 73.8174,112.38 73.9614,112.256 74.105,112.132 74.249,112.008 74.3931,111.884 74.5371,111.76 74.6812,111.637 74.8252,111.513 74.9688,111.389 75.1128,111.265 75.2568,111.141 75.4009,111.017 75.5449,110.893 75.689,110.769 75.8325,110.645 75.9766,110.521 76.1206,110.397 76.2646,110.273 76.4087,110.149 76.5527,110.025 76.6963,109.901 76.8403,109.777 76.9844,109.653 77.1284,109.529 77.2725,109.405 77.4165,109.281 77.5601,109.157 77.7041,109.034 77.8481,108.91 77.9922,108.786 78.1362,108.662 78.2803,108.538 78.4238,108.414 78.5679,108.29 78.7119,108.166 78.856,108.042 79,107.918 79.144,107.794 79.2876,107.67 79.4316,107.546 79.5757,107.422 79.7197,107.298 79.8638,107.174 80.0078,107.05 80.1514,106.926 80.2954,106.802 80.4395,106.678 80.5835,106.554 80.7275,106.43 80.8716,106.307 81.0151,106.183 81.1592,106.059 81.3032,105.935 81.4473,105.811 81.5913,105.687 81.7354,105.562 81.8789,105.439 82.0229,105.315 82.167,105.191 82.311,105.067 82.4551,104.943 82.5991,104.819 82.7427,104.695 82.8867,104.571 83.0308,104.447 83.1748,104.323 83.3188,104.199 83.4629,104.075 83.6064,103.951 83.7505,103.827 83.8945,103.703 84.0386,103.58 84.1826,103.456 84.3267,103.332 84.4702,103.208 84.6143,103.083 84.7583,102.959 84.9023,102.835 85.0464,102.712 85.1904,102.588 85.334,102.464 85.478,102.34 85.6221,102.216 85.7661,102.092 85.9102,101.968 86.0542,101.844 86.1978,101.72 86.3418,101.596 86.4858,101.472 86.6299,101.348 86.7739,101.224 86.918,101.1 87.062,100.977 87.2056,100.853 87.3496,100.729 87.4937,100.604 87.6377,100.48 87.7817,100.356 87.9258,100.232 88.0693,100.108 88.2134,99.9849 88.3574,99.8608 88.5015,99.7368 88.6455,99.6128 88.7896,99.4888 88.9331,99.3647 89.0771,99.2407 89.2212,99.1172 89.3652,98.9932 89.5093,98.8691 89.6533,98.7451 89.7969,98.6211 89.9409,98.4971 90.085,98.373 90.229,98.2495 90.373,98.1255 90.5171,98.0015 90.6606,97.8774 90.8047,97.7534 90.9487,97.6294 91.0928,97.5054 91.2368,97.3818 91.3809,97.2578 91.5244,97.1338 91.6685,97.0098 91.8125,96.8857 91.9565,96.7617 92.1006,96.6377 92.2446,96.5137 92.3882,96.3901 92.5322,96.2661 92.6763,96.1421 92.8203,96.0181 92.9644,95.894 93.1084,95.77 93.252,95.646 93.396,95.5225 93.54,95.3984 93.6841,95.2744 93.8281,95.1504 93.9722,95.0264 94.1157,94.9023 94.2598,94.7783 94.4038,94.6548 94.5479,94.5308 94.6919,94.4067 94.8359,94.2827 94.9795,94.1587 95.1235,94.0347 95.2676,93.9106 95.4116,93.7871 95.5557,93.6631 95.6997,93.5391 95.8433,93.415 95.9873,93.291 96.1313,93.167 96.2754,93.043 96.4194,92.9189 96.5635,92.7954 96.707,92.6714 96.8511,92.5474 96.9951,92.4233 97.1392,92.2993 97.2832,92.1753 97.4272,92.0513 97.5708,91.9277 97.7148,91.8037 97.8589,91.6797 98.0029,91.5557 98.147,91.4316 98.291,91.3076 98.4346,91.1836 98.5786,91.0601 98.7227,90.936 98.8667,90.812 99.0107,90.688 99.1548,90.564 99.2983,90.4399 99.4424,90.3159 99.5864,90.1924 99.7305,90.0684 99.8745,89.9443 100.019,89.8203 100.162,89.6963 100.306,89.5723 100.45,89.4482 100.594,89.3242 100.738,89.2007 100.882,89.0767 101.026,88.9526 101.17,88.8286 101.314,88.7046 101.458,88.5806 101.602,88.4565 101.746,88.333 101.89,88.209 102.034,88.085 102.178,87.9609 102.322,87.8369 102.466,87.7129 102.61,87.5889 102.754,87.4653 102.897,87.3413 103.042,87.2173 103.186,87.0933 103.33,86.9692 103.474,86.8452 103.618,86.7212 103.761,86.5977 103.905,86.4736 104.049,86.3496 104.193,86.2256 104.337,86.1016 104.481,85.9775 104.625,85.8535 104.769,85.73 104.913,85.606 105.057,85.4819 105.201,85.3579 105.345,85.2339 105.489,85.1099 105.633,84.9858 105.777,84.8618 105.921,84.7383 106.065,84.6143 106.209,84.4902 106.353,84.3662 106.497,84.2422 106.641,84.1182 106.785,83.9941 106.929,83.8706 107.073,83.7466 107.216,83.6226 107.36,83.4985 107.504,83.3745 107.648,83.2505 107.792,83.1265 107.937,83.0029 108.08,82.8789 108.224,82.7549 108.368,82.6309 108.512,82.5068 108.656,82.3828 108.8,82.2588 108.944,82.1353 109.088,82.0112 109.232,81.8872 109.376,81.7632 109.52,81.6392 109.664,81.5151 109.808,81.3911 109.952,81.2671 110.096,81.1436 110.24,81.0195 110.384,80.8955 110.528,80.7715 110.671,80.6475 110.815,80.5234 110.959,80.3994 111.104,80.2759 111.248,80.1519 111.392,80.0278 111.535,79.9038 111.679,79.7798 111.823,79.6558 111.967,79.5317 112.111,79.4082 112.255,79.2842 112.399,79.1602 112.543,79.0361 112.687,78.9121 112.831,78.7881 112.975,78.6641 113.119,78.5405 113.263,78.4165 113.407,78.2925 113.551,78.1685 113.695,78.0444 113.839,77.9204 113.983,77.7964 114.126,77.6724 114.271,77.5488 114.415,77.4248 114.559,77.3008 114.703,77.1768 114.847,77.0527 114.99,76.9287 115.134,76.8047 115.278,76.6812 115.422,76.5571 115.566,76.4331 115.71,76.3091 115.854,76.1851 115.998,76.061 116.142,75.937 116.286,75.8135 116.43,75.6895 116.574,75.5654 116.718,75.4414 116.862,75.3174 117.006,75.1934 117.15,75.0693 117.294,74.9458 117.438,74.8218 117.582,74.6978 117.726,74.5737 117.87,74.4497 118.014,74.3257 118.158,74.2017 118.302,74.0776 118.446,73.9541 118.589,73.8301 118.733,73.7061 118.877,73.582 119.021,73.458 119.166,73.334 119.31,73.21 119.453,73.0864 119.597,72.9624 119.741,72.8384 119.885,72.7144 120.029,72.5903 120.173,72.4663 120.317,72.3423 120.461,72.2188 120.605,72.0947 120.749,71.9707 120.893,71.8467 121.037,71.7227 121.181,71.5986 121.325,71.4746 121.469,71.3511 121.613,71.2271 121.757,71.103 121.901,70.979 122.044,70.855 122.188,70.731 122.333,70.6069 122.477,70.4829 122.621,70.3594 122.765,70.2354 122.908,70.1113 123.052,69.9873 123.196,69.8633 123.34,69.7393 123.484,69.6152 123.628,69.4917 123.772,69.3677 123.916,69.2437 124.06,69.1196 124.204,68.9956 124.348,68.8716 124.492,68.7476 124.636,68.624 124.78,68.5 124.924,68.376 125.068,68.252 125.212,68.1279 125.356,68.0039 125.5,67.8799 125.644,67.7563 125.788,67.6323 125.932,67.5083 126.076,67.3843 126.22,67.2603 126.363,67.1362 126.507,67.0122 126.651,66.8882 126.795,66.7646 126.939,66.6406 127.083,66.5166 127.227,66.3926 127.371,66.2686 127.515,66.1445 127.659,66.0205 127.803,65.897 127.947,65.7729 128.091,65.6489 128.235,65.5249 128.379,65.4009 128.523,65.2769 128.667,65.1528 128.811,65.0293 128.955,64.9053 129.099,64.7812 129.243,64.6572 129.387,64.5332 129.531,64.4092 129.675,64.2852 129.818,64.1616 129.962,64.0376 130.106,63.9136 130.25,63.7896 130.395,63.6655 130.539,63.5415 130.683,63.4175 130.826,63.2935 130.97,63.1699 131.114,63.0459 131.258,62.9219 131.402,62.7979 131.546,62.6738 131.69,62.5498 131.834,62.4258 131.978,62.3022 132.122,62.1782 132.266,62.0542 132.41,61.9302 132.554,61.8062 132.698,61.6821 132.842,61.5581 132.986,61.4346 133.13,61.3105 133.274,61.1865 133.417,61.0625 133.562,60.9385 133.706,60.8145 133.85,60.6904 133.994,60.5669 134.138,60.4429 134.281,60.3188 134.425,60.1948 134.569,60.0708 134.713,59.9468 134.857,59.8228 135.001,59.6987 135.145,59.5752 135.289,59.4512 135.433,59.3271 135.577,59.2031 135.721,59.0791 135.865,58.9551 136.009,58.8311 136.153,58.7075 136.297,58.5835 136.441,58.4595 136.585,58.3354 136.729,58.2114 136.873,58.0874 137.017,57.9634 137.161,57.8398 137.305,57.7158 137.449,57.5918 137.593,57.4678 137.736,57.3438 137.88,57.2197 138.024,57.0957 138.168,56.9722 138.312,56.8481 138.457,56.7241 138.6,56.6001 138.744,56.4761 138.888,56.3521 139.032,56.228 139.176,56.1045 139.32,55.9805 139.464,55.8564 139.608,55.7324 139.752,55.6084 139.896,55.4844 140.04,55.3604 140.184,55.2363 140.328,55.1128 140.472,54.9888 140.616,54.8647 140.76,54.7407 140.904,54.6167 141.048,54.4927 141.191,54.3687 141.335,54.2451 141.479,54.1211 141.624,53.9971 141.768,53.873 141.912,53.749 142.055,53.625 142.199,53.501 142.343,53.3774 142.487,53.2534 142.631,53.1294 142.775,53.0054 142.919,52.8813 143.063,52.7573 143.207,52.6333 143.351,52.5098 143.495,52.3857 143.639,52.2617 143.783,52.1377 143.927,52.0137 144.071,51.8896 144.215,51.7656 144.359,51.6416 144.503,51.5181 144.647,51.394 144.791,51.27 144.935,51.146 145.079,51.022 145.223,50.8979 145.367,50.7739 145.511,50.6504 145.654,50.5264 145.798,50.4023 145.942,50.2783 146.086,50.1543 146.23,50.0303 146.375,49.9062 146.518,49.7827 146.662,49.6587 146.806,49.5347 146.95,49.4106 147.094,49.2866 147.238,49.1626 147.382,49.0386 147.526,48.915 147.67,48.791 147.814,48.667 147.958,48.543 148.102,48.4189 148.246,48.2949 148.39,48.1709 148.534,48.0469 148.678,47.9233 148.822,47.7993 148.966,47.6753 149.109,47.5513 149.253,47.4272 149.397,47.3032 149.542,47.1792 149.686,47.0557 149.83,46.9316 149.973,46.8076 150.117,46.6836 150.261,46.5596 150.405,46.4355 150.549,46.3115 150.693,46.188 150.837,46.064 150.981,45.9399 151.125,45.8159 151.269,45.6919 151.413,45.5679 151.557,45.4438 151.701,45.3203 151.845,45.1963 151.989,45.0723 152.133,44.9482 152.277,44.8242 152.421,44.7002 152.564,44.5762 152.708,44.4521 152.853,44.3286 152.997,44.2046 153.141,44.0806 153.285,43.9565 153.428,43.8325 153.572,43.7085 153.716,43.5845 153.86,43.4609 154.004,43.3369 154.148,43.2129 154.292,43.0889 154.436,42.9648 154.58,42.8408 154.724,42.7168 154.868,42.5933 155.012,42.4692 155.156,42.3452 155.3,42.2212 155.444,42.0972 155.588,41.9731 155.732,41.8491 155.876,41.7256 156.02,41.6016 156.164,41.4775 156.308,41.3535 156.452,41.2295 156.596,41.1055 156.74,40.9814 156.884,40.8574 157.027,40.7339 157.171,40.6099 157.315,40.4858 157.459,40.3618 157.604,40.2378 157.747,40.1138 157.891,39.9897 158.035,39.8662 158.179,39.7422 158.323,39.6182 158.467,39.4941 158.611,39.3701 158.755,39.2461 158.899,39.1221 159.043,38.9985 159.187,38.8745 159.331,38.7505 159.475,38.6265 159.619,38.5024 159.763,38.3784 159.907,38.2544 160.051,38.1309 160.195,38.0068 160.339,37.8828 160.482,37.7588 160.626,37.6348 160.771,37.5107 160.915,37.3867 161.059,37.2632 161.203,37.1392 161.346,37.0151 161.49,36.8911 161.634,36.7671 161.778,36.6431 161.922,36.519 162.066,36.395 162.21,36.2715 162.354,36.1475 162.498,36.0234 162.642,35.8994 162.786,35.7754 162.93,35.6514 163.074,35.5273 163.218,35.4038 163.362,35.2798 163.506,35.1558 163.65,35.0317 163.794,34.9077 163.938,34.7837 164.082,34.6597 164.226,34.5361 164.37,34.4121 164.514,34.2881 164.658,34.1641 164.801,34.04 164.945,33.916 165.089,33.792 165.233,33.668 165.377,33.5444 165.521,33.4204 165.665,33.2964 165.809,33.1724 165.953,33.0483 166.097,32.9243 166.241,32.8003 166.385,32.6768 166.529,32.5527 166.673,32.4287 166.817,32.3047 166.961,32.1807 167.105,32.0566 167.249,31.9326 167.311,31.8799" stroke-linecap="butt" stroke-width="0.5" stroke-dasharray="8,3,2,3"/>
   <polyline stroke-linejoin="miter" stroke="#000000" fill="none" points="76.4199,111.715 82.4199,117.715" stroke-linecap="square" stroke-width="0.5"/>
   <polyline stroke-linejoin="miter" stroke="#000000" fill="none" points="76.4199,117.715 82.4199,111.715" stroke-linecap="square" stroke-width="0.5"/>
   <polyline stroke-linejoin="miter" stroke="#000000" fill="none" points="108.123,73.7939 114.123,79.7939" stroke-linecap="square" stroke-width="0.5"/>
   <polyline stroke-linejoin="miter" stroke="#000000" fill="none" points="108.123,79.7939 114.123,73.7939" stroke-linecap="square" stroke-width="0.5"/>
   <polyline stroke-linejoin="miter" stroke="#000000" fill="none" points="46.6777,126.472 52.6777,132.472" stroke-linecap="square" stroke-width="0.5"/>
   <polyline stroke-linejoin="miter" stroke="#000000" fill="none" points="46.6777,132.472 52.6777,126.472" stroke-linecap="square" stroke-width="0.5"/>
   <polyline stroke-linejoin="round" stroke="#000000" fill="none" points="33.4302,153.906 33.5527,153.782 33.6753,153.658 33.7983,153.534 33.9209,153.41 34.0435,153.286 34.1665,153.162 34.2891,153.038 34.4116,152.914 34.5347,152.79 34.6572,152.666 34.7798,152.542 34.9028,152.418 35.0254,152.294 35.1479,152.17 35.271,152.046 35.3936,151.922 35.5161,151.798 35.6392,151.674 35.7617,151.55 35.8843,151.426 36.0073,151.302 36.1299,151.179 36.2524,151.055 36.3755,150.931 36.498,150.807 36.6206,150.683 36.7437,150.559 36.8662,150.435 36.9888,150.311 37.1118,150.187 37.2344,150.063 37.3569,149.939 37.48,149.815 37.6025,149.691 37.7256,149.567 37.8481,149.443 37.9707,149.319 38.0938,149.195 38.2163,149.071 38.3389,148.947 38.4619,148.823 38.5845,148.699 38.707,148.575 38.8301,148.452 38.9526,148.328 39.0752,148.204 39.1982,148.08 39.3208,147.956 39.4434,147.832 39.5664,147.708 39.689,147.584 39.8115,147.46 39.9346,147.336 40.0571,147.212 40.1797,147.088 40.3027,146.964 40.4253,146.84 40.5479,146.716 40.6709,146.592 40.7935,146.468 40.916,146.344 41.0391,146.22 41.1616,146.096 41.2842,145.972 41.4072,145.849 41.5298,145.725 41.6523,145.601 41.7754,145.477 41.8979,145.353 42.0205,145.229 42.1436,145.104 42.2661,144.98 42.3887,144.857 42.5117,144.733 42.6343,144.609 42.7568,144.485 42.8799,144.361 43.0024,144.237 43.125,144.113 43.248,143.989 43.3706,143.865 43.4932,143.741 43.6162,143.617 43.7388,143.493 43.8613,143.369 43.9844,143.245 44.1069,143.122 44.2295,142.998 44.3525,142.874 44.4751,142.75 44.5977,142.625 44.7207,142.501 44.8433,142.377 44.9658,142.254 45.0889,142.13 45.2114,142.006 45.334,141.882 45.457,141.758 45.5796,141.634 45.7021,141.51 45.8252,141.386 45.9478,141.262 46.0703,141.138 46.1934,141.014 46.3159,140.89 46.4385,140.766 46.5615,140.642 46.6841,140.518 46.8066,140.395 46.9297,140.271 47.0522,140.146 47.1748,140.022 47.2979,139.898 47.4204,139.774 47.5435,139.65 47.666,139.527 47.7886,139.403 47.9116,139.279 48.0342,139.155 48.1567,139.031 48.2798,138.907 48.4023,138.783 48.5249,138.659 48.6479,138.535 48.7705,138.411 48.8931,138.287 49.0161,138.163 49.1387,138.039 49.2612,137.915 49.3843,137.791 49.5068,137.667 49.6294,137.543 49.7524,137.419 49.875,137.295 49.9976,137.171 50.1206,137.047 50.2432,136.923 50.3657,136.8 50.4888,136.676 50.6113,136.552 50.7339,136.428 50.8569,136.304 50.9795,136.18 51.1021,136.056 51.2251,135.932 51.3477,135.808 51.4702,135.684 51.5933,135.56 51.7158,135.436 51.8384,135.312 51.9614,135.188 52.084,135.064 52.2065,134.94 52.3296,134.816 52.4521,134.692 52.5747,134.568 52.6978,134.444 52.8203,134.32 52.9429,134.197 53.0659,134.073 53.1885,133.949 53.311,133.825 53.4341,133.701 53.5566,133.577 53.6792,133.453 53.8022,133.329 53.9248,133.205 54.0474,133.081 54.1704,132.957 54.293,132.833 54.4155,132.709 54.5386,132.585 54.6611,132.461 54.7837,132.337 54.9067,132.213 55.0293,132.089 55.1519,131.965 55.2749,131.841 55.3975,131.717 55.52,131.593 55.6431,131.47 55.7656,131.346 55.8882,131.222 56.0112,131.098 56.1338,130.974 56.2563,130.85 56.3794,130.726 56.502,130.602 56.6245,130.478 56.7476,130.354 56.8701,130.23 56.9932,130.106 57.1157,129.982 57.2383,129.858 57.3613,129.734 57.4839,129.61 57.6064,129.486 57.7295,129.362 57.8521,129.238 57.9746,129.114 58.0977,128.99 58.2202,128.866 58.3428,128.743 58.4658,128.619 58.5884,128.495 58.7109,128.371 58.834,128.247 58.9565,128.123 59.0791,127.999 59.2021,127.875 59.3247,127.751 59.4473,127.627 59.5703,127.503 59.6929,127.379 59.8154,127.255 59.9385,127.131 60.061,127.007 60.1836,126.883 60.3066,126.759 60.4292,126.635 60.5518,126.511 60.6748,126.387 60.7974,126.263 60.9199,126.139 61.043,126.016 61.1655,125.892 61.2881,125.768 61.4111,125.644 61.5337,125.52 61.6562,125.396 61.7793,125.271 61.9019,125.148 62.0244,125.024 62.1475,124.9 62.27,124.776 62.3926,124.652 62.5156,124.528 62.6382,124.404 62.7607,124.28 62.8838,124.156 63.0063,124.032 63.1289,123.908 63.252,123.784 63.3745,123.66 63.4971,123.536 63.6201,123.413 63.7427,123.289 63.8652,123.165 63.9883,123.041 64.1108,122.917 64.2334,122.792 64.3564,122.668 64.479,122.544 64.6016,122.421 64.7246,122.297 64.8472,122.173 64.9697,122.049 65.0928,121.925 65.2153,121.801 65.3379,121.677 65.4609,121.553 65.5835,121.429 65.7061,121.305 65.8291,121.181 65.9517,121.057 66.0742,120.933 66.1973,120.809 66.3198,120.686 66.4424,120.562 66.5654,120.438 66.688,120.313 66.811,120.189 66.9336,120.065 67.0562,119.941 67.1792,119.818 67.3018,119.694 67.4243,119.57 67.5474,119.446 67.6699,119.322 67.7925,119.198 67.9155,119.074 68.0381,118.95 68.1606,118.826 68.2837,118.702 68.4062,118.578 68.5288,118.454 68.6519,118.33 68.7744,118.206 68.897,118.082 69.02,117.958 69.1426,117.834 69.2651,117.71 69.3882,117.586 69.5107,117.462 69.6333,117.338 69.7563,117.214 69.8789,117.091 70.0015,116.967 70.1245,116.843 70.2471,116.719 70.3696,116.595 70.4927,116.471 70.6152,116.347 70.7378,116.223 70.8608,116.099 70.9834,115.975 71.106,115.851 71.229,115.727 71.3516,115.603 71.4741,115.479 71.5972,115.355 71.7197,115.231 71.8423,115.107 71.9653,114.983 72.0879,114.859 72.2104,114.735 72.3335,114.611 72.4561,114.487 72.5786,114.364 72.7017,114.24 72.8242,114.116 72.9468,113.992 73.0698,113.868 73.1924,113.744 73.3149,113.62 73.438,113.496 73.5605,113.372 73.6831,113.248 73.8062,113.124 73.9287,113 74.0513,112.876 74.1743,112.752 74.2969,112.628 74.4194,112.504 74.5425,112.38 74.665,112.256 74.7876,112.132 74.9106,112.008 75.0332,111.884 75.1558,111.76 75.2788,111.637 75.4014,111.513 75.5239,111.389 75.647,111.265 75.7695,111.141 75.8921,111.017 76.0151,110.893 76.1377,110.769 76.2603,110.645 76.3833,110.521 76.5059,110.397 76.6289,110.273 76.7515,110.149 76.874,110.025 76.9971,109.901 77.1196,109.777 77.2422,109.653 77.3652,109.529 77.4878,109.405 77.6104,109.281 77.7334,109.157 77.856,109.034 77.9785,108.91 78.1016,108.786 78.2241,108.662 78.3467,108.538 78.4697,108.414 78.5923,108.29 78.7148,108.166 78.8379,108.042 78.9604,107.918 79.083,107.794 79.2061,107.67 79.3286,107.546 79.4512,107.422 79.5742,107.298 79.6968,107.174 79.8193,107.05 79.9424,106.926 80.0649,106.802 80.1875,106.678 80.3105,106.554 80.4331,106.43 80.5557,106.307 80.6787,106.183 80.8013,106.059 80.9238,105.935 81.0469,105.811 81.1694,105.687 81.292,105.562 81.415,105.439 81.5376,105.315 81.6602,105.191 81.7832,105.067 81.9058,104.943 82.0283,104.819 82.1514,104.695 82.2739,104.571 82.3965,104.447 82.5195,104.323 82.6421,104.199 82.7646,104.075 82.8877,103.951 83.0103,103.827 83.1328,103.703 83.2559,103.58 83.3784,103.456 83.501,103.332 83.624,103.208 83.7466,103.083 83.8691,102.959 83.9922,102.835 84.1147,102.712 84.2373,102.588 84.3604,102.464 84.4829,102.34 84.6055,102.216 84.7285,102.092 84.8511,101.968 84.9736,101.844 85.0967,101.72 85.2192,101.596 85.3418,101.472 85.4648,101.348 85.5874,101.224 85.71,101.1 85.833,100.977 85.9556,100.853 86.0786,100.729 86.2012,100.604 86.3237,100.48 86.4468,100.356 86.5693,100.232 86.6919,100.108 86.8149,99.9849 86.9375,99.8608 87.0601,99.7368 87.1831,99.6128 87.3057,99.4888 87.4282,99.3647 87.5513,99.2407 87.6738,99.1172 87.7964,98.9932 87.9194,98.8691 88.042,98.7451 88.1646,98.6211 88.2876,98.4971 88.4102,98.373 88.5327,98.2495 88.6558,98.1255 88.7783,98.0015 88.9009,97.8774 89.0239,97.7534 89.1465,97.6294 89.269,97.5054 89.3921,97.3818 89.5146,97.2578 89.6372,97.1338 89.7603,97.0098 89.8828,96.8857 90.0054,96.7617 90.1284,96.6377 90.251,96.5137 90.3735,96.3901 90.4966,96.2661 90.6191,96.1421 90.7417,96.0181 90.8647,95.894 90.9873,95.77 91.1099,95.646 91.2329,95.5225 91.3555,95.3984 91.478,95.2744 91.6011,95.1504 91.7236,95.0264 91.8462,94.9023 91.9692,94.7783 92.0918,94.6548 92.2144,94.5308 92.3374,94.4067 92.46,94.2827 92.5825,94.1587 92.7056,94.0347 92.8281,93.9106 92.9507,93.7871 93.0737,93.6631 93.1963,93.5391 93.3188,93.415 93.4419,93.291 93.5645,93.167 93.687,93.043 93.8101,92.9189 93.9326,92.7954 94.0552,92.6714 94.1782,92.5474 94.3008,92.4233 94.4233,92.2993 94.5464,92.1753 94.6689,92.0513 94.7915,91.9277 94.9146,91.8037 95.0371,91.6797 95.1597,91.5557 95.2827,91.4316 95.4053,91.3076 95.5278,91.1836 95.6509,91.0601 95.7734,90.936 95.8965,90.812 96.019,90.688 96.1416,90.564 96.2646,90.4399 96.3872,90.3159 96.5098,90.1924 96.6328,90.0684 96.7554,89.9443 96.8779,89.8203 97.001,89.6963 97.1235,89.5723 97.2461,89.4482 97.3691,89.3242 97.4917,89.2007 97.6143,89.0767 97.7373,88.9526 97.8599,88.8286 97.9824,88.7046 98.1055,88.5806 98.228,88.4565 98.3506,88.333 98.4736,88.209 98.5962,88.085 98.7188,87.9609 98.8418,87.8369 98.9644,87.7129 99.0869,87.5889 99.21,87.4653 99.3325,87.3413 99.4551,87.2173 99.5781,87.0933 99.7007,86.9692 99.8232,86.8452 99.9463,86.7212 100.069,86.5977 100.191,86.4736 100.314,86.3496 100.437,86.2256 100.56,86.1016 100.683,85.9775 100.805,85.8535 100.928,85.73 101.051,85.606 101.173,85.4819 101.296,85.3579 101.419,85.2339 101.542,85.1099 101.664,84.9858 101.787,84.8618 101.91,84.7383 102.032,84.6143 102.155,84.4902 102.278,84.3662 102.4,84.2422 102.523,84.1182 102.646,83.9941 102.769,83.8706 102.892,83.7466 103.014,83.6226 103.137,83.4985 103.26,83.3745 103.382,83.2505 103.505,83.1265 103.628,83.0029 103.75,82.8789 103.873,82.7549 103.996,82.6309 104.119,82.5068 104.241,82.3828 104.364,82.2588 104.487,82.1353 104.609,82.0112 104.732,81.8872 104.855,81.7632 104.978,81.6392 105.101,81.5151 105.223,81.3911 105.346,81.2671 105.469,81.1436 105.591,81.0195 105.714,80.8955 105.837,80.7715 105.959,80.6475 106.083,80.5234 106.205,80.3994 106.328,80.2759 106.451,80.1519 106.573,80.0278 106.696,79.9038 106.819,79.7798 106.941,79.6558 107.064,79.5317 107.187,79.4082 107.31,79.2842 107.432,79.1602 107.555,79.0361 107.678,78.9121 107.8,78.7881 107.923,78.6641 108.046,78.5405 108.168,78.4165 108.292,78.2925 108.414,78.1685 108.537,78.0444 108.66,77.9204 108.782,77.7964 108.905,77.6724 109.028,77.5488 109.15,77.4248 109.273,77.3008 109.396,77.1768 109.519,77.0527 109.641,76.9287 109.764,76.8047 109.887,76.6812 110.009,76.5571 110.132,76.4331 110.255,76.3091 110.377,76.1851 110.5,76.061 110.623,75.937 110.746,75.8135 110.869,75.6895 110.991,75.5654 111.114,75.4414 111.237,75.3174 111.359,75.1934 111.482,75.0693 111.605,74.9458 111.728,74.8218 111.85,74.6978 111.973,74.5737 112.096,74.4497 112.218,74.3257 112.341,74.2017 112.464,74.0776 112.586,73.9541 112.709,73.8301 112.832,73.7061 112.955,73.582 113.078,73.458 113.2,73.334 113.323,73.21 113.446,73.0864 113.568,72.9624 113.691,72.8384 113.814,72.7144 113.937,72.5903 114.059,72.4663 114.182,72.3423 114.305,72.2188 114.427,72.0947 114.55,71.9707 114.673,71.8467 114.796,71.7227 114.918,71.5986 115.041,71.4746 115.164,71.3511 115.287,71.2271 115.409,71.103 115.532,70.979 115.655,70.855 115.777,70.731 115.9,70.6069 116.023,70.4829 116.146,70.3594 116.269,70.2354 116.391,70.1113 116.514,69.9873 116.637,69.8633 116.759,69.7393 116.882,69.6152 117.005,69.4917 117.127,69.3677 117.25,69.2437 117.373,69.1196 117.496,68.9956 117.618,68.8716 117.741,68.7476 117.864,68.624 117.986,68.5 118.109,68.376 118.232,68.252 118.354,68.1279 118.478,68.0039 118.6,67.8799 118.723,67.7563 118.846,67.6323 118.968,67.5083 119.091,67.3843 119.214,67.2603 119.336,67.1362 119.459,67.0122 119.582,66.8882 119.705,66.7646 119.827,66.6406 119.95,66.5166 120.073,66.3926 120.195,66.2686 120.318,66.1445 120.441,66.0205 120.563,65.897 120.687,65.7729 120.809,65.6489 120.932,65.5249 121.055,65.4009 121.177,65.2769 121.3,65.1528 121.423,65.0293 121.545,64.9053 121.668,64.7812 121.791,64.6572 121.914,64.5332 122.036,64.4092 122.159,64.2852 122.282,64.1616 122.404,64.0376 122.527,63.9136 122.65,63.7896 122.772,63.6655 122.896,63.5415 123.018,63.4175 123.141,63.2935 123.264,63.1699 123.386,63.0459 123.509,62.9219 123.632,62.7979 123.754,62.6738 123.877,62.5498 124,62.4258 124.123,62.3022 124.245,62.1782 124.368,62.0542 124.491,61.9302 124.614,61.8062 124.736,61.6821 124.859,61.5581 124.982,61.4346 125.104,61.3105 125.227,61.1865 125.35,61.0625 125.473,60.9385 125.595,60.8145 125.718,60.6904 125.841,60.5669 125.963,60.4429 126.086,60.3188 126.209,60.1948 126.332,60.0708 126.455,59.9468 126.577,59.8228 126.7,59.6987 126.823,59.5752 126.945,59.4512 127.068,59.3271 127.191,59.2031 127.313,59.0791 127.436,58.9551 127.559,58.8311 127.682,58.7075 127.804,58.5835 127.927,58.4595 128.05,58.3354 128.172,58.2114 128.295,58.0874 128.418,57.9634 128.541,57.8398 128.664,57.7158 128.786,57.5918 128.909,57.4678 129.032,57.3438 129.154,57.2197 129.277,57.0957 129.4,56.9722 129.522,56.8481 129.645,56.7241 129.768,56.6001 129.891,56.4761 130.013,56.3521 130.136,56.228 130.259,56.1045 130.381,55.9805 130.504,55.8564 130.627,55.7324 130.75,55.6084 130.873,55.4844 130.995,55.3604 131.118,55.2363 131.241,55.1128 131.363,54.9888 131.486,54.8647 131.609,54.7407 131.731,54.6167 131.854,54.4927 131.977,54.3687 132.1,54.2451 132.222,54.1211 132.345,53.9971 132.468,53.873 132.59,53.749 132.713,53.625 132.836,53.501 132.958,53.3774 133.082,53.2534 133.204,53.1294 133.327,53.0054 133.45,52.8813 133.572,52.7573 133.695,52.6333 133.818,52.5098 133.94,52.3857 134.063,52.2617 134.186,52.1377 134.309,52.0137 134.432,51.8896 134.554,51.7656 134.677,51.6416 134.8,51.5181 134.922,51.394 135.045,51.27 135.168,51.146 135.291,51.022 135.413,50.8979 135.536,50.7739 135.659,50.6504 135.781,50.5264 135.904,50.4023 136.027,50.2783 136.149,50.1543 136.272,50.0303 136.395,49.9062 136.518,49.7827 136.641,49.6587 136.763,49.5347 136.886,49.4106 137.009,49.2866 137.131,49.1626 137.254,49.0386 137.377,48.915 137.5,48.791 137.622,48.667 137.745,48.543 137.868,48.4189 137.99,48.2949 138.113,48.1709 138.236,48.0469 138.358,47.9233 138.481,47.7993 138.604,47.6753 138.727,47.5513 138.85,47.4272 138.972,47.3032 139.095,47.1792 139.218,47.0557 139.34,46.9316 139.463,46.8076 139.586,46.6836 139.708,46.5596 139.831,46.4355 139.954,46.3115 140.077,46.188 140.199,46.064 140.322,45.9399 140.445,45.8159 140.567,45.6919 140.69,45.5679 140.813,45.4438 140.936,45.3203 141.059,45.1963 141.181,45.0723 141.304,44.9482 141.427,44.8242 141.549,44.7002 141.672,44.5762 141.795,44.4521 141.917,44.3286 142.04,44.2046 142.163,44.0806 142.286,43.9565 142.408,43.8325 142.531,43.7085 142.654,43.5845 142.776,43.4609 142.899,43.3369 143.022,43.2129 143.145,43.0889 143.268,42.9648 143.39,42.8408 143.513,42.7168 143.636,42.5933 143.758,42.4692 143.881,42.3452 144.004,42.2212 144.126,42.0972 144.25,41.9731 144.372,41.8491 144.495,41.7256 144.618,41.6016 144.74,41.4775 144.863,41.3535 144.986,41.2295 145.108,41.1055 145.231,40.9814 145.354,40.8574 145.477,40.7339 145.599,40.6099 145.722,40.4858 145.845,40.3618 145.967,40.2378 146.09,40.1138 146.213,39.9897 146.335,39.8662 146.458,39.7422 146.581,39.6182 146.704,39.4941 146.827,39.3701 146.949,39.2461 147.072,39.1221 147.195,38.9985 147.317,38.8745 147.44,38.7505 147.563,38.6265 147.686,38.5024 147.808,38.3784 147.931,38.2544 148.054,38.1309 148.176,38.0068 148.299,37.8828 148.422,37.7588 148.544,37.6348 148.667,37.5107 148.79,37.3867 148.913,37.2632 149.036,37.1392 149.158,37.0151 149.281,36.8911 149.404,36.7671 149.526,36.6431 149.649,36.519 149.772,36.395 149.895,36.2715 150.017,36.1475 150.14,36.0234 150.263,35.8994 150.385,35.7754 150.508,35.6514 150.631,35.5273 150.753,35.4038 150.876,35.2798 150.999,35.1558 151.122,35.0317 151.245,34.9077 151.367,34.7837 151.49,34.6597 151.613,34.5361 151.735,34.4121 151.858,34.2881 151.981,34.1641 152.104,34.04 152.226,33.916 152.349,33.792 152.472,33.668 152.594,33.5444 152.717,33.4204 152.84,33.2964 152.963,33.1724 153.085,33.0483 153.208,32.9243 153.331,32.8003 153.454,32.6768 153.576,32.5527 153.699,32.4287 153.822,32.3047 153.944,32.1807 154.067,32.0566 154.19,31.9326 154.312,31.8091 154.436,31.6851 154.558,31.561 154.681,31.437 154.804,31.313 154.926,31.189 155.049,31.0649 155.172,30.9414 155.294,30.8174 155.417,30.6934 155.54,30.5693 155.663,30.4453 155.785,30.3213 155.908,30.1973 156.031,30.0737" stroke-linecap="butt" stroke-width="0.5"/>
   <polyline stroke-linejoin="miter" stroke="#000000" fill="none" points="43.2788,143.957 49.2788,143.957" stroke-linecap="square" stroke-width="0.5"/>
   <polyline stroke-linejoin="miter" stroke="#000000" fill="none" points="46.2788,140.957 46.2788,146.957" stroke-linecap="square" stroke-width="0.5"/>
   <polyline stroke-linejoin="miter" stroke="#000000" fill="none" points="44.1577,141.835 48.4004,146.078" stroke-linecap="square" stroke-width="0.5"/>
   <polyline stroke-linejoin="miter" stroke="#000000" fill="none" points="44.1577,146.078 48.4004,141.835" stroke-linecap="square" stroke-width="0.5"/>
   <polyline stroke-linejoin="miter" stroke="#000000" fill="none" points="100.111,82.9326 106.111,82.9326" stroke-linecap="square" stroke-width="0.5"/>
   <polyline stroke-linejoin="miter" stroke="#000000" fill="none" points="103.111,79.9326 103.111,85.9326" stroke-linecap="square" stroke-width="0.5"/>
   <polyline stroke-linejoin="miter" stroke="#000000" fill="none" points="100.99,80.8115 105.233,85.0542" stroke-linecap="square" stroke-width="0.5"/>
   <polyline stroke-linejoin="miter" stroke="#000000" fill="none" points="100.99,85.0542 105.233,80.8115" stroke-linecap="square" stroke-width="0.5"/>
   <polyline stroke-linejoin="miter" stroke="#000000" fill="none" points="29.4839,152.424 35.4839,152.424" stroke-linecap="square" stroke-width="0.5"/>
   <polyline stroke-linejoin="miter" stroke="#000000" fill="none" points="32.4839,149.424 32.4839,155.424" stroke-linecap="square" stroke-width="0.5"/>
   <polyline stroke-linejoin="miter" stroke="#000000" fill="none" points="30.3623,150.302 34.605,154.545" stroke-linecap="square" stroke-width="0.5"/>
   <polyline stroke-linejoin="miter" stroke="#000000" fill="none" points="30.3623,154.545 34.605,150.302" stroke-linecap="square" stroke-width="0.5"/>
   <polyline stroke-linejoin="round" stroke="#000000" fill="none" points="79.4199,153.906 79.4199,30.0737" stroke-linecap="butt" stroke-width="0.3" stroke-dasharray="1,3,1,3,1,3,1,3"/>
   <g xml:space="preserve" font-weight="normal" font-family="'Liberation Serif'" font-size="8" transform="translate(72.4201,39.9463) rotate(-90,7,-7)" font-style="normal">
    <text x="0 3 " y="-0" fill="rgb(0,0,0)">f2</text>
   </g>
   <polyline stroke-linejoin="round" stroke="#000000" fill="none" points="111.123,153.906 111.123,30.0737" stroke-linecap="butt" stroke-width="0.3" stroke-dasharray="1,3,1,3,1,3,1,3"/>
   <g xml:space="preserve" font-weight="normal" font-family="'Liberation Serif'" font-size="8" transform="translate(104.123,39.9463) rotate(-90,7,-7)" font-style="normal">
    <text x="0 3 " y="-0" fill="rgb(0,0,0)">f3</text>
   </g>
   <polyline stroke-linejoin="round" stroke="#000000" fill="none" points="49.6777,153.906 49.6777,30.0737" stroke-linecap="butt" stroke-width="0.3" stroke-dasharray="1,3,1,3,1,3,1,3"/>
   <g xml:space="preserve" font-weight="normal" font-family="'Liberation Serif'" font-size="8" transform="translate(42.6775,39.9463) rotate(-90,7,-7)" font-style="normal">
    <text x="0 3 " y="-0" fill="rgb(0,0,0)">f1</text>
   </g>
   <polyline stroke-linejoin="round" stroke="#000000" fill="none" points="46.2788,153.906 46.2788,30.0737" stroke-linecap="butt" stroke-width="0.5" stroke-dasharray="1,3,1,3,1,3,1,3"/>
   <g xml:space="preserve" font-weight="normal" font-family="'Liberation Serif'" font-size="8" transform="translate(38.279,52.0422) rotate(-90,8,-7)" font-style="normal">
    <text x="0 4 " y="-0" fill="rgb(0,0,0)">a2</text>
   </g>
   <polyline stroke-linejoin="round" stroke="#000000" fill="none" points="103.111,153.906 103.111,30.0737" stroke-linecap="butt" stroke-width="0.5" stroke-dasharray="1,3,1,3,1,3,1,3"/>
   <g xml:space="preserve" font-weight="normal" font-family="'Liberation Serif'" font-size="8" transform="translate(95.1114,52.0422) rotate(-90,8,-7)" font-style="normal">
    <text x="0 4 " y="-0" fill="rgb(0,0,0)">a3</text>
   </g>
   <polyline stroke-linejoin="round" stroke="#000000" fill="none" points="32.4839,153.906 32.4839,30.0737" stroke-linecap="butt" stroke-width="0.5" stroke-dasharray="1,3,1,3,1,3,1,3"/>
   <g xml:space="preserve" font-weight="normal" font-family="'Liberation Serif'" font-size="8" transform="translate(24.4838,52.0422) rotate(-90,8,-7)" font-style="normal">
    <text x="0 4 " y="-0" fill="rgb(0,0,0)">a1</text>
   </g>
   <g xml:space="preserve" font-weight="normal" font-family="'Liberation Serif'" font-size="8" transform="translate(55.3287,148.334) rotate(-0,-0,-3.5)" font-style="normal">
    <text x="0 6 11 17 21 25 28 34 40 43 50 56 61 65 69 72 76 80 " y="-0" fill="rgb(0,0,0)">UCASS-AD-MAZ04-008</text>
   </g>
  </g>
  <clipPath id="cp00176176">
   <polygon points="0,176 176,176 176,0 0,0"/>
  </clipPath>
  <g clip-path="url(#cp00176176)">
   <polyline stroke-linejoin="miter" stroke="#262626" fill="none" points="30.0732,30.0737 30.0732,31.4429" stroke-linecap="butt" stroke-width="0.5"/>
   <polyline stroke-linejoin="miter" stroke="#262626" fill="none" points="95.0156,30.0737 95.0156,31.4429" stroke-linecap="butt" stroke-width="0.5"/>
   <polyline stroke-linejoin="miter" stroke="#262626" fill="none" points="123.878,30.0737 123.878,31.4429" stroke-linecap="butt" stroke-width="0.5"/>
   <polyline stroke-linejoin="miter" stroke="#262626" fill="none" points="152.742,30.0737 152.742,31.4429" stroke-linecap="butt" stroke-width="0.5"/>
   <g xml:space="preserve" font-weight="normal" font-family="'Liberation Serif'" font-size="6" transform="translate(28.5735,25.5796) rotate(-0,1.5,0)" font-style="normal">
    <text x="0 " y="-1" fill="rgb(38,38,38)">0</text>
   </g>
   <g xml:space="preserve" font-weight="normal" font-family="'Liberation Serif'" font-size="6" transform="translate(93.5155,25.5796) rotate(-0,1.5,0)" font-style="normal">
    <text x="0 " y="-1" fill="rgb(38,38,38)">9</text>
   </g>
   <g xml:space="preserve" font-weight="normal" font-family="'Liberation Serif'" font-size="6" transform="translate(120.879,25.5796) rotate(-0,3,0)" font-style="normal">
    <text x="0 3 " y="-1" fill="rgb(38,38,38)">13</text>
   </g>
   <g xml:space="preserve" font-weight="normal" font-family="'Liberation Serif'" font-size="6" transform="translate(149.742,25.5796) rotate(-0,3,0)" font-style="normal">
    <text x="0 3 " y="-0" fill="rgb(38,38,38)">17</text>
   </g>
   <polyline stroke-linejoin="miter" stroke="#262626" fill="none" points="167.173,30.0737 30.0732,30.0737" stroke-linecap="square" stroke-width="0.5" stroke-dasharray="16,0"/>
   <polyline stroke-linejoin="miter" stroke="#262626" fill="none" points="167.173,30.0737 167.173,153.906" stroke-linecap="square" stroke-width="0.5" stroke-dasharray="16,0"/>
  </g>
 </g>
</svg>
