<?xml version='1.0' encoding='UTF-8' standalone='no'?>
<svg height="176pt" viewBox="0 0 176 176" xmlns="http://www.w3.org/2000/svg" width="176pt" xmlns:xlink="http://www.w3.org/1999/xlink">
 <title>Figure 6</title>
 <desc>
Creator: GL2PS 1.4.2, (C) 1999-2020 C. Geuzaine
For: Octave
CreationDate: Wed Feb 14 10:31:10 2024
</desc>
 <defs/>
 <polygon points="0,0 176,0 176,176 0,176" fill="#ffffff"/>
 <g>
  <polygon points="0,176 176,176 176,0 0,0" shape-rendering="crispEdges" fill="#ffffff"/>
  <clipPath id="cp00176176">
   <polygon points="0,176 176,176 176,0 0,0"/>
  </clipPath>
  <g clip-path="url(#cp00176176)">
   <polygon points="30.0732,153.906 167.173,153.906 167.173,30.0737 30.0732,30.0737" shape-rendering="crispEdges" fill="#ffffff"/>
   <polyline stroke-linecap="butt" stroke-width="0.5" points="30.0732,153.906 30.0732,152.537" fill="none" stroke-linejoin="miter" stroke="#262626"/>
   <polyline stroke-linecap="butt" stroke-width="0.5" points="66.1523,153.906 66.1523,152.537" fill="none" stroke-linejoin="miter" stroke="#262626"/>
   <polyline stroke-linecap="butt" stroke-width="0.5" points="102.231,153.906 102.231,152.537" fill="none" stroke-linejoin="miter" stroke="#262626"/>
   <polyline stroke-linecap="butt" stroke-width="0.5" points="138.31,153.906 138.31,152.537" fill="none" stroke-linejoin="miter" stroke="#262626"/>
   <g xml:space="preserve" transform="translate(28.5735,163.399) rotate(-0,1.5,-5)" font-style="normal" font-size="6" font-family="'Liberation Serif'" font-weight="normal">
    <text y="-1" fill="rgb(38,38,38)" x="0 ">0</text>
   </g>
   <g xml:space="preserve" transform="translate(59.1524,163.399) rotate(-0,7,-5)" font-style="normal" font-size="6" font-family="'Liberation Serif'" font-weight="normal">
    <text y="-1" fill="rgb(38,38,38)" x="0 3 6 8 11 ">5e-05</text>
   </g>
   <g xml:space="preserve" transform="translate(93.7313,163.399) rotate(-0,8.5,-5)" font-style="normal" font-size="6" font-family="'Liberation Serif'" font-weight="normal">
    <text y="-1" fill="rgb(38,38,38)" x="0 3 5 8 11 14 ">0.0001</text>
   </g>
   <g xml:space="preserve" transform="translate(128.31,163.399) rotate(-0,10,-5)" font-style="normal" font-size="6" font-family="'Liberation Serif'" font-weight="normal">
    <text y="-1" fill="rgb(38,38,38)" x="0 3 5 8 11 14 17 ">0.00015</text>
   </g>
   <polyline stroke-linecap="butt" stroke-width="0.5" points="30.0732,153.906 31.4453,153.906" fill="none" stroke-linejoin="miter" stroke="#262626"/>
   <polyline stroke-linecap="butt" stroke-width="0.5" points="30.0732,123.666 31.4453,123.666" fill="none" stroke-linejoin="miter" stroke="#262626"/>
   <polyline stroke-linecap="butt" stroke-width="0.5" points="30.0732,93.4258 31.4453,93.4258" fill="none" stroke-linejoin="miter" stroke="#262626"/>
   <polyline stroke-linecap="butt" stroke-width="0.5" points="30.0732,63.186 31.4453,63.186" fill="none" stroke-linejoin="miter" stroke="#262626"/>
   <polyline stroke-linecap="butt" stroke-width="0.5" points="30.0732,32.9463 31.4453,32.9463" fill="none" stroke-linejoin="miter" stroke="#262626"/>
   <g xml:space="preserve" transform="translate(24.0713,156.406) rotate(-0,3,-2.5)" font-style="normal" font-size="6" font-family="'Liberation Serif'" font-weight="normal">
    <text y="-1" fill="rgb(38,38,38)" x="0 ">0</text>
   </g>
   <g xml:space="preserve" transform="translate(15.0713,126.166) rotate(-0,12,-2.5)" font-style="normal" font-size="6" font-family="'Liberation Serif'" font-weight="normal">
    <text y="-1" fill="rgb(38,38,38)" x="0 3 6 9 ">1000</text>
   </g>
   <g xml:space="preserve" transform="translate(15.0713,95.9259) rotate(-0,12,-2.5)" font-style="normal" font-size="6" font-family="'Liberation Serif'" font-weight="normal">
    <text y="-1" fill="rgb(38,38,38)" x="0 3 6 9 ">2000</text>
   </g>
   <g xml:space="preserve" transform="translate(15.0713,65.6861) rotate(-0,12,-2.5)" font-style="normal" font-size="6" font-family="'Liberation Serif'" font-weight="normal">
    <text y="-1" fill="rgb(38,38,38)" x="0 3 6 9 ">3000</text>
   </g>
   <g xml:space="preserve" transform="translate(15.0713,35.4463) rotate(-0,12,-2.5)" font-style="normal" font-size="6" font-family="'Liberation Serif'" font-weight="normal">
    <text y="-1" fill="rgb(38,38,38)" x="0 3 6 9 ">4000</text>
   </g>
   <polyline stroke-linecap="square" stroke-width="0.5" points="30.0732,153.906 167.173,153.906" fill="none" stroke-dasharray="16,0" stroke-linejoin="miter" stroke="#262626"/>
   <polyline stroke-linecap="square" stroke-width="0.5" points="30.0732,153.906 30.0732,30.0737" fill="none" stroke-dasharray="16,0" stroke-linejoin="miter" stroke="#262626"/>
   <polyline stroke-linecap="butt" stroke-width="0.5" points="30.0732,153.906 30.2183,153.755 30.3633,153.604 30.5083,153.454 30.6533,153.303 30.7983,153.152 30.9434,153.002 31.0879,152.852 31.2329,152.701 31.3779,152.55 31.5229,152.399 31.668,152.249 31.813,152.098 31.9575,151.948 32.1025,151.797 32.2476,151.646 32.3926,151.496 32.5376,151.345 32.6826,151.195 32.8271,151.044 32.9722,150.894 33.1172,150.743 33.2622,150.592 33.4072,150.442 33.5522,150.291 33.6968,150.141 33.8418,149.99 33.9868,149.839 34.1318,149.689 34.2769,149.538 34.4219,149.388 34.5664,149.237 34.7114,149.086 34.8564,148.936 35.0015,148.785 35.1465,148.635 35.2915,148.484 35.436,148.333 35.5811,148.183 35.7261,148.032 35.8711,147.882 36.0161,147.731 36.1611,147.581 36.3057,147.43 36.4507,147.279 36.5957,147.128 36.7407,146.978 36.8857,146.828 37.0308,146.677 37.1758,146.526 37.3203,146.375 37.4653,146.225 37.6104,146.074 37.7554,145.924 37.9004,145.773 38.0454,145.623 38.1899,145.472 38.335,145.321 38.48,145.171 38.625,145.02 38.77,144.87 38.915,144.719 39.0596,144.568 39.2046,144.418 39.3496,144.267 39.4946,144.117 39.6396,143.966 39.7847,143.815 39.9292,143.665 40.0742,143.514 40.2192,143.364 40.3643,143.213 40.5093,143.062 40.6543,142.912 40.7988,142.761 40.9438,142.611 41.0889,142.46 41.2339,142.31 41.3789,142.159 41.5239,142.008 41.6685,141.858 41.8135,141.707 41.9585,141.557 42.1035,141.406 42.2485,141.255 42.3936,141.104 42.5381,140.954 42.6831,140.804 42.8281,140.653 42.9731,140.502 43.1182,140.352 43.2632,140.201 43.4082,140.05 43.5527,139.9 43.6978,139.75 43.8428,139.599 43.9878,139.448 44.1328,139.297 44.2778,139.147 44.4224,138.996 44.5674,138.846 44.7124,138.695 44.8574,138.544 45.0024,138.394 45.1475,138.243 45.292,138.093 45.437,137.942 45.582,137.792 45.7271,137.641 45.8721,137.49 46.0171,137.34 46.1616,137.189 46.3066,137.039 46.4517,136.888 46.5967,136.737 46.7417,136.587 46.8867,136.436 47.0312,136.286 47.1763,136.135 47.3213,135.984 47.4663,135.834 47.6113,135.683 47.7563,135.533 47.9009,135.382 48.0459,135.231 48.1909,135.081 48.3359,134.93 48.481,134.78 48.626,134.629 48.7705,134.479 48.9155,134.328 49.0605,134.177 49.2056,134.026 49.3506,133.876 49.4956,133.726 49.6406,133.575 49.7852,133.424 49.9302,133.273 50.0752,133.123 50.2202,132.972 50.3652,132.822 50.5103,132.671 50.6548,132.521 50.7998,132.37 50.9448,132.219 51.0898,132.069 51.2349,131.918 51.3799,131.768 51.5244,131.617 51.6694,131.466 51.8145,131.316 51.9595,131.165 52.1045,131.015 52.2495,130.864 52.394,130.713 52.5391,130.563 52.6841,130.412 52.8291,130.262 52.9741,130.111 53.1191,129.96 53.2637,129.81 53.4087,129.659 53.5537,129.509 53.6987,129.358 53.8438,129.208 53.9888,129.057 54.1333,128.906 54.2783,128.756 54.4233,128.605 54.5684,128.455 54.7134,128.304 54.8584,128.153 55.0029,128.002 55.1479,127.852 55.293,127.702 55.438,127.551 55.583,127.4 55.728,127.25 55.873,127.099 56.0176,126.948 56.1626,126.798 56.3076,126.647 56.4526,126.497 56.5977,126.346 56.7427,126.195 56.8872,126.045 57.0322,125.894 57.1772,125.744 57.3223,125.593 57.4673,125.442 57.6123,125.292 57.7568,125.141 57.9019,124.991 58.0469,124.84 58.1919,124.689 58.3369,124.539 58.4819,124.388 58.6265,124.238 58.7715,124.087 58.9165,123.937 59.0615,123.786 59.2065,123.635 59.3516,123.485 59.4961,123.334 59.6411,123.184 59.7861,123.033 59.9312,122.882 60.0762,122.732 60.2212,122.581 60.3657,122.431 60.5107,122.28 60.6558,122.129 60.8008,121.979 60.9458,121.828 61.0908,121.678 61.2354,121.527 61.3804,121.376 61.5254,121.226 61.6704,121.075 61.8154,120.924 61.9604,120.774 62.1055,120.624 62.25,120.473 62.395,120.322 62.54,120.171 62.6851,120.021 62.8301,119.87 62.9751,119.72 63.1196,119.569 63.2646,119.418 63.4097,119.268 63.5547,119.117 63.6997,118.967 63.8447,118.816 63.9893,118.666 64.1343,118.515 64.2793,118.364 64.4243,118.214 64.5693,118.063 64.7144,117.913 64.8589,117.762 65.0039,117.611 65.1489,117.461 65.2939,117.31 65.439,117.16 65.584,117.009 65.7285,116.858 65.8735,116.708 66.0186,116.557 66.1636,116.407 66.3086,116.256 66.4536,116.105 66.5981,115.955 66.7432,115.804 66.8882,115.654 67.0332,115.503 67.1782,115.353 67.3232,115.202 67.4678,115.051 67.6128,114.9 67.7578,114.75 67.9028,114.6 68.0479,114.449 68.1929,114.298 68.3379,114.147 68.4824,113.997 68.6274,113.846 68.7725,113.696 68.9175,113.545 69.0625,113.395 69.2075,113.244 69.3521,113.093 69.4971,112.943 69.6421,112.792 69.7871,112.642 69.9321,112.491 70.0771,112.34 70.2217,112.19 70.3667,112.039 70.5117,111.889 70.6567,111.738 70.8018,111.587 70.9468,111.437 71.0913,111.286 71.2363,111.136 71.3813,110.985 71.5264,110.834 71.6714,110.684 71.8164,110.533 71.9609,110.383 72.106,110.232 72.251,110.082 72.396,109.931 72.541,109.78 72.686,109.63 72.8306,109.479 72.9756,109.329 73.1206,109.178 73.2656,109.027 73.4106,108.876 73.5557,108.726 73.7002,108.576 73.8452,108.425 73.9902,108.274 74.1353,108.124 74.2803,107.973 74.4253,107.822 74.5703,107.672 74.7148,107.521 74.8599,107.371 75.0049,107.22 75.1499,107.069 75.2949,106.919 75.4399,106.768 75.5845,106.618 75.7295,106.467 75.8745,106.316 76.0195,106.166 76.1646,106.015 76.3096,105.865 76.4541,105.714 76.5991,105.563 76.7441,105.413 76.8892,105.262 77.0342,105.112 77.1792,104.961 77.3237,104.811 77.4688,104.66 77.6138,104.509 77.7588,104.359 77.9038,104.208 78.0488,104.058 78.1934,103.907 78.3384,103.756 78.4834,103.606 78.6284,103.455 78.7734,103.305 78.9185,103.154 79.063,103.003 79.208,102.853 79.353,102.702 79.498,102.552 79.6431,102.401 79.7881,102.25 79.9326,102.1 80.0776,101.949 80.2227,101.798 80.3677,101.648 80.5127,101.498 80.6577,101.347 80.8027,101.196 80.9473,101.045 81.0923,100.895 81.2373,100.744 81.3823,100.594 81.5273,100.443 81.6724,100.292 81.8169,100.142 81.9619,99.9912 82.1069,99.8408 82.252,99.6904 82.397,99.5396 82.542,99.3892 82.6865,99.2383 82.8315,99.0879 82.9766,98.937 83.1216,98.7866 83.2666,98.6362 83.4116,98.4854 83.5562,98.335 83.7012,98.1841 83.8462,98.0337 83.9912,97.8828 84.1362,97.7324 84.2812,97.582 84.4258,97.4312 84.5708,97.2808 84.7158,97.1299 84.8608,96.9795 85.0059,96.8286 85.1509,96.6782 85.2954,96.5278 85.4404,96.377 85.5854,96.2266 85.7305,96.0757 85.8755,95.9253 86.0205,95.7744 86.165,95.624 86.3101,95.4736 86.4551,95.3228 86.6001,95.1724 86.7451,95.0215 86.8901,94.8711 87.0352,94.7202 87.1797,94.5698 87.3247,94.4194 87.4697,94.2686 87.6147,94.1182 87.7598,93.9673 87.9048,93.8169 88.0493,93.666 88.1943,93.5156 88.3394,93.3652 88.4844,93.2144 88.6294,93.064 88.7744,92.9131 88.9189,92.7627 89.064,92.6123 89.209,92.4614 89.354,92.311 89.499,92.1602 89.644,92.0098 89.7886,91.8589 89.9336,91.7085 90.0786,91.5581 90.2236,91.4072 90.3687,91.2568 90.5137,91.106 90.6582,90.9556 90.8032,90.8047 90.9482,90.6543 91.0933,90.5039 91.2383,90.353 91.3833,90.2026 91.5278,90.0518 91.6729,89.9014 91.8179,89.7505 91.9629,89.6001 92.1079,89.4497 92.2529,89.2988 92.3975,89.1484 92.5425,88.9976 92.6875,88.8472 92.8325,88.6963 92.9775,88.5459 93.1226,88.3955 93.2676,88.2446 93.4121,88.0942 93.5571,87.9434 93.7021,87.793 93.8472,87.6421 93.9922,87.4917 94.1372,87.3413 94.2817,87.1904 94.4268,87.04 94.5718,86.8892 94.7168,86.7388 94.8618,86.5884 95.0068,86.4375 95.1514,86.2871 95.2964,86.1362 95.4414,85.9858 95.5864,85.835 95.7314,85.6846 95.8765,85.5342 96.021,85.3833 96.166,85.2329 96.311,85.082 96.4561,84.9316 96.6011,84.7808 96.7461,84.6304 96.8906,84.48 97.0356,84.3291 97.1807,84.1787 97.3257,84.0278 97.4707,83.8774 97.6157,83.7266 97.7603,83.5762 97.9053,83.4258 98.0503,83.2749 98.1953,83.1245 98.3403,82.9736 98.4854,82.8232 98.6299,82.6724 98.7749,82.522 98.9199,82.3716 99.0649,82.2207 99.21,82.0703 99.355,81.9194 99.5,81.769 99.6445,81.6182 99.7896,81.4678 99.9346,81.3174 100.08,81.1665 100.225,81.0161 100.37,80.8652 100.514,80.7148 100.659,80.564 100.804,80.4136 100.949,80.2632 101.094,80.1123 101.239,79.9619 101.384,79.811 101.529,79.6606 101.674,79.5103 101.819,79.3594 101.964,79.209 102.109,79.0581 102.253,78.9077 102.398,78.7568 102.543,78.6064 102.688,78.4561 102.833,78.3052 102.979,78.1548 103.123,78.0039 103.268,77.8535 103.413,77.7026 103.558,77.5522 103.703,77.4019 103.848,77.251 103.993,77.1006 104.138,76.9497 104.283,76.7993 104.428,76.6484 104.573,76.498 104.718,76.3477 104.862,76.1968 105.007,76.0464 105.152,75.8955 105.297,75.7451 105.442,75.5942 105.587,75.4438 105.732,75.2935 105.877,75.1426 106.022,74.9922 106.167,74.8413 106.312,74.6909 106.457,74.5405 106.602,74.3896 106.747,74.2393 106.892,74.0884 107.037,73.938 107.182,73.7871 107.327,73.6367 107.472,73.4863 107.616,73.3354 107.761,73.1851 107.906,73.0342 108.051,72.8838 108.196,72.7329 108.341,72.5825 108.486,72.4321 108.631,72.2812 108.776,72.1309 108.921,71.98 109.066,71.8296 109.211,71.6787 109.355,71.5283 109.5,71.3779 109.646,71.2271 109.791,71.0767 109.936,70.9258 110.081,70.7754 110.225,70.6245 110.37,70.4741 110.515,70.3237 110.66,70.1729 110.805,70.0225 110.95,69.8716 111.095,69.7212 111.24,69.5703 111.385,69.4199 111.53,69.2695 111.675,69.1187 111.82,68.9683 111.965,68.8174 112.109,68.667 112.254,68.5161 112.399,68.3657 112.544,68.2153 112.689,68.0645 112.834,67.9141 112.979,67.7632 113.124,67.6128 113.269,67.4624 113.414,67.3115 113.559,67.1611 113.704,67.0103 113.849,66.8599 113.994,66.709 114.139,66.5586 114.284,66.4082 114.429,66.2573 114.574,66.1069 114.718,65.9561 114.863,65.8057 115.008,65.6548 115.153,65.5044 115.298,65.354 115.443,65.2031 115.588,65.0527 115.733,64.9019 115.878,64.7515 116.023,64.6006 116.168,64.4502 116.313,64.2998 116.458,64.1489 116.603,63.9985 116.748,63.8477 116.893,63.6973 117.038,63.5464 117.183,63.396 117.327,63.2456 117.472,63.0947 117.617,62.9443 117.762,62.7935 117.907,62.6431 118.052,62.4922 118.197,62.3418 118.342,62.1914 118.487,62.0405 118.632,61.8901 118.777,61.7393 118.922,61.5889 119.067,61.4385 119.211,61.2876 119.356,61.1372 119.501,60.9863 119.646,60.8359 119.792,60.6851 119.937,60.5347 120.081,60.3843 120.226,60.2334 120.371,60.083 120.516,59.9321 120.661,59.7817 120.806,59.6309 120.951,59.4805 121.096,59.3301 121.241,59.1792 121.386,59.0288 121.531,58.8779 121.676,58.7275 121.82,58.5767 121.965,58.4263 122.11,58.2759 122.255,58.125 122.4,57.9746 122.545,57.8237 122.69,57.6733 122.835,57.5225 122.98,57.3721 123.125,57.2217 123.27,57.0708 123.415,56.9204 123.56,56.7695 123.705,56.6191 123.85,56.4683 123.995,56.3179 124.14,56.1675 124.285,56.0166 124.43,55.8662 124.574,55.7153 124.719,55.5649 124.864,55.4141 125.009,55.2637 125.154,55.1133 125.299,54.9624 125.444,54.812 125.589,54.6611 125.734,54.5107 125.879,54.3604 126.024,54.2095 126.169,54.0591 126.313,53.9082 126.458,53.7578 126.604,53.6069 126.749,53.4565 126.894,53.3062 127.039,53.1553 127.183,53.0049 127.328,52.854 127.473,52.7036 127.618,52.5527 127.763,52.4023 127.908,52.252 128.053,52.1011 128.198,51.9507 128.343,51.7998 128.488,51.6494 128.633,51.4985 128.778,51.3481 128.922,51.1978 129.067,51.0469 129.212,50.8965 129.357,50.7456 129.502,50.5952 129.647,50.4443 129.792,50.2939 129.937,50.1436 130.082,49.9927 130.227,49.8423 130.372,49.6914 130.517,49.541 130.662,49.3906 130.807,49.2397 130.952,49.0894 131.097,48.9385 131.242,48.7881 131.387,48.6372 131.532,48.4868 131.676,48.3364 131.821,48.1855 131.966,48.0352 132.111,47.8843 132.256,47.7339 132.401,47.583 132.546,47.4326 132.691,47.2822 132.836,47.1313 132.981,46.981 133.126,46.8301 133.271,46.6797 133.416,46.5288 133.561,46.3784 133.706,46.228 133.851,46.0771 133.996,45.9268 134.141,45.7759 134.285,45.6255 134.43,45.4746 134.575,45.3242 134.72,45.1738 134.865,45.0229 135.01,44.8726 135.155,44.7217 135.3,44.5713 135.445,44.4204 135.59,44.27 135.735,44.1196 135.88,43.9688 136.024,43.8184 136.169,43.6675 136.314,43.5171 136.459,43.3662 136.604,43.2158 136.75,43.0654 136.895,42.9146 137.039,42.7642 137.184,42.6133 137.329,42.4629 137.474,42.3125 137.619,42.1616 137.764,42.0112 137.909,41.8604 138.054,41.71 138.199,41.5591 138.344,41.4087 138.489,41.2583 138.634,41.1074 138.778,40.957 138.923,40.8062 139.068,40.6558 139.213,40.5049 139.358,40.3545 139.503,40.2041 139.648,40.0532 139.793,39.9028 139.938,39.752 140.083,39.6016 140.228,39.4507 140.373,39.3003 140.518,39.1499 140.663,38.999 140.808,38.8486 140.953,38.6978 141.098,38.5474 141.243,38.3965 141.387,38.2461 141.532,38.0957 141.677,37.9448 141.822,37.7944 141.967,37.6436 142.112,37.4932 142.257,37.3423 142.402,37.1919 142.547,37.0415 142.692,36.8906 142.837,36.7402 142.982,36.5894 143.127,36.439 143.271,36.2886 143.417,36.1377 143.562,35.9873 143.707,35.8364 143.852,35.686 143.997,35.5352 144.141,35.3848 144.286,35.2344 144.431,35.0835 144.576,34.9331 144.721,34.7822 144.866,34.6318 145.011,34.481 145.156,34.3306 145.301,34.1802 145.446,34.0293 145.591,33.8789 145.736,33.728 145.88,33.5776 146.025,33.4268 146.17,33.2764 146.315,33.126 146.46,32.9751 146.605,32.8247 146.75,32.6738 146.895,32.5234 147.04,32.3726 147.185,32.2222 147.33,32.0718 147.475,31.9209 147.62,31.7705 147.765,31.6196 147.91,31.4692 148.055,31.3184 148.2,31.168 148.345,31.0176 148.489,30.8667 148.634,30.7163 148.779,30.5654 148.924,30.415 149.069,30.2646 149.214,30.1138 149.359,29.9634 149.372,29.9497" fill="none" stroke-dasharray="9,7" stroke-linejoin="round" stroke="#000000"/>
   <polyline stroke-linecap="butt" stroke-width="0.5" points="30.3467,153.906 30.4912,153.782 30.6357,153.658 30.7808,153.534 30.9253,153.41 31.0698,153.286 31.2144,153.162 31.3594,153.038 31.5039,152.914 31.6484,152.79 31.7935,152.666 31.938,152.542 32.0825,152.418 32.2271,152.294 32.3721,152.17 32.5166,152.046 32.6611,151.922 32.8057,151.798 32.9507,151.674 33.0952,151.55 33.2397,151.426 33.3848,151.302 33.5293,151.179 33.6738,151.055 33.8184,150.931 33.9634,150.807 34.1079,150.683 34.2524,150.559 34.3975,150.435 34.542,150.311 34.6865,150.187 34.8311,150.063 34.9761,149.939 35.1206,149.815 35.2651,149.691 35.4097,149.567 35.5547,149.443 35.6992,149.319 35.8438,149.195 35.9888,149.071 36.1333,148.947 36.2778,148.823 36.4224,148.699 36.5674,148.575 36.7119,148.452 36.8564,148.328 37.0015,148.204 37.146,148.08 37.2905,147.956 37.4351,147.832 37.5801,147.708 37.7246,147.584 37.8691,147.46 38.0137,147.336 38.1587,147.212 38.3032,147.088 38.4478,146.964 38.5928,146.84 38.7373,146.716 38.8818,146.592 39.0264,146.468 39.1714,146.344 39.3159,146.22 39.4604,146.096 39.6055,145.972 39.75,145.849 39.8945,145.725 40.0391,145.601 40.1841,145.477 40.3286,145.353 40.4731,145.229 40.6177,145.104 40.7627,144.98 40.9072,144.857 41.0518,144.733 41.1968,144.609 41.3413,144.485 41.4858,144.361 41.6304,144.237 41.7754,144.113 41.9199,143.989 42.0645,143.865 42.2095,143.741 42.354,143.617 42.4985,143.493 42.6431,143.369 42.7881,143.245 42.9326,143.122 43.0771,142.998 43.2217,142.874 43.3667,142.75 43.5112,142.625 43.6558,142.501 43.8008,142.377 43.9453,142.254 44.0898,142.13 44.2344,142.006 44.3794,141.882 44.5239,141.758 44.6685,141.634 44.8135,141.51 44.958,141.386 45.1025,141.262 45.2471,141.138 45.3921,141.014 45.5366,140.89 45.6812,140.766 45.8257,140.642 45.9707,140.518 46.1152,140.395 46.2598,140.271 46.4048,140.146 46.5493,140.022 46.6938,139.898 46.8384,139.774 46.9834,139.65 47.1279,139.527 47.2725,139.403 47.417,139.279 47.562,139.155 47.7065,139.031 47.8511,138.907 47.9961,138.783 48.1406,138.659 48.2852,138.535 48.4297,138.411 48.5747,138.287 48.7192,138.163 48.8638,138.039 49.0088,137.915 49.1533,137.791 49.2979,137.667 49.4424,137.543 49.5874,137.419 49.7319,137.295 49.8765,137.171 50.021,137.047 50.166,136.923 50.3105,136.8 50.4551,136.676 50.6001,136.552 50.7446,136.428 50.8892,136.304 51.0337,136.18 51.1787,136.056 51.3232,135.932 51.4678,135.808 51.6128,135.684 51.7573,135.56 51.9019,135.436 52.0464,135.312 52.1914,135.188 52.3359,135.064 52.4805,134.94 52.625,134.816 52.77,134.692 52.9146,134.568 53.0591,134.444 53.2041,134.32 53.3486,134.197 53.4932,134.073 53.6377,133.949 53.7827,133.825 53.9272,133.701 54.0718,133.577 54.2168,133.453 54.3613,133.329 54.5059,133.205 54.6504,133.081 54.7954,132.957 54.9399,132.833 55.0845,132.709 55.229,132.585 55.374,132.461 55.5186,132.337 55.6631,132.213 55.8081,132.089 55.9526,131.965 56.0972,131.841 56.2417,131.717 56.3867,131.593 56.5312,131.47 56.6758,131.346 56.8208,131.222 56.9653,131.098 57.1099,130.974 57.2544,130.85 57.3994,130.726 57.5439,130.602 57.6885,130.478 57.833,130.354 57.978,130.23 58.1226,130.106 58.2671,129.982 58.4121,129.858 58.5566,129.734 58.7012,129.61 58.8457,129.486 58.9907,129.362 59.1353,129.238 59.2798,129.114 59.4248,128.99 59.5693,128.866 59.7139,128.743 59.8584,128.619 60.0034,128.495 60.1479,128.371 60.2925,128.247 60.437,128.123 60.582,127.999 60.7266,127.875 60.8711,127.751 61.0161,127.627 61.1606,127.503 61.3052,127.379 61.4497,127.255 61.5947,127.131 61.7393,127.007 61.8838,126.883 62.0288,126.759 62.1733,126.635 62.3179,126.511 62.4624,126.387 62.6074,126.263 62.752,126.139 62.8965,126.016 63.041,125.892 63.186,125.768 63.3306,125.644 63.4751,125.52 63.6201,125.396 63.7646,125.271 63.9092,125.148 64.0537,125.024 64.1987,124.9 64.3433,124.776 64.4878,124.652 64.6328,124.528 64.7773,124.404 64.9219,124.28 65.0664,124.156 65.2114,124.032 65.356,123.908 65.5005,123.784 65.645,123.66 65.79,123.536 65.9346,123.413 66.0791,123.289 66.2241,123.165 66.3687,123.041 66.5132,122.917 66.6577,122.792 66.8027,122.668 66.9473,122.544 67.0918,122.421 67.2363,122.297 67.3813,122.173 67.5259,122.049 67.6704,121.925 67.8154,121.801 67.96,121.677 68.1045,121.553 68.249,121.429 68.394,121.305 68.5386,121.181 68.6831,121.057 68.8281,120.933 68.9727,120.809 69.1172,120.686 69.2617,120.562 69.4067,120.438 69.5513,120.313 69.6958,120.189 69.8403,120.065 69.9854,119.941 70.1299,119.818 70.2744,119.694 70.4194,119.57 70.564,119.446 70.7085,119.322 70.853,119.198 70.998,119.074 71.1426,118.95 71.2871,118.826 71.4321,118.702 71.5767,118.578 71.7212,118.454 71.8657,118.33 72.0107,118.206 72.1553,118.082 72.2998,117.958 72.4443,117.834 72.5894,117.71 72.7339,117.586 72.8784,117.462 73.0234,117.338 73.168,117.214 73.3125,117.091 73.457,116.967 73.6021,116.843 73.7466,116.719 73.8911,116.595 74.0361,116.471 74.1807,116.347 74.3252,116.223 74.4697,116.099 74.6147,115.975 74.7593,115.851 74.9038,115.727 75.0483,115.603 75.1934,115.479 75.3379,115.355 75.4824,115.231 75.6274,115.107 75.772,114.983 75.9165,114.859 76.061,114.735 76.2061,114.611 76.3506,114.487 76.4951,114.364 76.6401,114.24 76.7847,114.116 76.9292,113.992 77.0737,113.868 77.2188,113.744 77.3633,113.62 77.5078,113.496 77.6523,113.372 77.7974,113.248 77.9419,113.124 78.0864,113 78.2314,112.876 78.376,112.752 78.5205,112.628 78.665,112.504 78.8101,112.38 78.9546,112.256 79.0991,112.132 79.2441,112.008 79.3887,111.884 79.5332,111.76 79.6777,111.637 79.8228,111.513 79.9673,111.389 80.1118,111.265 80.2563,111.141 80.4014,111.017 80.5459,110.893 80.6904,110.769 80.8354,110.645 80.98,110.521 81.1245,110.397 81.269,110.273 81.4141,110.149 81.5586,110.025 81.7031,109.901 81.8481,109.777 81.9927,109.653 82.1372,109.529 82.2817,109.405 82.4268,109.281 82.5713,109.157 82.7158,109.034 82.8604,108.91 83.0054,108.786 83.1499,108.662 83.2944,108.538 83.4395,108.414 83.584,108.29 83.7285,108.166 83.873,108.042 84.0181,107.918 84.1626,107.794 84.3071,107.67 84.4521,107.546 84.5967,107.422 84.7412,107.298 84.8857,107.174 85.0308,107.05 85.1753,106.926 85.3198,106.802 85.4644,106.678 85.6094,106.554 85.7539,106.43 85.8984,106.307 86.0435,106.183 86.188,106.059 86.3325,105.935 86.4771,105.811 86.6221,105.687 86.7666,105.562 86.9111,105.439 87.0557,105.315 87.2007,105.191 87.3452,105.067 87.4897,104.943 87.6348,104.819 87.7793,104.695 87.9238,104.571 88.0684,104.447 88.2134,104.323 88.3579,104.199 88.5024,104.075 88.6475,103.951 88.792,103.827 88.9365,103.703 89.0811,103.58 89.2261,103.456 89.3706,103.332 89.5151,103.208 89.6597,103.083 89.8047,102.959 89.9492,102.835 90.0938,102.712 90.2388,102.588 90.3833,102.464 90.5278,102.34 90.6724,102.216 90.8174,102.092 90.9619,101.968 91.1064,101.844 91.2515,101.72 91.396,101.596 91.5405,101.472 91.6851,101.348 91.8301,101.224 91.9746,101.1 92.1191,100.977 92.2637,100.853 92.4087,100.729 92.5532,100.604 92.6978,100.48 92.8428,100.356 92.9873,100.232 93.1318,100.108 93.2764,99.9849 93.4214,99.8608 93.5659,99.7368 93.7104,99.6128 93.8555,99.4888 94,99.3647 94.1445,99.2407 94.2891,99.1172 94.4341,98.9932 94.5786,98.8691 94.7231,98.7451 94.8677,98.6211 95.0127,98.4971 95.1572,98.373 95.3018,98.2495 95.4468,98.1255 95.5913,98.0015 95.7358,97.8774 95.8804,97.7534 96.0254,97.6294 96.1699,97.5054 96.3145,97.3818 96.4595,97.2578 96.604,97.1338 96.7485,97.0098 96.8931,96.8857 97.0381,96.7617 97.1826,96.6377 97.3271,96.5137 97.4717,96.3901 97.6167,96.2661 97.7612,96.1421 97.9058,96.0181 98.0508,95.894 98.1953,95.77 98.3398,95.646 98.4844,95.5225 98.6294,95.3984 98.7739,95.2744 98.9185,95.1504 99.0635,95.0264 99.208,94.9023 99.3525,94.7783 99.4971,94.6548 99.6421,94.5308 99.7866,94.4067 99.9312,94.2827 100.076,94.1587 100.221,94.0347 100.365,93.9106 100.51,93.7871 100.655,93.6631 100.799,93.5391 100.944,93.415 101.088,93.291 101.233,93.167 101.378,93.043 101.522,92.9189 101.667,92.7954 101.812,92.6714 101.957,92.5474 102.101,92.4233 102.246,92.2993 102.391,92.1753 102.535,92.0513 102.68,91.9277 102.825,91.8037 102.969,91.6797 103.114,91.5557 103.259,91.4316 103.403,91.3076 103.548,91.1836 103.692,91.0601 103.837,90.936 103.982,90.812 104.126,90.688 104.271,90.564 104.416,90.4399 104.561,90.3159 104.705,90.1924 104.85,90.0684 104.995,89.9443 105.139,89.8203 105.284,89.6963 105.429,89.5723 105.573,89.4482 105.718,89.3242 105.863,89.2007 106.007,89.0767 106.152,88.9526 106.296,88.8286 106.441,88.7046 106.586,88.5806 106.73,88.4565 106.875,88.333 107.02,88.209 107.165,88.085 107.309,87.9609 107.454,87.8369 107.599,87.7129 107.743,87.5889 107.888,87.4653 108.033,87.3413 108.177,87.2173 108.322,87.0933 108.467,86.9692 108.611,86.8452 108.756,86.7212 108.9,86.5977 109.045,86.4736 109.19,86.3496 109.334,86.2256 109.479,86.1016 109.624,85.9775 109.769,85.8535 109.913,85.73 110.058,85.606 110.203,85.4819 110.347,85.3579 110.492,85.2339 110.637,85.1099 110.781,84.9858 110.926,84.8618 111.071,84.7383 111.215,84.6143 111.36,84.4902 111.504,84.3662 111.649,84.2422 111.794,84.1182 111.938,83.9941 112.083,83.8706 112.228,83.7466 112.373,83.6226 112.517,83.4985 112.662,83.3745 112.807,83.2505 112.951,83.1265 113.096,83.0029 113.241,82.8789 113.385,82.7549 113.53,82.6309 113.675,82.5068 113.819,82.3828 113.964,82.2588 114.108,82.1353 114.253,82.0112 114.398,81.8872 114.542,81.7632 114.687,81.6392 114.832,81.5151 114.977,81.3911 115.121,81.2671 115.266,81.1436 115.411,81.0195 115.555,80.8955 115.7,80.7715 115.845,80.6475 115.989,80.5234 116.134,80.3994 116.279,80.2759 116.423,80.1519 116.568,80.0278 116.712,79.9038 116.857,79.7798 117.002,79.6558 117.146,79.5317 117.291,79.4082 117.436,79.2842 117.581,79.1602 117.725,79.0361 117.87,78.9121 118.015,78.7881 118.159,78.6641 118.304,78.5405 118.449,78.4165 118.593,78.2925 118.738,78.1685 118.882,78.0444 119.027,77.9204 119.172,77.7964 119.316,77.6724 119.461,77.5488 119.606,77.4248 119.75,77.3008 119.895,77.1768 120.04,77.0527 120.185,76.9287 120.329,76.8047 120.474,76.6812 120.619,76.5571 120.763,76.4331 120.908,76.3091 121.053,76.1851 121.197,76.061 121.342,75.937 121.487,75.8135 121.631,75.6895 121.776,75.5654 121.92,75.4414 122.065,75.3174 122.21,75.1934 122.354,75.0693 122.499,74.9458 122.644,74.8218 122.789,74.6978 122.933,74.5737 123.078,74.4497 123.223,74.3257 123.367,74.2017 123.512,74.0776 123.657,73.9541 123.801,73.8301 123.946,73.7061 124.09,73.582 124.235,73.458 124.38,73.334 124.524,73.21 124.669,73.0864 124.814,72.9624 124.958,72.8384 125.103,72.7144 125.248,72.5903 125.393,72.4663 125.537,72.3423 125.682,72.2188 125.827,72.0947 125.971,71.9707 126.116,71.8467 126.261,71.7227 126.405,71.5986 126.55,71.4746 126.694,71.3511 126.839,71.2271 126.984,71.103 127.128,70.979 127.273,70.855 127.418,70.731 127.562,70.6069 127.707,70.4829 127.852,70.3594 127.997,70.2354 128.141,70.1113 128.286,69.9873 128.431,69.8633 128.575,69.7393 128.72,69.6152 128.865,69.4917 129.009,69.3677 129.154,69.2437 129.298,69.1196 129.443,68.9956 129.588,68.8716 129.732,68.7476 129.877,68.624 130.022,68.5 130.167,68.376 130.311,68.252 130.456,68.1279 130.601,68.0039 130.745,67.8799 130.89,67.7563 131.035,67.6323 131.179,67.5083 131.324,67.3843 131.469,67.2603 131.613,67.1362 131.758,67.0122 131.902,66.8882 132.047,66.7646 132.192,66.6406 132.336,66.5166 132.481,66.3926 132.626,66.2686 132.771,66.1445 132.915,66.0205 133.06,65.897 133.205,65.7729 133.349,65.6489 133.494,65.5249 133.639,65.4009 133.783,65.2769 133.928,65.1528 134.073,65.0293 134.217,64.9053 134.362,64.7812 134.506,64.6572 134.651,64.5332 134.796,64.4092 134.94,64.2852 135.085,64.1616 135.23,64.0376 135.375,63.9136 135.519,63.7896 135.664,63.6655 135.809,63.5415 135.953,63.4175 136.098,63.2935 136.243,63.1699 136.387,63.0459 136.532,62.9219 136.677,62.7979 136.821,62.6738 136.966,62.5498 137.11,62.4258 137.255,62.3022 137.4,62.1782 137.544,62.0542 137.689,61.9302 137.834,61.8062 137.979,61.6821 138.123,61.5581 138.268,61.4346 138.413,61.3105 138.557,61.1865 138.702,61.0625 138.847,60.9385 138.991,60.8145 139.136,60.6904 139.281,60.5669 139.425,60.4429 139.57,60.3188 139.714,60.1948 139.859,60.0708 140.004,59.9468 140.148,59.8228 140.293,59.6987 140.438,59.5752 140.583,59.4512 140.727,59.3271 140.872,59.2031 141.017,59.0791 141.161,58.9551 141.306,58.8311 141.451,58.7075 141.595,58.5835 141.74,58.4595 141.885,58.3354 142.029,58.2114 142.174,58.0874 142.318,57.9634 142.463,57.8398 142.608,57.7158 142.752,57.5918 142.897,57.4678 143.042,57.3438 143.187,57.2197 143.331,57.0957 143.476,56.9722 143.621,56.8481 143.765,56.7241 143.91,56.6001 144.055,56.4761 144.199,56.3521 144.344,56.228 144.489,56.1045 144.633,55.9805 144.778,55.8564 144.922,55.7324 145.067,55.6084 145.212,55.4844 145.356,55.3604 145.501,55.2363 145.646,55.1128 145.791,54.9888 145.935,54.8647 146.08,54.7407 146.225,54.6167 146.369,54.4927 146.514,54.3687 146.659,54.2451 146.803,54.1211 146.948,53.9971 147.093,53.873 147.237,53.749 147.382,53.625 147.526,53.501 147.671,53.3774 147.816,53.2534 147.96,53.1294 148.105,53.0054 148.25,52.8813 148.395,52.7573 148.539,52.6333 148.684,52.5098 148.829,52.3857 148.973,52.2617 149.118,52.1377 149.263,52.0137 149.407,51.8896 149.552,51.7656 149.697,51.6416 149.841,51.5181 149.986,51.394 150.13,51.27 150.275,51.146 150.42,51.022 150.564,50.8979 150.709,50.7739 150.854,50.6504 150.999,50.5264 151.143,50.4023 151.288,50.2783 151.433,50.1543 151.577,50.0303 151.722,49.9062 151.867,49.7827 152.011,49.6587 152.156,49.5347 152.301,49.4106 152.445,49.2866 152.59,49.1626 152.734,49.0386 152.879,48.915 153.024,48.791 153.168,48.667 153.313,48.543 153.458,48.4189 153.603,48.2949 153.747,48.1709 153.892,48.0469 154.037,47.9233 154.181,47.7993 154.326,47.6753 154.471,47.5513 154.615,47.4272 154.76,47.3032 154.905,47.1792 155.049,47.0557 155.194,46.9316 155.338,46.8076 155.483,46.6836 155.628,46.5596 155.772,46.4355 155.917,46.3115 156.062,46.188 156.207,46.064 156.351,45.9399 156.496,45.8159 156.641,45.6919 156.785,45.5679 156.93,45.4438 157.075,45.3203 157.219,45.1963 157.364,45.0723 157.509,44.9482 157.653,44.8242 157.798,44.7002 157.942,44.5762 158.087,44.4521 158.232,44.3286 158.376,44.2046 158.521,44.0806 158.666,43.9565 158.811,43.8325 158.955,43.7085 159.1,43.5845 159.245,43.4609 159.389,43.3369 159.534,43.2129 159.679,43.0889 159.823,42.9648 159.968,42.8408 160.113,42.7168 160.257,42.5933 160.402,42.4692 160.546,42.3452 160.691,42.2212 160.836,42.0972 160.98,41.9731 161.125,41.8491 161.27,41.7256 161.415,41.6016 161.559,41.4775 161.704,41.3535 161.849,41.2295 161.993,41.1055 162.138,40.9814 162.283,40.8574 162.427,40.7339 162.572,40.6099 162.717,40.4858 162.861,40.3618 163.006,40.2378 163.15,40.1138 163.295,39.9897 163.44,39.8662 163.584,39.7422 163.729,39.6182 163.874,39.4941 164.019,39.3701 164.163,39.2461 164.308,39.1221 164.453,38.9985 164.597,38.8745 164.742,38.7505 164.887,38.6265 165.031,38.5024 165.176,38.3784 165.321,38.2544 165.465,38.1309 165.61,38.0068 165.754,37.8828 165.899,37.7588 166.044,37.6348 166.188,37.5107 166.333,37.3867 166.478,37.2632 166.623,37.1392 166.767,37.0151 166.912,36.8911 167.057,36.7671 167.201,36.6431 167.311,36.5498" fill="none" stroke-dasharray="8,3,2,3" stroke-linejoin="round" stroke="#000000"/>
   <polyline stroke-linecap="square" stroke-width="0.5" points="76.4199,112.683 82.4199,118.683" fill="none" stroke-linejoin="miter" stroke="#000000"/>
   <polyline stroke-linecap="square" stroke-width="0.5" points="76.4199,118.683 82.4199,112.683" fill="none" stroke-linejoin="miter" stroke="#000000"/>
   <polyline stroke-linecap="square" stroke-width="0.5" points="108.123,79.8418 114.123,85.8418" fill="none" stroke-linejoin="miter" stroke="#000000"/>
   <polyline stroke-linecap="square" stroke-width="0.5" points="108.123,85.8418 114.123,79.8418" fill="none" stroke-linejoin="miter" stroke="#000000"/>
   <polyline stroke-linecap="square" stroke-width="0.5" points="46.6777,132.369 52.6777,138.369" fill="none" stroke-linejoin="miter" stroke="#000000"/>
   <polyline stroke-linecap="square" stroke-width="0.5" points="46.6777,138.369 52.6777,132.369" fill="none" stroke-linejoin="miter" stroke="#000000"/>
   <polyline stroke-linecap="butt" stroke-width="0.5" points="32.6294,153.906 32.7803,153.782 32.9312,153.658 33.082,153.534 33.2329,153.41 33.3838,153.286 33.5347,153.162 33.6855,153.038 33.8364,152.914 33.9873,152.79 34.1382,152.666 34.2891,152.542 34.4399,152.418 34.5908,152.294 34.7417,152.17 34.8926,152.046 35.0435,151.922 35.1943,151.798 35.3452,151.674 35.4961,151.55 35.647,151.426 35.7979,151.302 35.9487,151.179 36.0991,151.055 36.25,150.931 36.4009,150.807 36.5518,150.683 36.7026,150.559 36.8535,150.435 37.0044,150.311 37.1553,150.187 37.3062,150.063 37.457,149.939 37.6079,149.815 37.7588,149.691 37.9097,149.567 38.0605,149.443 38.2114,149.319 38.3623,149.195 38.5132,149.071 38.6641,148.947 38.8149,148.823 38.9658,148.699 39.1167,148.575 39.2676,148.452 39.4185,148.328 39.5693,148.204 39.7202,148.08 39.8711,147.956 40.022,147.832 40.1729,147.708 40.3232,147.584 40.4741,147.46 40.625,147.336 40.7759,147.212 40.9268,147.088 41.0776,146.964 41.2285,146.84 41.3794,146.716 41.5303,146.592 41.6812,146.468 41.832,146.344 41.9829,146.22 42.1338,146.096 42.2847,145.972 42.4355,145.849 42.5864,145.725 42.7373,145.601 42.8882,145.477 43.0391,145.353 43.1899,145.229 43.3408,145.104 43.4917,144.98 43.6426,144.857 43.7935,144.733 43.9443,144.609 44.0952,144.485 44.2461,144.361 44.3965,144.237 44.5474,144.113 44.6982,143.989 44.8491,143.865 45,143.741 45.1509,143.617 45.3018,143.493 45.4526,143.369 45.6035,143.245 45.7544,143.122 45.9053,142.998 46.0562,142.874 46.207,142.75 46.3579,142.625 46.5088,142.501 46.6597,142.377 46.8105,142.254 46.9614,142.13 47.1123,142.006 47.2632,141.882 47.4141,141.758 47.5649,141.634 47.7158,141.51 47.8667,141.386 48.0176,141.262 48.1685,141.138 48.3193,141.014 48.4697,140.89 48.6206,140.766 48.7715,140.642 48.9224,140.518 49.0732,140.395 49.2241,140.271 49.375,140.146 49.5259,140.022 49.6768,139.898 49.8276,139.774 49.9785,139.65 50.1294,139.527 50.2803,139.403 50.4312,139.279 50.582,139.155 50.7329,139.031 50.8838,138.907 51.0347,138.783 51.1855,138.659 51.3364,138.535 51.4873,138.411 51.6382,138.287 51.7891,138.163 51.9399,138.039 52.0908,137.915 52.2417,137.791 52.3926,137.667 52.5435,137.543 52.6938,137.419 52.8447,137.295 52.9956,137.171 53.1465,137.047 53.2974,136.923 53.4482,136.8 53.5991,136.676 53.75,136.552 53.9009,136.428 54.0518,136.304 54.2026,136.18 54.3535,136.056 54.5044,135.932 54.6553,135.808 54.8062,135.684 54.957,135.56 55.1079,135.436 55.2588,135.312 55.4097,135.188 55.5605,135.064 55.7114,134.94 55.8623,134.816 56.0132,134.692 56.1641,134.568 56.3149,134.444 56.4658,134.32 56.6167,134.197 56.7671,134.073 56.918,133.949 57.0688,133.825 57.2197,133.701 57.3706,133.577 57.5215,133.453 57.6724,133.329 57.8232,133.205 57.9741,133.081 58.125,132.957 58.2759,132.833 58.4268,132.709 58.5776,132.585 58.7285,132.461 58.8794,132.337 59.0303,132.213 59.1812,132.089 59.332,131.965 59.4829,131.841 59.6338,131.717 59.7847,131.593 59.9355,131.47 60.0864,131.346 60.2373,131.222 60.3882,131.098 60.5391,130.974 60.6899,130.85 60.8403,130.726 60.9912,130.602 61.1421,130.478 61.293,130.354 61.4438,130.23 61.5947,130.106 61.7456,129.982 61.8965,129.858 62.0474,129.734 62.1982,129.61 62.3491,129.486 62.5,129.362 62.6509,129.238 62.8018,129.114 62.9526,128.99 63.1035,128.866 63.2544,128.743 63.4053,128.619 63.5562,128.495 63.707,128.371 63.8579,128.247 64.0088,128.123 64.1597,127.999 64.3105,127.875 64.4614,127.751 64.6123,127.627 64.7632,127.503 64.9136,127.379 65.0645,127.255 65.2153,127.131 65.3662,127.007 65.5171,126.883 65.668,126.759 65.8188,126.635 65.9697,126.511 66.1206,126.387 66.2715,126.263 66.4224,126.139 66.5732,126.016 66.7241,125.892 66.875,125.768 67.0259,125.644 67.1768,125.52 67.3276,125.396 67.4785,125.271 67.6294,125.148 67.7803,125.024 67.9312,124.9 68.082,124.776 68.2329,124.652 68.3838,124.528 68.5347,124.404 68.6855,124.28 68.8364,124.156 68.9873,124.032 69.1377,123.908 69.2886,123.784 69.4395,123.66 69.5903,123.536 69.7412,123.413 69.8921,123.289 70.043,123.165 70.1938,123.041 70.3447,122.917 70.4956,122.792 70.6465,122.668 70.7974,122.544 70.9482,122.421 71.0991,122.297 71.25,122.173 71.4009,122.049 71.5518,121.925 71.7026,121.801 71.8535,121.677 72.0044,121.553 72.1553,121.429 72.3062,121.305 72.457,121.181 72.6079,121.057 72.7588,120.933 72.9097,120.809 73.0605,120.686 73.2109,120.562 73.3618,120.438 73.5127,120.313 73.6636,120.189 73.8145,120.065 73.9653,119.941 74.1162,119.818 74.2671,119.694 74.418,119.57 74.5688,119.446 74.7197,119.322 74.8706,119.198 75.0215,119.074 75.1724,118.95 75.3232,118.826 75.4741,118.702 75.625,118.578 75.7759,118.454 75.9268,118.33 76.0776,118.206 76.2285,118.082 76.3794,117.958 76.5303,117.834 76.6812,117.71 76.832,117.586 76.9829,117.462 77.1338,117.338 77.2842,117.214 77.4351,117.091 77.5859,116.967 77.7368,116.843 77.8877,116.719 78.0386,116.595 78.1895,116.471 78.3403,116.347 78.4912,116.223 78.6421,116.099 78.793,115.975 78.9438,115.851 79.0947,115.727 79.2456,115.603 79.3965,115.479 79.5474,115.355 79.6982,115.231 79.8491,115.107 80,114.983 80.1509,114.859 80.3018,114.735 80.4526,114.611 80.6035,114.487 80.7544,114.364 80.9053,114.24 81.0562,114.116 81.207,113.992 81.3579,113.868 81.5083,113.744 81.6592,113.62 81.8101,113.496 81.9609,113.372 82.1118,113.248 82.2627,113.124 82.4136,113 82.5645,112.876 82.7153,112.752 82.8662,112.628 83.0171,112.504 83.168,112.38 83.3188,112.256 83.4697,112.132 83.6206,112.008 83.7715,111.884 83.9224,111.76 84.0732,111.637 84.2241,111.513 84.375,111.389 84.5259,111.265 84.6768,111.141 84.8276,111.017 84.9785,110.893 85.1294,110.769 85.2803,110.645 85.4312,110.521 85.5815,110.397 85.7324,110.273 85.8833,110.149 86.0342,110.025 86.1851,109.901 86.3359,109.777 86.4868,109.653 86.6377,109.529 86.7886,109.405 86.9395,109.281 87.0903,109.157 87.2412,109.034 87.3921,108.91 87.543,108.786 87.6938,108.662 87.8447,108.538 87.9956,108.414 88.1465,108.29 88.2974,108.166 88.4482,108.042 88.5991,107.918 88.75,107.794 88.9009,107.67 89.0518,107.546 89.2026,107.422 89.3535,107.298 89.5044,107.174 89.6548,107.05 89.8057,106.926 89.9565,106.802 90.1074,106.678 90.2583,106.554 90.4092,106.43 90.5601,106.307 90.7109,106.183 90.8618,106.059 91.0127,105.935 91.1636,105.811 91.3145,105.687 91.4653,105.562 91.6162,105.439 91.7671,105.315 91.918,105.191 92.0688,105.067 92.2197,104.943 92.3706,104.819 92.5215,104.695 92.6724,104.571 92.8232,104.447 92.9741,104.323 93.125,104.199 93.2759,104.075 93.4268,103.951 93.5776,103.827 93.7285,103.703 93.8789,103.58 94.0298,103.456 94.1807,103.332 94.3315,103.208 94.4824,103.083 94.6333,102.959 94.7842,102.835 94.9351,102.712 95.0859,102.588 95.2368,102.464 95.3877,102.34 95.5386,102.216 95.6895,102.092 95.8403,101.968 95.9912,101.844 96.1421,101.72 96.293,101.596 96.4438,101.472 96.5947,101.348 96.7456,101.224 96.8965,101.1 97.0474,100.977 97.1982,100.853 97.3491,100.729 97.5,100.604 97.6509,100.48 97.8018,100.356 97.9521,100.232 98.103,100.108 98.2539,99.9849 98.4048,99.8608 98.5557,99.7368 98.7065,99.6128 98.8574,99.4888 99.0083,99.3647 99.1592,99.2407 99.3101,99.1172 99.4609,98.9932 99.6118,98.8691 99.7627,98.7451 99.9136,98.6211 100.064,98.4971 100.215,98.373 100.366,98.2495 100.517,98.1255 100.668,98.0015 100.819,97.8774 100.97,97.7534 101.121,97.6294 101.271,97.5054 101.422,97.3818 101.573,97.2578 101.724,97.1338 101.875,97.0098 102.025,96.8857 102.176,96.7617 102.327,96.6377 102.478,96.5137 102.629,96.3901 102.78,96.2661 102.931,96.1421 103.082,96.0181 103.232,95.894 103.383,95.77 103.534,95.646 103.685,95.5225 103.836,95.3984 103.987,95.2744 104.138,95.1504 104.289,95.0264 104.439,94.9023 104.59,94.7783 104.741,94.6548 104.892,94.5308 105.043,94.4067 105.194,94.2827 105.345,94.1587 105.496,94.0347 105.646,93.9106 105.797,93.7871 105.948,93.6631 106.099,93.5391 106.25,93.415 106.4,93.291 106.551,93.167 106.702,93.043 106.853,92.9189 107.004,92.7954 107.155,92.6714 107.306,92.5474 107.457,92.4233 107.607,92.2993 107.758,92.1753 107.909,92.0513 108.06,91.9277 108.211,91.8037 108.362,91.6797 108.513,91.5557 108.664,91.4316 108.814,91.3076 108.965,91.1836 109.116,91.0601 109.267,90.936 109.418,90.812 109.569,90.688 109.72,90.564 109.871,90.4399 110.021,90.3159 110.172,90.1924 110.323,90.0684 110.474,89.9443 110.625,89.8203 110.775,89.6963 110.926,89.5723 111.077,89.4482 111.228,89.3242 111.379,89.2007 111.53,89.0767 111.681,88.9526 111.832,88.8286 111.982,88.7046 112.133,88.5806 112.284,88.4565 112.435,88.333 112.586,88.209 112.737,88.085 112.888,87.9609 113.039,87.8369 113.189,87.7129 113.34,87.5889 113.491,87.4653 113.642,87.3413 113.793,87.2173 113.944,87.0933 114.095,86.9692 114.246,86.8452 114.396,86.7212 114.547,86.5977 114.698,86.4736 114.849,86.3496 115,86.2256 115.15,86.1016 115.301,85.9775 115.452,85.8535 115.603,85.73 115.754,85.606 115.905,85.4819 116.056,85.3579 116.207,85.2339 116.357,85.1099 116.508,84.9858 116.659,84.8618 116.81,84.7383 116.961,84.6143 117.112,84.4902 117.263,84.3662 117.414,84.2422 117.564,84.1182 117.715,83.9941 117.866,83.8706 118.017,83.7466 118.168,83.6226 118.319,83.4985 118.469,83.3745 118.62,83.2505 118.771,83.1265 118.922,83.0029 119.073,82.8789 119.224,82.7549 119.375,82.6309 119.525,82.5068 119.676,82.3828 119.827,82.2588 119.978,82.1353 120.129,82.0112 120.28,81.8872 120.431,81.7632 120.582,81.6392 120.732,81.5151 120.883,81.3911 121.034,81.2671 121.185,81.1436 121.336,81.0195 121.487,80.8955 121.638,80.7715 121.789,80.6475 121.939,80.5234 122.09,80.3994 122.241,80.2759 122.392,80.1519 122.542,80.0278 122.693,79.9038 122.844,79.7798 122.995,79.6558 123.146,79.5317 123.297,79.4082 123.448,79.2842 123.599,79.1602 123.75,79.0361 123.9,78.9121 124.051,78.7881 124.202,78.6641 124.353,78.5405 124.504,78.4165 124.655,78.2925 124.806,78.1685 124.957,78.0444 125.107,77.9204 125.258,77.7964 125.409,77.6724 125.56,77.5488 125.711,77.4248 125.862,77.3008 126.013,77.1768 126.164,77.0527 126.314,76.9287 126.465,76.8047 126.616,76.6812 126.767,76.5571 126.917,76.4331 127.068,76.3091 127.219,76.1851 127.37,76.061 127.521,75.937 127.672,75.8135 127.823,75.6895 127.974,75.5654 128.125,75.4414 128.275,75.3174 128.426,75.1934 128.577,75.0693 128.728,74.9458 128.879,74.8218 129.03,74.6978 129.181,74.5737 129.332,74.4497 129.482,74.3257 129.633,74.2017 129.784,74.0776 129.935,73.9541 130.086,73.8301 130.237,73.7061 130.388,73.582 130.539,73.458 130.689,73.334 130.84,73.21 130.991,73.0864 131.142,72.9624 131.292,72.8384 131.443,72.7144 131.594,72.5903 131.745,72.4663 131.896,72.3423 132.047,72.2188 132.198,72.0947 132.349,71.9707 132.5,71.8467 132.65,71.7227 132.801,71.5986 132.952,71.4746 133.103,71.3511 133.254,71.2271 133.405,71.103 133.556,70.979 133.707,70.855 133.857,70.731 134.008,70.6069 134.159,70.4829 134.31,70.3594 134.461,70.2354 134.612,70.1113 134.763,69.9873 134.913,69.8633 135.064,69.7393 135.215,69.6152 135.366,69.4917 135.517,69.3677 135.667,69.2437 135.818,69.1196 135.969,68.9956 136.12,68.8716 136.271,68.7476 136.422,68.624 136.573,68.5 136.724,68.376 136.875,68.252 137.025,68.1279 137.176,68.0039 137.327,67.8799 137.478,67.7563 137.629,67.6323 137.78,67.5083 137.931,67.3843 138.082,67.2603 138.232,67.1362 138.383,67.0122 138.534,66.8882 138.685,66.7646 138.836,66.6406 138.987,66.5166 139.137,66.3926 139.288,66.2686 139.439,66.1445 139.59,66.0205 139.741,65.897 139.892,65.7729 140.042,65.6489 140.193,65.5249 140.344,65.4009 140.495,65.2769 140.646,65.1528 140.797,65.0293 140.948,64.9053 141.099,64.7812 141.25,64.6572 141.4,64.5332 141.551,64.4092 141.702,64.2852 141.853,64.1616 142.004,64.0376 142.155,63.9136 142.306,63.7896 142.457,63.6655 142.607,63.5415 142.758,63.4175 142.909,63.2935 143.06,63.1699 143.21,63.0459 143.361,62.9219 143.512,62.7979 143.663,62.6738 143.814,62.5498 143.965,62.4258 144.116,62.3022 144.267,62.1782 144.417,62.0542 144.568,61.9302 144.719,61.8062 144.87,61.6821 145.021,61.5581 145.172,61.4346 145.323,61.3105 145.474,61.1865 145.625,61.0625 145.775,60.9385 145.926,60.8145 146.077,60.6904 146.228,60.5669 146.379,60.4429 146.53,60.3188 146.681,60.1948 146.832,60.0708 146.982,59.9468 147.133,59.8228 147.284,59.6987 147.435,59.5752 147.585,59.4512 147.736,59.3271 147.887,59.2031 148.038,59.0791 148.189,58.9551 148.34,58.8311 148.491,58.7075 148.642,58.5835 148.792,58.4595 148.943,58.3354 149.094,58.2114 149.245,58.0874 149.396,57.9634 149.547,57.8398 149.698,57.7158 149.849,57.5918 150,57.4678 150.15,57.3438 150.301,57.2197 150.452,57.0957 150.603,56.9722 150.754,56.8481 150.905,56.7241 151.056,56.6001 151.207,56.4761 151.357,56.3521 151.508,56.228 151.659,56.1045 151.81,55.9805 151.96,55.8564 152.111,55.7324 152.262,55.6084 152.413,55.4844 152.564,55.3604 152.715,55.2363 152.866,55.1128 153.017,54.9888 153.167,54.8647 153.318,54.7407 153.469,54.6167 153.62,54.4927 153.771,54.3687 153.922,54.2451 154.073,54.1211 154.224,53.9971 154.375,53.873 154.525,53.749 154.676,53.625 154.827,53.501 154.978,53.3774 155.129,53.2534 155.28,53.1294 155.431,53.0054 155.581,52.8813 155.732,52.7573 155.883,52.6333 156.034,52.5098 156.185,52.3857 156.335,52.2617 156.486,52.1377 156.637,52.0137 156.788,51.8896 156.939,51.7656 157.09,51.6416 157.241,51.5181 157.392,51.394 157.542,51.27 157.693,51.146 157.844,51.022 157.995,50.8979 158.146,50.7739 158.297,50.6504 158.448,50.5264 158.599,50.4023 158.75,50.2783 158.9,50.1543 159.051,50.0303 159.202,49.9062 159.353,49.7827 159.504,49.6587 159.654,49.5347 159.805,49.4106 159.956,49.2866 160.107,49.1626 160.258,49.0386 160.409,48.915 160.56,48.791 160.71,48.667 160.861,48.543 161.012,48.4189 161.163,48.2949 161.314,48.1709 161.465,48.0469 161.616,47.9233 161.767,47.7993 161.917,47.6753 162.068,47.5513 162.219,47.4272 162.37,47.3032 162.521,47.1792 162.672,47.0557 162.823,46.9316 162.974,46.8076 163.125,46.6836 163.275,46.5596 163.426,46.4355 163.577,46.3115 163.728,46.188 163.878,46.064 164.029,45.9399 164.18,45.8159 164.331,45.6919 164.482,45.5679 164.633,45.4438 164.784,45.3203 164.935,45.1963 165.085,45.0723 165.236,44.9482 165.387,44.8242 165.538,44.7002 165.689,44.5762 165.84,44.4521 165.991,44.3286 166.142,44.2046 166.292,44.0806 166.443,43.9565 166.594,43.8325 166.745,43.7085 166.896,43.5845 167.047,43.4609 167.198,43.3369 167.311,43.2441" fill="none" stroke-linejoin="round" stroke="#000000"/>
   <polyline stroke-linecap="square" stroke-width="0.5" points="43.2788,144.38 49.2788,144.38" fill="none" stroke-linejoin="miter" stroke="#000000"/>
   <polyline stroke-linecap="square" stroke-width="0.5" points="46.2788,141.38 46.2788,147.38" fill="none" stroke-linejoin="miter" stroke="#000000"/>
   <polyline stroke-linecap="square" stroke-width="0.5" points="44.1577,142.259 48.4004,146.501" fill="none" stroke-linejoin="miter" stroke="#000000"/>
   <polyline stroke-linecap="square" stroke-width="0.5" points="44.1577,146.501 48.4004,142.259" fill="none" stroke-linejoin="miter" stroke="#000000"/>
   <polyline stroke-linecap="square" stroke-width="0.5" points="100.111,95.6636 106.111,95.6636" fill="none" stroke-linejoin="miter" stroke="#000000"/>
   <polyline stroke-linecap="square" stroke-width="0.5" points="103.111,92.6636 103.111,98.6636" fill="none" stroke-linejoin="miter" stroke="#000000"/>
   <polyline stroke-linecap="square" stroke-width="0.5" points="100.99,93.5425 105.233,97.7852" fill="none" stroke-linejoin="miter" stroke="#000000"/>
   <polyline stroke-linecap="square" stroke-width="0.5" points="100.99,97.7852 105.233,93.5425" fill="none" stroke-linejoin="miter" stroke="#000000"/>
   <polyline stroke-linecap="square" stroke-width="0.5" points="29.4839,152.666 35.4839,152.666" fill="none" stroke-linejoin="miter" stroke="#000000"/>
   <polyline stroke-linecap="square" stroke-width="0.5" points="32.4839,149.666 32.4839,155.666" fill="none" stroke-linejoin="miter" stroke="#000000"/>
   <polyline stroke-linecap="square" stroke-width="0.5" points="30.3623,150.544 34.605,154.787" fill="none" stroke-linejoin="miter" stroke="#000000"/>
   <polyline stroke-linecap="square" stroke-width="0.5" points="30.3623,154.787 34.605,150.544" fill="none" stroke-linejoin="miter" stroke="#000000"/>
   <polyline stroke-linecap="butt" stroke-width="0.3" points="79.4199,153.906 79.4199,30.0737" fill="none" stroke-dasharray="1,3,1,3,1,3,1,3" stroke-linejoin="round" stroke="#000000"/>
   <g xml:space="preserve" transform="translate(72.4201,39.9463) rotate(-90,7,-7)" font-style="normal" font-size="8" font-family="'Liberation Serif'" font-weight="normal">
    <text y="-0" fill="rgb(0,0,0)" x="0 3 ">f2</text>
   </g>
   <polyline stroke-linecap="butt" stroke-width="0.3" points="111.123,153.906 111.123,30.0737" fill="none" stroke-dasharray="1,3,1,3,1,3,1,3" stroke-linejoin="round" stroke="#000000"/>
   <g xml:space="preserve" transform="translate(104.123,39.9463) rotate(-90,7,-7)" font-style="normal" font-size="8" font-family="'Liberation Serif'" font-weight="normal">
    <text y="-0" fill="rgb(0,0,0)" x="0 3 ">f3</text>
   </g>
   <polyline stroke-linecap="butt" stroke-width="0.3" points="49.6777,153.906 49.6777,30.0737" fill="none" stroke-dasharray="1,3,1,3,1,3,1,3" stroke-linejoin="round" stroke="#000000"/>
   <g xml:space="preserve" transform="translate(42.6775,39.9463) rotate(-90,7,-7)" font-style="normal" font-size="8" font-family="'Liberation Serif'" font-weight="normal">
    <text y="-0" fill="rgb(0,0,0)" x="0 3 ">f1</text>
   </g>
   <polyline stroke-linecap="butt" stroke-width="0.5" points="46.2788,153.906 46.2788,30.0737" fill="none" stroke-dasharray="1,3,1,3,1,3,1,3" stroke-linejoin="round" stroke="#000000"/>
   <g xml:space="preserve" transform="translate(38.279,52.0422) rotate(-90,8,-7)" font-style="normal" font-size="8" font-family="'Liberation Serif'" font-weight="normal">
    <text y="-0" fill="rgb(0,0,0)" x="0 4 ">a2</text>
   </g>
   <polyline stroke-linecap="butt" stroke-width="0.5" points="103.111,153.906 103.111,30.0737" fill="none" stroke-dasharray="1,3,1,3,1,3,1,3" stroke-linejoin="round" stroke="#000000"/>
   <g xml:space="preserve" transform="translate(95.1114,52.0422) rotate(-90,8,-7)" font-style="normal" font-size="8" font-family="'Liberation Serif'" font-weight="normal">
    <text y="-0" fill="rgb(0,0,0)" x="0 4 ">a3</text>
   </g>
   <polyline stroke-linecap="butt" stroke-width="0.5" points="32.4839,153.906 32.4839,30.0737" fill="none" stroke-dasharray="1,3,1,3,1,3,1,3" stroke-linejoin="round" stroke="#000000"/>
   <g xml:space="preserve" transform="translate(24.4838,52.0422) rotate(-90,8,-7)" font-style="normal" font-size="8" font-family="'Liberation Serif'" font-weight="normal">
    <text y="-0" fill="rgb(0,0,0)" x="0 4 ">a1</text>
   </g>
   <g xml:space="preserve" transform="translate(55.3287,148.334) rotate(-0,-0,-3.5)" font-style="normal" font-size="8" font-family="'Liberation Serif'" font-weight="normal">
    <text y="-0" fill="rgb(0,0,0)" x="0 6 11 17 21 25 28 34 40 43 50 56 61 65 69 72 76 80 ">UCASS-AD-MAZ04-009</text>
   </g>
  </g>
  <clipPath id="cp00176176">
   <polygon points="0,176 176,176 176,0 0,0"/>
  </clipPath>
  <g clip-path="url(#cp00176176)">
   <polyline stroke-linecap="butt" stroke-width="0.5" points="30.0732,30.0737 30.0732,31.4429" fill="none" stroke-linejoin="miter" stroke="#262626"/>
   <polyline stroke-linecap="butt" stroke-width="0.5" points="95.0156,30.0737 95.0156,31.4429" fill="none" stroke-linejoin="miter" stroke="#262626"/>
   <polyline stroke-linecap="butt" stroke-width="0.5" points="123.878,30.0737 123.878,31.4429" fill="none" stroke-linejoin="miter" stroke="#262626"/>
   <polyline stroke-linecap="butt" stroke-width="0.5" points="152.742,30.0737 152.742,31.4429" fill="none" stroke-linejoin="miter" stroke="#262626"/>
   <g xml:space="preserve" transform="translate(28.5735,25.5796) rotate(-0,1.5,0)" font-style="normal" font-size="6" font-family="'Liberation Serif'" font-weight="normal">
    <text y="-1" fill="rgb(38,38,38)" x="0 ">0</text>
   </g>
   <g xml:space="preserve" transform="translate(93.5155,25.5796) rotate(-0,1.5,0)" font-style="normal" font-size="6" font-family="'Liberation Serif'" font-weight="normal">
    <text y="-1" fill="rgb(38,38,38)" x="0 ">9</text>
   </g>
   <g xml:space="preserve" transform="translate(120.879,25.5796) rotate(-0,3,0)" font-style="normal" font-size="6" font-family="'Liberation Serif'" font-weight="normal">
    <text y="-1" fill="rgb(38,38,38)" x="0 3 ">13</text>
   </g>
   <g xml:space="preserve" transform="translate(149.742,25.5796) rotate(-0,3,0)" font-style="normal" font-size="6" font-family="'Liberation Serif'" font-weight="normal">
    <text y="-0" fill="rgb(38,38,38)" x="0 3 ">17</text>
   </g>
   <polyline stroke-linecap="square" stroke-width="0.5" points="167.173,30.0737 30.0732,30.0737" fill="none" stroke-dasharray="16,0" stroke-linejoin="miter" stroke="#262626"/>
   <polyline stroke-linecap="square" stroke-width="0.5" points="167.173,30.0737 167.173,153.906" fill="none" stroke-dasharray="16,0" stroke-linejoin="miter" stroke="#262626"/>
  </g>
 </g>
</svg>
