<?xml version='1.0' encoding='UTF-8' standalone='no'?>
<svg width="176pt" viewBox="0 0 176 176" xmlns:xlink="http://www.w3.org/1999/xlink" xmlns="http://www.w3.org/2000/svg" height="176pt">
 <title>Figure 7</title>
 <desc>
Creator: GL2PS 1.4.2, (C) 1999-2020 C. Geuzaine
For: Octave
CreationDate: Wed Feb 14 10:31:10 2024
</desc>
 <defs/>
 <polygon points="0,0 176,0 176,176 0,176" fill="#ffffff"/>
 <g>
  <polygon points="0,176 176,176 176,0 0,0" fill="#ffffff" shape-rendering="crispEdges"/>
  <clipPath id="cp00176176">
   <polygon points="0,176 176,176 176,0 0,0"/>
  </clipPath>
  <g clip-path="url(#cp00176176)">
   <polygon points="30.0732,153.906 167.173,153.906 167.173,30.0737 30.0732,30.0737" fill="#ffffff" shape-rendering="crispEdges"/>
   <polyline points="30.0732,153.906 30.0732,152.537" stroke-linecap="butt" stroke="#262626" stroke-width="0.5" stroke-linejoin="miter" fill="none"/>
   <polyline points="66.1523,153.906 66.1523,152.537" stroke-linecap="butt" stroke="#262626" stroke-width="0.5" stroke-linejoin="miter" fill="none"/>
   <polyline points="102.231,153.906 102.231,152.537" stroke-linecap="butt" stroke="#262626" stroke-width="0.5" stroke-linejoin="miter" fill="none"/>
   <polyline points="138.31,153.906 138.31,152.537" stroke-linecap="butt" stroke="#262626" stroke-width="0.5" stroke-linejoin="miter" fill="none"/>
   <g xml:space="preserve" font-family="'Liberation Serif'" font-weight="normal" transform="translate(28.5735,163.399) rotate(-0,1.5,-5)" font-style="normal" font-size="6">
    <text x="0 " y="-1" fill="rgb(38,38,38)">0</text>
   </g>
   <g xml:space="preserve" font-family="'Liberation Serif'" font-weight="normal" transform="translate(59.1524,163.399) rotate(-0,7,-5)" font-style="normal" font-size="6">
    <text x="0 3 6 8 11 " y="-1" fill="rgb(38,38,38)">5e-05</text>
   </g>
   <g xml:space="preserve" font-family="'Liberation Serif'" font-weight="normal" transform="translate(93.7313,163.399) rotate(-0,8.5,-5)" font-style="normal" font-size="6">
    <text x="0 3 5 8 11 14 " y="-1" fill="rgb(38,38,38)">0.0001</text>
   </g>
   <g xml:space="preserve" font-family="'Liberation Serif'" font-weight="normal" transform="translate(128.31,163.399) rotate(-0,10,-5)" font-style="normal" font-size="6">
    <text x="0 3 5 8 11 14 17 " y="-1" fill="rgb(38,38,38)">0.00015</text>
   </g>
   <polyline points="30.0732,153.906 31.4453,153.906" stroke-linecap="butt" stroke="#262626" stroke-width="0.5" stroke-linejoin="miter" fill="none"/>
   <polyline points="30.0732,123.666 31.4453,123.666" stroke-linecap="butt" stroke="#262626" stroke-width="0.5" stroke-linejoin="miter" fill="none"/>
   <polyline points="30.0732,93.4258 31.4453,93.4258" stroke-linecap="butt" stroke="#262626" stroke-width="0.5" stroke-linejoin="miter" fill="none"/>
   <polyline points="30.0732,63.186 31.4453,63.186" stroke-linecap="butt" stroke="#262626" stroke-width="0.5" stroke-linejoin="miter" fill="none"/>
   <polyline points="30.0732,32.9463 31.4453,32.9463" stroke-linecap="butt" stroke="#262626" stroke-width="0.5" stroke-linejoin="miter" fill="none"/>
   <g xml:space="preserve" font-family="'Liberation Serif'" font-weight="normal" transform="translate(24.0713,156.406) rotate(-0,3,-2.5)" font-style="normal" font-size="6">
    <text x="0 " y="-1" fill="rgb(38,38,38)">0</text>
   </g>
   <g xml:space="preserve" font-family="'Liberation Serif'" font-weight="normal" transform="translate(15.0713,126.166) rotate(-0,12,-2.5)" font-style="normal" font-size="6">
    <text x="0 3 6 9 " y="-1" fill="rgb(38,38,38)">1000</text>
   </g>
   <g xml:space="preserve" font-family="'Liberation Serif'" font-weight="normal" transform="translate(15.0713,95.9259) rotate(-0,12,-2.5)" font-style="normal" font-size="6">
    <text x="0 3 6 9 " y="-1" fill="rgb(38,38,38)">2000</text>
   </g>
   <g xml:space="preserve" font-family="'Liberation Serif'" font-weight="normal" transform="translate(15.0713,65.6861) rotate(-0,12,-2.5)" font-style="normal" font-size="6">
    <text x="0 3 6 9 " y="-1" fill="rgb(38,38,38)">3000</text>
   </g>
   <g xml:space="preserve" font-family="'Liberation Serif'" font-weight="normal" transform="translate(15.0713,35.4463) rotate(-0,12,-2.5)" font-style="normal" font-size="6">
    <text x="0 3 6 9 " y="-1" fill="rgb(38,38,38)">4000</text>
   </g>
   <polyline points="30.0732,153.906 167.173,153.906" stroke-linecap="square" stroke="#262626" stroke-width="0.5" stroke-linejoin="miter" stroke-dasharray="16,0" fill="none"/>
   <polyline points="30.0732,153.906 30.0732,30.0737" stroke-linecap="square" stroke="#262626" stroke-width="0.5" stroke-linejoin="miter" stroke-dasharray="16,0" fill="none"/>
   <polyline points="30.0732,153.906 30.2231,153.75 30.3726,153.595 30.522,153.439 30.6714,153.284 30.8208,153.129 30.9702,152.974 31.1196,152.818 31.2695,152.663 31.4189,152.508 31.5684,152.353 31.7178,152.197 31.8672,152.042 32.0166,151.887 32.166,151.731 32.3154,151.576 32.4653,151.42 32.6147,151.265 32.7642,151.11 32.9136,150.955 33.063,150.799 33.2124,150.644 33.3618,150.489 33.5112,150.333 33.6611,150.178 33.8105,150.023 33.96,149.868 34.1094,149.712 34.2588,149.557 34.4082,149.401 34.5576,149.246 34.707,149.091 34.8569,148.936 35.0063,148.78 35.1558,148.625 35.3052,148.47 35.4546,148.314 35.604,148.159 35.7534,148.004 35.9028,147.849 36.0527,147.693 36.2021,147.538 36.3516,147.382 36.501,147.227 36.6504,147.072 36.7998,146.917 36.9492,146.761 37.0986,146.606 37.2485,146.451 37.3979,146.295 37.5474,146.14 37.6968,145.985 37.8462,145.83 37.9956,145.674 38.145,145.519 38.2944,145.363 38.4443,145.208 38.5938,145.053 38.7432,144.897 38.8926,144.742 39.042,144.587 39.1914,144.432 39.3408,144.276 39.4902,144.121 39.6401,143.966 39.7896,143.811 39.939,143.655 40.0884,143.5 40.2378,143.344 40.3872,143.189 40.5366,143.034 40.686,142.878 40.8359,142.723 40.9854,142.568 41.1348,142.413 41.2842,142.257 41.4336,142.102 41.583,141.947 41.7324,141.792 41.8818,141.636 42.0317,141.48 42.1812,141.325 42.3306,141.17 42.48,141.015 42.6294,140.859 42.7788,140.704 42.9282,140.549 43.0776,140.394 43.2275,140.238 43.377,140.083 43.5264,139.928 43.6758,139.772 43.8252,139.617 43.9746,139.461 44.124,139.306 44.2734,139.151 44.4233,138.996 44.5728,138.84 44.7222,138.685 44.8716,138.53 45.021,138.375 45.1704,138.219 45.3198,138.064 45.4692,137.909 45.6191,137.753 45.7686,137.598 45.918,137.442 46.0674,137.287 46.2168,137.132 46.3662,136.977 46.5156,136.821 46.665,136.666 46.8149,136.511 46.9644,136.355 47.1138,136.2 47.2632,136.045 47.4126,135.89 47.562,135.734 47.7114,135.579 47.8608,135.423 48.0107,135.268 48.1602,135.113 48.3096,134.958 48.459,134.802 48.6084,134.647 48.7578,134.492 48.9072,134.336 49.0566,134.181 49.2065,134.026 49.356,133.871 49.5054,133.715 49.6548,133.56 49.8042,133.404 49.9536,133.249 50.103,133.094 50.2529,132.938 50.4023,132.783 50.5518,132.628 50.7012,132.473 50.8506,132.317 51,132.162 51.1494,132.007 51.2988,131.852 51.4487,131.696 51.5981,131.541 51.7476,131.385 51.897,131.23 52.0464,131.075 52.1958,130.919 52.3452,130.764 52.4946,130.609 52.6445,130.454 52.7939,130.298 52.9434,130.143 53.0928,129.988 53.2422,129.833 53.3916,129.677 53.541,129.522 53.6904,129.366 53.8403,129.211 53.9897,129.056 54.1392,128.9 54.2886,128.745 54.438,128.59 54.5874,128.435 54.7368,128.279 54.8862,128.124 55.0361,127.969 55.1855,127.813 55.335,127.658 55.4844,127.503 55.6338,127.347 55.7832,127.192 55.9326,127.037 56.082,126.881 56.2319,126.726 56.3813,126.571 56.5308,126.416 56.6802,126.26 56.8296,126.105 56.979,125.95 57.1284,125.794 57.2778,125.639 57.4277,125.484 57.5771,125.328 57.7266,125.173 57.876,125.018 58.0254,124.862 58.1748,124.707 58.3242,124.552 58.4736,124.396 58.6235,124.241 58.7729,124.086 58.9224,123.931 59.0718,123.775 59.2212,123.62 59.3706,123.465 59.52,123.309 59.6694,123.154 59.8193,122.999 59.9688,122.843 60.1182,122.688 60.2676,122.533 60.417,122.377 60.5664,122.222 60.7158,122.067 60.8652,121.912 61.0151,121.756 61.1646,121.601 61.314,121.446 61.4634,121.29 61.6128,121.135 61.7622,120.979 61.9116,120.824 62.061,120.669 62.2109,120.514 62.3604,120.358 62.5098,120.203 62.6592,120.048 62.8086,119.893 62.958,119.737 63.1074,119.582 63.2568,119.427 63.4067,119.271 63.5562,119.116 63.7056,118.96 63.855,118.805 64.0044,118.65 64.1538,118.495 64.3032,118.339 64.4526,118.184 64.6025,118.029 64.752,117.874 64.9014,117.718 65.0508,117.563 65.2002,117.408 65.3496,117.252 65.499,117.097 65.6484,116.941 65.7983,116.786 65.9478,116.631 66.0972,116.476 66.2466,116.32 66.396,116.165 66.5454,116.01 66.6948,115.854 66.8442,115.699 66.9941,115.544 67.1436,115.389 67.293,115.233 67.4424,115.078 67.5918,114.922 67.7412,114.767 67.8906,114.612 68.04,114.457 68.1899,114.301 68.3394,114.146 68.4888,113.991 68.6382,113.835 68.7876,113.68 68.937,113.525 69.0864,113.37 69.2358,113.214 69.3857,113.059 69.5352,112.903 69.6846,112.748 69.834,112.593 69.9834,112.438 70.1328,112.282 70.2822,112.127 70.4321,111.972 70.5815,111.816 70.731,111.661 70.8804,111.506 71.0298,111.351 71.1792,111.195 71.3286,111.04 71.478,110.884 71.6279,110.729 71.7773,110.574 71.9268,110.418 72.0762,110.263 72.2256,110.108 72.375,109.953 72.5244,109.797 72.6738,109.642 72.8237,109.487 72.9731,109.332 73.1226,109.176 73.272,109.021 73.4214,108.865 73.5708,108.71 73.7202,108.555 73.8696,108.399 74.0195,108.244 74.1689,108.089 74.3184,107.934 74.4678,107.778 74.6172,107.623 74.7666,107.468 74.916,107.312 75.0654,107.157 75.2153,107.001 75.3647,106.846 75.5142,106.691 75.6636,106.536 75.813,106.38 75.9624,106.225 76.1118,106.07 76.2612,105.915 76.4111,105.759 76.5605,105.604 76.71,105.449 76.8594,105.293 77.0088,105.138 77.1582,104.982 77.3076,104.827 77.457,104.672 77.6069,104.517 77.7563,104.361 77.9058,104.206 78.0552,104.051 78.2046,103.896 78.354,103.74 78.5034,103.585 78.6528,103.43 78.8027,103.274 78.9521,103.119 79.1016,102.963 79.251,102.808 79.4004,102.653 79.5498,102.498 79.6992,102.342 79.8486,102.187 79.9985,102.032 80.1479,101.876 80.2974,101.721 80.4468,101.566 80.5962,101.411 80.7456,101.255 80.895,101.1 81.0444,100.944 81.1943,100.789 81.3438,100.634 81.4932,100.479 81.6426,100.323 81.792,100.168 81.9414,100.013 82.0908,99.8574 82.2402,99.7021 82.3901,99.5469 82.5396,99.3916 82.689,99.2363 82.8384,99.0811 82.9878,98.9253 83.1372,98.77 83.2866,98.6147 83.436,98.4595 83.5859,98.3042 83.7354,98.1489 83.8848,97.9937 84.0342,97.8384 84.1836,97.6831 84.333,97.5278 84.4824,97.3726 84.6318,97.2173 84.7817,97.062 84.9312,96.9062 85.0806,96.751 85.23,96.5957 85.3794,96.4404 85.5288,96.2852 85.6782,96.1299 85.8276,95.9746 85.9775,95.8193 86.127,95.6641 86.2764,95.5088 86.4258,95.3535 86.5752,95.1982 86.7246,95.043 86.874,94.8872 87.0234,94.7319 87.1733,94.5767 87.3228,94.4214 87.4722,94.2661 87.6216,94.1108 87.771,93.9556 87.9204,93.8003 88.0698,93.645 88.2192,93.4897 88.3691,93.3345 88.5186,93.1792 88.668,93.0239 88.8174,92.8682 88.9668,92.7129 89.1162,92.5576 89.2656,92.4023 89.415,92.2471 89.5649,92.0918 89.7144,91.9365 89.8638,91.7812 90.0132,91.626 90.1626,91.4707 90.312,91.3154 90.4614,91.1602 90.6108,91.0049 90.7607,90.8491 90.9102,90.6938 91.0596,90.5386 91.209,90.3833 91.3584,90.228 91.5078,90.0728 91.6572,89.9175 91.8071,89.7622 91.9565,89.6069 92.106,89.4517 92.2554,89.2964 92.4048,89.1411 92.5542,88.9858 92.7036,88.8301 92.853,88.6748 93.0029,88.5195 93.1523,88.3643 93.3018,88.209 93.4512,88.0537 93.6006,87.8984 93.75,87.7432 93.8994,87.5879 94.0488,87.4326 94.1987,87.2773 94.3481,87.1221 94.4976,86.9668 94.647,86.811 94.7964,86.6558 94.9458,86.5005 95.0952,86.3452 95.2446,86.1899 95.3945,86.0347 95.5439,85.8794 95.6934,85.7241 95.8428,85.5688 95.9922,85.4136 96.1416,85.2583 96.291,85.103 96.4404,84.9478 96.5903,84.7925 96.7397,84.6367 96.8892,84.4814 97.0386,84.3262 97.188,84.1709 97.3374,84.0156 97.4868,83.8604 97.6362,83.7051 97.7861,83.5498 97.9355,83.3945 98.085,83.2393 98.2344,83.084 98.3838,82.9287 98.5332,82.7734 98.6826,82.6177 98.832,82.4624 98.9819,82.3071 99.1313,82.1519 99.2808,81.9966 99.4302,81.8413 99.5796,81.686 99.729,81.5308 99.8784,81.3755 100.028,81.2202 100.178,81.0649 100.327,80.9097 100.477,80.7544 100.626,80.5986 100.775,80.4434 100.925,80.2881 101.074,80.1328 101.224,79.9775 101.374,79.8223 101.523,79.667 101.672,79.5117 101.822,79.3564 101.971,79.2012 102.121,79.0459 102.27,78.8906 102.419,78.7354 102.569,78.5796 102.719,78.4243 102.868,78.269 103.018,78.1138 103.167,77.9585 103.316,77.8032 103.466,77.6479 103.615,77.4927 103.765,77.3374 103.915,77.1821 104.064,77.0269 104.213,76.8716 104.363,76.7163 104.512,76.5605 104.662,76.4053 104.811,76.25 104.961,76.0947 105.11,75.9395 105.26,75.7842 105.409,75.6289 105.559,75.4736 105.708,75.3184 105.857,75.1631 106.007,75.0078 106.157,74.8525 106.306,74.6973 106.456,74.5415 106.605,74.3862 106.754,74.231 106.904,74.0757 107.053,73.9204 107.203,73.7651 107.353,73.6099 107.502,73.4546 107.651,73.2993 107.801,73.144 107.95,72.9888 108.1,72.8335 108.249,72.6782 108.398,72.5225 108.548,72.3672 108.698,72.2119 108.847,72.0566 108.997,71.9014 109.146,71.7461 109.295,71.5908 109.445,71.4355 109.595,71.2803 109.744,71.125 109.894,70.9697 110.043,70.8145 110.192,70.6592 110.342,70.5034 110.491,70.3481 110.641,70.1929 110.791,70.0376 110.94,69.8823 111.089,69.7271 111.239,69.5718 111.388,69.4165 111.538,69.2612 111.687,69.106 111.836,68.9507 111.986,68.7954 112.136,68.6401 112.285,68.4844 112.435,68.3291 112.584,68.1738 112.733,68.0186 112.883,67.8633 113.032,67.708 113.182,67.5527 113.332,67.3975 113.481,67.2422 113.63,67.0869 113.78,66.9316 113.929,66.7764 114.079,66.6211 114.228,66.4653 114.378,66.3101 114.527,66.1548 114.677,65.9995 114.826,65.8442 114.976,65.689 115.125,65.5337 115.274,65.3784 115.424,65.2231 115.574,65.0679 115.723,64.9126 115.873,64.7573 116.022,64.6021 116.171,64.4463 116.321,64.291 116.47,64.1357 116.62,63.9805 116.77,63.8252 116.919,63.6699 117.068,63.5146 117.218,63.3594 117.367,63.2041 117.517,63.0488 117.666,62.8936 117.815,62.7383 117.965,62.583 118.115,62.4272 118.264,62.272 118.414,62.1167 118.563,61.9614 118.712,61.8062 118.862,61.6509 119.011,61.4956 119.161,61.3403 119.311,61.1851 119.46,61.0298 119.609,60.8745 119.759,60.7192 119.908,60.564 120.058,60.4082 120.207,60.2529 120.357,60.0977 120.506,59.9424 120.656,59.7871 120.805,59.6318 120.955,59.4766 121.104,59.3213 121.253,59.166 121.403,59.0107 121.553,58.8555 121.702,58.7002 121.852,58.5449 122.001,58.3892 122.15,58.2339 122.3,58.0786 122.449,57.9233 122.599,57.7681 122.749,57.6128 122.898,57.4575 123.047,57.3022 123.197,57.147 123.346,56.9917 123.496,56.8364 123.645,56.6812 123.794,56.5259 123.944,56.3701 124.094,56.2148 124.243,56.0596 124.393,55.9043 124.542,55.749 124.691,55.5938 124.841,55.4385 124.99,55.2832 125.14,55.1279 125.29,54.9727 125.439,54.8174 125.588,54.6621 125.738,54.5068 125.887,54.3516 126.037,54.1958 126.186,54.0405 126.336,53.8853 126.485,53.73 126.635,53.5747 126.784,53.4194 126.934,53.2642 127.083,53.1089 127.232,52.9536 127.382,52.7983 127.532,52.6431 127.681,52.4878 127.831,52.3325 127.98,52.1768 128.129,52.0215 128.279,51.8662 128.428,51.7109 128.578,51.5557 128.728,51.4004 128.877,51.2451 129.026,51.0898 129.176,50.9346 129.325,50.7793 129.475,50.624 129.624,50.4688 129.773,50.3135 129.923,50.1577 130.073,50.0024 130.222,49.8472 130.372,49.6919 130.521,49.5366 130.67,49.3813 130.82,49.2261 130.97,49.0708 131.119,48.9155 131.269,48.7603 131.418,48.605 131.567,48.4497 131.717,48.2944 131.866,48.1387 132.016,47.9834 132.166,47.8281 132.315,47.6729 132.464,47.5176 132.614,47.3623 132.763,47.207 132.913,47.0518 133.062,46.8965 133.211,46.7412 133.361,46.5859 133.511,46.4307 133.66,46.2754 133.81,46.1196 133.959,45.9644 134.108,45.8091 134.258,45.6538 134.407,45.4985 134.557,45.3433 134.707,45.188 134.856,45.0327 135.005,44.8774 135.155,44.7222 135.304,44.5669 135.454,44.4116 135.603,44.2563 135.753,44.1006 135.902,43.9453 136.052,43.79 136.201,43.6348 136.351,43.4795 136.5,43.3242 136.649,43.1689 136.799,43.0137 136.949,42.8584 137.098,42.7031 137.248,42.5479 137.397,42.3926 137.546,42.2373 137.696,42.0815 137.845,41.9263 137.995,41.771 138.145,41.6157 138.294,41.4604 138.443,41.3052 138.593,41.1499 138.742,40.9946 138.892,40.8394 139.041,40.6841 139.19,40.5288 139.34,40.3735 139.49,40.2183 139.639,40.0625 139.789,39.9072 139.938,39.752 140.087,39.5967 140.237,39.4414 140.386,39.2861 140.536,39.1309 140.686,38.9756 140.835,38.8203 140.984,38.665 141.134,38.5098 141.283,38.3545 141.433,38.1992 141.582,38.0435 141.732,37.8882 141.881,37.7329 142.031,37.5776 142.18,37.4224 142.33,37.2671 142.479,37.1118 142.628,36.9565 142.778,36.8013 142.928,36.646 143.077,36.4907 143.227,36.3354 143.376,36.1802 143.525,36.0244 143.675,35.8691 143.824,35.7139 143.974,35.5586 144.124,35.4033 144.273,35.248 144.422,35.0928 144.572,34.9375 144.721,34.7822 144.871,34.627 145.02,34.4717 145.169,34.3164 145.319,34.1611 145.469,34.0054 145.618,33.8501 145.768,33.6948 145.917,33.5396 146.066,33.3843 146.216,33.229 146.365,33.0737 146.515,32.9185 146.665,32.7632 146.814,32.6079 146.963,32.4526 147.113,32.2974 147.262,32.1421 147.412,31.9863 147.561,31.8311 147.711,31.6758 147.86,31.5205 148.01,31.3652 148.159,31.21 148.309,31.0547 148.458,30.8994 148.607,30.7441 148.757,30.5889 148.907,30.4336 149.056,30.2783 149.206,30.123 149.355,29.9678 149.372,29.9497" stroke-linecap="butt" stroke="#000000" stroke-width="0.5" stroke-linejoin="round" stroke-dasharray="9,7" fill="none"/>
   <polyline points="29.9365,149.203 29.9463,149.195 30.1016,149.071 30.2573,148.947 30.4126,148.823 30.5684,148.699 30.7236,148.575 30.8794,148.452 31.0347,148.328 31.1904,148.204 31.3457,148.08 31.5015,147.956 31.6567,147.832 31.8125,147.708 31.9678,147.584 32.1235,147.46 32.2788,147.336 32.4346,147.212 32.5898,147.088 32.7456,146.964 32.9009,146.84 33.0566,146.716 33.2119,146.592 33.3677,146.468 33.5229,146.344 33.6787,146.22 33.834,146.096 33.9897,145.972 34.145,145.849 34.3008,145.725 34.4561,145.601 34.6118,145.477 34.7671,145.353 34.9229,145.229 35.0781,145.104 35.2339,144.98 35.3892,144.857 35.5449,144.733 35.7002,144.609 35.856,144.485 36.0112,144.361 36.167,144.237 36.3223,144.113 36.478,143.989 36.6333,143.865 36.7891,143.741 36.9443,143.617 37.1001,143.493 37.2554,143.369 37.4111,143.245 37.5664,143.122 37.7222,142.998 37.8774,142.874 38.0332,142.75 38.1885,142.625 38.3442,142.501 38.4995,142.377 38.6553,142.254 38.8105,142.13 38.9663,142.006 39.1216,141.882 39.2773,141.758 39.4326,141.634 39.5884,141.51 39.7437,141.386 39.8994,141.262 40.0547,141.138 40.2104,141.014 40.3657,140.89 40.5215,140.766 40.6768,140.642 40.8325,140.518 40.9878,140.395 41.1436,140.271 41.2988,140.146 41.4546,140.022 41.6099,139.898 41.7656,139.774 41.9209,139.65 42.0767,139.527 42.2324,139.403 42.3877,139.279 42.543,139.155 42.6987,139.031 42.8545,138.907 43.0098,138.783 43.1655,138.659 43.3208,138.535 43.4766,138.411 43.6318,138.287 43.7876,138.163 43.9429,138.039 44.0986,137.915 44.2539,137.791 44.4097,137.667 44.5649,137.543 44.7207,137.419 44.876,137.295 45.0317,137.171 45.187,137.047 45.3428,136.923 45.498,136.8 45.6538,136.676 45.8091,136.552 45.9648,136.428 46.1201,136.304 46.2759,136.18 46.4312,136.056 46.5869,135.932 46.7422,135.808 46.8979,135.684 47.0532,135.56 47.209,135.436 47.3643,135.312 47.52,135.188 47.6753,135.064 47.8311,134.94 47.9863,134.816 48.1421,134.692 48.2974,134.568 48.4531,134.444 48.6084,134.32 48.7642,134.197 48.9194,134.073 49.0752,133.949 49.2305,133.825 49.3862,133.701 49.5415,133.577 49.6973,133.453 49.8525,133.329 50.0083,133.205 50.1636,133.081 50.3193,132.957 50.4746,132.833 50.6304,132.709 50.7856,132.585 50.9414,132.461 51.0967,132.337 51.2524,132.213 51.4077,132.089 51.5635,131.965 51.7188,131.841 51.8745,131.717 52.0298,131.593 52.1855,131.47 52.3408,131.346 52.4966,131.222 52.6519,131.098 52.8076,130.974 52.9629,130.85 53.1187,130.726 53.2739,130.602 53.4297,130.478 53.585,130.354 53.7407,130.23 53.896,130.106 54.0518,129.982 54.207,129.858 54.3628,129.734 54.5181,129.61 54.6738,129.486 54.8291,129.362 54.9849,129.238 55.1401,129.114 55.2959,128.99 55.4512,128.866 55.6069,128.743 55.7622,128.619 55.918,128.495 56.0732,128.371 56.229,128.247 56.3843,128.123 56.54,127.999 56.6953,127.875 56.8511,127.751 57.0063,127.627 57.1621,127.503 57.3174,127.379 57.4731,127.255 57.6284,127.131 57.7842,127.007 57.9395,126.883 58.0952,126.759 58.2505,126.635 58.4062,126.511 58.5615,126.387 58.7173,126.263 58.8726,126.139 59.0283,126.016 59.1836,125.892 59.3394,125.768 59.4946,125.644 59.6504,125.52 59.8057,125.396 59.9614,125.271 60.1167,125.148 60.2725,125.024 60.4277,124.9 60.5835,124.776 60.7388,124.652 60.8945,124.528 61.0498,124.404 61.2056,124.28 61.3608,124.156 61.5166,124.032 61.6719,123.908 61.8276,123.784 61.9829,123.66 62.1387,123.536 62.2939,123.413 62.4497,123.289 62.605,123.165 62.7607,123.041 62.916,122.917 63.0718,122.792 63.2271,122.668 63.3828,122.544 63.5381,122.421 63.6938,122.297 63.8491,122.173 64.0049,122.049 64.1602,121.925 64.3159,121.801 64.4712,121.677 64.627,121.553 64.7822,121.429 64.938,121.305 65.0933,121.181 65.249,121.057 65.4043,120.933 65.5601,120.809 65.7153,120.686 65.8711,120.562 66.0264,120.438 66.1821,120.313 66.3374,120.189 66.4932,120.065 66.6484,119.941 66.8042,119.818 66.9595,119.694 67.1152,119.57 67.2705,119.446 67.4263,119.322 67.5815,119.198 67.7373,119.074 67.8926,118.95 68.0483,118.826 68.2036,118.702 68.3594,118.578 68.5146,118.454 68.6704,118.33 68.8257,118.206 68.9814,118.082 69.1367,117.958 69.2925,117.834 69.4478,117.71 69.6035,117.586 69.7588,117.462 69.9146,117.338 70.0698,117.214 70.2256,117.091 70.3809,116.967 70.5366,116.843 70.6919,116.719 70.8477,116.595 71.0029,116.471 71.1587,116.347 71.314,116.223 71.4697,116.099 71.625,115.975 71.7808,115.851 71.936,115.727 72.0918,115.603 72.2471,115.479 72.4028,115.355 72.5581,115.231 72.7139,115.107 72.8691,114.983 73.0249,114.859 73.1802,114.735 73.3359,114.611 73.4912,114.487 73.647,114.364 73.8022,114.24 73.958,114.116 74.1133,113.992 74.269,113.868 74.4243,113.744 74.5801,113.62 74.7354,113.496 74.8911,113.372 75.0464,113.248 75.2021,113.124 75.3574,113 75.5132,112.876 75.6685,112.752 75.8242,112.628 75.9795,112.504 76.1353,112.38 76.2905,112.256 76.4463,112.132 76.6016,112.008 76.7573,111.884 76.9126,111.76 77.0684,111.637 77.2236,111.513 77.3794,111.389 77.5347,111.265 77.6904,111.141 77.8457,111.017 78.0015,110.893 78.1567,110.769 78.3125,110.645 78.4678,110.521 78.6235,110.397 78.7788,110.273 78.9346,110.149 79.0898,110.025 79.2456,109.901 79.4009,109.777 79.5566,109.653 79.7119,109.529 79.8677,109.405 80.0229,109.281 80.1787,109.157 80.334,109.034 80.4897,108.91 80.645,108.786 80.8008,108.662 80.9561,108.538 81.1118,108.414 81.2676,108.29 81.4229,108.166 81.5786,108.042 81.7339,107.918 81.8896,107.794 82.0449,107.67 82.2007,107.546 82.356,107.422 82.5117,107.298 82.667,107.174 82.8228,107.05 82.978,106.926 83.1338,106.802 83.2891,106.678 83.4448,106.554 83.6001,106.43 83.7559,106.307 83.9111,106.183 84.0669,106.059 84.2222,105.935 84.3779,105.811 84.5332,105.687 84.689,105.562 84.8442,105.439 85,105.315 85.1553,105.191 85.311,105.067 85.4663,104.943 85.6221,104.819 85.7773,104.695 85.9331,104.571 86.0884,104.447 86.2441,104.323 86.3994,104.199 86.5552,104.075 86.7104,103.951 86.8662,103.827 87.0215,103.703 87.1772,103.58 87.3325,103.456 87.4883,103.332 87.6436,103.208 87.7993,103.083 87.9546,102.959 88.1104,102.835 88.2656,102.712 88.4214,102.588 88.5767,102.464 88.7324,102.34 88.8877,102.216 89.0435,102.092 89.1987,101.968 89.3545,101.844 89.5098,101.72 89.6655,101.596 89.8208,101.472 89.9766,101.348 90.1318,101.224 90.2876,101.1 90.4429,100.977 90.5986,100.853 90.7539,100.729 90.9097,100.604 91.0649,100.48 91.2207,100.356 91.376,100.232 91.5317,100.108 91.687,99.9849 91.8428,99.8608 91.998,99.7368 92.1538,99.6128 92.3091,99.4888 92.4648,99.3647 92.6201,99.2407 92.7759,99.1172 92.9312,98.9932 93.0869,98.8691 93.2422,98.7451 93.3979,98.6211 93.5532,98.4971 93.709,98.373 93.8643,98.2495 94.02,98.1255 94.1753,98.0015 94.3311,97.8774 94.4863,97.7534 94.6421,97.6294 94.7974,97.5054 94.9531,97.3818 95.1084,97.2578 95.2642,97.1338 95.4194,97.0098 95.5752,96.8857 95.7305,96.7617 95.8862,96.6377 96.0415,96.5137 96.1973,96.3901 96.3525,96.2661 96.5083,96.1421 96.6636,96.0181 96.8193,95.894 96.9746,95.77 97.1304,95.646 97.2856,95.5225 97.4414,95.3984 97.5967,95.2744 97.7524,95.1504 97.9077,95.0264 98.0635,94.9023 98.2188,94.7783 98.3745,94.6548 98.5298,94.5308 98.6855,94.4067 98.8408,94.2827 98.9966,94.1587 99.1519,94.0347 99.3076,93.9106 99.4629,93.7871 99.6187,93.6631 99.7739,93.5391 99.9297,93.415 100.085,93.291 100.241,93.167 100.396,93.043 100.552,92.9189 100.707,92.7954 100.863,92.6714 101.018,92.5474 101.174,92.4233 101.329,92.2993 101.485,92.1753 101.64,92.0513 101.796,91.9277 101.951,91.8037 102.107,91.6797 102.262,91.5557 102.418,91.4316 102.573,91.3076 102.729,91.1836 102.884,91.0601 103.04,90.936 103.195,90.812 103.351,90.688 103.506,90.564 103.662,90.4399 103.817,90.3159 103.973,90.1924 104.128,90.0684 104.284,89.9443 104.439,89.8203 104.595,89.6963 104.75,89.5723 104.906,89.4482 105.062,89.3242 105.217,89.2007 105.373,89.0767 105.528,88.9526 105.684,88.8286 105.839,88.7046 105.995,88.5806 106.15,88.4565 106.306,88.333 106.461,88.209 106.617,88.085 106.772,87.9609 106.928,87.8369 107.083,87.7129 107.239,87.5889 107.395,87.4653 107.55,87.3413 107.706,87.2173 107.861,87.0933 108.017,86.9692 108.172,86.8452 108.328,86.7212 108.483,86.5977 108.639,86.4736 108.794,86.3496 108.95,86.2256 109.105,86.1016 109.261,85.9775 109.416,85.8535 109.572,85.73 109.727,85.606 109.883,85.4819 110.038,85.3579 110.194,85.2339 110.349,85.1099 110.505,84.9858 110.66,84.8618 110.816,84.7383 110.971,84.6143 111.127,84.4902 111.282,84.3662 111.438,84.2422 111.593,84.1182 111.749,83.9941 111.904,83.8706 112.06,83.7466 112.215,83.6226 112.371,83.4985 112.526,83.3745 112.682,83.2505 112.837,83.1265 112.993,83.0029 113.148,82.8789 113.304,82.7549 113.459,82.6309 113.615,82.5068 113.771,82.3828 113.926,82.2588 114.082,82.1353 114.237,82.0112 114.393,81.8872 114.548,81.7632 114.704,81.6392 114.859,81.5151 115.015,81.3911 115.17,81.2671 115.326,81.1436 115.481,81.0195 115.637,80.8955 115.792,80.7715 115.948,80.6475 116.104,80.5234 116.259,80.3994 116.415,80.2759 116.57,80.1519 116.726,80.0278 116.881,79.9038 117.037,79.7798 117.192,79.6558 117.348,79.5317 117.503,79.4082 117.659,79.2842 117.814,79.1602 117.97,79.0361 118.125,78.9121 118.281,78.7881 118.437,78.6641 118.592,78.5405 118.747,78.4165 118.903,78.2925 119.059,78.1685 119.214,78.0444 119.37,77.9204 119.525,77.7964 119.681,77.6724 119.836,77.5488 119.992,77.4248 120.147,77.3008 120.303,77.1768 120.458,77.0527 120.614,76.9287 120.769,76.8047 120.925,76.6812 121.08,76.5571 121.236,76.4331 121.391,76.3091 121.547,76.1851 121.702,76.061 121.858,75.937 122.013,75.8135 122.169,75.6895 122.324,75.5654 122.48,75.4414 122.635,75.3174 122.791,75.1934 122.946,75.0693 123.102,74.9458 123.257,74.8218 123.413,74.6978 123.568,74.5737 123.724,74.4497 123.879,74.3257 124.035,74.2017 124.19,74.0776 124.346,73.9541 124.501,73.8301 124.657,73.7061 124.812,73.582 124.968,73.458 125.124,73.334 125.279,73.21 125.435,73.0864 125.59,72.9624 125.746,72.8384 125.901,72.7144 126.057,72.5903 126.212,72.4663 126.368,72.3423 126.523,72.2188 126.679,72.0947 126.834,71.9707 126.99,71.8467 127.146,71.7227 127.301,71.5986 127.457,71.4746 127.612,71.3511 127.768,71.2271 127.923,71.103 128.079,70.979 128.234,70.855 128.39,70.731 128.545,70.6069 128.701,70.4829 128.856,70.3594 129.012,70.2354 129.167,70.1113 129.323,69.9873 129.478,69.8633 129.634,69.7393 129.789,69.6152 129.945,69.4917 130.1,69.3677 130.256,69.2437 130.411,69.1196 130.567,68.9956 130.722,68.8716 130.878,68.7476 131.033,68.624 131.189,68.5 131.344,68.376 131.5,68.252 131.655,68.1279 131.811,68.0039 131.966,67.8799 132.122,67.7563 132.277,67.6323 132.433,67.5083 132.588,67.3843 132.744,67.2603 132.899,67.1362 133.055,67.0122 133.21,66.8882 133.366,66.7646 133.521,66.6406 133.677,66.5166 133.833,66.3926 133.988,66.2686 134.144,66.1445 134.299,66.0205 134.455,65.897 134.61,65.7729 134.766,65.6489 134.921,65.5249 135.077,65.4009 135.232,65.2769 135.388,65.1528 135.543,65.0293 135.699,64.9053 135.854,64.7812 136.01,64.6572 136.166,64.5332 136.321,64.4092 136.477,64.2852 136.632,64.1616 136.788,64.0376 136.943,63.9136 137.099,63.7896 137.254,63.6655 137.41,63.5415 137.565,63.4175 137.721,63.2935 137.876,63.1699 138.032,63.0459 138.187,62.9219 138.343,62.7979 138.498,62.6738 138.654,62.5498 138.809,62.4258 138.965,62.3022 139.12,62.1782 139.276,62.0542 139.431,61.9302 139.587,61.8062 139.742,61.6821 139.898,61.5581 140.053,61.4346 140.209,61.3105 140.364,61.1865 140.52,61.0625 140.675,60.9385 140.831,60.8145 140.986,60.6904 141.142,60.5669 141.297,60.4429 141.453,60.3188 141.608,60.1948 141.764,60.0708 141.919,59.9468 142.075,59.8228 142.23,59.6987 142.386,59.5752 142.542,59.4512 142.697,59.3271 142.853,59.2031 143.008,59.0791 143.164,58.9551 143.319,58.8311 143.475,58.7075 143.63,58.5835 143.786,58.4595 143.941,58.3354 144.097,58.2114 144.252,58.0874 144.408,57.9634 144.563,57.8398 144.719,57.7158 144.875,57.5918 145.03,57.4678 145.186,57.3438 145.341,57.2197 145.497,57.0957 145.652,56.9722 145.808,56.8481 145.963,56.7241 146.119,56.6001 146.274,56.4761 146.43,56.3521 146.585,56.228 146.741,56.1045 146.896,55.9805 147.052,55.8564 147.207,55.7324 147.363,55.6084 147.518,55.4844 147.674,55.3604 147.829,55.2363 147.985,55.1128 148.14,54.9888 148.296,54.8647 148.451,54.7407 148.607,54.6167 148.762,54.4927 148.918,54.3687 149.073,54.2451 149.229,54.1211 149.384,53.9971 149.54,53.873 149.695,53.749 149.851,53.625 150.006,53.501 150.162,53.3774 150.317,53.2534 150.473,53.1294 150.628,53.0054 150.784,52.8813 150.939,52.7573 151.095,52.6333 151.25,52.5098 151.406,52.3857 151.562,52.2617 151.717,52.1377 151.873,52.0137 152.028,51.8896 152.184,51.7656 152.339,51.6416 152.495,51.5181 152.65,51.394 152.806,51.27 152.961,51.146 153.117,51.022 153.272,50.8979 153.428,50.7739 153.583,50.6504 153.739,50.5264 153.895,50.4023 154.05,50.2783 154.206,50.1543 154.361,50.0303 154.517,49.9062 154.672,49.7827 154.828,49.6587 154.983,49.5347 155.139,49.4106 155.294,49.2866 155.45,49.1626 155.605,49.0386 155.761,48.915 155.916,48.791 156.072,48.667 156.228,48.543 156.383,48.4189 156.539,48.2949 156.694,48.1709 156.85,48.0469 157.005,47.9233 157.161,47.7993 157.316,47.6753 157.472,47.5513 157.627,47.4272 157.783,47.3032 157.938,47.1792 158.094,47.0557 158.249,46.9316 158.405,46.8076 158.56,46.6836 158.716,46.5596 158.871,46.4355 159.027,46.3115 159.182,46.188 159.338,46.064 159.493,45.9399 159.649,45.8159 159.804,45.6919 159.96,45.5679 160.115,45.4438 160.271,45.3203 160.426,45.1963 160.582,45.0723 160.737,44.9482 160.893,44.8242 161.048,44.7002 161.204,44.5762 161.359,44.4521 161.515,44.3286 161.67,44.2046 161.826,44.0806 161.981,43.9565 162.137,43.8325 162.292,43.7085 162.448,43.5845 162.604,43.4609 162.759,43.3369 162.915,43.2129 163.07,43.0889 163.226,42.9648 163.381,42.8408 163.537,42.7168 163.692,42.5933 163.848,42.4692 164.003,42.3452 164.159,42.2212 164.314,42.0972 164.47,41.9731 164.625,41.8491 164.781,41.7256 164.937,41.6016 165.092,41.4775 165.248,41.3535 165.403,41.2295 165.559,41.1055 165.714,40.9814 165.87,40.8574 166.025,40.7339 166.181,40.6099 166.336,40.4858 166.492,40.3618 166.647,40.2378 166.803,40.1138 166.958,39.9897 167.114,39.8662 167.269,39.7422 167.311,39.709" stroke-linecap="butt" stroke="#000000" stroke-width="0.5" stroke-linejoin="round" stroke-dasharray="8,3,2,3" fill="none"/>
   <polyline points="76.4199,103.49 82.4199,109.49" stroke-linecap="square" stroke="#000000" stroke-width="0.5" stroke-linejoin="miter" fill="none"/>
   <polyline points="76.4199,109.49 82.4199,103.49" stroke-linecap="square" stroke="#000000" stroke-width="0.5" stroke-linejoin="miter" fill="none"/>
   <polyline points="108.123,83.0776 114.123,89.0776" stroke-linecap="square" stroke="#000000" stroke-width="0.5" stroke-linejoin="miter" fill="none"/>
   <polyline points="108.123,89.0776 114.123,83.0776" stroke-linecap="square" stroke="#000000" stroke-width="0.5" stroke-linejoin="miter" fill="none"/>
   <polyline points="46.6777,132.157 52.6777,138.157" stroke-linecap="square" stroke="#000000" stroke-width="0.5" stroke-linejoin="miter" fill="none"/>
   <polyline points="46.6777,138.157 52.6777,132.157" stroke-linecap="square" stroke="#000000" stroke-width="0.5" stroke-linejoin="miter" fill="none"/>
   <polyline points="30.8057,153.906 30.939,153.782 31.0718,153.658 31.2051,153.534 31.3384,153.41 31.4712,153.286 31.6045,153.162 31.7378,153.038 31.8706,152.914 32.0039,152.79 32.1372,152.666 32.27,152.542 32.4033,152.418 32.5366,152.294 32.6699,152.17 32.8027,152.046 32.936,151.922 33.0693,151.798 33.2021,151.674 33.3354,151.55 33.4688,151.426 33.6016,151.302 33.7349,151.179 33.8682,151.055 34.001,150.931 34.1343,150.807 34.2676,150.683 34.4004,150.559 34.5337,150.435 34.667,150.311 34.8003,150.187 34.9331,150.063 35.0664,149.939 35.1997,149.815 35.3325,149.691 35.4658,149.567 35.5991,149.443 35.7319,149.319 35.8652,149.195 35.9985,149.071 36.1313,148.947 36.2646,148.823 36.3979,148.699 36.5312,148.575 36.6641,148.452 36.7974,148.328 36.9307,148.204 37.0635,148.08 37.1968,147.956 37.3301,147.832 37.4629,147.708 37.5962,147.584 37.7295,147.46 37.8623,147.336 37.9956,147.212 38.1289,147.088 38.2622,146.964 38.395,146.84 38.5283,146.716 38.6616,146.592 38.7944,146.468 38.9277,146.344 39.061,146.22 39.1938,146.096 39.3271,145.972 39.4604,145.849 39.5933,145.725 39.7266,145.601 39.8599,145.477 39.9932,145.353 40.126,145.229 40.2593,145.104 40.3926,144.98 40.5254,144.857 40.6587,144.733 40.792,144.609 40.9248,144.485 41.0581,144.361 41.1914,144.237 41.3242,144.113 41.4575,143.989 41.5908,143.865 41.7236,143.741 41.8569,143.617 41.9902,143.493 42.1235,143.369 42.2563,143.245 42.3896,143.122 42.5229,142.998 42.6558,142.874 42.7891,142.75 42.9224,142.625 43.0552,142.501 43.1885,142.377 43.3218,142.254 43.4546,142.13 43.5879,142.006 43.7212,141.882 43.8545,141.758 43.9873,141.634 44.1206,141.51 44.2539,141.386 44.3867,141.262 44.52,141.138 44.6533,141.014 44.7861,140.89 44.9194,140.766 45.0527,140.642 45.1855,140.518 45.3188,140.395 45.4521,140.271 45.5854,140.146 45.7183,140.022 45.8516,139.898 45.9849,139.774 46.1177,139.65 46.251,139.527 46.3843,139.403 46.5171,139.279 46.6504,139.155 46.7837,139.031 46.9165,138.907 47.0498,138.783 47.1831,138.659 47.3164,138.535 47.4492,138.411 47.5825,138.287 47.7158,138.163 47.8486,138.039 47.9819,137.915 48.1152,137.791 48.248,137.667 48.3813,137.543 48.5146,137.419 48.6475,137.295 48.7808,137.171 48.9141,137.047 49.0469,136.923 49.1802,136.8 49.3135,136.676 49.4468,136.552 49.5796,136.428 49.7129,136.304 49.8462,136.18 49.979,136.056 50.1123,135.932 50.2456,135.808 50.3784,135.684 50.5117,135.56 50.645,135.436 50.7778,135.312 50.9111,135.188 51.0444,135.064 51.1777,134.94 51.3105,134.816 51.4438,134.692 51.5771,134.568 51.71,134.444 51.8433,134.32 51.9766,134.197 52.1094,134.073 52.2427,133.949 52.376,133.825 52.5088,133.701 52.6421,133.577 52.7754,133.453 52.9087,133.329 53.0415,133.205 53.1748,133.081 53.3081,132.957 53.4409,132.833 53.5742,132.709 53.7075,132.585 53.8403,132.461 53.9736,132.337 54.1069,132.213 54.2397,132.089 54.373,131.965 54.5063,131.841 54.6396,131.717 54.7725,131.593 54.9058,131.47 55.0391,131.346 55.1719,131.222 55.3052,131.098 55.4385,130.974 55.5713,130.85 55.7046,130.726 55.8379,130.602 55.9707,130.478 56.104,130.354 56.2373,130.23 56.3701,130.106 56.5034,129.982 56.6367,129.858 56.77,129.734 56.9028,129.61 57.0361,129.486 57.1694,129.362 57.3022,129.238 57.4355,129.114 57.5688,128.99 57.7017,128.866 57.835,128.743 57.9683,128.619 58.1011,128.495 58.2344,128.371 58.3677,128.247 58.501,128.123 58.6338,127.999 58.7671,127.875 58.9004,127.751 59.0332,127.627 59.1665,127.503 59.2998,127.379 59.4326,127.255 59.5659,127.131 59.6992,127.007 59.832,126.883 59.9653,126.759 60.0986,126.635 60.2319,126.511 60.3647,126.387 60.498,126.263 60.6313,126.139 60.7642,126.016 60.8975,125.892 61.0308,125.768 61.1636,125.644 61.2969,125.52 61.4302,125.396 61.563,125.271 61.6963,125.148 61.8296,125.024 61.9629,124.9 62.0957,124.776 62.229,124.652 62.3623,124.528 62.4951,124.404 62.6284,124.28 62.7617,124.156 62.8945,124.032 63.0278,123.908 63.1611,123.784 63.2939,123.66 63.4272,123.536 63.5605,123.413 63.6934,123.289 63.8267,123.165 63.96,123.041 64.0933,122.917 64.2261,122.792 64.3594,122.668 64.4927,122.544 64.6255,122.421 64.7588,122.297 64.8921,122.173 65.0249,122.049 65.1582,121.925 65.2915,121.801 65.4243,121.677 65.5576,121.553 65.6909,121.429 65.8242,121.305 65.957,121.181 66.0903,121.057 66.2236,120.933 66.3564,120.809 66.4897,120.686 66.623,120.562 66.7559,120.438 66.8892,120.313 67.0225,120.189 67.1553,120.065 67.2886,119.941 67.4219,119.818 67.5552,119.694 67.688,119.57 67.8213,119.446 67.9546,119.322 68.0874,119.198 68.2207,119.074 68.354,118.95 68.4868,118.826 68.6201,118.702 68.7534,118.578 68.8862,118.454 69.0195,118.33 69.1528,118.206 69.2861,118.082 69.4189,117.958 69.5522,117.834 69.6855,117.71 69.8184,117.586 69.9517,117.462 70.085,117.338 70.2178,117.214 70.3511,117.091 70.4844,116.967 70.6172,116.843 70.7505,116.719 70.8838,116.595 71.0166,116.471 71.1499,116.347 71.2832,116.223 71.4165,116.099 71.5493,115.975 71.6826,115.851 71.8159,115.727 71.9487,115.603 72.082,115.479 72.2153,115.355 72.3481,115.231 72.4814,115.107 72.6147,114.983 72.7476,114.859 72.8809,114.735 73.0142,114.611 73.1475,114.487 73.2803,114.364 73.4136,114.24 73.5469,114.116 73.6797,113.992 73.813,113.868 73.9463,113.744 74.0791,113.62 74.2124,113.496 74.3457,113.372 74.4785,113.248 74.6118,113.124 74.7451,113 74.8784,112.876 75.0112,112.752 75.1445,112.628 75.2778,112.504 75.4106,112.38 75.5439,112.256 75.6772,112.132 75.8101,112.008 75.9434,111.884 76.0767,111.76 76.2095,111.637 76.3428,111.513 76.4761,111.389 76.6094,111.265 76.7422,111.141 76.8755,111.017 77.0088,110.893 77.1416,110.769 77.2749,110.645 77.4082,110.521 77.541,110.397 77.6743,110.273 77.8076,110.149 77.9404,110.025 78.0737,109.901 78.207,109.777 78.3398,109.653 78.4731,109.529 78.6064,109.405 78.7397,109.281 78.8726,109.157 79.0059,109.034 79.1392,108.91 79.272,108.786 79.4053,108.662 79.5386,108.538 79.6714,108.414 79.8047,108.29 79.938,108.166 80.0708,108.042 80.2041,107.918 80.3374,107.794 80.4707,107.67 80.6035,107.546 80.7368,107.422 80.8701,107.298 81.0029,107.174 81.1362,107.05 81.2695,106.926 81.4023,106.802 81.5356,106.678 81.6689,106.554 81.8018,106.43 81.9351,106.307 82.0684,106.183 82.2017,106.059 82.3345,105.935 82.4678,105.811 82.6011,105.687 82.7339,105.562 82.8672,105.439 83.0005,105.315 83.1333,105.191 83.2666,105.067 83.3999,104.943 83.5327,104.819 83.666,104.695 83.7993,104.571 83.9326,104.447 84.0654,104.323 84.1987,104.199 84.332,104.075 84.4648,103.951 84.5981,103.827 84.7314,103.703 84.8643,103.58 84.9976,103.456 85.1309,103.332 85.2637,103.208 85.397,103.083 85.5303,102.959 85.6631,102.835 85.7964,102.712 85.9297,102.588 86.063,102.464 86.1958,102.34 86.3291,102.216 86.4624,102.092 86.5952,101.968 86.7285,101.844 86.8618,101.72 86.9946,101.596 87.1279,101.472 87.2612,101.348 87.394,101.224 87.5273,101.1 87.6606,100.977 87.7939,100.853 87.9268,100.729 88.0601,100.604 88.1934,100.48 88.3262,100.356 88.4595,100.232 88.5928,100.108 88.7256,99.9849 88.8589,99.8608 88.9922,99.7368 89.125,99.6128 89.2583,99.4888 89.3916,99.3647 89.5249,99.2407 89.6577,99.1172 89.791,98.9932 89.9243,98.8691 90.0571,98.7451 90.1904,98.6211 90.3237,98.4971 90.4565,98.373 90.5898,98.2495 90.7231,98.1255 90.856,98.0015 90.9893,97.8774 91.1226,97.7534 91.2559,97.6294 91.3887,97.5054 91.522,97.3818 91.6553,97.2578 91.7881,97.1338 91.9214,97.0098 92.0547,96.8857 92.1875,96.7617 92.3208,96.6377 92.4541,96.5137 92.5869,96.3901 92.7202,96.2661 92.8535,96.1421 92.9863,96.0181 93.1196,95.894 93.2529,95.77 93.3862,95.646 93.519,95.5225 93.6523,95.3984 93.7856,95.2744 93.9185,95.1504 94.0518,95.0264 94.1851,94.9023 94.3179,94.7783 94.4512,94.6548 94.5845,94.5308 94.7173,94.4067 94.8506,94.2827 94.9839,94.1587 95.1172,94.0347 95.25,93.9106 95.3833,93.7871 95.5166,93.6631 95.6494,93.5391 95.7827,93.415 95.916,93.291 96.0488,93.167 96.1821,93.043 96.3154,92.9189 96.4482,92.7954 96.5815,92.6714 96.7148,92.5474 96.8481,92.4233 96.981,92.2993 97.1143,92.1753 97.2476,92.0513 97.3804,91.9277 97.5137,91.8037 97.647,91.6797 97.7798,91.5557 97.9131,91.4316 98.0464,91.3076 98.1792,91.1836 98.3125,91.0601 98.4458,90.936 98.5791,90.812 98.7119,90.688 98.8452,90.564 98.9785,90.4399 99.1113,90.3159 99.2446,90.1924 99.3779,90.0684 99.5107,89.9443 99.644,89.8203 99.7773,89.6963 99.9102,89.5723 100.043,89.4482 100.177,89.3242 100.31,89.2007 100.443,89.0767 100.576,88.9526 100.709,88.8286 100.842,88.7046 100.976,88.5806 101.109,88.4565 101.242,88.333 101.375,88.209 101.508,88.085 101.641,87.9609 101.774,87.8369 101.908,87.7129 102.041,87.5889 102.174,87.4653 102.307,87.3413 102.44,87.2173 102.573,87.0933 102.707,86.9692 102.84,86.8452 102.973,86.7212 103.106,86.5977 103.239,86.4736 103.372,86.3496 103.505,86.2256 103.639,86.1016 103.771,85.9775 103.905,85.8535 104.038,85.73 104.171,85.606 104.304,85.4819 104.438,85.3579 104.571,85.2339 104.704,85.1099 104.837,84.9858 104.97,84.8618 105.103,84.7383 105.236,84.6143 105.37,84.4902 105.502,84.3662 105.636,84.2422 105.769,84.1182 105.902,83.9941 106.035,83.8706 106.168,83.7466 106.302,83.6226 106.435,83.4985 106.568,83.3745 106.701,83.2505 106.834,83.1265 106.967,83.0029 107.101,82.8789 107.233,82.7549 107.367,82.6309 107.5,82.5068 107.633,82.3828 107.766,82.2588 107.899,82.1353 108.033,82.0112 108.166,81.8872 108.299,81.7632 108.432,81.6392 108.565,81.5151 108.698,81.3911 108.832,81.2671 108.964,81.1436 109.098,81.0195 109.231,80.8955 109.364,80.7715 109.497,80.6475 109.63,80.5234 109.764,80.3994 109.896,80.2759 110.03,80.1519 110.163,80.0278 110.296,79.9038 110.429,79.7798 110.562,79.6558 110.695,79.5317 110.829,79.4082 110.962,79.2842 111.095,79.1602 111.228,79.0361 111.361,78.9121 111.495,78.7881 111.627,78.6641 111.761,78.5405 111.894,78.4165 112.027,78.2925 112.16,78.1685 112.293,78.0444 112.426,77.9204 112.56,77.7964 112.693,77.6724 112.826,77.5488 112.959,77.4248 113.092,77.3008 113.226,77.1768 113.358,77.0527 113.492,76.9287 113.625,76.8047 113.758,76.6812 113.891,76.5571 114.024,76.4331 114.157,76.3091 114.291,76.1851 114.424,76.061 114.557,75.937 114.69,75.8135 114.823,75.6895 114.956,75.5654 115.089,75.4414 115.223,75.3174 115.356,75.1934 115.489,75.0693 115.622,74.9458 115.755,74.8218 115.888,74.6978 116.021,74.5737 116.155,74.4497 116.288,74.3257 116.421,74.2017 116.554,74.0776 116.687,73.9541 116.82,73.8301 116.954,73.7061 117.087,73.582 117.22,73.458 117.353,73.334 117.486,73.21 117.619,73.0864 117.752,72.9624 117.886,72.8384 118.019,72.7144 118.152,72.5903 118.285,72.4663 118.418,72.3423 118.551,72.2188 118.685,72.0947 118.818,71.9707 118.951,71.8467 119.084,71.7227 119.217,71.5986 119.35,71.4746 119.483,71.3511 119.617,71.2271 119.75,71.103 119.883,70.979 120.016,70.855 120.149,70.731 120.282,70.6069 120.416,70.4829 120.548,70.3594 120.682,70.2354 120.815,70.1113 120.948,69.9873 121.081,69.8633 121.214,69.7393 121.348,69.6152 121.48,69.4917 121.614,69.3677 121.747,69.2437 121.88,69.1196 122.013,68.9956 122.146,68.8716 122.279,68.7476 122.413,68.624 122.546,68.5 122.679,68.376 122.812,68.252 122.945,68.1279 123.079,68.0039 123.211,67.8799 123.345,67.7563 123.478,67.6323 123.611,67.5083 123.744,67.3843 123.877,67.2603 124.01,67.1362 124.144,67.0122 124.277,66.8882 124.41,66.7646 124.543,66.6406 124.676,66.5166 124.81,66.3926 124.942,66.2686 125.076,66.1445 125.209,66.0205 125.342,65.897 125.475,65.7729 125.608,65.6489 125.741,65.5249 125.875,65.4009 126.008,65.2769 126.141,65.1528 126.274,65.0293 126.407,64.9053 126.541,64.7812 126.673,64.6572 126.807,64.5332 126.94,64.4092 127.073,64.2852 127.206,64.1616 127.339,64.0376 127.472,63.9136 127.605,63.7896 127.739,63.6655 127.872,63.5415 128.005,63.4175 128.138,63.2935 128.271,63.1699 128.404,63.0459 128.538,62.9219 128.671,62.7979 128.804,62.6738 128.937,62.5498 129.07,62.4258 129.203,62.3022 129.336,62.1782 129.47,62.0542 129.603,61.9302 129.736,61.8062 129.869,61.6821 130.002,61.5581 130.135,61.4346 130.269,61.3105 130.402,61.1865 130.535,61.0625 130.668,60.9385 130.801,60.8145 130.934,60.6904 131.067,60.5669 131.201,60.4429 131.333,60.3188 131.467,60.1948 131.6,60.0708 131.733,59.9468 131.866,59.8228 132,59.6987 132.133,59.5752 132.266,59.4512 132.399,59.3271 132.532,59.2031 132.665,59.0791 132.798,58.9551 132.932,58.8311 133.064,58.7075 133.198,58.5835 133.331,58.4595 133.464,58.3354 133.597,58.2114 133.73,58.0874 133.864,57.9634 133.997,57.8398 134.13,57.7158 134.263,57.5918 134.396,57.4678 134.529,57.3438 134.663,57.2197 134.795,57.0957 134.929,56.9722 135.062,56.8481 135.195,56.7241 135.328,56.6001 135.461,56.4761 135.595,56.3521 135.728,56.228 135.861,56.1045 135.994,55.9805 136.127,55.8564 136.26,55.7324 136.394,55.6084 136.526,55.4844 136.66,55.3604 136.793,55.2363 136.926,55.1128 137.059,54.9888 137.192,54.8647 137.326,54.7407 137.458,54.6167 137.592,54.4927 137.725,54.3687 137.858,54.2451 137.991,54.1211 138.125,53.9971 138.257,53.873 138.391,53.749 138.524,53.625 138.657,53.501 138.79,53.3774 138.923,53.2534 139.057,53.1294 139.189,53.0054 139.323,52.8813 139.456,52.7573 139.589,52.6333 139.722,52.5098 139.855,52.3857 139.988,52.2617 140.122,52.1377 140.255,52.0137 140.388,51.8896 140.521,51.7656 140.654,51.6416 140.788,51.5181 140.92,51.394 141.054,51.27 141.187,51.146 141.32,51.022 141.453,50.8979 141.586,50.7739 141.719,50.6504 141.853,50.5264 141.986,50.4023 142.119,50.2783 142.252,50.1543 142.385,50.0303 142.519,49.9062 142.651,49.7827 142.785,49.6587 142.918,49.5347 143.051,49.4106 143.184,49.2866 143.317,49.1626 143.45,49.0386 143.583,48.915 143.717,48.791 143.85,48.667 143.983,48.543 144.116,48.4189 144.249,48.2949 144.382,48.1709 144.516,48.0469 144.649,47.9233 144.782,47.7993 144.915,47.6753 145.048,47.5513 145.181,47.4272 145.314,47.3032 145.448,47.1792 145.581,47.0557 145.714,46.9316 145.847,46.8076 145.98,46.6836 146.113,46.5596 146.247,46.4355 146.38,46.3115 146.513,46.188 146.646,46.064 146.779,45.9399 146.912,45.8159 147.045,45.6919 147.179,45.5679 147.312,45.4438 147.445,45.3203 147.578,45.1963 147.711,45.0723 147.844,44.9482 147.978,44.8242 148.111,44.7002 148.244,44.5762 148.377,44.4521 148.51,44.3286 148.643,44.2046 148.776,44.0806 148.91,43.9565 149.042,43.8325 149.176,43.7085 149.309,43.5845 149.442,43.4609 149.575,43.3369 149.708,43.2129 149.842,43.0889 149.975,42.9648 150.108,42.8408 150.241,42.7168 150.374,42.5933 150.507,42.4692 150.641,42.3452 150.773,42.2212 150.907,42.0972 151.04,41.9731 151.173,41.8491 151.306,41.7256 151.439,41.6016 151.572,41.4775 151.706,41.3535 151.839,41.2295 151.972,41.1055 152.105,40.9814 152.238,40.8574 152.372,40.7339 152.504,40.6099 152.638,40.4858 152.771,40.3618 152.904,40.2378 153.037,40.1138 153.17,39.9897 153.303,39.8662 153.437,39.7422 153.57,39.6182 153.703,39.4941 153.836,39.3701 153.969,39.2461 154.103,39.1221 154.235,38.9985 154.369,38.8745 154.502,38.7505 154.635,38.6265 154.768,38.5024 154.901,38.3784 155.034,38.2544 155.167,38.1309 155.301,38.0068 155.434,37.8828 155.567,37.7588 155.7,37.6348 155.833,37.5107 155.966,37.3867 156.1,37.2632 156.233,37.1392 156.366,37.0151 156.499,36.8911 156.632,36.7671 156.765,36.6431 156.898,36.519 157.032,36.395 157.165,36.2715 157.298,36.1475 157.431,36.0234 157.564,35.8994 157.697,35.7754 157.831,35.6514 157.964,35.5273 158.097,35.4038 158.23,35.2798 158.363,35.1558 158.496,35.0317 158.629,34.9077 158.763,34.7837 158.896,34.6597 159.029,34.5361 159.162,34.4121 159.295,34.2881 159.428,34.1641 159.562,34.04 159.695,33.916 159.828,33.792 159.961,33.668 160.094,33.5444 160.227,33.4204 160.36,33.2964 160.494,33.1724 160.626,33.0483 160.76,32.9243 160.893,32.8003 161.026,32.6768 161.159,32.5527 161.292,32.4287 161.426,32.3047 161.559,32.1807 161.692,32.0566 161.825,31.9326 161.958,31.8091 162.091,31.6851 162.225,31.561 162.357,31.437 162.491,31.313 162.624,31.189 162.757,31.0649 162.89,30.9414 163.023,30.8174 163.157,30.6934 163.29,30.5693 163.423,30.4453 163.556,30.3213 163.689,30.1973 163.822,30.0737" stroke-linecap="butt" stroke="#000000" stroke-width="0.5" stroke-linejoin="round" fill="none"/>
   <polyline points="43.2788,139.814 49.2788,139.814" stroke-linecap="square" stroke="#000000" stroke-width="0.5" stroke-linejoin="miter" fill="none"/>
   <polyline points="46.2788,136.814 46.2788,142.814" stroke-linecap="square" stroke="#000000" stroke-width="0.5" stroke-linejoin="miter" fill="none"/>
   <polyline points="44.1577,137.692 48.4004,141.935" stroke-linecap="square" stroke="#000000" stroke-width="0.5" stroke-linejoin="miter" fill="none"/>
   <polyline points="44.1577,141.935 48.4004,137.692" stroke-linecap="square" stroke="#000000" stroke-width="0.5" stroke-linejoin="miter" fill="none"/>
   <polyline points="100.111,86.5312 106.111,86.5312" stroke-linecap="square" stroke="#000000" stroke-width="0.5" stroke-linejoin="miter" fill="none"/>
   <polyline points="103.111,83.5312 103.111,89.5312" stroke-linecap="square" stroke="#000000" stroke-width="0.5" stroke-linejoin="miter" fill="none"/>
   <polyline points="100.99,84.4097 105.233,88.6523" stroke-linecap="square" stroke="#000000" stroke-width="0.5" stroke-linejoin="miter" fill="none"/>
   <polyline points="100.99,88.6523 105.233,84.4097" stroke-linecap="square" stroke="#000000" stroke-width="0.5" stroke-linejoin="miter" fill="none"/>
   <polyline points="29.4839,152.091 35.4839,152.091" stroke-linecap="square" stroke="#000000" stroke-width="0.5" stroke-linejoin="miter" fill="none"/>
   <polyline points="32.4839,149.091 32.4839,155.091" stroke-linecap="square" stroke="#000000" stroke-width="0.5" stroke-linejoin="miter" fill="none"/>
   <polyline points="30.3623,149.97 34.605,154.212" stroke-linecap="square" stroke="#000000" stroke-width="0.5" stroke-linejoin="miter" fill="none"/>
   <polyline points="30.3623,154.212 34.605,149.97" stroke-linecap="square" stroke="#000000" stroke-width="0.5" stroke-linejoin="miter" fill="none"/>
   <polyline points="79.4199,153.906 79.4199,30.0737" stroke-linecap="butt" stroke="#000000" stroke-width="0.3" stroke-linejoin="round" stroke-dasharray="1,3,1,3,1,3,1,3" fill="none"/>
   <g xml:space="preserve" font-family="'Liberation Serif'" font-weight="normal" transform="translate(72.4201,39.9463) rotate(-90,7,-7)" font-style="normal" font-size="8">
    <text x="0 3 " y="-0" fill="rgb(0,0,0)">f2</text>
   </g>
   <polyline points="111.123,153.906 111.123,30.0737" stroke-linecap="butt" stroke="#000000" stroke-width="0.3" stroke-linejoin="round" stroke-dasharray="1,3,1,3,1,3,1,3" fill="none"/>
   <g xml:space="preserve" font-family="'Liberation Serif'" font-weight="normal" transform="translate(104.123,39.9463) rotate(-90,7,-7)" font-style="normal" font-size="8">
    <text x="0 3 " y="-0" fill="rgb(0,0,0)">f3</text>
   </g>
   <polyline points="49.6777,153.906 49.6777,30.0737" stroke-linecap="butt" stroke="#000000" stroke-width="0.3" stroke-linejoin="round" stroke-dasharray="1,3,1,3,1,3,1,3" fill="none"/>
   <g xml:space="preserve" font-family="'Liberation Serif'" font-weight="normal" transform="translate(42.6775,39.9463) rotate(-90,7,-7)" font-style="normal" font-size="8">
    <text x="0 3 " y="-0" fill="rgb(0,0,0)">f1</text>
   </g>
   <polyline points="46.2788,153.906 46.2788,30.0737" stroke-linecap="butt" stroke="#000000" stroke-width="0.5" stroke-linejoin="round" stroke-dasharray="1,3,1,3,1,3,1,3" fill="none"/>
   <g xml:space="preserve" font-family="'Liberation Serif'" font-weight="normal" transform="translate(38.279,52.0422) rotate(-90,8,-7)" font-style="normal" font-size="8">
    <text x="0 4 " y="-0" fill="rgb(0,0,0)">a2</text>
   </g>
   <polyline points="103.111,153.906 103.111,30.0737" stroke-linecap="butt" stroke="#000000" stroke-width="0.5" stroke-linejoin="round" stroke-dasharray="1,3,1,3,1,3,1,3" fill="none"/>
   <g xml:space="preserve" font-family="'Liberation Serif'" font-weight="normal" transform="translate(95.1114,52.0422) rotate(-90,8,-7)" font-style="normal" font-size="8">
    <text x="0 4 " y="-0" fill="rgb(0,0,0)">a3</text>
   </g>
   <polyline points="32.4839,153.906 32.4839,30.0737" stroke-linecap="butt" stroke="#000000" stroke-width="0.5" stroke-linejoin="round" stroke-dasharray="1,3,1,3,1,3,1,3" fill="none"/>
   <g xml:space="preserve" font-family="'Liberation Serif'" font-weight="normal" transform="translate(24.4838,52.0422) rotate(-90,8,-7)" font-style="normal" font-size="8">
    <text x="0 4 " y="-0" fill="rgb(0,0,0)">a1</text>
   </g>
   <g xml:space="preserve" font-family="'Liberation Serif'" font-weight="normal" transform="translate(55.3287,148.334) rotate(-0,-0,-3.5)" font-style="normal" font-size="8">
    <text x="0 6 11 17 21 25 28 34 40 43 50 56 61 65 69 72 76 80 " y="-0" fill="rgb(0,0,0)">UCASS-AD-MAZ04-011</text>
   </g>
  </g>
  <clipPath id="cp00176176">
   <polygon points="0,176 176,176 176,0 0,0"/>
  </clipPath>
  <g clip-path="url(#cp00176176)">
   <polyline points="30.0732,30.0737 30.0732,31.4429" stroke-linecap="butt" stroke="#262626" stroke-width="0.5" stroke-linejoin="miter" fill="none"/>
   <polyline points="95.0156,30.0737 95.0156,31.4429" stroke-linecap="butt" stroke="#262626" stroke-width="0.5" stroke-linejoin="miter" fill="none"/>
   <polyline points="123.878,30.0737 123.878,31.4429" stroke-linecap="butt" stroke="#262626" stroke-width="0.5" stroke-linejoin="miter" fill="none"/>
   <polyline points="152.742,30.0737 152.742,31.4429" stroke-linecap="butt" stroke="#262626" stroke-width="0.5" stroke-linejoin="miter" fill="none"/>
   <g xml:space="preserve" font-family="'Liberation Serif'" font-weight="normal" transform="translate(28.5735,25.5796) rotate(-0,1.5,0)" font-style="normal" font-size="6">
    <text x="0 " y="-1" fill="rgb(38,38,38)">0</text>
   </g>
   <g xml:space="preserve" font-family="'Liberation Serif'" font-weight="normal" transform="translate(93.5155,25.5796) rotate(-0,1.5,0)" font-style="normal" font-size="6">
    <text x="0 " y="-1" fill="rgb(38,38,38)">9</text>
   </g>
   <g xml:space="preserve" font-family="'Liberation Serif'" font-weight="normal" transform="translate(120.879,25.5796) rotate(-0,3,0)" font-style="normal" font-size="6">
    <text x="0 3 " y="-1" fill="rgb(38,38,38)">13</text>
   </g>
   <g xml:space="preserve" font-family="'Liberation Serif'" font-weight="normal" transform="translate(149.742,25.5796) rotate(-0,3,0)" font-style="normal" font-size="6">
    <text x="0 3 " y="-0" fill="rgb(38,38,38)">17</text>
   </g>
   <polyline points="167.173,30.0737 30.0732,30.0737" stroke-linecap="square" stroke="#262626" stroke-width="0.5" stroke-linejoin="miter" stroke-dasharray="16,0" fill="none"/>
   <polyline points="167.173,30.0737 167.173,153.906" stroke-linecap="square" stroke="#262626" stroke-width="0.5" stroke-linejoin="miter" stroke-dasharray="16,0" fill="none"/>
  </g>
 </g>
</svg>
