<?xml version='1.0' encoding='UTF-8' standalone='no'?>
<svg xmlns="http://www.w3.org/2000/svg" viewBox="0 0 176 176" height="176pt" xmlns:xlink="http://www.w3.org/1999/xlink" width="176pt">
 <title>Figure 8</title>
 <desc>
Creator: GL2PS 1.4.2, (C) 1999-2020 C. Geuzaine
For: Octave
CreationDate: Wed Feb 14 10:31:10 2024
</desc>
 <defs/>
 <polygon points="0,0 176,0 176,176 0,176" fill="#ffffff"/>
 <g>
  <polygon shape-rendering="crispEdges" points="0,176 176,176 176,0 0,0" fill="#ffffff"/>
  <clipPath id="cp00176176">
   <polygon points="0,176 176,176 176,0 0,0"/>
  </clipPath>
  <g clip-path="url(#cp00176176)">
   <polygon shape-rendering="crispEdges" points="30.0732,153.906 167.173,153.906 167.173,30.0737 30.0732,30.0737" fill="#ffffff"/>
   <polyline stroke-linejoin="miter" stroke-linecap="butt" stroke="#262626" points="30.0732,153.906 30.0732,152.537" fill="none" stroke-width="0.5"/>
   <polyline stroke-linejoin="miter" stroke-linecap="butt" stroke="#262626" points="66.1523,153.906 66.1523,152.537" fill="none" stroke-width="0.5"/>
   <polyline stroke-linejoin="miter" stroke-linecap="butt" stroke="#262626" points="102.231,153.906 102.231,152.537" fill="none" stroke-width="0.5"/>
   <polyline stroke-linejoin="miter" stroke-linecap="butt" stroke="#262626" points="138.31,153.906 138.31,152.537" fill="none" stroke-width="0.5"/>
   <g font-style="normal" xml:space="preserve" transform="translate(28.5735,163.399) rotate(-0,1.5,-5)" font-family="'Liberation Serif'" font-weight="normal" font-size="6">
    <text fill="rgb(38,38,38)" y="-1" x="0 ">0</text>
   </g>
   <g font-style="normal" xml:space="preserve" transform="translate(59.1524,163.399) rotate(-0,7,-5)" font-family="'Liberation Serif'" font-weight="normal" font-size="6">
    <text fill="rgb(38,38,38)" y="-1" x="0 3 6 8 11 ">5e-05</text>
   </g>
   <g font-style="normal" xml:space="preserve" transform="translate(93.7313,163.399) rotate(-0,8.5,-5)" font-family="'Liberation Serif'" font-weight="normal" font-size="6">
    <text fill="rgb(38,38,38)" y="-1" x="0 3 5 8 11 14 ">0.0001</text>
   </g>
   <g font-style="normal" xml:space="preserve" transform="translate(128.31,163.399) rotate(-0,10,-5)" font-family="'Liberation Serif'" font-weight="normal" font-size="6">
    <text fill="rgb(38,38,38)" y="-1" x="0 3 5 8 11 14 17 ">0.00015</text>
   </g>
   <polyline stroke-linejoin="miter" stroke-linecap="butt" stroke="#262626" points="30.0732,153.906 31.4453,153.906" fill="none" stroke-width="0.5"/>
   <polyline stroke-linejoin="miter" stroke-linecap="butt" stroke="#262626" points="30.0732,123.666 31.4453,123.666" fill="none" stroke-width="0.5"/>
   <polyline stroke-linejoin="miter" stroke-linecap="butt" stroke="#262626" points="30.0732,93.4258 31.4453,93.4258" fill="none" stroke-width="0.5"/>
   <polyline stroke-linejoin="miter" stroke-linecap="butt" stroke="#262626" points="30.0732,63.186 31.4453,63.186" fill="none" stroke-width="0.5"/>
   <polyline stroke-linejoin="miter" stroke-linecap="butt" stroke="#262626" points="30.0732,32.9463 31.4453,32.9463" fill="none" stroke-width="0.5"/>
   <g font-style="normal" xml:space="preserve" transform="translate(24.0713,156.406) rotate(-0,3,-2.5)" font-family="'Liberation Serif'" font-weight="normal" font-size="6">
    <text fill="rgb(38,38,38)" y="-1" x="0 ">0</text>
   </g>
   <g font-style="normal" xml:space="preserve" transform="translate(15.0713,126.166) rotate(-0,12,-2.5)" font-family="'Liberation Serif'" font-weight="normal" font-size="6">
    <text fill="rgb(38,38,38)" y="-1" x="0 3 6 9 ">1000</text>
   </g>
   <g font-style="normal" xml:space="preserve" transform="translate(15.0713,95.9259) rotate(-0,12,-2.5)" font-family="'Liberation Serif'" font-weight="normal" font-size="6">
    <text fill="rgb(38,38,38)" y="-1" x="0 3 6 9 ">2000</text>
   </g>
   <g font-style="normal" xml:space="preserve" transform="translate(15.0713,65.6861) rotate(-0,12,-2.5)" font-family="'Liberation Serif'" font-weight="normal" font-size="6">
    <text fill="rgb(38,38,38)" y="-1" x="0 3 6 9 ">3000</text>
   </g>
   <g font-style="normal" xml:space="preserve" transform="translate(15.0713,35.4463) rotate(-0,12,-2.5)" font-family="'Liberation Serif'" font-weight="normal" font-size="6">
    <text fill="rgb(38,38,38)" y="-1" x="0 3 6 9 ">4000</text>
   </g>
   <polyline stroke-linejoin="miter" stroke-linecap="square" stroke-dasharray="16,0" stroke="#262626" points="30.0732,153.906 167.173,153.906" fill="none" stroke-width="0.5"/>
   <polyline stroke-linejoin="miter" stroke-linecap="square" stroke-dasharray="16,0" stroke="#262626" points="30.0732,153.906 30.0732,30.0737" fill="none" stroke-width="0.5"/>
   <polyline stroke-linejoin="round" stroke-linecap="butt" stroke-dasharray="9,7" stroke="#000000" points="30.0732,153.906 30.1953,153.779 30.3169,153.653 30.4385,153.526 30.5601,153.4 30.6816,153.273 30.8032,153.147 30.9253,153.021 31.0469,152.895 31.1685,152.768 31.29,152.642 31.4116,152.515 31.5332,152.389 31.6548,152.262 31.7769,152.136 31.8984,152.009 32.02,151.883 32.1416,151.757 32.2632,151.63 32.3848,151.504 32.5063,151.377 32.6284,151.251 32.75,151.125 32.8716,150.998 32.9932,150.872 33.1147,150.746 33.2363,150.619 33.3579,150.493 33.48,150.366 33.6016,150.24 33.7231,150.113 33.8447,149.987 33.9663,149.861 34.0879,149.734 34.2095,149.608 34.3315,149.481 34.4531,149.355 34.5747,149.229 34.6963,149.102 34.8179,148.976 34.9395,148.85 35.061,148.723 35.1831,148.597 35.3047,148.47 35.4263,148.344 35.5479,148.217 35.6694,148.091 35.791,147.965 35.9131,147.838 36.0347,147.712 36.1562,147.585 36.2778,147.459 36.3994,147.333 36.521,147.206 36.6426,147.08 36.7646,146.954 36.8862,146.827 37.0078,146.701 37.1294,146.574 37.251,146.448 37.3726,146.321 37.4941,146.195 37.6162,146.068 37.7378,145.942 37.8594,145.816 37.981,145.689 38.1025,145.563 38.2241,145.437 38.3457,145.31 38.4678,145.184 38.5894,145.058 38.7109,144.931 38.8325,144.805 38.9541,144.678 39.0757,144.552 39.1973,144.425 39.3193,144.299 39.4409,144.172 39.5625,144.046 39.6841,143.92 39.8057,143.793 39.9272,143.667 40.0488,143.541 40.1709,143.414 40.2925,143.288 40.4141,143.161 40.5356,143.035 40.6572,142.909 40.7788,142.782 40.9004,142.656 41.0225,142.529 41.144,142.403 41.2656,142.276 41.3872,142.15 41.5088,142.024 41.6304,141.897 41.752,141.771 41.874,141.645 41.9956,141.518 42.1172,141.392 42.2388,141.265 42.3604,141.139 42.4819,141.013 42.604,140.886 42.7256,140.76 42.8472,140.633 42.9688,140.507 43.0903,140.38 43.2119,140.254 43.3335,140.128 43.4556,140.001 43.5771,139.875 43.6987,139.749 43.8203,139.622 43.9419,139.496 44.0635,139.369 44.1851,139.243 44.3071,139.117 44.4287,138.99 44.5503,138.864 44.6719,138.737 44.7935,138.611 44.915,138.484 45.0366,138.358 45.1587,138.231 45.2803,138.105 45.4019,137.979 45.5234,137.853 45.645,137.726 45.7666,137.6 45.8882,137.473 46.0103,137.347 46.1318,137.22 46.2534,137.094 46.375,136.968 46.4966,136.841 46.6182,136.715 46.7397,136.588 46.8618,136.462 46.9834,136.335 47.105,136.209 47.2266,136.083 47.3481,135.957 47.4697,135.83 47.5918,135.704 47.7134,135.577 47.835,135.451 47.9565,135.324 48.0781,135.198 48.1997,135.072 48.3213,134.945 48.4434,134.819 48.5649,134.692 48.6865,134.566 48.8081,134.439 48.9297,134.313 49.0513,134.187 49.1729,134.061 49.2949,133.934 49.4165,133.808 49.5381,133.681 49.6597,133.555 49.7812,133.428 49.9028,133.302 50.0244,133.176 50.1465,133.049 50.2681,132.923 50.3896,132.796 50.5112,132.67 50.6328,132.543 50.7544,132.417 50.876,132.291 50.998,132.165 51.1196,132.038 51.2412,131.912 51.3628,131.785 51.4844,131.659 51.606,131.532 51.7275,131.406 51.8496,131.279 51.9712,131.153 52.0928,131.027 52.2144,130.9 52.3359,130.774 52.4575,130.647 52.5791,130.521 52.7012,130.395 52.8228,130.268 52.9443,130.142 53.0659,130.016 53.1875,129.889 53.3091,129.763 53.4307,129.636 53.5527,129.51 53.6743,129.383 53.7959,129.257 53.9175,129.131 54.0391,129.004 54.1606,128.878 54.2827,128.751 54.4043,128.625 54.5259,128.499 54.6475,128.372 54.769,128.246 54.8906,128.12 55.0122,127.993 55.1343,127.867 55.2559,127.74 55.3774,127.614 55.499,127.487 55.6206,127.361 55.7422,127.235 55.8638,127.108 55.9858,126.982 56.1074,126.855 56.229,126.729 56.3506,126.603 56.4722,126.476 56.5938,126.35 56.7153,126.224 56.8374,126.097 56.959,125.971 57.0806,125.844 57.2021,125.718 57.3237,125.591 57.4453,125.465 57.5669,125.338 57.689,125.212 57.8105,125.086 57.9321,124.959 58.0537,124.833 58.1753,124.707 58.2969,124.58 58.4185,124.454 58.5405,124.328 58.6621,124.201 58.7837,124.075 58.9053,123.948 59.0269,123.822 59.1484,123.695 59.27,123.569 59.3921,123.442 59.5137,123.316 59.6353,123.19 59.7568,123.063 59.8784,122.937 60,122.811 60.1221,122.684 60.2437,122.558 60.3652,122.431 60.4868,122.305 60.6084,122.179 60.73,122.052 60.8516,121.926 60.9736,121.799 61.0952,121.673 61.2168,121.546 61.3384,121.42 61.46,121.294 61.5815,121.167 61.7031,121.041 61.8252,120.915 61.9468,120.788 62.0684,120.662 62.1899,120.535 62.3115,120.409 62.4331,120.283 62.5547,120.156 62.6768,120.03 62.7983,119.903 62.9199,119.777 63.0415,119.65 63.1631,119.524 63.2847,119.398 63.4062,119.271 63.5283,119.145 63.6499,119.019 63.7715,118.892 63.8931,118.766 64.0146,118.639 64.1362,118.513 64.2578,118.387 64.3799,118.26 64.5015,118.134 64.623,118.007 64.7446,117.881 64.8662,117.754 64.9878,117.628 65.1094,117.501 65.2314,117.375 65.353,117.249 65.4746,117.123 65.5962,116.996 65.7178,116.87 65.8394,116.743 65.9614,116.617 66.083,116.49 66.2046,116.364 66.3262,116.238 66.4478,116.111 66.5693,115.985 66.6909,115.858 66.813,115.732 66.9346,115.605 67.0562,115.479 67.1777,115.353 67.2993,115.227 67.4209,115.1 67.5425,114.974 67.6646,114.847 67.7861,114.721 67.9077,114.594 68.0293,114.468 68.1509,114.342 68.2725,114.215 68.394,114.089 68.5161,113.962 68.6377,113.836 68.7593,113.709 68.8809,113.583 69.0024,113.457 69.124,113.331 69.2456,113.204 69.3677,113.078 69.4893,112.951 69.6108,112.825 69.7324,112.698 69.854,112.572 69.9756,112.446 70.0972,112.319 70.2192,112.193 70.3408,112.066 70.4624,111.94 70.584,111.813 70.7056,111.687 70.8271,111.561 70.9487,111.435 71.0708,111.308 71.1924,111.182 71.314,111.055 71.4355,110.929 71.5571,110.802 71.6787,110.676 71.8008,110.549 71.9224,110.423 72.0439,110.297 72.1655,110.17 72.2871,110.044 72.4087,109.917 72.5303,109.791 72.6523,109.665 72.7739,109.538 72.8955,109.412 73.0171,109.286 73.1387,109.159 73.2603,109.033 73.3818,108.906 73.5039,108.78 73.6255,108.653 73.7471,108.527 73.8687,108.401 73.9902,108.274 74.1118,108.148 74.2334,108.021 74.3555,107.895 74.4771,107.769 74.5986,107.642 74.7202,107.516 74.8418,107.39 74.9634,107.263 75.085,107.137 75.207,107.01 75.3286,106.884 75.4502,106.757 75.5718,106.631 75.6934,106.505 75.8149,106.378 75.9365,106.252 76.0586,106.125 76.1802,105.999 76.3018,105.873 76.4233,105.746 76.5449,105.62 76.6665,105.494 76.7881,105.367 76.9102,105.241 77.0317,105.114 77.1533,104.988 77.2749,104.861 77.3965,104.735 77.5181,104.608 77.6401,104.482 77.7617,104.356 77.8833,104.229 78.0049,104.103 78.1265,103.977 78.248,103.85 78.3696,103.724 78.4917,103.598 78.6133,103.471 78.7349,103.345 78.8564,103.218 78.978,103.092 79.0996,102.965 79.2212,102.839 79.3433,102.712 79.4648,102.586 79.5864,102.46 79.708,102.333 79.8296,102.207 79.9512,102.081 80.0728,101.954 80.1948,101.828 80.3164,101.701 80.438,101.575 80.5596,101.449 80.6812,101.322 80.8027,101.196 80.9243,101.069 81.0464,100.943 81.168,100.816 81.2896,100.69 81.4111,100.564 81.5327,100.438 81.6543,100.311 81.7759,100.185 81.8979,100.058 82.0195,99.9316 82.1411,99.8052 82.2627,99.6787 82.3843,99.5527 82.5059,99.4263 82.6274,99.2998 82.7495,99.1733 82.8711,99.0469 82.9927,98.9204 83.1143,98.7939 83.2358,98.668 83.3574,98.5415 83.4795,98.415 83.6011,98.2886 83.7227,98.1621 83.8442,98.0356 83.9658,97.9092 84.0874,97.7827 84.209,97.6567 84.3311,97.5303 84.4526,97.4038 84.5742,97.2773 84.6958,97.1509 84.8174,97.0244 84.939,96.8979 85.0605,96.7715 85.1826,96.6455 85.3042,96.519 85.4258,96.3926 85.5474,96.2661 85.6689,96.1396 85.7905,96.0132 85.9121,95.8867 86.0342,95.7603 86.1558,95.6343 86.2773,95.5078 86.3989,95.3813 86.5205,95.2549 86.6421,95.1284 86.7637,95.002 86.8857,94.8755 87.0073,94.749 87.1289,94.623 87.2505,94.4966 87.3721,94.3701 87.4937,94.2437 87.6152,94.1172 87.7373,93.9907 87.8589,93.8643 87.9805,93.7378 88.1021,93.6118 88.2236,93.4854 88.3452,93.3589 88.4668,93.2324 88.5889,93.106 88.7104,92.9795 88.832,92.853 88.9536,92.7271 89.0752,92.6006 89.1968,92.4741 89.3184,92.3477 89.4404,92.2212 89.562,92.0947 89.6836,91.9683 89.8052,91.8418 89.9268,91.7158 90.0483,91.5894 90.1704,91.4629 90.292,91.3364 90.4136,91.21 90.5352,91.0835 90.6567,90.957 90.7783,90.8306 90.8999,90.7046 91.022,90.5781 91.1436,90.4517 91.2651,90.3252 91.3867,90.1987 91.5083,90.0723 91.6299,89.9458 91.7515,89.8193 91.8735,89.6934 91.9951,89.5669 92.1167,89.4404 92.2383,89.314 92.3599,89.1875 92.4814,89.061 92.603,88.9346 92.7251,88.8081 92.8467,88.6821 92.9683,88.5557 93.0898,88.4292 93.2114,88.3027 93.333,88.1763 93.4546,88.0498 93.5767,87.9233 93.6982,87.7974 93.8198,87.6709 93.9414,87.5444 94.063,87.418 94.1846,87.2915 94.3062,87.165 94.4282,87.0386 94.5498,86.9121 94.6714,86.7861 94.793,86.6597 94.9146,86.5332 95.0361,86.4067 95.1577,86.2803 95.2798,86.1538 95.4014,86.0273 95.5229,85.9009 95.6445,85.7749 95.7661,85.6484 95.8877,85.522 96.0098,85.3955 96.1313,85.269 96.2529,85.1426 96.3745,85.0161 96.4961,84.8896 96.6177,84.7637 96.7393,84.6372 96.8613,84.5107 96.9829,84.3843 97.1045,84.2578 97.2261,84.1313 97.3477,84.0049 97.4692,83.8784 97.5908,83.7524 97.7129,83.626 97.8345,83.4995 97.9561,83.373 98.0776,83.2466 98.1992,83.1201 98.3208,82.9937 98.4424,82.8677 98.5645,82.7412 98.686,82.6147 98.8076,82.4883 98.9292,82.3618 99.0508,82.2354 99.1724,82.1089 99.2939,81.9824 99.416,81.8564 99.5376,81.73 99.6592,81.6035 99.7808,81.4771 99.9023,81.3506 100.024,81.2241 100.146,81.0977 100.268,80.9712 100.389,80.8452 100.511,80.7188 100.632,80.5923 100.754,80.4658 100.875,80.3394 100.997,80.2129 101.119,80.0864 101.241,79.96 101.362,79.834 101.484,79.7075 101.605,79.5811 101.727,79.4546 101.849,79.3281 101.971,79.2017 102.092,79.0752 102.214,78.9487 102.335,78.8228 102.457,78.6963 102.579,78.5698 102.701,78.4434 102.822,78.3169 102.944,78.1904 103.065,78.064 103.187,77.9375 103.309,77.8115 103.43,77.6851 103.552,77.5586 103.674,77.4321 103.795,77.3057 103.917,77.1792 104.039,77.0527 104.16,76.9268 104.282,76.8003 104.404,76.6738 104.525,76.5474 104.647,76.4209 104.769,76.2944 104.89,76.168 105.012,76.0415 105.133,75.9155 105.255,75.7891 105.377,75.6626 105.499,75.5361 105.62,75.4097 105.742,75.2832 105.863,75.1567 105.985,75.0303 106.107,74.9043 106.229,74.7778 106.35,74.6514 106.472,74.5249 106.593,74.3984 106.715,74.272 106.836,74.1455 106.958,74.019 107.08,73.8931 107.202,73.7666 107.323,73.6401 107.445,73.5137 107.566,73.3872 107.688,73.2607 107.81,73.1343 107.932,73.0078 108.053,72.8818 108.175,72.7554 108.296,72.6289 108.418,72.5024 108.54,72.376 108.662,72.2495 108.783,72.123 108.905,71.9971 109.026,71.8706 109.148,71.7441 109.27,71.6177 109.392,71.4912 109.513,71.3647 109.635,71.2383 109.756,71.1118 109.878,70.9858 110,70.8594 110.121,70.7329 110.243,70.6064 110.365,70.48 110.486,70.3535 110.608,70.2271 110.729,70.1006 110.851,69.9746 110.973,69.8481 111.095,69.7217 111.216,69.5952 111.338,69.4688 111.459,69.3423 111.581,69.2158 111.703,69.0894 111.824,68.9634 111.946,68.8369 112.068,68.7104 112.189,68.584 112.311,68.4575 112.433,68.3311 112.554,68.2046 112.676,68.0781 112.798,67.9521 112.919,67.8257 113.041,67.6992 113.163,67.5728 113.284,67.4463 113.406,67.3198 113.527,67.1934 113.649,67.0674 113.771,66.9409 113.893,66.8145 114.014,66.688 114.136,66.5615 114.257,66.4351 114.379,66.3086 114.501,66.1821 114.623,66.0562 114.744,65.9297 114.866,65.8032 114.987,65.6768 115.109,65.5503 115.231,65.4238 115.353,65.2974 115.474,65.1709 115.596,65.0449 115.717,64.9185 115.839,64.792 115.96,64.6655 116.083,64.5391 116.204,64.4126 116.326,64.2861 116.447,64.1597 116.569,64.0337 116.69,63.9072 116.812,63.7808 116.934,63.6543 117.056,63.5278 117.177,63.4014 117.299,63.2749 117.42,63.1484 117.542,63.0225 117.664,62.896 117.786,62.7695 117.907,62.6431 118.029,62.5166 118.15,62.3901 118.272,62.2637 118.394,62.1377 118.515,62.0112 118.637,61.8848 118.759,61.7583 118.88,61.6318 119.002,61.5054 119.124,61.3789 119.245,61.2524 119.367,61.1265 119.489,61 119.61,60.8735 119.732,60.7471 119.854,60.6206 119.975,60.4941 120.097,60.3677 120.219,60.2412 120.34,60.1152 120.462,59.9888 120.583,59.8623 120.705,59.7358 120.827,59.6094 120.948,59.4829 121.07,59.3564 121.192,59.23 121.313,59.104 121.435,58.9775 121.557,58.8511 121.678,58.7246 121.8,58.5981 121.922,58.4717 122.043,58.3452 122.165,58.2188 122.287,58.0928 122.408,57.9663 122.53,57.8398 122.651,57.7134 122.773,57.5869 122.895,57.4604 123.017,57.334 123.138,57.208 123.26,57.0815 123.381,56.9551 123.503,56.8286 123.625,56.7021 123.747,56.5757 123.868,56.4492 123.99,56.3228 124.111,56.1968 124.233,56.0703 124.354,55.9438 124.477,55.8174 124.598,55.6909 124.72,55.5645 124.841,55.438 124.963,55.3115 125.084,55.1855 125.206,55.0591 125.328,54.9326 125.45,54.8062 125.571,54.6797 125.693,54.5532 125.814,54.4268 125.936,54.3003 126.058,54.1743 126.18,54.0479 126.301,53.9214 126.423,53.7949 126.544,53.6685 126.666,53.542 126.788,53.4155 126.91,53.2891 127.031,53.1631 127.153,53.0366 127.274,52.9102 127.396,52.7837 127.518,52.6572 127.639,52.5308 127.761,52.4043 127.883,52.2778 128.004,52.1519 128.126,52.0254 128.248,51.8989 128.369,51.7725 128.491,51.646 128.613,51.5195 128.734,51.3931 128.856,51.2671 128.978,51.1406 129.099,51.0142 129.221,50.8877 129.342,50.7612 129.464,50.6348 129.586,50.5083 129.708,50.3818 129.829,50.2559 129.951,50.1294 130.072,50.0029 130.194,49.8765 130.316,49.75 130.438,49.6235 130.559,49.4971 130.681,49.3706 130.802,49.2446 130.924,49.1182 131.046,48.9917 131.167,48.8652 131.289,48.7388 131.411,48.6123 131.532,48.4858 131.654,48.3594 131.775,48.2334 131.897,48.1069 132.019,47.9805 132.141,47.854 132.262,47.7275 132.384,47.6011 132.505,47.4746 132.627,47.3481 132.749,47.2222 132.871,47.0957 132.992,46.9692 133.114,46.8428 133.235,46.7163 133.357,46.5898 133.479,46.4634 133.601,46.3374 133.722,46.2109 133.844,46.0845 133.965,45.958 134.087,45.8315 134.208,45.7051 134.33,45.5786 134.452,45.4521 134.574,45.3262 134.695,45.1997 134.817,45.0732 134.938,44.9468 135.06,44.8203 135.182,44.6938 135.304,44.5674 135.425,44.4409 135.547,44.3149 135.668,44.1885 135.79,44.062 135.912,43.9355 136.033,43.8091 136.155,43.6826 136.277,43.5562 136.398,43.4297 136.52,43.3037 136.642,43.1772 136.763,43.0508 136.885,42.9243 137.007,42.7979 137.128,42.6714 137.25,42.5449 137.372,42.4185 137.493,42.2925 137.615,42.166 137.736,42.0396 137.858,41.9131 137.98,41.7866 138.102,41.6602 138.223,41.5337 138.345,41.4072 138.466,41.2812 138.588,41.1548 138.71,41.0283 138.832,40.9019 138.953,40.7754 139.075,40.6489 139.196,40.5225 139.318,40.3965 139.44,40.27 139.562,40.1436 139.683,40.0171 139.805,39.8906 139.926,39.7642 140.048,39.6377 140.169,39.5112 140.292,39.3853 140.413,39.2588 140.535,39.1323 140.656,39.0059 140.778,38.8794 140.899,38.7529 141.021,38.6265 141.143,38.5 141.265,38.374 141.386,38.2476 141.508,38.1211 141.629,37.9946 141.751,37.8682 141.873,37.7417 141.995,37.6152 142.116,37.4888 142.238,37.3628 142.359,37.2363 142.481,37.1099 142.603,36.9834 142.725,36.8569 142.846,36.7305 142.968,36.604 143.089,36.4775 143.211,36.3516 143.333,36.2251 143.454,36.0986 143.576,35.9722 143.698,35.8457 143.819,35.7192 143.941,35.5928 144.062,35.4668 144.184,35.3403 144.306,35.2139 144.428,35.0874 144.549,34.9609 144.671,34.8345 144.792,34.708 144.914,34.5815 145.036,34.4556 145.157,34.3291 145.279,34.2026 145.401,34.0762 145.522,33.9497 145.644,33.8232 145.766,33.6968 145.887,33.5703 146.009,33.4443 146.131,33.3179 146.252,33.1914 146.374,33.0649 146.496,32.9385 146.617,32.812 146.739,32.6855 146.86,32.5591 146.982,32.4331 147.104,32.3066 147.226,32.1802 147.347,32.0537 147.469,31.9272 147.59,31.8008 147.712,31.6743 147.834,31.5479 147.956,31.4219 148.077,31.2954 148.199,31.1689 148.32,31.0425 148.442,30.916 148.563,30.7896 148.686,30.6631 148.807,30.5371 148.929,30.4106 149.05,30.2842 149.172,30.1577 149.293,30.0312 149.372,29.9497" fill="none" stroke-width="0.5"/>
   <polyline stroke-linejoin="round" stroke-linecap="butt" stroke-dasharray="8,3,2,3" stroke="#000000" points="29.9365,149.78 30.0269,149.691 30.1528,149.567 30.2788,149.443 30.4048,149.319 30.5308,149.195 30.6567,149.071 30.7827,148.947 30.9087,148.823 31.0347,148.699 31.1611,148.575 31.2871,148.452 31.4131,148.328 31.5391,148.204 31.665,148.08 31.791,147.956 31.917,147.832 32.043,147.708 32.1689,147.584 32.2949,147.46 32.4209,147.336 32.5469,147.212 32.6729,147.088 32.7988,146.964 32.9248,146.84 33.0508,146.716 33.1768,146.592 33.3027,146.468 33.4287,146.344 33.5547,146.22 33.6807,146.096 33.8066,145.972 33.9326,145.849 34.0586,145.725 34.1846,145.601 34.3105,145.477 34.4365,145.353 34.5625,145.229 34.6885,145.104 34.8145,144.98 34.9404,144.857 35.0664,144.733 35.1924,144.609 35.3184,144.485 35.4443,144.361 35.5703,144.237 35.6963,144.113 35.8223,143.989 35.9482,143.865 36.0742,143.741 36.2002,143.617 36.3262,143.493 36.4521,143.369 36.5781,143.245 36.7041,143.122 36.8306,142.998 36.9565,142.874 37.0825,142.75 37.2085,142.625 37.3345,142.501 37.4604,142.377 37.5864,142.254 37.7124,142.13 37.8384,142.006 37.9644,141.882 38.0903,141.758 38.2163,141.634 38.3423,141.51 38.4683,141.386 38.5942,141.262 38.7202,141.138 38.8462,141.014 38.9722,140.89 39.0981,140.766 39.2241,140.642 39.3501,140.518 39.4761,140.395 39.6021,140.271 39.728,140.146 39.854,140.022 39.98,139.898 40.106,139.774 40.2319,139.65 40.3579,139.527 40.4839,139.403 40.6099,139.279 40.7358,139.155 40.8618,139.031 40.9878,138.907 41.1138,138.783 41.2397,138.659 41.3657,138.535 41.4917,138.411 41.6177,138.287 41.7437,138.163 41.8696,138.039 41.9956,137.915 42.1216,137.791 42.248,137.667 42.374,137.543 42.5,137.419 42.626,137.295 42.752,137.171 42.8779,137.047 43.0039,136.923 43.1299,136.8 43.2559,136.676 43.3818,136.552 43.5078,136.428 43.6338,136.304 43.7598,136.18 43.8857,136.056 44.0117,135.932 44.1377,135.808 44.2637,135.684 44.3896,135.56 44.5156,135.436 44.6416,135.312 44.7676,135.188 44.8936,135.064 45.0195,134.94 45.1455,134.816 45.2715,134.692 45.3975,134.568 45.5234,134.444 45.6494,134.32 45.7754,134.197 45.9014,134.073 46.0273,133.949 46.1533,133.825 46.2793,133.701 46.4053,133.577 46.5312,133.453 46.6572,133.329 46.7832,133.205 46.9092,133.081 47.0352,132.957 47.1611,132.833 47.2871,132.709 47.4131,132.585 47.5391,132.461 47.665,132.337 47.791,132.213 47.9175,132.089 48.0435,131.965 48.1694,131.841 48.2954,131.717 48.4214,131.593 48.5474,131.47 48.6733,131.346 48.7993,131.222 48.9253,131.098 49.0513,130.974 49.1772,130.85 49.3032,130.726 49.4292,130.602 49.5552,130.478 49.6812,130.354 49.8071,130.23 49.9331,130.106 50.0591,129.982 50.1851,129.858 50.311,129.734 50.437,129.61 50.563,129.486 50.689,129.362 50.8149,129.238 50.9409,129.114 51.0669,128.99 51.1929,128.866 51.3188,128.743 51.4448,128.619 51.5708,128.495 51.6968,128.371 51.8228,128.247 51.9487,128.123 52.0747,127.999 52.2007,127.875 52.3267,127.751 52.4526,127.627 52.5786,127.503 52.7046,127.379 52.8306,127.255 52.9565,127.131 53.0825,127.007 53.2085,126.883 53.3345,126.759 53.4609,126.635 53.5869,126.511 53.7129,126.387 53.8389,126.263 53.9648,126.139 54.0908,126.016 54.2168,125.892 54.3428,125.768 54.4688,125.644 54.5947,125.52 54.7207,125.396 54.8467,125.271 54.9727,125.148 55.0986,125.024 55.2246,124.9 55.3506,124.776 55.4766,124.652 55.6025,124.528 55.7285,124.404 55.8545,124.28 55.9805,124.156 56.1064,124.032 56.2324,123.908 56.3584,123.784 56.4844,123.66 56.6104,123.536 56.7363,123.413 56.8623,123.289 56.9883,123.165 57.1143,123.041 57.2402,122.917 57.3662,122.792 57.4922,122.668 57.6182,122.544 57.7441,122.421 57.8701,122.297 57.9961,122.173 58.1221,122.049 58.248,121.925 58.374,121.801 58.5,121.677 58.626,121.553 58.752,121.429 58.8779,121.305 59.0039,121.181 59.1304,121.057 59.2563,120.933 59.3823,120.809 59.5083,120.686 59.6343,120.562 59.7603,120.438 59.8862,120.313 60.0122,120.189 60.1382,120.065 60.2642,119.941 60.3901,119.818 60.5161,119.694 60.6421,119.57 60.7681,119.446 60.894,119.322 61.02,119.198 61.146,119.074 61.272,118.95 61.3979,118.826 61.5239,118.702 61.6499,118.578 61.7759,118.454 61.9019,118.33 62.0278,118.206 62.1538,118.082 62.2798,117.958 62.4058,117.834 62.5317,117.71 62.6577,117.586 62.7837,117.462 62.9097,117.338 63.0356,117.214 63.1616,117.091 63.2876,116.967 63.4136,116.843 63.5396,116.719 63.6655,116.595 63.7915,116.471 63.9175,116.347 64.0435,116.223 64.1694,116.099 64.2954,115.975 64.4214,115.851 64.5474,115.727 64.6738,115.603 64.7998,115.479 64.9258,115.355 65.0518,115.231 65.1777,115.107 65.3037,114.983 65.4297,114.859 65.5557,114.735 65.6816,114.611 65.8076,114.487 65.9336,114.364 66.0596,114.24 66.1855,114.116 66.3115,113.992 66.4375,113.868 66.5635,113.744 66.6895,113.62 66.8154,113.496 66.9414,113.372 67.0674,113.248 67.1934,113.124 67.3193,113 67.4453,112.876 67.5713,112.752 67.6973,112.628 67.8232,112.504 67.9492,112.38 68.0752,112.256 68.2012,112.132 68.3271,112.008 68.4531,111.884 68.5791,111.76 68.7051,111.637 68.8311,111.513 68.957,111.389 69.083,111.265 69.209,111.141 69.335,111.017 69.4609,110.893 69.5869,110.769 69.7129,110.645 69.8389,110.521 69.9648,110.397 70.0908,110.273 70.2173,110.149 70.3433,110.025 70.4692,109.901 70.5952,109.777 70.7212,109.653 70.8472,109.529 70.9731,109.405 71.0991,109.281 71.2251,109.157 71.3511,109.034 71.4771,108.91 71.603,108.786 71.729,108.662 71.855,108.538 71.981,108.414 72.1069,108.29 72.2329,108.166 72.3589,108.042 72.4849,107.918 72.6108,107.794 72.7368,107.67 72.8628,107.546 72.9888,107.422 73.1147,107.298 73.2407,107.174 73.3667,107.05 73.4927,106.926 73.6187,106.802 73.7446,106.678 73.8706,106.554 73.9966,106.43 74.1226,106.307 74.2485,106.183 74.3745,106.059 74.5005,105.935 74.6265,105.811 74.7524,105.687 74.8784,105.562 75.0044,105.439 75.1304,105.315 75.2563,105.191 75.3823,105.067 75.5083,104.943 75.6343,104.819 75.7607,104.695 75.8867,104.571 76.0127,104.447 76.1387,104.323 76.2646,104.199 76.3906,104.075 76.5166,103.951 76.6426,103.827 76.7686,103.703 76.8945,103.58 77.0205,103.456 77.1465,103.332 77.2725,103.208 77.3984,103.083 77.5244,102.959 77.6504,102.835 77.7764,102.712 77.9023,102.588 78.0283,102.464 78.1543,102.34 78.2803,102.216 78.4062,102.092 78.5322,101.968 78.6582,101.844 78.7842,101.72 78.9102,101.596 79.0361,101.472 79.1621,101.348 79.2881,101.224 79.4141,101.1 79.54,100.977 79.666,100.853 79.792,100.729 79.918,100.604 80.0439,100.48 80.1699,100.356 80.2959,100.232 80.4219,100.108 80.5479,99.9849 80.6738,99.8608 80.7998,99.7368 80.9258,99.6128 81.0518,99.4888 81.1777,99.3647 81.3042,99.2407 81.4302,99.1172 81.5562,98.9932 81.6821,98.8691 81.8081,98.7451 81.9341,98.6211 82.0601,98.4971 82.186,98.373 82.312,98.2495 82.438,98.1255 82.564,98.0015 82.6899,97.8774 82.8159,97.7534 82.9419,97.6294 83.0679,97.5054 83.1938,97.3818 83.3198,97.2578 83.4458,97.1338 83.5718,97.0098 83.6978,96.8857 83.8237,96.7617 83.9497,96.6377 84.0757,96.5137 84.2017,96.3901 84.3276,96.2661 84.4536,96.1421 84.5796,96.0181 84.7056,95.894 84.8315,95.77 84.9575,95.646 85.0835,95.5225 85.2095,95.3984 85.3354,95.2744 85.4614,95.1504 85.5874,95.0264 85.7134,94.9023 85.8394,94.7783 85.9653,94.6548 86.0913,94.5308 86.2173,94.4067 86.3433,94.2827 86.4692,94.1587 86.5952,94.0347 86.7212,93.9106 86.8477,93.7871 86.9736,93.6631 87.0996,93.5391 87.2256,93.415 87.3516,93.291 87.4775,93.167 87.6035,93.043 87.7295,92.9189 87.8555,92.7954 87.9814,92.6714 88.1074,92.5474 88.2334,92.4233 88.3594,92.2993 88.4854,92.1753 88.6113,92.0513 88.7373,91.9277 88.8633,91.8037 88.9893,91.6797 89.1152,91.5557 89.2412,91.4316 89.3672,91.3076 89.4932,91.1836 89.6191,91.0601 89.7451,90.936 89.8711,90.812 89.9971,90.688 90.123,90.564 90.249,90.4399 90.375,90.3159 90.501,90.1924 90.627,90.0684 90.7529,89.9443 90.8789,89.8203 91.0049,89.6963 91.1309,89.5723 91.2568,89.4482 91.3828,89.3242 91.5088,89.2007 91.6348,89.0767 91.7607,88.9526 91.8867,88.8286 92.0127,88.7046 92.1387,88.5806 92.2646,88.4565 92.3906,88.333 92.5171,88.209 92.6431,88.085 92.769,87.9609 92.895,87.8369 93.021,87.7129 93.147,87.5889 93.2729,87.4653 93.3989,87.3413 93.5249,87.2173 93.6509,87.0933 93.7769,86.9692 93.9028,86.8452 94.0288,86.7212 94.1548,86.5977 94.2808,86.4736 94.4067,86.3496 94.5327,86.2256 94.6587,86.1016 94.7847,85.9775 94.9106,85.8535 95.0366,85.73 95.1626,85.606 95.2886,85.4819 95.4146,85.3579 95.5405,85.2339 95.6665,85.1099 95.7925,84.9858 95.9185,84.8618 96.0444,84.7383 96.1704,84.6143 96.2964,84.4902 96.4224,84.3662 96.5483,84.2422 96.6743,84.1182 96.8003,83.9941 96.9263,83.8706 97.0522,83.7466 97.1782,83.6226 97.3042,83.4985 97.4302,83.3745 97.5562,83.2505 97.6821,83.1265 97.8081,83.0029 97.9341,82.8789 98.0605,82.7549 98.1865,82.6309 98.3125,82.5068 98.4385,82.3828 98.5645,82.2588 98.6904,82.1353 98.8164,82.0112 98.9424,81.8872 99.0684,81.7632 99.1943,81.6392 99.3203,81.5151 99.4463,81.3911 99.5723,81.2671 99.6982,81.1436 99.8242,81.0195 99.9502,80.8955 100.076,80.7715 100.202,80.6475 100.328,80.5234 100.454,80.3994 100.58,80.2759 100.706,80.1519 100.832,80.0278 100.958,79.9038 101.084,79.7798 101.21,79.6558 101.336,79.5317 101.462,79.4082 101.588,79.2842 101.714,79.1602 101.84,79.0361 101.966,78.9121 102.092,78.7881 102.218,78.6641 102.344,78.5405 102.47,78.4165 102.596,78.2925 102.722,78.1685 102.848,78.0444 102.974,77.9204 103.1,77.7964 103.226,77.6724 103.352,77.5488 103.478,77.4248 103.604,77.3008 103.73,77.1768 103.856,77.0527 103.982,76.9287 104.108,76.8047 104.234,76.6812 104.36,76.5571 104.486,76.4331 104.612,76.3091 104.738,76.1851 104.864,76.061 104.99,75.937 105.116,75.8135 105.242,75.6895 105.368,75.5654 105.494,75.4414 105.62,75.3174 105.746,75.1934 105.872,75.0693 105.998,74.9458 106.124,74.8218 106.25,74.6978 106.375,74.5737 106.501,74.4497 106.627,74.3257 106.753,74.2017 106.879,74.0776 107.005,73.9541 107.131,73.8301 107.257,73.7061 107.383,73.582 107.509,73.458 107.635,73.334 107.761,73.21 107.887,73.0864 108.013,72.9624 108.139,72.8384 108.265,72.7144 108.391,72.5903 108.517,72.4663 108.643,72.3423 108.769,72.2188 108.895,72.0947 109.021,71.9707 109.147,71.8467 109.273,71.7227 109.399,71.5986 109.525,71.4746 109.651,71.3511 109.777,71.2271 109.903,71.103 110.029,70.979 110.155,70.855 110.281,70.731 110.407,70.6069 110.533,70.4829 110.659,70.3594 110.785,70.2354 110.911,70.1113 111.037,69.9873 111.163,69.8633 111.289,69.7393 111.415,69.6152 111.541,69.4917 111.667,69.3677 111.793,69.2437 111.919,69.1196 112.045,68.9956 112.171,68.8716 112.297,68.7476 112.423,68.624 112.549,68.5 112.675,68.376 112.801,68.252 112.927,68.1279 113.053,68.0039 113.179,67.8799 113.305,67.7563 113.431,67.6323 113.557,67.5083 113.683,67.3843 113.809,67.2603 113.935,67.1362 114.061,67.0122 114.187,66.8882 114.312,66.7646 114.438,66.6406 114.564,66.5166 114.69,66.3926 114.817,66.2686 114.943,66.1445 115.069,66.0205 115.195,65.897 115.321,65.7729 115.447,65.6489 115.573,65.5249 115.699,65.4009 115.825,65.2769 115.951,65.1528 116.077,65.0293 116.203,64.9053 116.329,64.7812 116.455,64.6572 116.581,64.5332 116.707,64.4092 116.833,64.2852 116.958,64.1616 117.084,64.0376 117.21,63.9136 117.336,63.7896 117.462,63.6655 117.588,63.5415 117.714,63.4175 117.84,63.2935 117.966,63.1699 118.092,63.0459 118.218,62.9219 118.344,62.7979 118.47,62.6738 118.596,62.5498 118.722,62.4258 118.848,62.3022 118.974,62.1782 119.1,62.0542 119.226,61.9302 119.352,61.8062 119.478,61.6821 119.604,61.5581 119.73,61.4346 119.856,61.3105 119.982,61.1865 120.108,61.0625 120.234,60.9385 120.36,60.8145 120.486,60.6904 120.612,60.5669 120.738,60.4429 120.864,60.3188 120.99,60.1948 121.116,60.0708 121.242,59.9468 121.368,59.8228 121.494,59.6987 121.62,59.5752 121.746,59.4512 121.872,59.3271 121.998,59.2031 122.124,59.0791 122.25,58.9551 122.376,58.8311 122.502,58.7075 122.628,58.5835 122.754,58.4595 122.88,58.3354 123.006,58.2114 123.132,58.0874 123.258,57.9634 123.384,57.8398 123.51,57.7158 123.636,57.5918 123.762,57.4678 123.888,57.3438 124.014,57.2197 124.14,57.0957 124.266,56.9722 124.392,56.8481 124.518,56.7241 124.644,56.6001 124.77,56.4761 124.896,56.3521 125.021,56.228 125.147,56.1045 125.273,55.9805 125.399,55.8564 125.525,55.7324 125.651,55.6084 125.777,55.4844 125.904,55.3604 126.03,55.2363 126.156,55.1128 126.282,54.9888 126.408,54.8647 126.534,54.7407 126.66,54.6167 126.786,54.4927 126.912,54.3687 127.038,54.2451 127.164,54.1211 127.29,53.9971 127.416,53.873 127.542,53.749 127.667,53.625 127.793,53.501 127.919,53.3774 128.045,53.2534 128.171,53.1294 128.297,53.0054 128.423,52.8813 128.549,52.7573 128.675,52.6333 128.801,52.5098 128.927,52.3857 129.053,52.2617 129.179,52.1377 129.305,52.0137 129.431,51.8896 129.557,51.7656 129.683,51.6416 129.809,51.5181 129.935,51.394 130.061,51.27 130.187,51.146 130.313,51.022 130.439,50.8979 130.565,50.7739 130.691,50.6504 130.817,50.5264 130.943,50.4023 131.069,50.2783 131.195,50.1543 131.321,50.0303 131.447,49.9062 131.573,49.7827 131.699,49.6587 131.825,49.5347 131.951,49.4106 132.077,49.2866 132.203,49.1626 132.329,49.0386 132.455,48.915 132.581,48.791 132.707,48.667 132.833,48.543 132.959,48.4189 133.085,48.2949 133.211,48.1709 133.337,48.0469 133.463,47.9233 133.589,47.7993 133.715,47.6753 133.841,47.5513 133.967,47.4272 134.093,47.3032 134.219,47.1792 134.345,47.0557 134.471,46.9316 134.597,46.8076 134.723,46.6836 134.849,46.5596 134.975,46.4355 135.101,46.3115 135.227,46.188 135.353,46.064 135.479,45.9399 135.604,45.8159 135.73,45.6919 135.856,45.5679 135.982,45.4438 136.108,45.3203 136.234,45.1963 136.36,45.0723 136.486,44.9482 136.612,44.8242 136.738,44.7002 136.864,44.5762 136.99,44.4521 137.117,44.3286 137.243,44.2046 137.369,44.0806 137.495,43.9565 137.621,43.8325 137.747,43.7085 137.873,43.5845 137.999,43.4609 138.125,43.3369 138.25,43.2129 138.376,43.0889 138.502,42.9648 138.628,42.8408 138.754,42.7168 138.88,42.5933 139.006,42.4692 139.132,42.3452 139.258,42.2212 139.384,42.0972 139.51,41.9731 139.636,41.8491 139.762,41.7256 139.888,41.6016 140.014,41.4775 140.14,41.3535 140.266,41.2295 140.392,41.1055 140.518,40.9814 140.644,40.8574 140.77,40.7339 140.896,40.6099 141.022,40.4858 141.148,40.3618 141.274,40.2378 141.4,40.1138 141.526,39.9897 141.652,39.8662 141.778,39.7422 141.904,39.6182 142.03,39.4941 142.156,39.3701 142.282,39.2461 142.408,39.1221 142.534,38.9985 142.66,38.8745 142.786,38.7505 142.912,38.6265 143.038,38.5024 143.164,38.3784 143.29,38.2544 143.416,38.1309 143.542,38.0068 143.668,37.8828 143.794,37.7588 143.92,37.6348 144.046,37.5107 144.172,37.3867 144.298,37.2632 144.424,37.1392 144.55,37.0151 144.676,36.8911 144.802,36.7671 144.928,36.6431 145.054,36.519 145.18,36.395 145.306,36.2715 145.432,36.1475 145.558,36.0234 145.684,35.8994 145.81,35.7754 145.936,35.6514 146.062,35.5273 146.188,35.4038 146.313,35.2798 146.439,35.1558 146.565,35.0317 146.691,34.9077 146.817,34.7837 146.943,34.6597 147.069,34.5361 147.195,34.4121 147.321,34.2881 147.447,34.1641 147.573,34.04 147.699,33.916 147.825,33.792 147.951,33.668 148.077,33.5444 148.204,33.4204 148.33,33.2964 148.456,33.1724 148.582,33.0483 148.708,32.9243 148.833,32.8003 148.959,32.6768 149.085,32.5527 149.211,32.4287 149.337,32.3047 149.463,32.1807 149.589,32.0566 149.715,31.9326 149.841,31.8091 149.967,31.6851 150.093,31.561 150.219,31.437 150.345,31.313 150.471,31.189 150.597,31.0649 150.723,30.9414 150.849,30.8174 150.975,30.6934 151.101,30.5693 151.227,30.4453 151.353,30.3213 151.479,30.1973 151.605,30.0737" fill="none" stroke-width="0.5"/>
   <polyline stroke-linejoin="miter" stroke-linecap="square" stroke="#000000" points="76.4199,96.353 82.4199,102.353" fill="none" stroke-width="0.5"/>
   <polyline stroke-linejoin="miter" stroke-linecap="square" stroke="#000000" points="76.4199,102.353 82.4199,96.353" fill="none" stroke-width="0.5"/>
   <polyline stroke-linejoin="miter" stroke-linecap="square" stroke="#000000" points="108.123,67.7461 114.123,73.7461" fill="none" stroke-width="0.5"/>
   <polyline stroke-linejoin="miter" stroke-linecap="square" stroke="#000000" points="108.123,73.7461 114.123,67.7461" fill="none" stroke-width="0.5"/>
   <polyline stroke-linejoin="miter" stroke-linecap="square" stroke="#000000" points="46.6777,128.256 52.6777,134.256" fill="none" stroke-width="0.5"/>
   <polyline stroke-linejoin="miter" stroke-linecap="square" stroke="#000000" points="46.6777,134.256 52.6777,128.256" fill="none" stroke-width="0.5"/>
   <polyline stroke-linejoin="round" stroke-linecap="butt" stroke="#000000" points="33.0342,153.906 33.1592,153.782 33.2837,153.658 33.4087,153.534 33.5337,153.41 33.6582,153.286 33.7832,153.162 33.9082,153.038 34.0327,152.914 34.1577,152.79 34.2827,152.666 34.4072,152.542 34.5322,152.418 34.6572,152.294 34.7817,152.17 34.9067,152.046 35.0317,151.922 35.1562,151.798 35.2812,151.674 35.4062,151.55 35.5308,151.426 35.6558,151.302 35.7803,151.179 35.9053,151.055 36.0303,150.931 36.1548,150.807 36.2798,150.683 36.4048,150.559 36.5293,150.435 36.6543,150.311 36.7793,150.187 36.9038,150.063 37.0288,149.939 37.1538,149.815 37.2783,149.691 37.4033,149.567 37.5283,149.443 37.6528,149.319 37.7778,149.195 37.9023,149.071 38.0273,148.947 38.1523,148.823 38.2769,148.699 38.4019,148.575 38.5269,148.452 38.6514,148.328 38.7764,148.204 38.9014,148.08 39.0259,147.956 39.1509,147.832 39.2759,147.708 39.4004,147.584 39.5254,147.46 39.6504,147.336 39.7749,147.212 39.8999,147.088 40.0249,146.964 40.1494,146.84 40.2744,146.716 40.3989,146.592 40.5239,146.468 40.6489,146.344 40.7734,146.22 40.8984,146.096 41.0234,145.972 41.1479,145.849 41.2729,145.725 41.3979,145.601 41.5225,145.477 41.6475,145.353 41.7725,145.229 41.897,145.104 42.022,144.98 42.147,144.857 42.2715,144.733 42.3965,144.609 42.5215,144.485 42.646,144.361 42.771,144.237 42.8955,144.113 43.0205,143.989 43.1455,143.865 43.27,143.741 43.395,143.617 43.52,143.493 43.6445,143.369 43.7695,143.245 43.8945,143.122 44.019,142.998 44.144,142.874 44.269,142.75 44.3936,142.625 44.5186,142.501 44.6436,142.377 44.7681,142.254 44.8931,142.13 45.0176,142.006 45.1426,141.882 45.2676,141.758 45.3921,141.634 45.5171,141.51 45.6421,141.386 45.7666,141.262 45.8916,141.138 46.0166,141.014 46.1411,140.89 46.2661,140.766 46.3911,140.642 46.5156,140.518 46.6406,140.395 46.7656,140.271 46.8901,140.146 47.0151,140.022 47.1401,139.898 47.2646,139.774 47.3896,139.65 47.5142,139.527 47.6392,139.403 47.7642,139.279 47.8887,139.155 48.0137,139.031 48.1387,138.907 48.2632,138.783 48.3882,138.659 48.5132,138.535 48.6377,138.411 48.7627,138.287 48.8877,138.163 49.0122,138.039 49.1372,137.915 49.2622,137.791 49.3867,137.667 49.5117,137.543 49.6367,137.419 49.7612,137.295 49.8862,137.171 50.0107,137.047 50.1357,136.923 50.2607,136.8 50.3853,136.676 50.5103,136.552 50.6353,136.428 50.7598,136.304 50.8848,136.18 51.0098,136.056 51.1343,135.932 51.2593,135.808 51.3843,135.684 51.5088,135.56 51.6338,135.436 51.7588,135.312 51.8833,135.188 52.0083,135.064 52.1328,134.94 52.2578,134.816 52.3828,134.692 52.5073,134.568 52.6323,134.444 52.7573,134.32 52.8818,134.197 53.0068,134.073 53.1318,133.949 53.2563,133.825 53.3813,133.701 53.5063,133.577 53.6309,133.453 53.7559,133.329 53.8809,133.205 54.0054,133.081 54.1304,132.957 54.2554,132.833 54.3799,132.709 54.5049,132.585 54.6294,132.461 54.7544,132.337 54.8794,132.213 55.0039,132.089 55.1289,131.965 55.2539,131.841 55.3784,131.717 55.5034,131.593 55.6284,131.47 55.7529,131.346 55.8779,131.222 56.0029,131.098 56.1274,130.974 56.2524,130.85 56.3774,130.726 56.502,130.602 56.627,130.478 56.752,130.354 56.8765,130.23 57.0015,130.106 57.126,129.982 57.251,129.858 57.376,129.734 57.5005,129.61 57.6255,129.486 57.7505,129.362 57.875,129.238 58,129.114 58.125,128.99 58.2495,128.866 58.3745,128.743 58.4995,128.619 58.624,128.495 58.749,128.371 58.874,128.247 58.9985,128.123 59.1235,127.999 59.248,127.875 59.373,127.751 59.498,127.627 59.6226,127.503 59.7476,127.379 59.8726,127.255 59.9971,127.131 60.1221,127.007 60.2471,126.883 60.3716,126.759 60.4966,126.635 60.6216,126.511 60.7461,126.387 60.8711,126.263 60.9961,126.139 61.1206,126.016 61.2456,125.892 61.3706,125.768 61.4951,125.644 61.6201,125.52 61.7446,125.396 61.8696,125.271 61.9946,125.148 62.1191,125.024 62.2441,124.9 62.3691,124.776 62.4937,124.652 62.6187,124.528 62.7437,124.404 62.8682,124.28 62.9932,124.156 63.1182,124.032 63.2427,123.908 63.3677,123.784 63.4927,123.66 63.6172,123.536 63.7422,123.413 63.8672,123.289 63.9917,123.165 64.1167,123.041 64.2412,122.917 64.3662,122.792 64.4912,122.668 64.6157,122.544 64.7407,122.421 64.8657,122.297 64.9902,122.173 65.1152,122.049 65.2402,121.925 65.3647,121.801 65.4897,121.677 65.6147,121.553 65.7393,121.429 65.8643,121.305 65.9893,121.181 66.1138,121.057 66.2388,120.933 66.3638,120.809 66.4883,120.686 66.6133,120.562 66.7378,120.438 66.8628,120.313 66.9878,120.189 67.1123,120.065 67.2373,119.941 67.3623,119.818 67.4868,119.694 67.6118,119.57 67.7368,119.446 67.8613,119.322 67.9863,119.198 68.1113,119.074 68.2358,118.95 68.3608,118.826 68.4858,118.702 68.6104,118.578 68.7354,118.454 68.8599,118.33 68.9849,118.206 69.1099,118.082 69.2344,117.958 69.3594,117.834 69.4844,117.71 69.6089,117.586 69.7339,117.462 69.8589,117.338 69.9834,117.214 70.1084,117.091 70.2334,116.967 70.3579,116.843 70.4829,116.719 70.6079,116.595 70.7324,116.471 70.8574,116.347 70.9824,116.223 71.1069,116.099 71.2319,115.975 71.3564,115.851 71.4814,115.727 71.6064,115.603 71.731,115.479 71.856,115.355 71.981,115.231 72.1055,115.107 72.2305,114.983 72.3555,114.859 72.48,114.735 72.605,114.611 72.73,114.487 72.8545,114.364 72.9795,114.24 73.1045,114.116 73.229,113.992 73.354,113.868 73.479,113.744 73.6035,113.62 73.7285,113.496 73.853,113.372 73.978,113.248 74.103,113.124 74.2275,113 74.3525,112.876 74.4775,112.752 74.6021,112.628 74.7271,112.504 74.8521,112.38 74.9766,112.256 75.1016,112.132 75.2266,112.008 75.3511,111.884 75.4761,111.76 75.6011,111.637 75.7256,111.513 75.8506,111.389 75.9751,111.265 76.1001,111.141 76.2251,111.017 76.3496,110.893 76.4746,110.769 76.5996,110.645 76.7241,110.521 76.8491,110.397 76.9741,110.273 77.0986,110.149 77.2236,110.025 77.3486,109.901 77.4731,109.777 77.5981,109.653 77.7231,109.529 77.8477,109.405 77.9727,109.281 78.0977,109.157 78.2222,109.034 78.3472,108.91 78.4717,108.786 78.5967,108.662 78.7217,108.538 78.8462,108.414 78.9712,108.29 79.0962,108.166 79.2207,108.042 79.3457,107.918 79.4707,107.794 79.5952,107.67 79.7202,107.546 79.8452,107.422 79.9697,107.298 80.0947,107.174 80.2197,107.05 80.3442,106.926 80.4692,106.802 80.5942,106.678 80.7188,106.554 80.8438,106.43 80.9683,106.307 81.0933,106.183 81.2183,106.059 81.3428,105.935 81.4678,105.811 81.5928,105.687 81.7173,105.562 81.8423,105.439 81.9673,105.315 82.0918,105.191 82.2168,105.067 82.3418,104.943 82.4663,104.819 82.5913,104.695 82.7163,104.571 82.8408,104.447 82.9658,104.323 83.0903,104.199 83.2153,104.075 83.3403,103.951 83.4648,103.827 83.5898,103.703 83.7148,103.58 83.8394,103.456 83.9644,103.332 84.0894,103.208 84.2139,103.083 84.3389,102.959 84.4639,102.835 84.5884,102.712 84.7134,102.588 84.8384,102.464 84.9629,102.34 85.0879,102.216 85.2129,102.092 85.3374,101.968 85.4624,101.844 85.5869,101.72 85.7119,101.596 85.8369,101.472 85.9614,101.348 86.0864,101.224 86.2114,101.1 86.3359,100.977 86.4609,100.853 86.5859,100.729 86.7104,100.604 86.8354,100.48 86.9604,100.356 87.085,100.232 87.21,100.108 87.335,99.9849 87.4595,99.8608 87.5845,99.7368 87.7095,99.6128 87.834,99.4888 87.959,99.3647 88.0835,99.2407 88.2085,99.1172 88.3335,98.9932 88.458,98.8691 88.583,98.7451 88.708,98.6211 88.8325,98.4971 88.9575,98.373 89.0825,98.2495 89.207,98.1255 89.332,98.0015 89.457,97.8774 89.5815,97.7534 89.7065,97.6294 89.8315,97.5054 89.9561,97.3818 90.0811,97.2578 90.2056,97.1338 90.3306,97.0098 90.4556,96.8857 90.5801,96.7617 90.7051,96.6377 90.8301,96.5137 90.9546,96.3901 91.0796,96.2661 91.2046,96.1421 91.3291,96.0181 91.4541,95.894 91.5791,95.77 91.7036,95.646 91.8286,95.5225 91.9536,95.3984 92.0781,95.2744 92.2031,95.1504 92.3281,95.0264 92.4526,94.9023 92.5776,94.7783 92.7021,94.6548 92.8271,94.5308 92.9521,94.4067 93.0767,94.2827 93.2017,94.1587 93.3267,94.0347 93.4512,93.9106 93.5762,93.7871 93.7012,93.6631 93.8257,93.5391 93.9507,93.415 94.0757,93.291 94.2002,93.167 94.3252,93.043 94.4502,92.9189 94.5747,92.7954 94.6997,92.6714 94.8247,92.5474 94.9492,92.4233 95.0742,92.2993 95.1987,92.1753 95.3237,92.0513 95.4487,91.9277 95.5732,91.8037 95.6982,91.6797 95.8232,91.5557 95.9478,91.4316 96.0728,91.3076 96.1978,91.1836 96.3223,91.0601 96.4473,90.936 96.5723,90.812 96.6968,90.688 96.8218,90.564 96.9468,90.4399 97.0713,90.3159 97.1963,90.1924 97.3213,90.0684 97.4458,89.9443 97.5708,89.8203 97.6953,89.6963 97.8203,89.5723 97.9453,89.4482 98.0698,89.3242 98.1948,89.2007 98.3198,89.0767 98.4443,88.9526 98.5693,88.8286 98.6943,88.7046 98.8188,88.5806 98.9438,88.4565 99.0688,88.333 99.1934,88.209 99.3184,88.085 99.4434,87.9609 99.5679,87.8369 99.6929,87.7129 99.8174,87.5889 99.9424,87.4653 100.067,87.3413 100.192,87.2173 100.317,87.0933 100.442,86.9692 100.566,86.8452 100.691,86.7212 100.816,86.5977 100.941,86.4736 101.066,86.3496 101.191,86.2256 101.315,86.1016 101.44,85.9775 101.565,85.8535 101.69,85.73 101.815,85.606 101.94,85.4819 102.064,85.3579 102.189,85.2339 102.314,85.1099 102.439,84.9858 102.564,84.8618 102.688,84.7383 102.813,84.6143 102.938,84.4902 103.063,84.3662 103.188,84.2422 103.313,84.1182 103.438,83.9941 103.562,83.8706 103.688,83.7466 103.812,83.6226 103.937,83.4985 104.062,83.3745 104.187,83.2505 104.312,83.1265 104.437,83.0029 104.561,82.8789 104.686,82.7549 104.811,82.6309 104.936,82.5068 105.061,82.3828 105.185,82.2588 105.31,82.1353 105.435,82.0112 105.56,81.8872 105.685,81.7632 105.81,81.6392 105.934,81.5151 106.059,81.3911 106.184,81.2671 106.309,81.1436 106.434,81.0195 106.559,80.8955 106.683,80.7715 106.808,80.6475 106.933,80.5234 107.058,80.3994 107.183,80.2759 107.307,80.1519 107.432,80.0278 107.557,79.9038 107.682,79.7798 107.807,79.6558 107.932,79.5317 108.056,79.4082 108.181,79.2842 108.306,79.1602 108.431,79.0361 108.556,78.9121 108.681,78.7881 108.805,78.6641 108.93,78.5405 109.055,78.4165 109.18,78.2925 109.305,78.1685 109.429,78.0444 109.554,77.9204 109.679,77.7964 109.804,77.6724 109.929,77.5488 110.054,77.4248 110.178,77.3008 110.303,77.1768 110.428,77.0527 110.553,76.9287 110.678,76.8047 110.803,76.6812 110.927,76.5571 111.052,76.4331 111.177,76.3091 111.302,76.1851 111.427,76.061 111.552,75.937 111.676,75.8135 111.801,75.6895 111.926,75.5654 112.051,75.4414 112.176,75.3174 112.3,75.1934 112.425,75.0693 112.55,74.9458 112.675,74.8218 112.8,74.6978 112.925,74.5737 113.049,74.4497 113.174,74.3257 113.299,74.2017 113.424,74.0776 113.549,73.9541 113.674,73.8301 113.798,73.7061 113.923,73.582 114.048,73.458 114.173,73.334 114.298,73.21 114.422,73.0864 114.547,72.9624 114.672,72.8384 114.797,72.7144 114.922,72.5903 115.047,72.4663 115.171,72.3423 115.296,72.2188 115.421,72.0947 115.546,71.9707 115.671,71.8467 115.796,71.7227 115.92,71.5986 116.045,71.4746 116.17,71.3511 116.295,71.2271 116.42,71.103 116.544,70.979 116.669,70.855 116.794,70.731 116.919,70.6069 117.044,70.4829 117.169,70.3594 117.293,70.2354 117.418,70.1113 117.543,69.9873 117.668,69.8633 117.793,69.7393 117.918,69.6152 118.042,69.4917 118.167,69.3677 118.292,69.2437 118.417,69.1196 118.542,68.9956 118.667,68.8716 118.792,68.7476 118.917,68.624 119.041,68.5 119.166,68.376 119.291,68.252 119.416,68.1279 119.541,68.0039 119.666,67.8799 119.79,67.7563 119.915,67.6323 120.04,67.5083 120.165,67.3843 120.29,67.2603 120.415,67.1362 120.539,67.0122 120.664,66.8882 120.789,66.7646 120.914,66.6406 121.039,66.5166 121.164,66.3926 121.288,66.2686 121.413,66.1445 121.538,66.0205 121.663,65.897 121.788,65.7729 121.912,65.6489 122.037,65.5249 122.162,65.4009 122.287,65.2769 122.412,65.1528 122.537,65.0293 122.661,64.9053 122.786,64.7812 122.911,64.6572 123.036,64.5332 123.161,64.4092 123.286,64.2852 123.41,64.1616 123.535,64.0376 123.66,63.9136 123.785,63.7896 123.91,63.6655 124.034,63.5415 124.159,63.4175 124.284,63.2935 124.409,63.1699 124.534,63.0459 124.659,62.9219 124.783,62.7979 124.908,62.6738 125.033,62.5498 125.158,62.4258 125.283,62.3022 125.408,62.1782 125.532,62.0542 125.657,61.9302 125.782,61.8062 125.907,61.6821 126.032,61.5581 126.156,61.4346 126.281,61.3105 126.406,61.1865 126.531,61.0625 126.656,60.9385 126.781,60.8145 126.905,60.6904 127.03,60.5669 127.155,60.4429 127.28,60.3188 127.405,60.1948 127.53,60.0708 127.654,59.9468 127.779,59.8228 127.904,59.6987 128.029,59.5752 128.154,59.4512 128.278,59.3271 128.403,59.2031 128.528,59.0791 128.653,58.9551 128.778,58.8311 128.903,58.7075 129.027,58.5835 129.152,58.4595 129.277,58.3354 129.402,58.2114 129.527,58.0874 129.652,57.9634 129.776,57.8398 129.901,57.7158 130.026,57.5918 130.151,57.4678 130.276,57.3438 130.401,57.2197 130.525,57.0957 130.65,56.9722 130.775,56.8481 130.9,56.7241 131.025,56.6001 131.149,56.4761 131.274,56.3521 131.399,56.228 131.524,56.1045 131.649,55.9805 131.774,55.8564 131.898,55.7324 132.023,55.6084 132.148,55.4844 132.273,55.3604 132.398,55.2363 132.523,55.1128 132.647,54.9888 132.772,54.8647 132.897,54.7407 133.022,54.6167 133.147,54.4927 133.271,54.3687 133.396,54.2451 133.521,54.1211 133.646,53.9971 133.771,53.873 133.896,53.749 134.021,53.625 134.146,53.501 134.271,53.3774 134.395,53.2534 134.52,53.1294 134.645,53.0054 134.77,52.8813 134.895,52.7573 135.02,52.6333 135.144,52.5098 135.269,52.3857 135.394,52.2617 135.519,52.1377 135.644,52.0137 135.768,51.8896 135.893,51.7656 136.018,51.6416 136.143,51.5181 136.268,51.394 136.393,51.27 136.517,51.146 136.642,51.022 136.767,50.8979 136.892,50.7739 137.017,50.6504 137.142,50.5264 137.266,50.4023 137.391,50.2783 137.516,50.1543 137.641,50.0303 137.766,49.9062 137.89,49.7827 138.015,49.6587 138.14,49.5347 138.265,49.4106 138.39,49.2866 138.515,49.1626 138.639,49.0386 138.764,48.915 138.889,48.791 139.014,48.667 139.139,48.543 139.264,48.4189 139.388,48.2949 139.513,48.1709 139.638,48.0469 139.763,47.9233 139.888,47.7993 140.013,47.6753 140.137,47.5513 140.262,47.4272 140.387,47.3032 140.512,47.1792 140.637,47.0557 140.761,46.9316 140.886,46.8076 141.011,46.6836 141.136,46.5596 141.261,46.4355 141.386,46.3115 141.51,46.188 141.635,46.064 141.76,45.9399 141.885,45.8159 142.01,45.6919 142.135,45.5679 142.259,45.4438 142.384,45.3203 142.509,45.1963 142.634,45.0723 142.759,44.9482 142.883,44.8242 143.008,44.7002 143.133,44.5762 143.258,44.4521 143.383,44.3286 143.508,44.2046 143.632,44.0806 143.757,43.9565 143.882,43.8325 144.007,43.7085 144.132,43.5845 144.257,43.4609 144.381,43.3369 144.506,43.2129 144.631,43.0889 144.756,42.9648 144.881,42.8408 145.005,42.7168 145.13,42.5933 145.255,42.4692 145.38,42.3452 145.505,42.2212 145.63,42.0972 145.754,41.9731 145.879,41.8491 146.004,41.7256 146.129,41.6016 146.254,41.4775 146.379,41.3535 146.503,41.2295 146.628,41.1055 146.753,40.9814 146.878,40.8574 147.003,40.7339 147.128,40.6099 147.252,40.4858 147.377,40.3618 147.502,40.2378 147.627,40.1138 147.752,39.9897 147.876,39.8662 148.001,39.7422 148.126,39.6182 148.251,39.4941 148.376,39.3701 148.501,39.2461 148.625,39.1221 148.75,38.9985 148.875,38.8745 149,38.7505 149.125,38.6265 149.25,38.5024 149.375,38.3784 149.5,38.2544 149.624,38.1309 149.749,38.0068 149.874,37.8828 149.999,37.7588 150.124,37.6348 150.249,37.5107 150.373,37.3867 150.498,37.2632 150.623,37.1392 150.748,37.0151 150.873,36.8911 150.998,36.7671 151.122,36.6431 151.247,36.519 151.372,36.395 151.497,36.2715 151.622,36.1475 151.747,36.0234 151.871,35.8994 151.996,35.7754 152.121,35.6514 152.246,35.5273 152.371,35.4038 152.495,35.2798 152.62,35.1558 152.745,35.0317 152.87,34.9077 152.995,34.7837 153.12,34.6597 153.244,34.5361 153.369,34.4121 153.494,34.2881 153.619,34.1641 153.744,34.04 153.869,33.916 153.993,33.792 154.118,33.668 154.243,33.5444 154.368,33.4204 154.493,33.2964 154.617,33.1724 154.742,33.0483 154.867,32.9243 154.992,32.8003 155.117,32.6768 155.242,32.5527 155.366,32.4287 155.491,32.3047 155.616,32.1807 155.741,32.0566 155.866,31.9326 155.991,31.8091 156.115,31.6851 156.24,31.561 156.365,31.437 156.49,31.313 156.615,31.189 156.74,31.0649 156.864,30.9414 156.989,30.8174 157.114,30.6934 157.239,30.5693 157.364,30.4453 157.488,30.3213 157.613,30.1973 157.738,30.0737" fill="none" stroke-width="0.5"/>
   <polyline stroke-linejoin="miter" stroke-linecap="square" stroke="#000000" points="43.2788,144.199 49.2788,144.199" fill="none" stroke-width="0.5"/>
   <polyline stroke-linejoin="miter" stroke-linecap="square" stroke="#000000" points="46.2788,141.199 46.2788,147.199" fill="none" stroke-width="0.5"/>
   <polyline stroke-linejoin="miter" stroke-linecap="square" stroke="#000000" points="44.1577,142.077 48.4004,146.32" fill="none" stroke-width="0.5"/>
   <polyline stroke-linejoin="miter" stroke-linecap="square" stroke="#000000" points="44.1577,146.32 48.4004,142.077" fill="none" stroke-width="0.5"/>
   <polyline stroke-linejoin="miter" stroke-linecap="square" stroke="#000000" points="100.111,86.6826 106.111,86.6826" fill="none" stroke-width="0.5"/>
   <polyline stroke-linejoin="miter" stroke-linecap="square" stroke="#000000" points="103.111,83.6826 103.111,89.6826" fill="none" stroke-width="0.5"/>
   <polyline stroke-linejoin="miter" stroke-linecap="square" stroke="#000000" points="100.99,84.561 105.233,88.8037" fill="none" stroke-width="0.5"/>
   <polyline stroke-linejoin="miter" stroke-linecap="square" stroke="#000000" points="100.99,88.8037 105.233,84.561" fill="none" stroke-width="0.5"/>
   <polyline stroke-linejoin="miter" stroke-linecap="square" stroke="#000000" points="29.4839,152.272 35.4839,152.272" fill="none" stroke-width="0.5"/>
   <polyline stroke-linejoin="miter" stroke-linecap="square" stroke="#000000" points="32.4839,149.272 32.4839,155.272" fill="none" stroke-width="0.5"/>
   <polyline stroke-linejoin="miter" stroke-linecap="square" stroke="#000000" points="30.3623,150.151 34.605,154.394" fill="none" stroke-width="0.5"/>
   <polyline stroke-linejoin="miter" stroke-linecap="square" stroke="#000000" points="30.3623,154.394 34.605,150.151" fill="none" stroke-width="0.5"/>
   <polyline stroke-linejoin="round" stroke-linecap="butt" stroke-dasharray="1,3,1,3,1,3,1,3" stroke="#000000" points="79.4199,153.906 79.4199,30.0737" fill="none" stroke-width="0.3"/>
   <g font-style="normal" xml:space="preserve" transform="translate(72.4201,39.9463) rotate(-90,7,-7)" font-family="'Liberation Serif'" font-weight="normal" font-size="8">
    <text fill="rgb(0,0,0)" y="-0" x="0 3 ">f2</text>
   </g>
   <polyline stroke-linejoin="round" stroke-linecap="butt" stroke-dasharray="1,3,1,3,1,3,1,3" stroke="#000000" points="111.123,153.906 111.123,30.0737" fill="none" stroke-width="0.3"/>
   <g font-style="normal" xml:space="preserve" transform="translate(104.123,39.9463) rotate(-90,7,-7)" font-family="'Liberation Serif'" font-weight="normal" font-size="8">
    <text fill="rgb(0,0,0)" y="-0" x="0 3 ">f3</text>
   </g>
   <polyline stroke-linejoin="round" stroke-linecap="butt" stroke-dasharray="1,3,1,3,1,3,1,3" stroke="#000000" points="49.6777,153.906 49.6777,30.0737" fill="none" stroke-width="0.3"/>
   <g font-style="normal" xml:space="preserve" transform="translate(42.6775,39.9463) rotate(-90,7,-7)" font-family="'Liberation Serif'" font-weight="normal" font-size="8">
    <text fill="rgb(0,0,0)" y="-0" x="0 3 ">f1</text>
   </g>
   <polyline stroke-linejoin="round" stroke-linecap="butt" stroke-dasharray="1,3,1,3,1,3,1,3" stroke="#000000" points="46.2788,153.906 46.2788,30.0737" fill="none" stroke-width="0.5"/>
   <g font-style="normal" xml:space="preserve" transform="translate(38.279,52.0422) rotate(-90,8,-7)" font-family="'Liberation Serif'" font-weight="normal" font-size="8">
    <text fill="rgb(0,0,0)" y="-0" x="0 4 ">a2</text>
   </g>
   <polyline stroke-linejoin="round" stroke-linecap="butt" stroke-dasharray="1,3,1,3,1,3,1,3" stroke="#000000" points="103.111,153.906 103.111,30.0737" fill="none" stroke-width="0.5"/>
   <g font-style="normal" xml:space="preserve" transform="translate(95.1114,52.0422) rotate(-90,8,-7)" font-family="'Liberation Serif'" font-weight="normal" font-size="8">
    <text fill="rgb(0,0,0)" y="-0" x="0 4 ">a3</text>
   </g>
   <polyline stroke-linejoin="round" stroke-linecap="butt" stroke-dasharray="1,3,1,3,1,3,1,3" stroke="#000000" points="32.4839,153.906 32.4839,30.0737" fill="none" stroke-width="0.5"/>
   <g font-style="normal" xml:space="preserve" transform="translate(24.4838,52.0422) rotate(-90,8,-7)" font-family="'Liberation Serif'" font-weight="normal" font-size="8">
    <text fill="rgb(0,0,0)" y="-0" x="0 4 ">a1</text>
   </g>
   <g font-style="normal" xml:space="preserve" transform="translate(55.3287,148.334) rotate(-0,-0,-3.5)" font-family="'Liberation Serif'" font-weight="normal" font-size="8">
    <text fill="rgb(0,0,0)" y="-0" x="0 6 11 17 21 25 28 34 40 43 50 56 61 65 69 72 76 80 ">UCASS-AD-MAZ04-015</text>
   </g>
  </g>
  <clipPath id="cp00176176">
   <polygon points="0,176 176,176 176,0 0,0"/>
  </clipPath>
  <g clip-path="url(#cp00176176)">
   <polyline stroke-linejoin="miter" stroke-linecap="butt" stroke="#262626" points="30.0732,30.0737 30.0732,31.4429" fill="none" stroke-width="0.5"/>
   <polyline stroke-linejoin="miter" stroke-linecap="butt" stroke="#262626" points="95.0156,30.0737 95.0156,31.4429" fill="none" stroke-width="0.5"/>
   <polyline stroke-linejoin="miter" stroke-linecap="butt" stroke="#262626" points="123.878,30.0737 123.878,31.4429" fill="none" stroke-width="0.5"/>
   <polyline stroke-linejoin="miter" stroke-linecap="butt" stroke="#262626" points="152.742,30.0737 152.742,31.4429" fill="none" stroke-width="0.5"/>
   <g font-style="normal" xml:space="preserve" transform="translate(28.5735,25.5796) rotate(-0,1.5,0)" font-family="'Liberation Serif'" font-weight="normal" font-size="6">
    <text fill="rgb(38,38,38)" y="-1" x="0 ">0</text>
   </g>
   <g font-style="normal" xml:space="preserve" transform="translate(93.5155,25.5796) rotate(-0,1.5,0)" font-family="'Liberation Serif'" font-weight="normal" font-size="6">
    <text fill="rgb(38,38,38)" y="-1" x="0 ">9</text>
   </g>
   <g font-style="normal" xml:space="preserve" transform="translate(120.879,25.5796) rotate(-0,3,0)" font-family="'Liberation Serif'" font-weight="normal" font-size="6">
    <text fill="rgb(38,38,38)" y="-1" x="0 3 ">13</text>
   </g>
   <g font-style="normal" xml:space="preserve" transform="translate(149.742,25.5796) rotate(-0,3,0)" font-family="'Liberation Serif'" font-weight="normal" font-size="6">
    <text fill="rgb(38,38,38)" y="-0" x="0 3 ">17</text>
   </g>
   <polyline stroke-linejoin="miter" stroke-linecap="square" stroke-dasharray="16,0" stroke="#262626" points="167.173,30.0737 30.0732,30.0737" fill="none" stroke-width="0.5"/>
   <polyline stroke-linejoin="miter" stroke-linecap="square" stroke-dasharray="16,0" stroke="#262626" points="167.173,30.0737 167.173,153.906" fill="none" stroke-width="0.5"/>
  </g>
 </g>
</svg>
