<?xml version='1.0' encoding='UTF-8' standalone='no'?>
<svg viewBox="0 0 176 176" xmlns:xlink="http://www.w3.org/1999/xlink" height="176pt" width="176pt" xmlns="http://www.w3.org/2000/svg">
 <title>Figure 9</title>
 <desc>
Creator: GL2PS 1.4.2, (C) 1999-2020 C. Geuzaine
For: Octave
CreationDate: Wed Feb 14 10:31:10 2024
</desc>
 <defs/>
 <polygon points="0,0 176,0 176,176 0,176" fill="#ffffff"/>
 <g>
  <polygon points="0,176 176,176 176,0 0,0" shape-rendering="crispEdges" fill="#ffffff"/>
  <clipPath id="cp00176176">
   <polygon points="0,176 176,176 176,0 0,0"/>
  </clipPath>
  <g clip-path="url(#cp00176176)">
   <polygon points="30.0732,153.906 167.173,153.906 167.173,30.0737 30.0732,30.0737" shape-rendering="crispEdges" fill="#ffffff"/>
   <polyline stroke-linejoin="miter" points="30.0732,153.906 30.0732,152.537" stroke-width="0.5" stroke="#262626" stroke-linecap="butt" fill="none"/>
   <polyline stroke-linejoin="miter" points="66.1523,153.906 66.1523,152.537" stroke-width="0.5" stroke="#262626" stroke-linecap="butt" fill="none"/>
   <polyline stroke-linejoin="miter" points="102.231,153.906 102.231,152.537" stroke-width="0.5" stroke="#262626" stroke-linecap="butt" fill="none"/>
   <polyline stroke-linejoin="miter" points="138.31,153.906 138.31,152.537" stroke-width="0.5" stroke="#262626" stroke-linecap="butt" fill="none"/>
   <g transform="translate(28.5735,163.399) rotate(-0,1.5,-5)" font-family="'Liberation Serif'" xml:space="preserve" font-size="6" font-style="normal" font-weight="normal">
    <text y="-1" fill="rgb(38,38,38)" x="0 ">0</text>
   </g>
   <g transform="translate(59.1524,163.399) rotate(-0,7,-5)" font-family="'Liberation Serif'" xml:space="preserve" font-size="6" font-style="normal" font-weight="normal">
    <text y="-1" fill="rgb(38,38,38)" x="0 3 6 8 11 ">5e-05</text>
   </g>
   <g transform="translate(93.7313,163.399) rotate(-0,8.5,-5)" font-family="'Liberation Serif'" xml:space="preserve" font-size="6" font-style="normal" font-weight="normal">
    <text y="-1" fill="rgb(38,38,38)" x="0 3 5 8 11 14 ">0.0001</text>
   </g>
   <g transform="translate(128.31,163.399) rotate(-0,10,-5)" font-family="'Liberation Serif'" xml:space="preserve" font-size="6" font-style="normal" font-weight="normal">
    <text y="-1" fill="rgb(38,38,38)" x="0 3 5 8 11 14 17 ">0.00015</text>
   </g>
   <polyline stroke-linejoin="miter" points="30.0732,153.906 31.4453,153.906" stroke-width="0.5" stroke="#262626" stroke-linecap="butt" fill="none"/>
   <polyline stroke-linejoin="miter" points="30.0732,123.666 31.4453,123.666" stroke-width="0.5" stroke="#262626" stroke-linecap="butt" fill="none"/>
   <polyline stroke-linejoin="miter" points="30.0732,93.4258 31.4453,93.4258" stroke-width="0.5" stroke="#262626" stroke-linecap="butt" fill="none"/>
   <polyline stroke-linejoin="miter" points="30.0732,63.186 31.4453,63.186" stroke-width="0.5" stroke="#262626" stroke-linecap="butt" fill="none"/>
   <polyline stroke-linejoin="miter" points="30.0732,32.9463 31.4453,32.9463" stroke-width="0.5" stroke="#262626" stroke-linecap="butt" fill="none"/>
   <g transform="translate(24.0713,156.406) rotate(-0,3,-2.5)" font-family="'Liberation Serif'" xml:space="preserve" font-size="6" font-style="normal" font-weight="normal">
    <text y="-1" fill="rgb(38,38,38)" x="0 ">0</text>
   </g>
   <g transform="translate(15.0713,126.166) rotate(-0,12,-2.5)" font-family="'Liberation Serif'" xml:space="preserve" font-size="6" font-style="normal" font-weight="normal">
    <text y="-1" fill="rgb(38,38,38)" x="0 3 6 9 ">1000</text>
   </g>
   <g transform="translate(15.0713,95.9259) rotate(-0,12,-2.5)" font-family="'Liberation Serif'" xml:space="preserve" font-size="6" font-style="normal" font-weight="normal">
    <text y="-1" fill="rgb(38,38,38)" x="0 3 6 9 ">2000</text>
   </g>
   <g transform="translate(15.0713,65.6861) rotate(-0,12,-2.5)" font-family="'Liberation Serif'" xml:space="preserve" font-size="6" font-style="normal" font-weight="normal">
    <text y="-1" fill="rgb(38,38,38)" x="0 3 6 9 ">3000</text>
   </g>
   <g transform="translate(15.0713,35.4463) rotate(-0,12,-2.5)" font-family="'Liberation Serif'" xml:space="preserve" font-size="6" font-style="normal" font-weight="normal">
    <text y="-1" fill="rgb(38,38,38)" x="0 3 6 9 ">4000</text>
   </g>
   <polyline stroke-linejoin="miter" points="30.0732,153.906 167.173,153.906" stroke-width="0.5" stroke-dasharray="16,0" stroke="#262626" stroke-linecap="square" fill="none"/>
   <polyline stroke-linejoin="miter" points="30.0732,153.906 30.0732,30.0737" stroke-width="0.5" stroke-dasharray="16,0" stroke="#262626" stroke-linecap="square" fill="none"/>
   <polyline stroke-linejoin="round" points="30.0732,153.906 30.1841,153.791 30.2949,153.676 30.4053,153.561 30.5161,153.446 30.6265,153.331 30.7373,153.216 30.8477,153.101 30.9585,152.986 31.0693,152.871 31.1797,152.756 31.2905,152.641 31.4009,152.526 31.5117,152.411 31.6221,152.296 31.7329,152.182 31.8433,152.066 31.9541,151.952 32.0645,151.836 32.1753,151.722 32.2861,151.607 32.3965,151.492 32.5073,151.377 32.6177,151.262 32.7285,151.147 32.8389,151.032 32.9497,150.917 33.0601,150.802 33.1709,150.687 33.2817,150.572 33.3921,150.458 33.5029,150.342 33.6133,150.228 33.7241,150.112 33.8345,149.998 33.9453,149.883 34.0557,149.768 34.1665,149.653 34.2773,149.538 34.3877,149.423 34.4985,149.308 34.6089,149.193 34.7197,149.078 34.8301,148.963 34.9409,148.848 35.0513,148.733 35.1621,148.618 35.2729,148.503 35.3833,148.388 35.4941,148.273 35.6045,148.159 35.7153,148.043 35.8257,147.929 35.9365,147.813 36.0469,147.699 36.1577,147.584 36.2686,147.469 36.3789,147.354 36.4897,147.239 36.6001,147.124 36.7109,147.009 36.8213,146.894 36.9321,146.779 37.0425,146.664 37.1533,146.549 37.2642,146.435 37.3745,146.319 37.4854,146.205 37.5957,146.089 37.7065,145.975 37.8169,145.86 37.9277,145.745 38.0381,145.63 38.1489,145.515 38.2598,145.4 38.3701,145.285 38.481,145.17 38.5913,145.055 38.7021,144.94 38.8125,144.825 38.9233,144.71 39.0337,144.595 39.1445,144.48 39.2554,144.365 39.3657,144.25 39.4766,144.136 39.5869,144.021 39.6978,143.906 39.8081,143.791 39.9189,143.676 40.0293,143.561 40.1401,143.446 40.251,143.331 40.3613,143.216 40.4722,143.101 40.5825,142.986 40.6934,142.871 40.8037,142.756 40.9146,142.641 41.0249,142.526 41.1357,142.412 41.2466,142.296 41.3569,142.182 41.4678,142.066 41.5781,141.952 41.689,141.837 41.7993,141.722 41.9102,141.607 42.0205,141.492 42.1313,141.377 42.2422,141.262 42.3525,141.147 42.4634,141.032 42.5737,140.917 42.6846,140.802 42.7949,140.688 42.9058,140.572 43.0161,140.458 43.127,140.342 43.2373,140.228 43.3481,140.113 43.459,139.998 43.5693,139.883 43.6802,139.768 43.7905,139.653 43.9014,139.538 44.0117,139.423 44.1226,139.308 44.2329,139.193 44.3438,139.078 44.4546,138.963 44.5649,138.848 44.6758,138.733 44.7861,138.618 44.897,138.503 45.0073,138.389 45.1182,138.273 45.2285,138.159 45.3394,138.044 45.4502,137.929 45.5605,137.814 45.6714,137.699 45.7817,137.584 45.8926,137.469 46.0029,137.354 46.1138,137.239 46.2241,137.124 46.335,137.009 46.4458,136.895 46.5562,136.779 46.667,136.665 46.7773,136.549 46.8882,136.435 46.9985,136.32 47.1094,136.205 47.2197,136.09 47.3306,135.975 47.4414,135.86 47.5518,135.745 47.6626,135.63 47.7729,135.515 47.8838,135.4 47.9941,135.285 48.105,135.17 48.2153,135.055 48.3262,134.94 48.437,134.825 48.5474,134.71 48.6582,134.596 48.7686,134.48 48.8794,134.366 48.9897,134.25 49.1006,134.136 49.2109,134.021 49.3218,133.906 49.4326,133.791 49.543,133.676 49.6538,133.561 49.7642,133.446 49.875,133.331 49.9854,133.216 50.0962,133.101 50.2065,132.986 50.3174,132.872 50.4282,132.756 50.5386,132.642 50.6494,132.526 50.7598,132.412 50.8706,132.297 50.981,132.182 51.0918,132.067 51.2021,131.952 51.313,131.837 51.4238,131.722 51.5342,131.607 51.645,131.492 51.7554,131.377 51.8662,131.262 51.9766,131.147 52.0874,131.032 52.1978,130.917 52.3086,130.802 52.4194,130.688 52.5298,130.573 52.6406,130.458 52.751,130.343 52.8618,130.228 52.9722,130.113 53.083,129.998 53.1934,129.883 53.3042,129.768 53.415,129.653 53.5254,129.538 53.6362,129.423 53.7466,129.308 53.8574,129.193 53.9678,129.078 54.0786,128.963 54.189,128.849 54.2998,128.733 54.4102,128.619 54.521,128.503 54.6318,128.389 54.7422,128.274 54.853,128.159 54.9634,128.044 55.0742,127.929 55.1846,127.814 55.2954,127.699 55.4058,127.584 55.5166,127.469 55.6274,127.354 55.7378,127.239 55.8486,127.125 55.959,127.009 56.0698,126.895 56.1802,126.779 56.291,126.665 56.4014,126.55 56.5122,126.435 56.623,126.32 56.7334,126.205 56.8442,126.09 56.9546,125.975 57.0654,125.86 57.1758,125.745 57.2866,125.63 57.397,125.515 57.5078,125.4 57.6187,125.285 57.729,125.17 57.8398,125.055 57.9502,124.94 58.061,124.826 58.1714,124.71 58.2822,124.596 58.3926,124.48 58.5034,124.366 58.6143,124.251 58.7246,124.136 58.8354,124.021 58.9458,123.906 59.0566,123.791 59.167,123.676 59.2778,123.561 59.3882,123.446 59.499,123.331 59.6099,123.216 59.7202,123.102 59.8311,122.986 59.9414,122.872 60.0522,122.756 60.1626,122.642 60.2734,122.527 60.3838,122.412 60.4946,122.297 60.6055,122.182 60.7158,122.067 60.8267,121.952 60.937,121.837 61.0479,121.722 61.1582,121.607 61.269,121.492 61.3794,121.377 61.4902,121.262 61.6011,121.147 61.7114,121.032 61.8223,120.917 61.9326,120.803 62.0435,120.688 62.1538,120.573 62.2646,120.458 62.375,120.343 62.4858,120.228 62.5967,120.113 62.707,119.998 62.8179,119.883 62.9282,119.768 63.0391,119.653 63.1494,119.538 63.2603,119.423 63.3706,119.309 63.4814,119.193 63.5923,119.079 63.7026,118.963 63.8135,118.849 63.9238,118.734 64.0347,118.619 64.145,118.504 64.2559,118.389 64.3662,118.274 64.4771,118.159 64.5879,118.044 64.6982,117.929 64.8091,117.814 64.9194,117.699 65.0303,117.584 65.1406,117.469 65.2515,117.354 65.3618,117.239 65.4727,117.125 65.5835,117.01 65.6938,116.895 65.8047,116.78 65.915,116.665 66.0259,116.55 66.1362,116.435 66.2471,116.32 66.3574,116.205 66.4683,116.09 66.5791,115.975 66.6895,115.86 66.8003,115.745 66.9106,115.63 67.0215,115.515 67.1318,115.4 67.2427,115.286 67.353,115.17 67.4639,115.056 67.5742,114.94 67.6851,114.826 67.7959,114.711 67.9062,114.596 68.0171,114.481 68.1274,114.366 68.2383,114.251 68.3486,114.136 68.4595,114.021 68.5698,113.906 68.6807,113.791 68.7915,113.676 68.9019,113.562 69.0127,113.446 69.123,113.332 69.2339,113.216 69.3442,113.102 69.4551,112.987 69.5654,112.872 69.6763,112.757 69.7871,112.642 69.8975,112.527 70.0083,112.412 70.1187,112.297 70.2295,112.182 70.3398,112.067 70.4507,111.952 70.561,111.837 70.6719,111.722 70.7827,111.607 70.8931,111.492 71.0039,111.377 71.1143,111.263 71.2251,111.147 71.3354,111.033 71.4463,110.917 71.5566,110.803 71.6675,110.688 71.7783,110.573 71.8887,110.458 71.9995,110.343 72.1099,110.228 72.2207,110.113 72.3311,109.998 72.4419,109.883 72.5522,109.768 72.6631,109.653 72.7739,109.539 72.8843,109.423 72.9951,109.309 73.1055,109.193 73.2163,109.079 73.3267,108.964 73.4375,108.849 73.5479,108.734 73.6587,108.619 73.7695,108.504 73.8799,108.389 73.9907,108.274 74.1011,108.159 74.2119,108.044 74.3223,107.929 74.4331,107.814 74.5435,107.699 74.6543,107.584 74.7651,107.469 74.8755,107.354 74.9863,107.24 75.0967,107.125 75.2075,107.01 75.3179,106.895 75.4287,106.78 75.5391,106.665 75.6499,106.55 75.7607,106.435 75.8711,106.32 75.9819,106.205 76.0923,106.09 76.2031,105.975 76.3135,105.86 76.4243,105.745 76.5347,105.63 76.6455,105.516 76.7563,105.4 76.8667,105.286 76.9775,105.17 77.0879,105.056 77.1987,104.941 77.3091,104.826 77.4199,104.711 77.5303,104.596 77.6411,104.481 77.752,104.366 77.8623,104.251 77.9731,104.136 78.0835,104.021 78.1943,103.906 78.3047,103.792 78.4155,103.676 78.5259,103.562 78.6367,103.446 78.7476,103.332 78.8579,103.217 78.9688,103.102 79.0791,102.987 79.1899,102.872 79.3003,102.757 79.4111,102.642 79.5215,102.527 79.6323,102.412 79.7427,102.297 79.8535,102.182 79.9644,102.067 80.0747,101.952 80.1855,101.837 80.2959,101.722 80.4067,101.607 80.5171,101.493 80.6279,101.377 80.7383,101.263 80.8491,101.147 80.96,101.033 81.0703,100.918 81.1812,100.803 81.2915,100.688 81.4023,100.573 81.5127,100.458 81.6235,100.343 81.7339,100.228 81.8447,100.113 81.9556,99.9985 82.0659,99.8833 82.1768,99.7686 82.2871,99.6533 82.3979,99.5386 82.5083,99.4238 82.6191,99.3086 82.7295,99.1938 82.8403,99.0786 82.9512,98.9639 83.0615,98.8491 83.1724,98.7339 83.2827,98.6191 83.3936,98.5039 83.5039,98.3892 83.6147,98.2744 83.7251,98.1592 83.8359,98.0444 83.9468,97.9292 84.0571,97.8145 84.168,97.6997 84.2783,97.5845 84.3892,97.4697 84.4995,97.3545 84.6104,97.2397 84.7207,97.125 84.8315,97.0098 84.9424,96.895 85.0527,96.7798 85.1636,96.665 85.2739,96.5503 85.3848,96.4351 85.4951,96.3203 85.606,96.2051 85.7163,96.0903 85.8271,95.9756 85.938,95.8604 86.0483,95.7456 86.1592,95.6304 86.2695,95.5156 86.3804,95.4009 86.4907,95.2856 86.6016,95.1709 86.7119,95.0557 86.8228,94.9409 86.9336,94.8262 87.0439,94.7109 87.1548,94.5962 87.2651,94.481 87.376,94.3662 87.4863,94.2515 87.5972,94.1362 87.7075,94.0215 87.8184,93.9062 87.9292,93.7915 88.0396,93.6768 88.1504,93.5615 88.2607,93.4468 88.3716,93.3315 88.4819,93.2168 88.5928,93.1021 88.7031,92.9868 88.814,92.8721 88.9248,92.7568 89.0352,92.6421 89.146,92.5273 89.2563,92.4121 89.3672,92.2974 89.4775,92.1821 89.5884,92.0674 89.6987,91.9526 89.8096,91.8374 89.9204,91.7227 90.0308,91.6074 90.1416,91.4927 90.252,91.3779 90.3628,91.2627 90.4731,91.1479 90.584,91.0327 90.6943,90.918 90.8052,90.8032 90.9155,90.688 91.0264,90.5732 91.1372,90.458 91.2476,90.3433 91.3584,90.2285 91.4688,90.1133 91.5796,89.9985 91.6899,89.8833 91.8008,89.7686 91.9116,89.6538 92.022,89.5386 92.1328,89.4238 92.2432,89.3086 92.354,89.1938 92.4644,89.0791 92.5752,88.9639 92.6855,88.8491 92.7964,88.7339 92.9067,88.6191 93.0176,88.5044 93.1284,88.3892 93.2388,88.2744 93.3496,88.1592 93.46,88.0444 93.5708,87.9297 93.6812,87.8145 93.792,87.6997 93.9023,87.5845 94.0132,87.4697 94.124,87.355 94.2344,87.2397 94.3452,87.125 94.4556,87.0098 94.5664,86.895 94.6768,86.7803 94.7876,86.665 94.8979,86.5503 95.0088,86.4351 95.1196,86.3203 95.23,86.2056 95.3408,86.0903 95.4512,85.9756 95.562,85.8604 95.6724,85.7456 95.7832,85.6309 95.8936,85.5156 96.0044,85.4009 96.1152,85.2856 96.2256,85.1709 96.3364,85.0562 96.4468,84.9409 96.5576,84.8262 96.668,84.7109 96.7788,84.5962 96.8892,84.4814 97,84.3662 97.1108,84.2515 97.2212,84.1362 97.332,84.0215 97.4424,83.9067 97.5532,83.7915 97.6636,83.6768 97.7744,83.5615 97.8848,83.4468 97.9956,83.332 98.1064,83.2168 98.2168,83.1021 98.3276,82.9868 98.438,82.8721 98.5488,82.7573 98.6592,82.6421 98.77,82.5273 98.8804,82.4121 98.9912,82.2974 99.1021,82.1826 99.2124,82.0674 99.3232,81.9526 99.4336,81.8374 99.5444,81.7227 99.6548,81.6079 99.7656,81.4927 99.876,81.3779 99.9868,81.2627 100.098,81.1479 100.208,81.0332 100.319,80.918 100.429,80.8032 100.54,80.688 100.65,80.5732 100.761,80.4585 100.872,80.3433 100.982,80.2285 101.093,80.1138 101.204,79.9985 101.314,79.8838 101.425,79.7686 101.536,79.6538 101.646,79.5391 101.757,79.4238 101.867,79.3091 101.978,79.1938 102.089,79.0791 102.199,78.9644 102.31,78.8491 102.42,78.7344 102.531,78.6191 102.642,78.5044 102.752,78.3896 102.863,78.2744 102.974,78.1597 103.084,78.0444 103.195,77.9297 103.306,77.8149 103.416,77.6997 103.527,77.585 103.637,77.4697 103.748,77.355 103.858,77.2402 103.969,77.125 104.08,77.0103 104.19,76.895 104.301,76.7803 104.412,76.6655 104.522,76.5503 104.633,76.4355 104.744,76.3203 104.854,76.2056 104.965,76.0908 105.075,75.9756 105.186,75.8608 105.297,75.7456 105.407,75.6309 105.518,75.5161 105.628,75.4009 105.739,75.2861 105.85,75.1709 105.96,75.0562 106.071,74.9414 106.182,74.8262 106.292,74.7114 106.403,74.5962 106.514,74.4814 106.624,74.3667 106.735,74.2515 106.845,74.1367 106.956,74.0215 107.066,73.9067 107.177,73.792 107.288,73.6768 107.398,73.562 107.509,73.4468 107.62,73.332 107.73,73.2173 107.841,73.1021 107.952,72.9873 108.062,72.8721 108.173,72.7573 108.284,72.6426 108.394,72.5273 108.505,72.4126 108.615,72.2974 108.726,72.1826 108.836,72.0679 108.947,71.9526 109.058,71.8379 109.168,71.7227 109.279,71.6079 109.39,71.4932 109.5,71.3779 109.611,71.2632 109.722,71.1479 109.832,71.0332 109.943,70.9185 110.053,70.8032 110.164,70.6885 110.275,70.5732 110.385,70.4585 110.496,70.3438 110.606,70.2285 110.717,70.1138 110.828,69.9985 110.938,69.8838 111.049,69.769 111.16,69.6538 111.271,69.5391 111.381,69.4238 111.492,69.3091 111.602,69.1943 111.713,69.0791 111.823,68.9644 111.934,68.8491 112.044,68.7344 112.155,68.6196 112.266,68.5044 112.376,68.3896 112.487,68.2744 112.598,68.1597 112.708,68.0449 112.819,67.9297 112.93,67.8149 113.04,67.6997 113.151,67.585 113.262,67.4702 113.372,67.355 113.483,67.2402 113.593,67.125 113.704,67.0103 113.814,66.8955 113.925,66.7803 114.036,66.6655 114.146,66.5503 114.257,66.4355 114.368,66.3208 114.479,66.2056 114.589,66.0908 114.7,65.9756 114.81,65.8608 114.921,65.7461 115.031,65.6309 115.142,65.5161 115.253,65.4009 115.363,65.2861 115.474,65.1714 115.584,65.0562 115.695,64.9414 115.806,64.8262 115.917,64.7114 116.027,64.5967 116.138,64.4814 116.248,64.3667 116.359,64.2515 116.47,64.1367 116.58,64.022 116.691,63.9067 116.801,63.792 116.912,63.6768 117.022,63.562 117.133,63.4473 117.244,63.332 117.354,63.2173 117.465,63.1021 117.576,62.9873 117.687,62.8726 117.797,62.7573 117.908,62.6426 118.018,62.5273 118.129,62.4126 118.239,62.2979 118.35,62.1826 118.461,62.0679 118.571,61.9526 118.682,61.8379 118.792,61.7231 118.903,61.6079 119.014,61.4932 119.125,61.3784 119.235,61.2632 119.346,61.1484 119.457,61.0332 119.567,60.9185 119.678,60.8037 119.788,60.6885 119.899,60.5737 120.009,60.4585 120.12,60.3438 120.23,60.229 120.341,60.1138 120.452,59.999 120.562,59.8838 120.673,59.769 120.784,59.6543 120.895,59.5391 121.005,59.4243 121.116,59.3091 121.226,59.1943 121.337,59.0796 121.448,58.9644 121.558,58.8496 121.669,58.7344 121.779,58.6196 121.89,58.5049 122,58.3896 122.111,58.2749 122.222,58.1597 122.333,58.0449 122.443,57.9302 122.554,57.8149 122.665,57.7002 122.775,57.585 122.886,57.4702 122.996,57.3555 123.107,57.2402 123.217,57.1255 123.328,57.0103 123.439,56.8955 123.549,56.7808 123.66,56.6655 123.771,56.5508 123.881,56.4355 123.992,56.3208 124.103,56.2061 124.213,56.0908 124.324,55.9761 124.435,55.8608 124.545,55.7461 124.656,55.6313 124.766,55.5161 124.877,55.4014 124.987,55.2861 125.098,55.1714 125.208,55.0566 125.319,54.9414 125.43,54.8267 125.541,54.7114 125.651,54.5967 125.762,54.4819 125.873,54.3667 125.983,54.252 126.094,54.1367 126.204,54.022 126.315,53.9072 126.426,53.792 126.536,53.6772 126.647,53.562 126.757,53.4473 126.868,53.3325 126.979,53.2173 127.089,53.1025 127.2,52.9873 127.311,52.8726 127.421,52.7578 127.532,52.6426 127.643,52.5278 127.753,52.4126 127.864,52.2979 127.974,52.1831 128.085,52.0679 128.195,51.9531 128.306,51.8379 128.417,51.7231 128.527,51.6084 128.638,51.4932 128.749,51.3784 128.859,51.2632 128.97,51.1484 129.081,51.0337 129.191,50.9185 129.302,50.8037 129.412,50.6885 129.523,50.5737 129.634,50.459 129.744,50.3438 129.855,50.229 129.965,50.1138 130.076,49.999 130.187,49.8843 130.297,49.769 130.408,49.6543 130.519,49.5391 130.629,49.4243 130.74,49.3096 130.851,49.1943 130.961,49.0796 131.072,48.9644 131.182,48.8496 131.293,48.7349 131.403,48.6196 131.514,48.5049 131.625,48.3896 131.735,48.2749 131.846,48.1602 131.957,48.0449 132.067,47.9302 132.178,47.8149 132.289,47.7002 132.399,47.5854 132.51,47.4702 132.621,47.3555 132.731,47.2402 132.842,47.1255 132.952,47.0107 133.063,46.8955 133.173,46.7808 133.284,46.6655 133.395,46.5508 133.505,46.436 133.616,46.3208 133.727,46.2061 133.837,46.0908 133.948,45.9761 134.059,45.8613 134.169,45.7461 134.28,45.6313 134.39,45.5161 134.501,45.4014 134.612,45.2866 134.722,45.1714 134.833,45.0566 134.943,44.9414 135.054,44.8267 135.165,44.7119 135.275,44.5967 135.386,44.4819 135.497,44.3667 135.607,44.252 135.718,44.1372 135.829,44.022 135.939,43.9072 136.05,43.792 136.16,43.6772 136.271,43.5625 136.381,43.4473 136.492,43.3325 136.603,43.2173 136.713,43.1025 136.824,42.9878 136.935,42.8726 137.045,42.7578 137.156,42.6426 137.267,42.5278 137.377,42.4131 137.488,42.2979 137.599,42.1831 137.709,42.0684 137.82,41.9531 137.93,41.8384 138.041,41.7231 138.151,41.6084 138.262,41.4937 138.373,41.3784 138.483,41.2637 138.594,41.1484 138.705,41.0337 138.815,40.9189 138.926,40.8037 139.037,40.689 139.147,40.5737 139.258,40.459 139.368,40.3442 139.479,40.229 139.589,40.1143 139.7,39.999 139.811,39.8843 139.921,39.7695 140.032,39.6543 140.143,39.5396 140.253,39.4243 140.364,39.3096 140.475,39.1948 140.585,39.0796" stroke-width="0.5" stroke-dasharray="9,7" stroke="#000000" stroke-linecap="butt" fill="none"/>
   <polyline stroke-linejoin="round" points="33.438,153.906 33.5454,153.782 33.6523,153.658 33.7598,153.534 33.8672,153.41 33.9741,153.286 34.0815,153.162 34.189,153.038 34.2959,152.914 34.4033,152.79 34.5107,152.666 34.6177,152.542 34.7251,152.418 34.8325,152.294 34.9395,152.17 35.0469,152.046 35.1543,151.922 35.2612,151.798 35.3687,151.674 35.4761,151.55 35.583,151.426 35.6904,151.302 35.7979,151.179 35.9048,151.055 36.0122,150.931 36.1196,150.807 36.2266,150.683 36.334,150.559 36.4409,150.435 36.5483,150.311 36.6558,150.187 36.7627,150.063 36.8701,149.939 36.9775,149.815 37.0845,149.691 37.1919,149.567 37.2993,149.443 37.4062,149.319 37.5137,149.195 37.6211,149.071 37.728,148.947 37.8354,148.823 37.9429,148.699 38.0498,148.575 38.1572,148.452 38.2646,148.328 38.3716,148.204 38.479,148.08 38.5864,147.956 38.6934,147.832 38.8008,147.708 38.9082,147.584 39.0151,147.46 39.1226,147.336 39.23,147.212 39.3369,147.088 39.4443,146.964 39.5518,146.84 39.6587,146.716 39.7661,146.592 39.8735,146.468 39.9805,146.344 40.0879,146.22 40.1948,146.096 40.3022,145.972 40.4097,145.849 40.5166,145.725 40.624,145.601 40.7314,145.477 40.8384,145.353 40.9458,145.229 41.0532,145.104 41.1602,144.98 41.2676,144.857 41.375,144.733 41.4819,144.609 41.5894,144.485 41.6968,144.361 41.8037,144.237 41.9111,144.113 42.0186,143.989 42.1255,143.865 42.2329,143.741 42.3403,143.617 42.4473,143.493 42.5547,143.369 42.6621,143.245 42.769,143.122 42.8765,142.998 42.9839,142.874 43.0908,142.75 43.1982,142.625 43.3057,142.501 43.4126,142.377 43.52,142.254 43.627,142.13 43.7344,142.006 43.8418,141.882 43.9487,141.758 44.0562,141.634 44.1636,141.51 44.2705,141.386 44.3779,141.262 44.4854,141.138 44.5923,141.014 44.6997,140.89 44.8071,140.766 44.9141,140.642 45.0215,140.518 45.1289,140.395 45.2358,140.271 45.3433,140.146 45.4507,140.022 45.5576,139.898 45.665,139.774 45.7725,139.65 45.8794,139.527 45.9868,139.403 46.0942,139.279 46.2012,139.155 46.3086,139.031 46.416,138.907 46.5229,138.783 46.6304,138.659 46.7378,138.535 46.8447,138.411 46.9521,138.287 47.0596,138.163 47.1665,138.039 47.2739,137.915 47.3809,137.791 47.4883,137.667 47.5957,137.543 47.7026,137.419 47.8101,137.295 47.9175,137.171 48.0244,137.047 48.1318,136.923 48.2393,136.8 48.3462,136.676 48.4536,136.552 48.561,136.428 48.668,136.304 48.7754,136.18 48.8828,136.056 48.9897,135.932 49.0972,135.808 49.2046,135.684 49.3115,135.56 49.4189,135.436 49.5264,135.312 49.6333,135.188 49.7407,135.064 49.8481,134.94 49.9551,134.816 50.0625,134.692 50.1699,134.568 50.2769,134.444 50.3843,134.32 50.4917,134.197 50.5986,134.073 50.7061,133.949 50.8135,133.825 50.9204,133.701 51.0278,133.577 51.1348,133.453 51.2422,133.329 51.3496,133.205 51.4565,133.081 51.564,132.957 51.6714,132.833 51.7783,132.709 51.8857,132.585 51.9932,132.461 52.1001,132.337 52.2075,132.213 52.3149,132.089 52.4219,131.965 52.5293,131.841 52.6367,131.717 52.7437,131.593 52.8511,131.47 52.9585,131.346 53.0654,131.222 53.1729,131.098 53.2803,130.974 53.3872,130.85 53.4946,130.726 53.6021,130.602 53.709,130.478 53.8164,130.354 53.9238,130.23 54.0308,130.106 54.1382,129.982 54.2456,129.858 54.3525,129.734 54.46,129.61 54.5674,129.486 54.6743,129.362 54.7817,129.238 54.8887,129.114 54.9961,128.99 55.1035,128.866 55.2104,128.743 55.3179,128.619 55.4253,128.495 55.5322,128.371 55.6396,128.247 55.7471,128.123 55.854,127.999 55.9614,127.875 56.0688,127.751 56.1758,127.627 56.2832,127.503 56.3906,127.379 56.4976,127.255 56.605,127.131 56.7124,127.007 56.8193,126.883 56.9268,126.759 57.0342,126.635 57.1411,126.511 57.2485,126.387 57.356,126.263 57.4629,126.139 57.5703,126.016 57.6777,125.892 57.7847,125.768 57.8921,125.644 57.9995,125.52 58.1064,125.396 58.2139,125.271 58.3213,125.148 58.4282,125.024 58.5356,124.9 58.6426,124.776 58.75,124.652 58.8574,124.528 58.9644,124.404 59.0718,124.28 59.1792,124.156 59.2861,124.032 59.3936,123.908 59.501,123.784 59.6079,123.66 59.7153,123.536 59.8228,123.413 59.9297,123.289 60.0371,123.165 60.1445,123.041 60.2515,122.917 60.3589,122.792 60.4663,122.668 60.5732,122.544 60.6807,122.421 60.7881,122.297 60.895,122.173 61.0024,122.049 61.1099,121.925 61.2168,121.801 61.3242,121.677 61.4316,121.553 61.5386,121.429 61.646,121.305 61.7534,121.181 61.8604,121.057 61.9678,120.933 62.0752,120.809 62.1821,120.686 62.2896,120.562 62.3965,120.438 62.5039,120.313 62.6113,120.189 62.7183,120.065 62.8257,119.941 62.9331,119.818 63.04,119.694 63.1475,119.57 63.2549,119.446 63.3618,119.322 63.4692,119.198 63.5767,119.074 63.6836,118.95 63.791,118.826 63.8984,118.702 64.0054,118.578 64.1128,118.454 64.2202,118.33 64.3271,118.206 64.4346,118.082 64.542,117.958 64.6489,117.834 64.7563,117.71 64.8638,117.586 64.9707,117.462 65.0781,117.338 65.1855,117.214 65.2925,117.091 65.3999,116.967 65.5073,116.843 65.6143,116.719 65.7217,116.595 65.8291,116.471 65.936,116.347 66.0435,116.223 66.1504,116.099 66.2578,115.975 66.3652,115.851 66.4722,115.727 66.5796,115.603 66.687,115.479 66.7939,115.355 66.9014,115.231 67.0088,115.107 67.1157,114.983 67.2231,114.859 67.3306,114.735 67.4375,114.611 67.5449,114.487 67.6523,114.364 67.7593,114.24 67.8667,114.116 67.9741,113.992 68.0811,113.868 68.1885,113.744 68.2959,113.62 68.4028,113.496 68.5103,113.372 68.6177,113.248 68.7246,113.124 68.832,113 68.9395,112.876 69.0464,112.752 69.1538,112.628 69.2612,112.504 69.3682,112.38 69.4756,112.256 69.583,112.132 69.6899,112.008 69.7974,111.884 69.9043,111.76 70.0117,111.637 70.1191,111.513 70.2261,111.389 70.3335,111.265 70.4409,111.141 70.5479,111.017 70.6553,110.893 70.7627,110.769 70.8696,110.645 70.9771,110.521 71.0845,110.397 71.1914,110.273 71.2988,110.149 71.4062,110.025 71.5132,109.901 71.6206,109.777 71.728,109.653 71.835,109.529 71.9424,109.405 72.0498,109.281 72.1567,109.157 72.2642,109.034 72.3716,108.91 72.4785,108.786 72.5859,108.662 72.6934,108.538 72.8003,108.414 72.9077,108.29 73.0151,108.166 73.1221,108.042 73.2295,107.918 73.3369,107.794 73.4438,107.67 73.5513,107.546 73.6582,107.422 73.7656,107.298 73.873,107.174 73.98,107.05 74.0874,106.926 74.1948,106.802 74.3018,106.678 74.4092,106.554 74.5166,106.43 74.6235,106.307 74.731,106.183 74.8384,106.059 74.9453,105.935 75.0527,105.811 75.1602,105.687 75.2671,105.562 75.3745,105.439 75.4819,105.315 75.5889,105.191 75.6963,105.067 75.8037,104.943 75.9106,104.819 76.0181,104.695 76.1255,104.571 76.2324,104.447 76.3398,104.323 76.4473,104.199 76.5542,104.075 76.6616,103.951 76.769,103.827 76.876,103.703 76.9834,103.58 77.0908,103.456 77.1978,103.332 77.3052,103.208 77.4121,103.083 77.5195,102.959 77.627,102.835 77.7339,102.712 77.8413,102.588 77.9487,102.464 78.0557,102.34 78.1631,102.216 78.2705,102.092 78.3774,101.968 78.4849,101.844 78.5923,101.72 78.6992,101.596 78.8066,101.472 78.9141,101.348 79.021,101.224 79.1284,101.1 79.2358,100.977 79.3428,100.853 79.4502,100.729 79.5576,100.604 79.6646,100.48 79.772,100.356 79.8794,100.232 79.9863,100.108 80.0938,99.9849 80.2012,99.8608 80.3081,99.7368 80.4155,99.6128 80.5229,99.4888 80.6299,99.3647 80.7373,99.2407 80.8447,99.1172 80.9517,98.9932 81.0591,98.8691 81.166,98.7451 81.2734,98.6211 81.3809,98.4971 81.4878,98.373 81.5952,98.2495 81.7026,98.1255 81.8096,98.0015 81.917,97.8774 82.0244,97.7534 82.1313,97.6294 82.2388,97.5054 82.3462,97.3818 82.4531,97.2578 82.5605,97.1338 82.668,97.0098 82.7749,96.8857 82.8823,96.7617 82.9897,96.6377 83.0967,96.5137 83.2041,96.3901 83.3115,96.2661 83.4185,96.1421 83.5259,96.0181 83.6333,95.894 83.7402,95.77 83.8477,95.646 83.9551,95.5225 84.062,95.3984 84.1694,95.2744 84.2769,95.1504 84.3838,95.0264 84.4912,94.9023 84.5981,94.7783 84.7056,94.6548 84.813,94.5308 84.9199,94.4067 85.0273,94.2827 85.1348,94.1587 85.2417,94.0347 85.3491,93.9106 85.4565,93.7871 85.5635,93.6631 85.6709,93.5391 85.7783,93.415 85.8853,93.291 85.9927,93.167 86.1001,93.043 86.207,92.9189 86.3145,92.7954 86.4219,92.6714 86.5288,92.5474 86.6362,92.4233 86.7437,92.2993 86.8506,92.1753 86.958,92.0513 87.0654,91.9277 87.1724,91.8037 87.2798,91.6797 87.3872,91.5557 87.4941,91.4316 87.6016,91.3076 87.709,91.1836 87.8159,91.0601 87.9233,90.936 88.0308,90.812 88.1377,90.688 88.2451,90.564 88.3521,90.4399 88.4595,90.3159 88.5669,90.1924 88.6738,90.0684 88.7812,89.9443 88.8887,89.8203 88.9956,89.6963 89.103,89.5723 89.2104,89.4482 89.3174,89.3242 89.4248,89.2007 89.5322,89.0767 89.6392,88.9526 89.7466,88.8286 89.854,88.7046 89.9609,88.5806 90.0684,88.4565 90.1758,88.333 90.2827,88.209 90.3901,88.085 90.4976,87.9609 90.6045,87.8369 90.7119,87.7129 90.8193,87.5889 90.9263,87.4653 91.0337,87.3413 91.1411,87.2173 91.248,87.0933 91.3555,86.9692 91.4629,86.8452 91.5698,86.7212 91.6772,86.5977 91.7847,86.4736 91.8916,86.3496 91.999,86.2256 92.1064,86.1016 92.2134,85.9775 92.3208,85.8535 92.4277,85.73 92.5352,85.606 92.6426,85.4819 92.7495,85.3579 92.8569,85.2339 92.9644,85.1099 93.0713,84.9858 93.1787,84.8618 93.2861,84.7383 93.3931,84.6143 93.5005,84.4902 93.6079,84.3662 93.7148,84.2422 93.8223,84.1182 93.9297,83.9941 94.0366,83.8706 94.144,83.7466 94.2515,83.6226 94.3584,83.4985 94.4658,83.3745 94.5732,83.2505 94.6802,83.1265 94.7876,83.0029 94.895,82.8789 95.002,82.7549 95.1094,82.6309 95.2168,82.5068 95.3237,82.3828 95.4312,82.2588 95.5386,82.1353 95.6455,82.0112 95.7529,81.8872 95.8604,81.7632 95.9673,81.6392 96.0747,81.5151 96.1816,81.3911 96.2891,81.2671 96.3965,81.1436 96.5034,81.0195 96.6108,80.8955 96.7183,80.7715 96.8252,80.6475 96.9326,80.5234 97.04,80.3994 97.147,80.2759 97.2544,80.1519 97.3618,80.0278 97.4688,79.9038 97.5762,79.7798 97.6836,79.6558 97.7905,79.5317 97.8979,79.4082 98.0054,79.2842 98.1123,79.1602 98.2197,79.0361 98.3271,78.9121 98.4341,78.7881 98.5415,78.6641 98.6489,78.5405 98.7559,78.4165 98.8633,78.2925 98.9707,78.1685 99.0776,78.0444 99.1851,77.9204 99.2925,77.7964 99.3994,77.6724 99.5068,77.5488 99.6138,77.4248 99.7212,77.3008 99.8286,77.1768 99.9355,77.0527 100.043,76.9287 100.15,76.8047 100.257,76.6812 100.365,76.5571 100.472,76.4331 100.579,76.3091 100.687,76.1851 100.794,76.061 100.901,75.937 101.008,75.8135 101.116,75.6895 101.223,75.5654 101.33,75.4414 101.438,75.3174 101.544,75.1934 101.652,75.0693 101.759,74.9458 101.866,74.8218 101.974,74.6978 102.081,74.5737 102.188,74.4497 102.295,74.3257 102.403,74.2017 102.51,74.0776 102.617,73.9541 102.725,73.8301 102.832,73.7061 102.939,73.582 103.046,73.458 103.153,73.334 103.261,73.21 103.368,73.0864 103.475,72.9624 103.583,72.8384 103.689,72.7144 103.797,72.5903 103.904,72.4663 104.011,72.3423 104.119,72.2188 104.226,72.0947 104.333,71.9707 104.44,71.8467 104.548,71.7227 104.655,71.5986 104.762,71.4746 104.87,71.3511 104.977,71.2271 105.084,71.103 105.191,70.979 105.298,70.855 105.406,70.731 105.513,70.6069 105.62,70.4829 105.728,70.3594 105.835,70.2354 105.942,70.1113 106.049,69.9873 106.157,69.8633 106.264,69.7393 106.371,69.6152 106.479,69.4917 106.585,69.3677 106.693,69.2437 106.8,69.1196 106.907,68.9956 107.015,68.8716 107.122,68.7476 107.229,68.624 107.336,68.5 107.443,68.376 107.551,68.252 107.658,68.1279 107.765,68.0039 107.873,67.8799 107.98,67.7563 108.087,67.6323 108.194,67.5083 108.302,67.3843 108.409,67.2603 108.516,67.1362 108.624,67.0122 108.73,66.8882 108.838,66.7646 108.945,66.6406 109.052,66.5166 109.16,66.3926 109.267,66.2686 109.374,66.1445 109.481,66.0205 109.589,65.897 109.696,65.7729 109.803,65.6489 109.911,65.5249 110.018,65.4009 110.125,65.2769 110.232,65.1528 110.339,65.0293 110.447,64.9053 110.554,64.7812 110.661,64.6572 110.769,64.5332 110.875,64.4092 110.983,64.2852 111.09,64.1616 111.197,64.0376 111.305,63.9136 111.412,63.7896 111.519,63.6655 111.626,63.5415 111.734,63.4175 111.841,63.2935 111.948,63.1699 112.056,63.0459 112.163,62.9219 112.27,62.7979 112.377,62.6738 112.484,62.5498 112.592,62.4258 112.699,62.3022 112.806,62.1782 112.914,62.0542 113.021,61.9302 113.128,61.8062 113.235,61.6821 113.343,61.5581 113.45,61.4346 113.557,61.3105 113.665,61.1865 113.771,61.0625 113.879,60.9385 113.986,60.8145 114.093,60.6904 114.201,60.5669 114.308,60.4429 114.415,60.3188 114.522,60.1948 114.629,60.0708 114.737,59.9468 114.844,59.8228 114.951,59.6987 115.059,59.5752 115.166,59.4512 115.273,59.3271 115.38,59.2031 115.488,59.0791 115.595,58.9551 115.702,58.8311 115.81,58.7075 115.917,58.5835 116.024,58.4595 116.131,58.3354 116.238,58.2114 116.346,58.0874 116.453,57.9634 116.56,57.8398 116.667,57.7158 116.775,57.5918 116.882,57.4678 116.989,57.3438 117.097,57.2197 117.204,57.0957 117.311,56.9722 117.418,56.8481 117.525,56.7241 117.633,56.6001 117.74,56.4761 117.847,56.3521 117.955,56.228 118.062,56.1045 118.169,55.9805 118.276,55.8564 118.383,55.7324 118.491,55.6084 118.598,55.4844 118.705,55.3604 118.812,55.2363 118.92,55.1128 119.027,54.9888 119.134,54.8647 119.242,54.7407 119.349,54.6167 119.456,54.4927 119.563,54.3687 119.67,54.2451 119.778,54.1211 119.885,53.9971 119.992,53.873 120.1,53.749 120.207,53.625 120.314,53.501 120.421,53.3774 120.529,53.2534 120.636,53.1294 120.743,53.0054 120.851,52.8813 120.958,52.7573 121.065,52.6333 121.172,52.5098 121.279,52.3857 121.387,52.2617 121.494,52.1377 121.601,52.0137 121.708,51.8896 121.816,51.7656 121.923,51.6416 122.03,51.5181 122.137,51.394 122.245,51.27 122.352,51.146 122.459,51.022 122.566,50.8979 122.674,50.7739 122.781,50.6504 122.888,50.5264 122.996,50.4023 123.103,50.2783 123.21,50.1543 123.317,50.0303 123.424,49.9062 123.532,49.7827 123.639,49.6587 123.746,49.5347 123.854,49.4106 123.961,49.2866 124.068,49.1626 124.175,49.0386 124.283,48.915 124.39,48.791 124.497,48.667 124.604,48.543 124.711,48.4189 124.819,48.2949 124.926,48.1709 125.033,48.0469 125.141,47.9233 125.248,47.7993 125.355,47.6753 125.462,47.5513 125.57,47.4272 125.677,47.3032 125.784,47.1792 125.891,47.0557 125.999,46.9316 126.106,46.8076 126.213,46.6836 126.32,46.5596 126.428,46.4355 126.535,46.3115 126.642,46.188 126.75,46.064 126.856,45.9399 126.964,45.8159 127.071,45.6919 127.178,45.5679 127.286,45.4438 127.393,45.3203 127.5,45.1963 127.607,45.0723 127.715,44.9482 127.822,44.8242 127.929,44.7002 128.037,44.5762 128.144,44.4521 128.251,44.3286 128.358,44.2046 128.465,44.0806 128.573,43.9565 128.68,43.8325 128.787,43.7085 128.895,43.5845 129.002,43.4609 129.109,43.3369 129.216,43.2129 129.323,43.0889 129.431,42.9648 129.538,42.8408 129.645,42.7168 129.752,42.5933 129.86,42.4692 129.967,42.3452 130.074,42.2212 130.182,42.0972 130.289,41.9731 130.396,41.8491 130.503,41.7256 130.61,41.6016 130.718,41.4775 130.825,41.3535 130.932,41.2295 131.04,41.1055 131.147,40.9814 131.254,40.8574 131.361,40.7339 131.469,40.6099 131.576,40.4858 131.683,40.3618 131.791,40.2378 131.897,40.1138 132.005,39.9897 132.112,39.8662 132.219,39.7422 132.327,39.6182 132.434,39.4941 132.541,39.3701 132.648,39.2461 132.756,39.1221 132.863,38.9985 132.97,38.8745 133.078,38.7505 133.185,38.6265 133.292,38.5024 133.399,38.3784 133.506,38.2544 133.614,38.1309 133.721,38.0068 133.828,37.8828 133.936,37.7588 134.042,37.6348 134.15,37.5107 134.257,37.3867 134.364,37.2632 134.472,37.1392 134.579,37.0151 134.686,36.8911 134.793,36.7671 134.901,36.6431 135.008,36.519 135.115,36.395 135.223,36.2715 135.33,36.1475 135.437,36.0234 135.544,35.8994 135.651,35.7754 135.759,35.6514 135.866,35.5273 135.973,35.4038 136.081,35.2798 136.188,35.1558 136.295,35.0317 136.402,34.9077 136.51,34.7837 136.617,34.6597 136.724,34.5361 136.831,34.4121 136.938,34.2881 137.046,34.1641 137.153,34.04 137.26,33.916 137.368,33.792 137.475,33.668 137.582,33.5444 137.689,33.4204 137.796,33.2964 137.904,33.1724 138.011,33.0483 138.118,32.9243 138.226,32.8003 138.333,32.6768 138.44,32.5527 138.547,32.4287 138.655,32.3047 138.762,32.1807 138.869,32.0566 138.977,31.9326 139.083,31.8091 139.191,31.6851 139.298,31.561 139.405,31.437 139.513,31.313 139.62,31.189 139.727,31.0649 139.834,30.9414 139.942,30.8174 140.049,30.6934 140.156,30.5693 140.264,30.4453 140.371,30.3213 140.478,30.1973 140.585,30.0737" stroke-width="0.5" stroke-dasharray="8,3,2,3" stroke="#000000" stroke-linecap="butt" fill="none"/>
   <polyline stroke-linejoin="miter" points="76.4199,102.824 82.4199,108.824" stroke-width="0.5" stroke="#000000" stroke-linecap="square" fill="none"/>
   <polyline stroke-linejoin="miter" points="76.4199,108.824 82.4199,102.824" stroke-width="0.5" stroke="#000000" stroke-linecap="square" fill="none"/>
   <polyline stroke-linejoin="miter" points="108.123,58.6743 114.123,64.6743" stroke-width="0.5" stroke="#000000" stroke-linecap="square" fill="none"/>
   <polyline stroke-linejoin="miter" points="108.123,64.6743 114.123,58.6743" stroke-width="0.5" stroke="#000000" stroke-linecap="square" fill="none"/>
   <polyline stroke-linejoin="miter" points="46.6777,129.526 52.6777,135.526" stroke-width="0.5" stroke="#000000" stroke-linecap="square" fill="none"/>
   <polyline stroke-linejoin="miter" points="46.6777,135.526 52.6777,129.526" stroke-width="0.5" stroke="#000000" stroke-linecap="square" fill="none"/>
   <polyline stroke-linejoin="round" points="35.2368,153.906 35.3511,153.782 35.4648,153.658 35.5791,153.534 35.6929,153.41 35.8071,153.286 35.9209,153.162 36.0352,153.038 36.1489,152.914 36.2632,152.79 36.377,152.666 36.4912,152.542 36.605,152.418 36.7192,152.294 36.833,152.17 36.9473,152.046 37.061,151.922 37.1753,151.798 37.2891,151.674 37.4033,151.55 37.5171,151.426 37.6313,151.302 37.7451,151.179 37.8594,151.055 37.9731,150.931 38.0874,150.807 38.2012,150.683 38.3154,150.559 38.4292,150.435 38.5435,150.311 38.6572,150.187 38.7715,150.063 38.8853,149.939 38.9995,149.815 39.1133,149.691 39.2275,149.567 39.3413,149.443 39.4551,149.319 39.5693,149.195 39.6831,149.071 39.7974,148.947 39.9111,148.823 40.0254,148.699 40.1392,148.575 40.2534,148.452 40.3672,148.328 40.4814,148.204 40.5952,148.08 40.7095,147.956 40.8232,147.832 40.9375,147.708 41.0513,147.584 41.1655,147.46 41.2793,147.336 41.3936,147.212 41.5073,147.088 41.6216,146.964 41.7354,146.84 41.8496,146.716 41.9634,146.592 42.0776,146.468 42.1914,146.344 42.3057,146.22 42.4194,146.096 42.5337,145.972 42.6475,145.849 42.7617,145.725 42.8755,145.601 42.9897,145.477 43.1035,145.353 43.2178,145.229 43.3315,145.104 43.4458,144.98 43.5596,144.857 43.6733,144.733 43.7876,144.609 43.9014,144.485 44.0156,144.361 44.1294,144.237 44.2437,144.113 44.3574,143.989 44.4717,143.865 44.5854,143.741 44.6997,143.617 44.8135,143.493 44.9277,143.369 45.0415,143.245 45.1558,143.122 45.2695,142.998 45.3838,142.874 45.4976,142.75 45.6118,142.625 45.7256,142.501 45.8398,142.377 45.9536,142.254 46.0679,142.13 46.1816,142.006 46.2959,141.882 46.4097,141.758 46.5239,141.634 46.6377,141.51 46.752,141.386 46.8657,141.262 46.98,141.138 47.0938,141.014 47.208,140.89 47.3218,140.766 47.436,140.642 47.5498,140.518 47.6641,140.395 47.7778,140.271 47.8916,140.146 48.0059,140.022 48.1196,139.898 48.2339,139.774 48.3477,139.65 48.4619,139.527 48.5757,139.403 48.6899,139.279 48.8037,139.155 48.918,139.031 49.0317,138.907 49.146,138.783 49.2598,138.659 49.374,138.535 49.4878,138.411 49.6021,138.287 49.7158,138.163 49.8301,138.039 49.9438,137.915 50.0581,137.791 50.1719,137.667 50.2861,137.543 50.3999,137.419 50.5142,137.295 50.6279,137.171 50.7422,137.047 50.856,136.923 50.9702,136.8 51.084,136.676 51.1982,136.552 51.312,136.428 51.4263,136.304 51.54,136.18 51.6543,136.056 51.7681,135.932 51.8823,135.808 51.9961,135.684 52.1104,135.56 52.2241,135.436 52.3379,135.312 52.4521,135.188 52.5659,135.064 52.6802,134.94 52.7939,134.816 52.9082,134.692 53.022,134.568 53.1362,134.444 53.25,134.32 53.3643,134.197 53.478,134.073 53.5923,133.949 53.7061,133.825 53.8203,133.701 53.9341,133.577 54.0483,133.453 54.1621,133.329 54.2764,133.205 54.3901,133.081 54.5044,132.957 54.6182,132.833 54.7324,132.709 54.8462,132.585 54.9604,132.461 55.0742,132.337 55.1885,132.213 55.3022,132.089 55.4165,131.965 55.5303,131.841 55.6445,131.717 55.7583,131.593 55.8726,131.47 55.9863,131.346 56.1006,131.222 56.2144,131.098 56.3286,130.974 56.4424,130.85 56.5562,130.726 56.6704,130.602 56.7842,130.478 56.8984,130.354 57.0122,130.23 57.1265,130.106 57.2402,129.982 57.3545,129.858 57.4683,129.734 57.5825,129.61 57.6963,129.486 57.8105,129.362 57.9243,129.238 58.0386,129.114 58.1523,128.99 58.2666,128.866 58.3804,128.743 58.4946,128.619 58.6084,128.495 58.7227,128.371 58.8364,128.247 58.9507,128.123 59.0645,127.999 59.1787,127.875 59.2925,127.751 59.4067,127.627 59.5205,127.503 59.6348,127.379 59.7485,127.255 59.8628,127.131 59.9766,127.007 60.0908,126.883 60.2046,126.759 60.3188,126.635 60.4326,126.511 60.5469,126.387 60.6606,126.263 60.7744,126.139 60.8887,126.016 61.0024,125.892 61.1167,125.768 61.2305,125.644 61.3447,125.52 61.4585,125.396 61.5728,125.271 61.6865,125.148 61.8008,125.024 61.9146,124.9 62.0288,124.776 62.1426,124.652 62.2568,124.528 62.3706,124.404 62.4849,124.28 62.5986,124.156 62.7129,124.032 62.8267,123.908 62.9409,123.784 63.0547,123.66 63.1689,123.536 63.2827,123.413 63.397,123.289 63.5107,123.165 63.625,123.041 63.7388,122.917 63.853,122.792 63.9668,122.668 64.0811,122.544 64.1948,122.421 64.3091,122.297 64.4229,122.173 64.5371,122.049 64.6509,121.925 64.7651,121.801 64.8789,121.677 64.9932,121.553 65.1069,121.429 65.2207,121.305 65.335,121.181 65.4487,121.057 65.563,120.933 65.6768,120.809 65.791,120.686 65.9048,120.562 66.019,120.438 66.1328,120.313 66.2471,120.189 66.3608,120.065 66.4751,119.941 66.5889,119.818 66.7031,119.694 66.8169,119.57 66.9312,119.446 67.0449,119.322 67.1592,119.198 67.2729,119.074 67.3872,118.95 67.501,118.826 67.6152,118.702 67.729,118.578 67.8433,118.454 67.957,118.33 68.0713,118.206 68.1851,118.082 68.2993,117.958 68.4131,117.834 68.5273,117.71 68.6411,117.586 68.7554,117.462 68.8691,117.338 68.9834,117.214 69.0972,117.091 69.2114,116.967 69.3252,116.843 69.439,116.719 69.5532,116.595 69.667,116.471 69.7812,116.347 69.895,116.223 70.0093,116.099 70.123,115.975 70.2373,115.851 70.3511,115.727 70.4653,115.603 70.5791,115.479 70.6934,115.355 70.8071,115.231 70.9214,115.107 71.0352,114.983 71.1494,114.859 71.2632,114.735 71.3774,114.611 71.4912,114.487 71.6055,114.364 71.7192,114.24 71.8335,114.116 71.9473,113.992 72.0615,113.868 72.1753,113.744 72.2896,113.62 72.4033,113.496 72.5176,113.372 72.6313,113.248 72.7456,113.124 72.8594,113 72.9736,112.876 73.0874,112.752 73.2017,112.628 73.3154,112.504 73.4297,112.38 73.5435,112.256 73.6572,112.132 73.7715,112.008 73.8853,111.884 73.9995,111.76 74.1133,111.637 74.2275,111.513 74.3413,111.389 74.4556,111.265 74.5693,111.141 74.6836,111.017 74.7974,110.893 74.9116,110.769 75.0254,110.645 75.1396,110.521 75.2534,110.397 75.3677,110.273 75.4814,110.149 75.5957,110.025 75.7095,109.901 75.8237,109.777 75.9375,109.653 76.0518,109.529 76.1655,109.405 76.2798,109.281 76.3936,109.157 76.5078,109.034 76.6216,108.91 76.7358,108.786 76.8496,108.662 76.9639,108.538 77.0776,108.414 77.1919,108.29 77.3057,108.166 77.4199,108.042 77.5337,107.918 77.6479,107.794 77.7617,107.67 77.8755,107.546 77.9897,107.422 78.1035,107.298 78.2178,107.174 78.3315,107.05 78.4458,106.926 78.5596,106.802 78.6738,106.678 78.7876,106.554 78.9019,106.43 79.0156,106.307 79.1299,106.183 79.2437,106.059 79.3579,105.935 79.4717,105.811 79.5859,105.687 79.6997,105.562 79.814,105.439 79.9277,105.315 80.042,105.191 80.1558,105.067 80.27,104.943 80.3838,104.819 80.498,104.695 80.6118,104.571 80.7261,104.447 80.8398,104.323 80.9541,104.199 81.0679,104.075 81.1821,103.951 81.2959,103.827 81.4102,103.703 81.5239,103.58 81.6382,103.456 81.752,103.332 81.8662,103.208 81.98,103.083 82.0942,102.959 82.208,102.835 82.3218,102.712 82.436,102.588 82.5498,102.464 82.6641,102.34 82.7778,102.216 82.8921,102.092 83.0059,101.968 83.1201,101.844 83.2339,101.72 83.3481,101.596 83.4619,101.472 83.5762,101.348 83.6899,101.224 83.8042,101.1 83.918,100.977 84.0322,100.853 84.146,100.729 84.2603,100.604 84.374,100.48 84.4883,100.356 84.6021,100.232 84.7163,100.108 84.8301,99.9849 84.9443,99.8608 85.0581,99.7368 85.1724,99.6128 85.2861,99.4888 85.4004,99.3647 85.5142,99.2407 85.6284,99.1172 85.7422,98.9932 85.8564,98.8691 85.9702,98.7451 86.0845,98.6211 86.1982,98.4971 86.3125,98.373 86.4263,98.2495 86.54,98.1255 86.6543,98.0015 86.7681,97.8774 86.8823,97.7534 86.9961,97.6294 87.1104,97.5054 87.2241,97.3818 87.3384,97.2578 87.4521,97.1338 87.5664,97.0098 87.6802,96.8857 87.7944,96.7617 87.9082,96.6377 88.0225,96.5137 88.1362,96.3901 88.2505,96.2661 88.3643,96.1421 88.4785,96.0181 88.5923,95.894 88.7065,95.77 88.8203,95.646 88.9346,95.5225 89.0483,95.3984 89.1626,95.2744 89.2764,95.1504 89.3906,95.0264 89.5044,94.9023 89.6187,94.7783 89.7324,94.6548 89.8467,94.5308 89.9604,94.4067 90.0747,94.2827 90.1885,94.1587 90.3027,94.0347 90.4165,93.9106 90.5308,93.7871 90.6445,93.6631 90.7583,93.5391 90.8726,93.415 90.9863,93.291 91.1006,93.167 91.2144,93.043 91.3286,92.9189 91.4424,92.7954 91.5566,92.6714 91.6704,92.5474 91.7847,92.4233 91.8984,92.2993 92.0127,92.1753 92.1265,92.0513 92.2407,91.9277 92.3545,91.8037 92.4688,91.6797 92.5825,91.5557 92.6968,91.4316 92.8105,91.3076 92.9248,91.1836 93.0386,91.0601 93.1528,90.936 93.2666,90.812 93.3809,90.688 93.4946,90.564 93.6089,90.4399 93.7227,90.3159 93.8369,90.1924 93.9507,90.0684 94.0649,89.9443 94.1787,89.8203 94.293,89.6963 94.4067,89.5723 94.521,89.4482 94.6348,89.3242 94.749,89.2007 94.8628,89.0767 94.9771,88.9526 95.0908,88.8286 95.2046,88.7046 95.3188,88.5806 95.4326,88.4565 95.5469,88.333 95.6606,88.209 95.7749,88.085 95.8887,87.9609 96.0029,87.8369 96.1167,87.7129 96.231,87.5889 96.3447,87.4653 96.459,87.3413 96.5728,87.2173 96.687,87.0933 96.8008,86.9692 96.915,86.8452 97.0288,86.7212 97.1431,86.5977 97.2568,86.4736 97.3711,86.3496 97.4849,86.2256 97.5991,86.1016 97.7129,85.9775 97.8271,85.8535 97.9409,85.73 98.0552,85.606 98.1689,85.4819 98.2832,85.3579 98.397,85.2339 98.5112,85.1099 98.625,84.9858 98.7393,84.8618 98.853,84.7383 98.9673,84.6143 99.0811,84.4902 99.1953,84.3662 99.3091,84.2422 99.4229,84.1182 99.5371,83.9941 99.6509,83.8706 99.7651,83.7466 99.8789,83.6226 99.9932,83.4985 100.107,83.3745 100.221,83.2505 100.335,83.1265 100.449,83.0029 100.563,82.8789 100.677,82.7549 100.791,82.6309 100.905,82.5068 101.019,82.3828 101.133,82.2588 101.247,82.1353 101.361,82.0112 101.475,81.8872 101.589,81.7632 101.703,81.6392 101.817,81.5151 101.931,81.3911 102.045,81.2671 102.159,81.1436 102.273,81.0195 102.387,80.8955 102.501,80.7715 102.615,80.6475 102.729,80.5234 102.843,80.3994 102.958,80.2759 103.071,80.1519 103.186,80.0278 103.299,79.9038 103.414,79.7798 103.527,79.6558 103.642,79.5317 103.755,79.4082 103.869,79.2842 103.983,79.1602 104.097,79.0361 104.211,78.9121 104.325,78.7881 104.439,78.6641 104.553,78.5405 104.667,78.4165 104.781,78.2925 104.896,78.1685 105.009,78.0444 105.124,77.9204 105.237,77.7964 105.352,77.6724 105.465,77.5488 105.58,77.4248 105.693,77.3008 105.808,77.1768 105.921,77.0527 106.036,76.9287 106.149,76.8047 106.264,76.6812 106.377,76.5571 106.492,76.4331 106.605,76.3091 106.72,76.1851 106.833,76.061 106.948,75.937 107.062,75.8135 107.176,75.6895 107.29,75.5654 107.404,75.4414 107.518,75.3174 107.632,75.1934 107.746,75.0693 107.86,74.9458 107.974,74.8218 108.087,74.6978 108.202,74.5737 108.315,74.4497 108.43,74.3257 108.543,74.2017 108.658,74.0776 108.771,73.9541 108.886,73.8301 109,73.7061 109.114,73.582 109.228,73.458 109.342,73.334 109.456,73.21 109.57,73.0864 109.684,72.9624 109.798,72.8384 109.912,72.7144 110.026,72.5903 110.14,72.4663 110.254,72.3423 110.368,72.2188 110.482,72.0947 110.596,71.9707 110.71,71.8467 110.824,71.7227 110.938,71.5986 111.052,71.4746 111.166,71.3511 111.28,71.2271 111.394,71.103 111.508,70.979 111.622,70.855 111.736,70.731 111.85,70.6069 111.964,70.4829 112.078,70.3594 112.192,70.2354 112.306,70.1113 112.42,69.9873 112.534,69.8633 112.648,69.7393 112.762,69.6152 112.876,69.4917 112.99,69.3677 113.104,69.2437 113.218,69.1196 113.332,68.9956 113.446,68.8716 113.56,68.7476 113.674,68.624 113.788,68.5 113.902,68.376 114.016,68.252 114.13,68.1279 114.244,68.0039 114.358,67.8799 114.472,67.7563 114.586,67.6323 114.7,67.5083 114.814,67.3843 114.928,67.2603 115.042,67.1362 115.156,67.0122 115.27,66.8882 115.384,66.7646 115.498,66.6406 115.612,66.5166 115.726,66.3926 115.84,66.2686 115.954,66.1445 116.068,66.0205 116.182,65.897 116.296,65.7729 116.41,65.6489 116.524,65.5249 116.638,65.4009 116.752,65.2769 116.866,65.1528 116.98,65.0293 117.094,64.9053 117.208,64.7812 117.322,64.6572 117.436,64.5332 117.55,64.4092 117.664,64.2852 117.778,64.1616 117.892,64.0376 118.006,63.9136 118.12,63.7896 118.234,63.6655 118.348,63.5415 118.462,63.4175 118.576,63.2935 118.69,63.1699 118.804,63.0459 118.918,62.9219 119.032,62.7979 119.146,62.6738 119.26,62.5498 119.375,62.4258 119.488,62.3022 119.603,62.1782 119.716,62.0542 119.831,61.9302 119.944,61.8062 120.059,61.6821 120.172,61.5581 120.287,61.4346 120.4,61.3105 120.515,61.1865 120.628,61.0625 120.743,60.9385 120.856,60.8145 120.97,60.6904 121.084,60.5669 121.198,60.4429 121.312,60.3188 121.426,60.1948 121.541,60.0708 121.654,59.9468 121.769,59.8228 121.882,59.6987 121.997,59.5752 122.11,59.4512 122.225,59.3271 122.338,59.2031 122.453,59.0791 122.566,58.9551 122.681,58.8311 122.794,58.7075 122.909,58.5835 123.022,58.4595 123.137,58.3354 123.25,58.2114 123.365,58.0874 123.479,57.9634 123.593,57.8398 123.707,57.7158 123.821,57.5918 123.935,57.4678 124.049,57.3438 124.163,57.2197 124.277,57.0957 124.391,56.9722 124.505,56.8481 124.619,56.7241 124.733,56.6001 124.847,56.4761 124.961,56.3521 125.075,56.228 125.188,56.1045 125.303,55.9805 125.417,55.8564 125.531,55.7324 125.645,55.6084 125.759,55.4844 125.873,55.3604 125.987,55.2363 126.101,55.1128 126.215,54.9888 126.329,54.8647 126.443,54.7407 126.557,54.6167 126.671,54.4927 126.785,54.3687 126.899,54.2451 127.013,54.1211 127.127,53.9971 127.241,53.873 127.355,53.749 127.469,53.625 127.583,53.501 127.697,53.3774 127.811,53.2534 127.925,53.1294 128.039,53.0054 128.153,52.8813 128.267,52.7573 128.381,52.6333 128.495,52.5098 128.609,52.3857 128.723,52.2617 128.837,52.1377 128.951,52.0137 129.065,51.8896 129.179,51.7656 129.293,51.6416 129.407,51.5181 129.521,51.394 129.635,51.27 129.749,51.146 129.863,51.022 129.977,50.8979 130.091,50.7739 130.205,50.6504 130.319,50.5264 130.433,50.4023 130.547,50.2783 130.661,50.1543 130.775,50.0303 130.889,49.9062 131.003,49.7827 131.117,49.6587 131.231,49.5347 131.345,49.4106 131.459,49.2866 131.573,49.1626 131.687,49.0386 131.801,48.915 131.915,48.791 132.029,48.667 132.143,48.543 132.257,48.4189 132.371,48.2949 132.485,48.1709 132.599,48.0469 132.713,47.9233 132.827,47.7993 132.941,47.6753 133.055,47.5513 133.169,47.4272 133.283,47.3032 133.397,47.1792 133.511,47.0557 133.625,46.9316 133.739,46.8076 133.853,46.6836 133.967,46.5596 134.081,46.4355 134.195,46.3115 134.309,46.188 134.423,46.064 134.537,45.9399 134.651,45.8159 134.765,45.6919 134.879,45.5679 134.993,45.4438 135.107,45.3203 135.221,45.1963 135.335,45.0723 135.449,44.9482 135.563,44.8242 135.677,44.7002 135.792,44.5762 135.905,44.4521 136.02,44.3286 136.133,44.2046 136.248,44.0806 136.361,43.9565 136.476,43.8325 136.589,43.7085 136.704,43.5845 136.817,43.4609 136.932,43.3369 137.045,43.2129 137.16,43.0889 137.273,42.9648 137.388,42.8408 137.501,42.7168 137.616,42.5933 137.729,42.4692 137.844,42.3452 137.958,42.2212 138.072,42.0972 138.186,41.9731 138.299,41.8491 138.414,41.7256 138.527,41.6016 138.642,41.4775 138.755,41.3535 138.87,41.2295 138.983,41.1055 139.098,40.9814 139.211,40.8574 139.326,40.7339 139.439,40.6099 139.554,40.4858 139.667,40.3618 139.782,40.2378 139.896,40.1138 140.01,39.9897 140.124,39.8662 140.238,39.7422 140.352,39.6182 140.466,39.4941 140.58,39.3701 140.694,39.2461 140.808,39.1221 140.922,38.9985 141.036,38.8745 141.15,38.7505 141.264,38.6265 141.378,38.5024 141.492,38.3784 141.606,38.2544 141.72,38.1309 141.834,38.0068 141.948,37.8828 142.062,37.7588 142.176,37.6348 142.29,37.5107 142.404,37.3867 142.518,37.2632 142.632,37.1392 142.746,37.0151 142.86,36.8911 142.974,36.7671 143.088,36.6431 143.202,36.519 143.316,36.395 143.43,36.2715 143.544,36.1475 143.658,36.0234 143.772,35.8994 143.886,35.7754 144,35.6514 144.114,35.5273 144.228,35.4038 144.342,35.2798 144.456,35.1558 144.57,35.0317 144.684,34.9077 144.798,34.7837 144.912,34.6597 145.026,34.5361 145.14,34.4121 145.254,34.2881 145.368,34.1641 145.482,34.04 145.596,33.916 145.71,33.792 145.824,33.668 145.938,33.5444 146.052,33.4204 146.166,33.2964 146.28,33.1724 146.394,33.0483 146.508,32.9243 146.622,32.8003 146.736,32.6768 146.85,32.5527 146.964,32.4287 147.078,32.3047 147.192,32.1807 147.306,32.0566 147.42,31.9326 147.534,31.8091 147.648,31.6851 147.762,31.561 147.876,31.437 147.99,31.313 148.104,31.189 148.218,31.0649 148.332,30.9414 148.446,30.8174 148.56,30.6934 148.674,30.5693 148.788,30.4453 148.902,30.3213 149.016,30.1973 149.13,30.0737" stroke-width="0.5" stroke="#000000" stroke-linecap="butt" fill="none"/>
   <polyline stroke-linejoin="miter" points="43.2788,148.372 49.2788,148.372" stroke-width="0.5" stroke="#000000" stroke-linecap="square" fill="none"/>
   <polyline stroke-linejoin="miter" points="46.2788,145.372 46.2788,151.372" stroke-width="0.5" stroke="#000000" stroke-linecap="square" fill="none"/>
   <polyline stroke-linejoin="miter" points="44.1577,146.25 48.4004,150.493" stroke-width="0.5" stroke="#000000" stroke-linecap="square" fill="none"/>
   <polyline stroke-linejoin="miter" points="44.1577,150.493 48.4004,146.25" stroke-width="0.5" stroke="#000000" stroke-linecap="square" fill="none"/>
   <polyline stroke-linejoin="miter" points="100.111,82.1768 106.111,82.1768" stroke-width="0.5" stroke="#000000" stroke-linecap="square" fill="none"/>
   <polyline stroke-linejoin="miter" points="103.111,79.1768 103.111,85.1768" stroke-width="0.5" stroke="#000000" stroke-linecap="square" fill="none"/>
   <polyline stroke-linejoin="miter" points="100.99,80.0552 105.233,84.2979" stroke-width="0.5" stroke="#000000" stroke-linecap="square" fill="none"/>
   <polyline stroke-linejoin="miter" points="100.99,84.2979 105.233,80.0552" stroke-width="0.5" stroke="#000000" stroke-linecap="square" fill="none"/>
   <polyline stroke-linejoin="miter" points="29.4839,152.333 35.4839,152.333" stroke-width="0.5" stroke="#000000" stroke-linecap="square" fill="none"/>
   <polyline stroke-linejoin="miter" points="32.4839,149.333 32.4839,155.333" stroke-width="0.5" stroke="#000000" stroke-linecap="square" fill="none"/>
   <polyline stroke-linejoin="miter" points="30.3623,150.212 34.605,154.455" stroke-width="0.5" stroke="#000000" stroke-linecap="square" fill="none"/>
   <polyline stroke-linejoin="miter" points="30.3623,154.455 34.605,150.212" stroke-width="0.5" stroke="#000000" stroke-linecap="square" fill="none"/>
   <polyline stroke-linejoin="round" points="79.4199,153.906 79.4199,30.0737" stroke-width="0.3" stroke-dasharray="1,3,1,3,1,3,1,3" stroke="#000000" stroke-linecap="butt" fill="none"/>
   <g transform="translate(72.4201,39.9463) rotate(-90,7,-7)" font-family="'Liberation Serif'" xml:space="preserve" font-size="8" font-style="normal" font-weight="normal">
    <text y="-0" fill="rgb(0,0,0)" x="0 3 ">f2</text>
   </g>
   <polyline stroke-linejoin="round" points="111.123,153.906 111.123,30.0737" stroke-width="0.3" stroke-dasharray="1,3,1,3,1,3,1,3" stroke="#000000" stroke-linecap="butt" fill="none"/>
   <g transform="translate(104.123,39.9463) rotate(-90,7,-7)" font-family="'Liberation Serif'" xml:space="preserve" font-size="8" font-style="normal" font-weight="normal">
    <text y="-0" fill="rgb(0,0,0)" x="0 3 ">f3</text>
   </g>
   <polyline stroke-linejoin="round" points="49.6777,153.906 49.6777,30.0737" stroke-width="0.3" stroke-dasharray="1,3,1,3,1,3,1,3" stroke="#000000" stroke-linecap="butt" fill="none"/>
   <g transform="translate(42.6775,39.9463) rotate(-90,7,-7)" font-family="'Liberation Serif'" xml:space="preserve" font-size="8" font-style="normal" font-weight="normal">
    <text y="-0" fill="rgb(0,0,0)" x="0 3 ">f1</text>
   </g>
   <polyline stroke-linejoin="round" points="46.2788,153.906 46.2788,30.0737" stroke-width="0.5" stroke-dasharray="1,3,1,3,1,3,1,3" stroke="#000000" stroke-linecap="butt" fill="none"/>
   <g transform="translate(38.279,52.0422) rotate(-90,8,-7)" font-family="'Liberation Serif'" xml:space="preserve" font-size="8" font-style="normal" font-weight="normal">
    <text y="-0" fill="rgb(0,0,0)" x="0 4 ">a2</text>
   </g>
   <polyline stroke-linejoin="round" points="103.111,153.906 103.111,30.0737" stroke-width="0.5" stroke-dasharray="1,3,1,3,1,3,1,3" stroke="#000000" stroke-linecap="butt" fill="none"/>
   <g transform="translate(95.1114,52.0422) rotate(-90,8,-7)" font-family="'Liberation Serif'" xml:space="preserve" font-size="8" font-style="normal" font-weight="normal">
    <text y="-0" fill="rgb(0,0,0)" x="0 4 ">a3</text>
   </g>
   <polyline stroke-linejoin="round" points="32.4839,153.906 32.4839,30.0737" stroke-width="0.5" stroke-dasharray="1,3,1,3,1,3,1,3" stroke="#000000" stroke-linecap="butt" fill="none"/>
   <g transform="translate(24.4838,52.0422) rotate(-90,8,-7)" font-family="'Liberation Serif'" xml:space="preserve" font-size="8" font-style="normal" font-weight="normal">
    <text y="-0" fill="rgb(0,0,0)" x="0 4 ">a1</text>
   </g>
   <g transform="translate(55.3287,148.334) rotate(-0,-0,-3.5)" font-family="'Liberation Serif'" xml:space="preserve" font-size="8" font-style="normal" font-weight="normal">
    <text y="-0" fill="rgb(0,0,0)" x="0 6 11 17 21 25 28 34 40 43 50 56 61 65 69 72 76 80 ">UCASS-AD-MAZ04-016</text>
   </g>
  </g>
  <clipPath id="cp00176176">
   <polygon points="0,176 176,176 176,0 0,0"/>
  </clipPath>
  <g clip-path="url(#cp00176176)">
   <polyline stroke-linejoin="miter" points="30.0732,30.0737 30.0732,31.4429" stroke-width="0.5" stroke="#262626" stroke-linecap="butt" fill="none"/>
   <polyline stroke-linejoin="miter" points="95.0156,30.0737 95.0156,31.4429" stroke-width="0.5" stroke="#262626" stroke-linecap="butt" fill="none"/>
   <polyline stroke-linejoin="miter" points="123.878,30.0737 123.878,31.4429" stroke-width="0.5" stroke="#262626" stroke-linecap="butt" fill="none"/>
   <polyline stroke-linejoin="miter" points="152.742,30.0737 152.742,31.4429" stroke-width="0.5" stroke="#262626" stroke-linecap="butt" fill="none"/>
   <g transform="translate(28.5735,25.5796) rotate(-0,1.5,0)" font-family="'Liberation Serif'" xml:space="preserve" font-size="6" font-style="normal" font-weight="normal">
    <text y="-1" fill="rgb(38,38,38)" x="0 ">0</text>
   </g>
   <g transform="translate(93.5155,25.5796) rotate(-0,1.5,0)" font-family="'Liberation Serif'" xml:space="preserve" font-size="6" font-style="normal" font-weight="normal">
    <text y="-1" fill="rgb(38,38,38)" x="0 ">9</text>
   </g>
   <g transform="translate(120.879,25.5796) rotate(-0,3,0)" font-family="'Liberation Serif'" xml:space="preserve" font-size="6" font-style="normal" font-weight="normal">
    <text y="-1" fill="rgb(38,38,38)" x="0 3 ">13</text>
   </g>
   <g transform="translate(149.742,25.5796) rotate(-0,3,0)" font-family="'Liberation Serif'" xml:space="preserve" font-size="6" font-style="normal" font-weight="normal">
    <text y="-0" fill="rgb(38,38,38)" x="0 3 ">17</text>
   </g>
   <polyline stroke-linejoin="miter" points="167.173,30.0737 30.0732,30.0737" stroke-width="0.5" stroke-dasharray="16,0" stroke="#262626" stroke-linecap="square" fill="none"/>
   <polyline stroke-linejoin="miter" points="167.173,30.0737 167.173,153.906" stroke-width="0.5" stroke-dasharray="16,0" stroke="#262626" stroke-linecap="square" fill="none"/>
  </g>
 </g>
</svg>
